G04 (created by PCBNEW (2013-02-13 BZR 3947)-testing) date 12/19/2013 8:38:14 AM*
%MOIN*%
G04 Gerber Fmt 3.4, Leading zero omitted, Abs format*
%FSLAX34Y34*%
G01*
G70*
G90*
G04 APERTURE LIST*
%ADD10C,0.006*%
%ADD11C,0.00393701*%
%ADD12C,0.00984252*%
%ADD13C,0.012*%
%ADD14C,0.015*%
%ADD15C,0.00610236*%
%ADD16C,0.019685*%
%ADD17C,0.0026*%
%ADD18C,0.008*%
%ADD19C,4.72441e-006*%
%ADD20C,0.011811*%
%ADD21C,0.00590551*%
%ADD22C,0.00787402*%
%ADD23C,0.00625197*%
%ADD24C,0.081*%
%ADD25R,0.081X0.081*%
%ADD26C,0.1*%
%ADD27C,0.137*%
%ADD28C,0.0750551*%
%ADD29R,0.0317X0.075*%
%ADD30R,0.071X0.051*%
%ADD31C,0.106*%
%ADD32C,0.047*%
%ADD33C,0.0553701*%
%ADD34R,0.110488X0.0908031*%
%ADD35R,0.0632441X0.0986772*%
%ADD36R,0.0337165X0.0711181*%
%ADD37R,0.0632441X0.0908031*%
%ADD38R,0.0553701X0.0553701*%
%ADD39C,0.0514331*%
G04 APERTURE END LIST*
G54D10*
G54D11*
X47027Y-36201D02*
X46908Y-36201D01*
X46908Y-35951D01*
X47205Y-36189D02*
X47182Y-36201D01*
X47134Y-36201D01*
X47110Y-36189D01*
X47098Y-36165D01*
X47098Y-36070D01*
X47110Y-36046D01*
X47134Y-36034D01*
X47182Y-36034D01*
X47205Y-36046D01*
X47217Y-36070D01*
X47217Y-36094D01*
X47098Y-36117D01*
X47289Y-36034D02*
X47384Y-36034D01*
X47325Y-36201D02*
X47325Y-35986D01*
X47336Y-35963D01*
X47360Y-35951D01*
X47384Y-35951D01*
X47432Y-36034D02*
X47527Y-36034D01*
X47467Y-35951D02*
X47467Y-36165D01*
X47479Y-36189D01*
X47503Y-36201D01*
X47527Y-36201D01*
X46902Y-36340D02*
X46950Y-36340D01*
X46973Y-36352D01*
X46997Y-36376D01*
X47009Y-36423D01*
X47009Y-36507D01*
X46997Y-36554D01*
X46973Y-36578D01*
X46950Y-36590D01*
X46902Y-36590D01*
X46878Y-36578D01*
X46854Y-36554D01*
X46842Y-36507D01*
X46842Y-36423D01*
X46854Y-36376D01*
X46878Y-36352D01*
X46902Y-36340D01*
X47116Y-36423D02*
X47116Y-36590D01*
X47116Y-36447D02*
X47128Y-36435D01*
X47152Y-36423D01*
X47188Y-36423D01*
X47211Y-36435D01*
X47223Y-36459D01*
X47223Y-36590D01*
X47378Y-36590D02*
X47354Y-36578D01*
X47342Y-36554D01*
X47342Y-36340D01*
X47450Y-36423D02*
X47509Y-36590D01*
X47569Y-36423D02*
X47509Y-36590D01*
X47485Y-36650D01*
X47473Y-36661D01*
X47450Y-36673D01*
X54728Y-36401D02*
X54609Y-36401D01*
X54609Y-36151D01*
X54907Y-36389D02*
X54883Y-36401D01*
X54835Y-36401D01*
X54811Y-36389D01*
X54800Y-36365D01*
X54800Y-36270D01*
X54811Y-36246D01*
X54835Y-36234D01*
X54883Y-36234D01*
X54907Y-36246D01*
X54919Y-36270D01*
X54919Y-36294D01*
X54800Y-36317D01*
X54990Y-36234D02*
X55085Y-36234D01*
X55026Y-36401D02*
X55026Y-36186D01*
X55038Y-36163D01*
X55061Y-36151D01*
X55085Y-36151D01*
X55133Y-36234D02*
X55228Y-36234D01*
X55169Y-36151D02*
X55169Y-36365D01*
X55180Y-36389D01*
X55204Y-36401D01*
X55228Y-36401D01*
X55550Y-36151D02*
X55597Y-36151D01*
X55621Y-36163D01*
X55645Y-36186D01*
X55657Y-36234D01*
X55657Y-36317D01*
X55645Y-36365D01*
X55621Y-36389D01*
X55597Y-36401D01*
X55550Y-36401D01*
X55526Y-36389D01*
X55502Y-36365D01*
X55490Y-36317D01*
X55490Y-36234D01*
X55502Y-36186D01*
X55526Y-36163D01*
X55550Y-36151D01*
X55764Y-36234D02*
X55764Y-36401D01*
X55764Y-36258D02*
X55776Y-36246D01*
X55800Y-36234D01*
X55835Y-36234D01*
X55859Y-36246D01*
X55871Y-36270D01*
X55871Y-36401D01*
X56026Y-36401D02*
X56002Y-36389D01*
X55990Y-36365D01*
X55990Y-36151D01*
X56097Y-36234D02*
X56157Y-36401D01*
X56216Y-36234D02*
X56157Y-36401D01*
X56133Y-36460D01*
X56121Y-36472D01*
X56097Y-36484D01*
G54D12*
X46873Y-24091D02*
X46648Y-24091D01*
X46648Y-23618D01*
X47211Y-24068D02*
X47166Y-24091D01*
X47076Y-24091D01*
X47031Y-24068D01*
X47008Y-24023D01*
X47008Y-23843D01*
X47031Y-23798D01*
X47076Y-23776D01*
X47166Y-23776D01*
X47211Y-23798D01*
X47233Y-23843D01*
X47233Y-23888D01*
X47008Y-23933D01*
X47368Y-23776D02*
X47548Y-23776D01*
X47436Y-24091D02*
X47436Y-23686D01*
X47458Y-23641D01*
X47503Y-23618D01*
X47548Y-23618D01*
X47638Y-23776D02*
X47818Y-23776D01*
X47706Y-23618D02*
X47706Y-24023D01*
X47728Y-24068D01*
X47773Y-24091D01*
X47818Y-24091D01*
X46637Y-24378D02*
X46727Y-24378D01*
X46772Y-24401D01*
X46817Y-24446D01*
X46840Y-24536D01*
X46840Y-24693D01*
X46817Y-24783D01*
X46772Y-24828D01*
X46727Y-24851D01*
X46637Y-24851D01*
X46592Y-24828D01*
X46547Y-24783D01*
X46525Y-24693D01*
X46525Y-24536D01*
X46547Y-24446D01*
X46592Y-24401D01*
X46637Y-24378D01*
X47042Y-24536D02*
X47042Y-24851D01*
X47042Y-24581D02*
X47065Y-24558D01*
X47110Y-24536D01*
X47177Y-24536D01*
X47222Y-24558D01*
X47244Y-24603D01*
X47244Y-24851D01*
X47537Y-24851D02*
X47492Y-24828D01*
X47469Y-24783D01*
X47469Y-24378D01*
X47672Y-24536D02*
X47784Y-24851D01*
X47897Y-24536D02*
X47784Y-24851D01*
X47739Y-24963D01*
X47717Y-24986D01*
X47672Y-25008D01*
X46873Y-31691D02*
X46648Y-31691D01*
X46648Y-31218D01*
X47211Y-31668D02*
X47166Y-31691D01*
X47076Y-31691D01*
X47031Y-31668D01*
X47008Y-31623D01*
X47008Y-31443D01*
X47031Y-31398D01*
X47076Y-31376D01*
X47166Y-31376D01*
X47211Y-31398D01*
X47233Y-31443D01*
X47233Y-31488D01*
X47008Y-31533D01*
X47368Y-31376D02*
X47548Y-31376D01*
X47436Y-31691D02*
X47436Y-31286D01*
X47458Y-31241D01*
X47503Y-31218D01*
X47548Y-31218D01*
X47638Y-31376D02*
X47818Y-31376D01*
X47706Y-31218D02*
X47706Y-31623D01*
X47728Y-31668D01*
X47773Y-31691D01*
X47818Y-31691D01*
X46637Y-31978D02*
X46727Y-31978D01*
X46772Y-32001D01*
X46817Y-32046D01*
X46840Y-32136D01*
X46840Y-32293D01*
X46817Y-32383D01*
X46772Y-32428D01*
X46727Y-32451D01*
X46637Y-32451D01*
X46592Y-32428D01*
X46547Y-32383D01*
X46525Y-32293D01*
X46525Y-32136D01*
X46547Y-32046D01*
X46592Y-32001D01*
X46637Y-31978D01*
X47042Y-32136D02*
X47042Y-32451D01*
X47042Y-32181D02*
X47065Y-32158D01*
X47110Y-32136D01*
X47177Y-32136D01*
X47222Y-32158D01*
X47244Y-32203D01*
X47244Y-32451D01*
X47537Y-32451D02*
X47492Y-32428D01*
X47469Y-32383D01*
X47469Y-31978D01*
X47672Y-32136D02*
X47784Y-32451D01*
X47897Y-32136D02*
X47784Y-32451D01*
X47739Y-32563D01*
X47717Y-32586D01*
X47672Y-32608D01*
X50807Y-56668D02*
X50875Y-56691D01*
X50987Y-56691D01*
X51032Y-56668D01*
X51055Y-56646D01*
X51077Y-56601D01*
X51077Y-56556D01*
X51055Y-56511D01*
X51032Y-56488D01*
X50987Y-56466D01*
X50897Y-56443D01*
X50852Y-56421D01*
X50830Y-56398D01*
X50807Y-56353D01*
X50807Y-56308D01*
X50830Y-56263D01*
X50852Y-56241D01*
X50897Y-56218D01*
X51010Y-56218D01*
X51077Y-56241D01*
X51235Y-56218D02*
X51347Y-56691D01*
X51437Y-56353D01*
X51527Y-56691D01*
X51640Y-56218D01*
X52067Y-56691D02*
X51797Y-56691D01*
X51932Y-56691D02*
X51932Y-56218D01*
X51887Y-56286D01*
X51842Y-56331D01*
X51797Y-56353D01*
X52269Y-56646D02*
X52292Y-56668D01*
X52269Y-56691D01*
X52247Y-56668D01*
X52269Y-56646D01*
X52269Y-56691D01*
X52269Y-56398D02*
X52292Y-56421D01*
X52269Y-56443D01*
X52247Y-56421D01*
X52269Y-56398D01*
X52269Y-56443D01*
X52742Y-56691D02*
X52472Y-56691D01*
X52607Y-56691D02*
X52607Y-56218D01*
X52562Y-56286D01*
X52517Y-56331D01*
X52472Y-56353D01*
X53034Y-56218D02*
X53079Y-56218D01*
X53124Y-56241D01*
X53147Y-56263D01*
X53169Y-56308D01*
X53192Y-56398D01*
X53192Y-56511D01*
X53169Y-56601D01*
X53147Y-56646D01*
X53124Y-56668D01*
X53079Y-56691D01*
X53034Y-56691D01*
X52989Y-56668D01*
X52967Y-56646D01*
X52944Y-56601D01*
X52922Y-56511D01*
X52922Y-56398D01*
X52944Y-56308D01*
X52967Y-56263D01*
X52989Y-56241D01*
X53034Y-56218D01*
X73407Y-58568D02*
X73475Y-58591D01*
X73587Y-58591D01*
X73632Y-58568D01*
X73655Y-58546D01*
X73677Y-58501D01*
X73677Y-58456D01*
X73655Y-58411D01*
X73632Y-58388D01*
X73587Y-58366D01*
X73497Y-58343D01*
X73452Y-58321D01*
X73430Y-58298D01*
X73407Y-58253D01*
X73407Y-58208D01*
X73430Y-58163D01*
X73452Y-58141D01*
X73497Y-58118D01*
X73610Y-58118D01*
X73677Y-58141D01*
X73835Y-58118D02*
X73947Y-58591D01*
X74037Y-58253D01*
X74127Y-58591D01*
X74240Y-58118D01*
X74667Y-58591D02*
X74397Y-58591D01*
X74532Y-58591D02*
X74532Y-58118D01*
X74487Y-58186D01*
X74442Y-58231D01*
X74397Y-58253D01*
X74869Y-58546D02*
X74892Y-58568D01*
X74869Y-58591D01*
X74847Y-58568D01*
X74869Y-58546D01*
X74869Y-58591D01*
X74869Y-58298D02*
X74892Y-58321D01*
X74869Y-58343D01*
X74847Y-58321D01*
X74869Y-58298D01*
X74869Y-58343D01*
X75342Y-58591D02*
X75072Y-58591D01*
X75207Y-58591D02*
X75207Y-58118D01*
X75162Y-58186D01*
X75117Y-58231D01*
X75072Y-58253D01*
X75499Y-58118D02*
X75792Y-58118D01*
X75634Y-58298D01*
X75702Y-58298D01*
X75747Y-58321D01*
X75769Y-58343D01*
X75792Y-58388D01*
X75792Y-58501D01*
X75769Y-58546D01*
X75747Y-58568D01*
X75702Y-58591D01*
X75567Y-58591D01*
X75522Y-58568D01*
X75499Y-58546D01*
X65807Y-58568D02*
X65875Y-58591D01*
X65987Y-58591D01*
X66032Y-58568D01*
X66055Y-58546D01*
X66077Y-58501D01*
X66077Y-58456D01*
X66055Y-58411D01*
X66032Y-58388D01*
X65987Y-58366D01*
X65897Y-58343D01*
X65852Y-58321D01*
X65830Y-58298D01*
X65807Y-58253D01*
X65807Y-58208D01*
X65830Y-58163D01*
X65852Y-58141D01*
X65897Y-58118D01*
X66010Y-58118D01*
X66077Y-58141D01*
X66235Y-58118D02*
X66347Y-58591D01*
X66437Y-58253D01*
X66527Y-58591D01*
X66640Y-58118D01*
X67067Y-58591D02*
X66797Y-58591D01*
X66932Y-58591D02*
X66932Y-58118D01*
X66887Y-58186D01*
X66842Y-58231D01*
X66797Y-58253D01*
X67269Y-58546D02*
X67292Y-58568D01*
X67269Y-58591D01*
X67247Y-58568D01*
X67269Y-58546D01*
X67269Y-58591D01*
X67269Y-58298D02*
X67292Y-58321D01*
X67269Y-58343D01*
X67247Y-58321D01*
X67269Y-58298D01*
X67269Y-58343D01*
X67742Y-58591D02*
X67472Y-58591D01*
X67607Y-58591D02*
X67607Y-58118D01*
X67562Y-58186D01*
X67517Y-58231D01*
X67472Y-58253D01*
X67922Y-58163D02*
X67944Y-58141D01*
X67989Y-58118D01*
X68102Y-58118D01*
X68147Y-58141D01*
X68169Y-58163D01*
X68192Y-58208D01*
X68192Y-58253D01*
X68169Y-58321D01*
X67899Y-58591D01*
X68192Y-58591D01*
X58307Y-57368D02*
X58375Y-57391D01*
X58487Y-57391D01*
X58532Y-57368D01*
X58555Y-57346D01*
X58577Y-57301D01*
X58577Y-57256D01*
X58555Y-57211D01*
X58532Y-57188D01*
X58487Y-57166D01*
X58397Y-57143D01*
X58352Y-57121D01*
X58330Y-57098D01*
X58307Y-57053D01*
X58307Y-57008D01*
X58330Y-56963D01*
X58352Y-56941D01*
X58397Y-56918D01*
X58510Y-56918D01*
X58577Y-56941D01*
X58735Y-56918D02*
X58847Y-57391D01*
X58937Y-57053D01*
X59027Y-57391D01*
X59140Y-56918D01*
X59567Y-57391D02*
X59297Y-57391D01*
X59432Y-57391D02*
X59432Y-56918D01*
X59387Y-56986D01*
X59342Y-57031D01*
X59297Y-57053D01*
X59769Y-57346D02*
X59792Y-57368D01*
X59769Y-57391D01*
X59747Y-57368D01*
X59769Y-57346D01*
X59769Y-57391D01*
X59769Y-57098D02*
X59792Y-57121D01*
X59769Y-57143D01*
X59747Y-57121D01*
X59769Y-57098D01*
X59769Y-57143D01*
X60242Y-57391D02*
X59972Y-57391D01*
X60107Y-57391D02*
X60107Y-56918D01*
X60062Y-56986D01*
X60017Y-57031D01*
X59972Y-57053D01*
X60692Y-57391D02*
X60422Y-57391D01*
X60557Y-57391D02*
X60557Y-56918D01*
X60512Y-56986D01*
X60467Y-57031D01*
X60422Y-57053D01*
X40032Y-57368D02*
X40100Y-57391D01*
X40212Y-57391D01*
X40257Y-57368D01*
X40280Y-57346D01*
X40302Y-57301D01*
X40302Y-57256D01*
X40280Y-57211D01*
X40257Y-57188D01*
X40212Y-57166D01*
X40122Y-57143D01*
X40077Y-57121D01*
X40055Y-57098D01*
X40032Y-57053D01*
X40032Y-57008D01*
X40055Y-56963D01*
X40077Y-56941D01*
X40122Y-56918D01*
X40235Y-56918D01*
X40302Y-56941D01*
X40460Y-56918D02*
X40572Y-57391D01*
X40662Y-57053D01*
X40752Y-57391D01*
X40865Y-56918D01*
X41292Y-57391D02*
X41022Y-57391D01*
X41157Y-57391D02*
X41157Y-56918D01*
X41112Y-56986D01*
X41067Y-57031D01*
X41022Y-57053D01*
X41494Y-57346D02*
X41517Y-57368D01*
X41494Y-57391D01*
X41472Y-57368D01*
X41494Y-57346D01*
X41494Y-57391D01*
X41494Y-57098D02*
X41517Y-57121D01*
X41494Y-57143D01*
X41472Y-57121D01*
X41494Y-57098D01*
X41494Y-57143D01*
X41742Y-57391D02*
X41832Y-57391D01*
X41877Y-57368D01*
X41899Y-57346D01*
X41944Y-57278D01*
X41967Y-57188D01*
X41967Y-57008D01*
X41944Y-56963D01*
X41922Y-56941D01*
X41877Y-56918D01*
X41787Y-56918D01*
X41742Y-56941D01*
X41719Y-56963D01*
X41697Y-57008D01*
X41697Y-57121D01*
X41719Y-57166D01*
X41742Y-57188D01*
X41787Y-57211D01*
X41877Y-57211D01*
X41922Y-57188D01*
X41944Y-57166D01*
X41967Y-57121D01*
X43832Y-49868D02*
X43900Y-49891D01*
X44012Y-49891D01*
X44057Y-49868D01*
X44080Y-49846D01*
X44102Y-49801D01*
X44102Y-49756D01*
X44080Y-49711D01*
X44057Y-49688D01*
X44012Y-49666D01*
X43922Y-49643D01*
X43877Y-49621D01*
X43855Y-49598D01*
X43832Y-49553D01*
X43832Y-49508D01*
X43855Y-49463D01*
X43877Y-49441D01*
X43922Y-49418D01*
X44035Y-49418D01*
X44102Y-49441D01*
X44260Y-49418D02*
X44372Y-49891D01*
X44462Y-49553D01*
X44552Y-49891D01*
X44665Y-49418D01*
X44822Y-49463D02*
X44844Y-49441D01*
X44889Y-49418D01*
X45002Y-49418D01*
X45047Y-49441D01*
X45069Y-49463D01*
X45092Y-49508D01*
X45092Y-49553D01*
X45069Y-49621D01*
X44800Y-49891D01*
X45092Y-49891D01*
X45294Y-49846D02*
X45317Y-49868D01*
X45294Y-49891D01*
X45272Y-49868D01*
X45294Y-49846D01*
X45294Y-49891D01*
X45294Y-49598D02*
X45317Y-49621D01*
X45294Y-49643D01*
X45272Y-49621D01*
X45294Y-49598D01*
X45294Y-49643D01*
X45542Y-49891D02*
X45632Y-49891D01*
X45677Y-49868D01*
X45699Y-49846D01*
X45744Y-49778D01*
X45767Y-49688D01*
X45767Y-49508D01*
X45744Y-49463D01*
X45722Y-49441D01*
X45677Y-49418D01*
X45587Y-49418D01*
X45542Y-49441D01*
X45519Y-49463D01*
X45497Y-49508D01*
X45497Y-49621D01*
X45519Y-49666D01*
X45542Y-49688D01*
X45587Y-49711D01*
X45677Y-49711D01*
X45722Y-49688D01*
X45744Y-49666D01*
X45767Y-49621D01*
X58307Y-49868D02*
X58375Y-49891D01*
X58487Y-49891D01*
X58532Y-49868D01*
X58555Y-49846D01*
X58577Y-49801D01*
X58577Y-49756D01*
X58555Y-49711D01*
X58532Y-49688D01*
X58487Y-49666D01*
X58397Y-49643D01*
X58352Y-49621D01*
X58330Y-49598D01*
X58307Y-49553D01*
X58307Y-49508D01*
X58330Y-49463D01*
X58352Y-49441D01*
X58397Y-49418D01*
X58510Y-49418D01*
X58577Y-49441D01*
X58735Y-49418D02*
X58847Y-49891D01*
X58937Y-49553D01*
X59027Y-49891D01*
X59140Y-49418D01*
X59297Y-49463D02*
X59320Y-49441D01*
X59365Y-49418D01*
X59477Y-49418D01*
X59522Y-49441D01*
X59544Y-49463D01*
X59567Y-49508D01*
X59567Y-49553D01*
X59544Y-49621D01*
X59275Y-49891D01*
X59567Y-49891D01*
X59769Y-49846D02*
X59792Y-49868D01*
X59769Y-49891D01*
X59747Y-49868D01*
X59769Y-49846D01*
X59769Y-49891D01*
X59769Y-49598D02*
X59792Y-49621D01*
X59769Y-49643D01*
X59747Y-49621D01*
X59769Y-49598D01*
X59769Y-49643D01*
X60242Y-49891D02*
X59972Y-49891D01*
X60107Y-49891D02*
X60107Y-49418D01*
X60062Y-49486D01*
X60017Y-49531D01*
X59972Y-49553D01*
X60692Y-49891D02*
X60422Y-49891D01*
X60557Y-49891D02*
X60557Y-49418D01*
X60512Y-49486D01*
X60467Y-49531D01*
X60422Y-49553D01*
X65807Y-51068D02*
X65875Y-51091D01*
X65987Y-51091D01*
X66032Y-51068D01*
X66055Y-51046D01*
X66077Y-51001D01*
X66077Y-50956D01*
X66055Y-50911D01*
X66032Y-50888D01*
X65987Y-50866D01*
X65897Y-50843D01*
X65852Y-50821D01*
X65830Y-50798D01*
X65807Y-50753D01*
X65807Y-50708D01*
X65830Y-50663D01*
X65852Y-50641D01*
X65897Y-50618D01*
X66010Y-50618D01*
X66077Y-50641D01*
X66235Y-50618D02*
X66347Y-51091D01*
X66437Y-50753D01*
X66527Y-51091D01*
X66640Y-50618D01*
X66797Y-50663D02*
X66820Y-50641D01*
X66865Y-50618D01*
X66977Y-50618D01*
X67022Y-50641D01*
X67044Y-50663D01*
X67067Y-50708D01*
X67067Y-50753D01*
X67044Y-50821D01*
X66775Y-51091D01*
X67067Y-51091D01*
X67269Y-51046D02*
X67292Y-51068D01*
X67269Y-51091D01*
X67247Y-51068D01*
X67269Y-51046D01*
X67269Y-51091D01*
X67269Y-50798D02*
X67292Y-50821D01*
X67269Y-50843D01*
X67247Y-50821D01*
X67269Y-50798D01*
X67269Y-50843D01*
X67742Y-51091D02*
X67472Y-51091D01*
X67607Y-51091D02*
X67607Y-50618D01*
X67562Y-50686D01*
X67517Y-50731D01*
X67472Y-50753D01*
X67922Y-50663D02*
X67944Y-50641D01*
X67989Y-50618D01*
X68102Y-50618D01*
X68147Y-50641D01*
X68169Y-50663D01*
X68192Y-50708D01*
X68192Y-50753D01*
X68169Y-50821D01*
X67899Y-51091D01*
X68192Y-51091D01*
X73307Y-51168D02*
X73375Y-51191D01*
X73487Y-51191D01*
X73532Y-51168D01*
X73555Y-51146D01*
X73577Y-51101D01*
X73577Y-51056D01*
X73555Y-51011D01*
X73532Y-50988D01*
X73487Y-50966D01*
X73397Y-50943D01*
X73352Y-50921D01*
X73330Y-50898D01*
X73307Y-50853D01*
X73307Y-50808D01*
X73330Y-50763D01*
X73352Y-50741D01*
X73397Y-50718D01*
X73510Y-50718D01*
X73577Y-50741D01*
X73735Y-50718D02*
X73847Y-51191D01*
X73937Y-50853D01*
X74027Y-51191D01*
X74140Y-50718D01*
X74297Y-50763D02*
X74320Y-50741D01*
X74365Y-50718D01*
X74477Y-50718D01*
X74522Y-50741D01*
X74544Y-50763D01*
X74567Y-50808D01*
X74567Y-50853D01*
X74544Y-50921D01*
X74275Y-51191D01*
X74567Y-51191D01*
X74769Y-51146D02*
X74792Y-51168D01*
X74769Y-51191D01*
X74747Y-51168D01*
X74769Y-51146D01*
X74769Y-51191D01*
X74769Y-50898D02*
X74792Y-50921D01*
X74769Y-50943D01*
X74747Y-50921D01*
X74769Y-50898D01*
X74769Y-50943D01*
X75242Y-51191D02*
X74972Y-51191D01*
X75107Y-51191D02*
X75107Y-50718D01*
X75062Y-50786D01*
X75017Y-50831D01*
X74972Y-50853D01*
X75399Y-50718D02*
X75692Y-50718D01*
X75534Y-50898D01*
X75602Y-50898D01*
X75647Y-50921D01*
X75669Y-50943D01*
X75692Y-50988D01*
X75692Y-51101D01*
X75669Y-51146D01*
X75647Y-51168D01*
X75602Y-51191D01*
X75467Y-51191D01*
X75422Y-51168D01*
X75399Y-51146D01*
X50907Y-49168D02*
X50975Y-49191D01*
X51087Y-49191D01*
X51132Y-49168D01*
X51155Y-49146D01*
X51177Y-49101D01*
X51177Y-49056D01*
X51155Y-49011D01*
X51132Y-48988D01*
X51087Y-48966D01*
X50997Y-48943D01*
X50952Y-48921D01*
X50930Y-48898D01*
X50907Y-48853D01*
X50907Y-48808D01*
X50930Y-48763D01*
X50952Y-48741D01*
X50997Y-48718D01*
X51110Y-48718D01*
X51177Y-48741D01*
X51335Y-48718D02*
X51447Y-49191D01*
X51537Y-48853D01*
X51627Y-49191D01*
X51740Y-48718D01*
X51897Y-48763D02*
X51920Y-48741D01*
X51965Y-48718D01*
X52077Y-48718D01*
X52122Y-48741D01*
X52144Y-48763D01*
X52167Y-48808D01*
X52167Y-48853D01*
X52144Y-48921D01*
X51875Y-49191D01*
X52167Y-49191D01*
X52369Y-49146D02*
X52392Y-49168D01*
X52369Y-49191D01*
X52347Y-49168D01*
X52369Y-49146D01*
X52369Y-49191D01*
X52369Y-48898D02*
X52392Y-48921D01*
X52369Y-48943D01*
X52347Y-48921D01*
X52369Y-48898D01*
X52369Y-48943D01*
X52842Y-49191D02*
X52572Y-49191D01*
X52707Y-49191D02*
X52707Y-48718D01*
X52662Y-48786D01*
X52617Y-48831D01*
X52572Y-48853D01*
X53134Y-48718D02*
X53179Y-48718D01*
X53224Y-48741D01*
X53247Y-48763D01*
X53269Y-48808D01*
X53292Y-48898D01*
X53292Y-49011D01*
X53269Y-49101D01*
X53247Y-49146D01*
X53224Y-49168D01*
X53179Y-49191D01*
X53134Y-49191D01*
X53089Y-49168D01*
X53067Y-49146D01*
X53044Y-49101D01*
X53022Y-49011D01*
X53022Y-48898D01*
X53044Y-48808D01*
X53067Y-48763D01*
X53089Y-48741D01*
X53134Y-48718D01*
X36282Y-49668D02*
X36350Y-49691D01*
X36462Y-49691D01*
X36507Y-49668D01*
X36530Y-49646D01*
X36552Y-49601D01*
X36552Y-49556D01*
X36530Y-49511D01*
X36507Y-49488D01*
X36462Y-49466D01*
X36372Y-49443D01*
X36327Y-49421D01*
X36305Y-49398D01*
X36282Y-49353D01*
X36282Y-49308D01*
X36305Y-49263D01*
X36327Y-49241D01*
X36372Y-49218D01*
X36485Y-49218D01*
X36552Y-49241D01*
X36710Y-49218D02*
X36822Y-49691D01*
X36912Y-49353D01*
X37002Y-49691D01*
X37115Y-49218D01*
X37272Y-49263D02*
X37294Y-49241D01*
X37339Y-49218D01*
X37452Y-49218D01*
X37497Y-49241D01*
X37519Y-49263D01*
X37542Y-49308D01*
X37542Y-49353D01*
X37519Y-49421D01*
X37250Y-49691D01*
X37542Y-49691D01*
X37744Y-49646D02*
X37767Y-49668D01*
X37744Y-49691D01*
X37722Y-49668D01*
X37744Y-49646D01*
X37744Y-49691D01*
X37744Y-49398D02*
X37767Y-49421D01*
X37744Y-49443D01*
X37722Y-49421D01*
X37744Y-49398D01*
X37744Y-49443D01*
X38037Y-49421D02*
X37992Y-49398D01*
X37969Y-49376D01*
X37947Y-49331D01*
X37947Y-49308D01*
X37969Y-49263D01*
X37992Y-49241D01*
X38037Y-49218D01*
X38127Y-49218D01*
X38172Y-49241D01*
X38194Y-49263D01*
X38217Y-49308D01*
X38217Y-49331D01*
X38194Y-49376D01*
X38172Y-49398D01*
X38127Y-49421D01*
X38037Y-49421D01*
X37992Y-49443D01*
X37969Y-49466D01*
X37947Y-49511D01*
X37947Y-49601D01*
X37969Y-49646D01*
X37992Y-49668D01*
X38037Y-49691D01*
X38127Y-49691D01*
X38172Y-49668D01*
X38194Y-49646D01*
X38217Y-49601D01*
X38217Y-49511D01*
X38194Y-49466D01*
X38172Y-49443D01*
X38127Y-49421D01*
X36282Y-42168D02*
X36350Y-42191D01*
X36462Y-42191D01*
X36507Y-42168D01*
X36530Y-42146D01*
X36552Y-42101D01*
X36552Y-42056D01*
X36530Y-42011D01*
X36507Y-41988D01*
X36462Y-41966D01*
X36372Y-41943D01*
X36327Y-41921D01*
X36305Y-41898D01*
X36282Y-41853D01*
X36282Y-41808D01*
X36305Y-41763D01*
X36327Y-41741D01*
X36372Y-41718D01*
X36485Y-41718D01*
X36552Y-41741D01*
X36710Y-41718D02*
X36822Y-42191D01*
X36912Y-41853D01*
X37002Y-42191D01*
X37115Y-41718D01*
X37250Y-41718D02*
X37542Y-41718D01*
X37384Y-41898D01*
X37452Y-41898D01*
X37497Y-41921D01*
X37519Y-41943D01*
X37542Y-41988D01*
X37542Y-42101D01*
X37519Y-42146D01*
X37497Y-42168D01*
X37452Y-42191D01*
X37317Y-42191D01*
X37272Y-42168D01*
X37250Y-42146D01*
X37744Y-42146D02*
X37767Y-42168D01*
X37744Y-42191D01*
X37722Y-42168D01*
X37744Y-42146D01*
X37744Y-42191D01*
X37744Y-41898D02*
X37767Y-41921D01*
X37744Y-41943D01*
X37722Y-41921D01*
X37744Y-41898D01*
X37744Y-41943D01*
X38037Y-41921D02*
X37992Y-41898D01*
X37969Y-41876D01*
X37947Y-41831D01*
X37947Y-41808D01*
X37969Y-41763D01*
X37992Y-41741D01*
X38037Y-41718D01*
X38127Y-41718D01*
X38172Y-41741D01*
X38194Y-41763D01*
X38217Y-41808D01*
X38217Y-41831D01*
X38194Y-41876D01*
X38172Y-41898D01*
X38127Y-41921D01*
X38037Y-41921D01*
X37992Y-41943D01*
X37969Y-41966D01*
X37947Y-42011D01*
X37947Y-42101D01*
X37969Y-42146D01*
X37992Y-42168D01*
X38037Y-42191D01*
X38127Y-42191D01*
X38172Y-42168D01*
X38194Y-42146D01*
X38217Y-42101D01*
X38217Y-42011D01*
X38194Y-41966D01*
X38172Y-41943D01*
X38127Y-41921D01*
X43632Y-34768D02*
X43700Y-34791D01*
X43812Y-34791D01*
X43857Y-34768D01*
X43880Y-34746D01*
X43902Y-34701D01*
X43902Y-34656D01*
X43880Y-34611D01*
X43857Y-34588D01*
X43812Y-34566D01*
X43722Y-34543D01*
X43677Y-34521D01*
X43655Y-34498D01*
X43632Y-34453D01*
X43632Y-34408D01*
X43655Y-34363D01*
X43677Y-34341D01*
X43722Y-34318D01*
X43835Y-34318D01*
X43902Y-34341D01*
X44060Y-34318D02*
X44172Y-34791D01*
X44262Y-34453D01*
X44352Y-34791D01*
X44465Y-34318D01*
X44847Y-34476D02*
X44847Y-34791D01*
X44734Y-34296D02*
X44622Y-34633D01*
X44914Y-34633D01*
X45094Y-34746D02*
X45117Y-34768D01*
X45094Y-34791D01*
X45072Y-34768D01*
X45094Y-34746D01*
X45094Y-34791D01*
X45094Y-34498D02*
X45117Y-34521D01*
X45094Y-34543D01*
X45072Y-34521D01*
X45094Y-34498D01*
X45094Y-34543D01*
X45342Y-34791D02*
X45432Y-34791D01*
X45477Y-34768D01*
X45499Y-34746D01*
X45544Y-34678D01*
X45567Y-34588D01*
X45567Y-34408D01*
X45544Y-34363D01*
X45522Y-34341D01*
X45477Y-34318D01*
X45387Y-34318D01*
X45342Y-34341D01*
X45319Y-34363D01*
X45297Y-34408D01*
X45297Y-34521D01*
X45319Y-34566D01*
X45342Y-34588D01*
X45387Y-34611D01*
X45477Y-34611D01*
X45522Y-34588D01*
X45544Y-34566D01*
X45567Y-34521D01*
X50807Y-41668D02*
X50875Y-41691D01*
X50987Y-41691D01*
X51032Y-41668D01*
X51055Y-41646D01*
X51077Y-41601D01*
X51077Y-41556D01*
X51055Y-41511D01*
X51032Y-41488D01*
X50987Y-41466D01*
X50897Y-41443D01*
X50852Y-41421D01*
X50830Y-41398D01*
X50807Y-41353D01*
X50807Y-41308D01*
X50830Y-41263D01*
X50852Y-41241D01*
X50897Y-41218D01*
X51010Y-41218D01*
X51077Y-41241D01*
X51235Y-41218D02*
X51347Y-41691D01*
X51437Y-41353D01*
X51527Y-41691D01*
X51640Y-41218D01*
X51775Y-41218D02*
X52067Y-41218D01*
X51910Y-41398D01*
X51977Y-41398D01*
X52022Y-41421D01*
X52044Y-41443D01*
X52067Y-41488D01*
X52067Y-41601D01*
X52044Y-41646D01*
X52022Y-41668D01*
X51977Y-41691D01*
X51842Y-41691D01*
X51797Y-41668D01*
X51775Y-41646D01*
X52269Y-41646D02*
X52292Y-41668D01*
X52269Y-41691D01*
X52247Y-41668D01*
X52269Y-41646D01*
X52269Y-41691D01*
X52269Y-41398D02*
X52292Y-41421D01*
X52269Y-41443D01*
X52247Y-41421D01*
X52269Y-41398D01*
X52269Y-41443D01*
X52742Y-41691D02*
X52472Y-41691D01*
X52607Y-41691D02*
X52607Y-41218D01*
X52562Y-41286D01*
X52517Y-41331D01*
X52472Y-41353D01*
X53034Y-41218D02*
X53079Y-41218D01*
X53124Y-41241D01*
X53147Y-41263D01*
X53169Y-41308D01*
X53192Y-41398D01*
X53192Y-41511D01*
X53169Y-41601D01*
X53147Y-41646D01*
X53124Y-41668D01*
X53079Y-41691D01*
X53034Y-41691D01*
X52989Y-41668D01*
X52967Y-41646D01*
X52944Y-41601D01*
X52922Y-41511D01*
X52922Y-41398D01*
X52944Y-41308D01*
X52967Y-41263D01*
X52989Y-41241D01*
X53034Y-41218D01*
X58307Y-34868D02*
X58375Y-34891D01*
X58487Y-34891D01*
X58532Y-34868D01*
X58555Y-34846D01*
X58577Y-34801D01*
X58577Y-34756D01*
X58555Y-34711D01*
X58532Y-34688D01*
X58487Y-34666D01*
X58397Y-34643D01*
X58352Y-34621D01*
X58330Y-34598D01*
X58307Y-34553D01*
X58307Y-34508D01*
X58330Y-34463D01*
X58352Y-34441D01*
X58397Y-34418D01*
X58510Y-34418D01*
X58577Y-34441D01*
X58735Y-34418D02*
X58847Y-34891D01*
X58937Y-34553D01*
X59027Y-34891D01*
X59140Y-34418D01*
X59522Y-34576D02*
X59522Y-34891D01*
X59410Y-34396D02*
X59297Y-34733D01*
X59589Y-34733D01*
X59769Y-34846D02*
X59792Y-34868D01*
X59769Y-34891D01*
X59747Y-34868D01*
X59769Y-34846D01*
X59769Y-34891D01*
X59769Y-34598D02*
X59792Y-34621D01*
X59769Y-34643D01*
X59747Y-34621D01*
X59769Y-34598D01*
X59769Y-34643D01*
X60242Y-34891D02*
X59972Y-34891D01*
X60107Y-34891D02*
X60107Y-34418D01*
X60062Y-34486D01*
X60017Y-34531D01*
X59972Y-34553D01*
X60692Y-34891D02*
X60422Y-34891D01*
X60557Y-34891D02*
X60557Y-34418D01*
X60512Y-34486D01*
X60467Y-34531D01*
X60422Y-34553D01*
X65807Y-36068D02*
X65875Y-36091D01*
X65987Y-36091D01*
X66032Y-36068D01*
X66055Y-36046D01*
X66077Y-36001D01*
X66077Y-35956D01*
X66055Y-35911D01*
X66032Y-35888D01*
X65987Y-35866D01*
X65897Y-35843D01*
X65852Y-35821D01*
X65830Y-35798D01*
X65807Y-35753D01*
X65807Y-35708D01*
X65830Y-35663D01*
X65852Y-35641D01*
X65897Y-35618D01*
X66010Y-35618D01*
X66077Y-35641D01*
X66235Y-35618D02*
X66347Y-36091D01*
X66437Y-35753D01*
X66527Y-36091D01*
X66640Y-35618D01*
X67022Y-35776D02*
X67022Y-36091D01*
X66910Y-35596D02*
X66797Y-35933D01*
X67089Y-35933D01*
X67269Y-36046D02*
X67292Y-36068D01*
X67269Y-36091D01*
X67247Y-36068D01*
X67269Y-36046D01*
X67269Y-36091D01*
X67269Y-35798D02*
X67292Y-35821D01*
X67269Y-35843D01*
X67247Y-35821D01*
X67269Y-35798D01*
X67269Y-35843D01*
X67742Y-36091D02*
X67472Y-36091D01*
X67607Y-36091D02*
X67607Y-35618D01*
X67562Y-35686D01*
X67517Y-35731D01*
X67472Y-35753D01*
X67922Y-35663D02*
X67944Y-35641D01*
X67989Y-35618D01*
X68102Y-35618D01*
X68147Y-35641D01*
X68169Y-35663D01*
X68192Y-35708D01*
X68192Y-35753D01*
X68169Y-35821D01*
X67899Y-36091D01*
X68192Y-36091D01*
X73407Y-36068D02*
X73475Y-36091D01*
X73587Y-36091D01*
X73632Y-36068D01*
X73655Y-36046D01*
X73677Y-36001D01*
X73677Y-35956D01*
X73655Y-35911D01*
X73632Y-35888D01*
X73587Y-35866D01*
X73497Y-35843D01*
X73452Y-35821D01*
X73430Y-35798D01*
X73407Y-35753D01*
X73407Y-35708D01*
X73430Y-35663D01*
X73452Y-35641D01*
X73497Y-35618D01*
X73610Y-35618D01*
X73677Y-35641D01*
X73835Y-35618D02*
X73947Y-36091D01*
X74037Y-35753D01*
X74127Y-36091D01*
X74240Y-35618D01*
X74622Y-35776D02*
X74622Y-36091D01*
X74510Y-35596D02*
X74397Y-35933D01*
X74689Y-35933D01*
X74869Y-36046D02*
X74892Y-36068D01*
X74869Y-36091D01*
X74847Y-36068D01*
X74869Y-36046D01*
X74869Y-36091D01*
X74869Y-35798D02*
X74892Y-35821D01*
X74869Y-35843D01*
X74847Y-35821D01*
X74869Y-35798D01*
X74869Y-35843D01*
X75342Y-36091D02*
X75072Y-36091D01*
X75207Y-36091D02*
X75207Y-35618D01*
X75162Y-35686D01*
X75117Y-35731D01*
X75072Y-35753D01*
X75499Y-35618D02*
X75792Y-35618D01*
X75634Y-35798D01*
X75702Y-35798D01*
X75747Y-35821D01*
X75769Y-35843D01*
X75792Y-35888D01*
X75792Y-36001D01*
X75769Y-36046D01*
X75747Y-36068D01*
X75702Y-36091D01*
X75567Y-36091D01*
X75522Y-36068D01*
X75499Y-36046D01*
X35493Y-51191D02*
X35268Y-51191D01*
X35268Y-50718D01*
X35651Y-50943D02*
X35808Y-50943D01*
X35876Y-51191D02*
X35651Y-51191D01*
X35651Y-50718D01*
X35876Y-50718D01*
X36078Y-51191D02*
X36078Y-50718D01*
X36191Y-50718D01*
X36258Y-50741D01*
X36303Y-50786D01*
X36326Y-50831D01*
X36348Y-50921D01*
X36348Y-50988D01*
X36326Y-51078D01*
X36303Y-51123D01*
X36258Y-51168D01*
X36191Y-51191D01*
X36078Y-51191D01*
X36753Y-51168D02*
X36708Y-51191D01*
X36618Y-51191D01*
X36573Y-51168D01*
X36551Y-51146D01*
X36528Y-51101D01*
X36528Y-50966D01*
X36551Y-50921D01*
X36573Y-50898D01*
X36618Y-50876D01*
X36708Y-50876D01*
X36753Y-50898D01*
X35482Y-43691D02*
X35257Y-43691D01*
X35257Y-43218D01*
X35640Y-43443D02*
X35797Y-43443D01*
X35865Y-43691D02*
X35640Y-43691D01*
X35640Y-43218D01*
X35865Y-43218D01*
X36067Y-43691D02*
X36067Y-43218D01*
X36179Y-43218D01*
X36247Y-43241D01*
X36292Y-43286D01*
X36314Y-43331D01*
X36337Y-43421D01*
X36337Y-43488D01*
X36314Y-43578D01*
X36292Y-43623D01*
X36247Y-43668D01*
X36179Y-43691D01*
X36067Y-43691D01*
X36539Y-43691D02*
X36539Y-43218D01*
X36539Y-43398D02*
X36584Y-43376D01*
X36674Y-43376D01*
X36719Y-43398D01*
X36742Y-43421D01*
X36764Y-43466D01*
X36764Y-43601D01*
X36742Y-43646D01*
X36719Y-43668D01*
X36674Y-43691D01*
X36584Y-43691D01*
X36539Y-43668D01*
X35582Y-36191D02*
X35357Y-36191D01*
X35357Y-35718D01*
X35740Y-35943D02*
X35897Y-35943D01*
X35965Y-36191D02*
X35740Y-36191D01*
X35740Y-35718D01*
X35965Y-35718D01*
X36167Y-36191D02*
X36167Y-35718D01*
X36279Y-35718D01*
X36347Y-35741D01*
X36392Y-35786D01*
X36414Y-35831D01*
X36437Y-35921D01*
X36437Y-35988D01*
X36414Y-36078D01*
X36392Y-36123D01*
X36347Y-36168D01*
X36279Y-36191D01*
X36167Y-36191D01*
X36842Y-36191D02*
X36842Y-35943D01*
X36819Y-35898D01*
X36774Y-35876D01*
X36684Y-35876D01*
X36639Y-35898D01*
X36842Y-36168D02*
X36797Y-36191D01*
X36684Y-36191D01*
X36639Y-36168D01*
X36617Y-36123D01*
X36617Y-36078D01*
X36639Y-36033D01*
X36684Y-36011D01*
X36797Y-36011D01*
X36842Y-35988D01*
X73307Y-43568D02*
X73375Y-43591D01*
X73487Y-43591D01*
X73532Y-43568D01*
X73555Y-43546D01*
X73577Y-43501D01*
X73577Y-43456D01*
X73555Y-43411D01*
X73532Y-43388D01*
X73487Y-43366D01*
X73397Y-43343D01*
X73352Y-43321D01*
X73330Y-43298D01*
X73307Y-43253D01*
X73307Y-43208D01*
X73330Y-43163D01*
X73352Y-43141D01*
X73397Y-43118D01*
X73510Y-43118D01*
X73577Y-43141D01*
X73735Y-43118D02*
X73847Y-43591D01*
X73937Y-43253D01*
X74027Y-43591D01*
X74140Y-43118D01*
X74275Y-43118D02*
X74567Y-43118D01*
X74410Y-43298D01*
X74477Y-43298D01*
X74522Y-43321D01*
X74544Y-43343D01*
X74567Y-43388D01*
X74567Y-43501D01*
X74544Y-43546D01*
X74522Y-43568D01*
X74477Y-43591D01*
X74342Y-43591D01*
X74297Y-43568D01*
X74275Y-43546D01*
X74769Y-43546D02*
X74792Y-43568D01*
X74769Y-43591D01*
X74747Y-43568D01*
X74769Y-43546D01*
X74769Y-43591D01*
X74769Y-43298D02*
X74792Y-43321D01*
X74769Y-43343D01*
X74747Y-43321D01*
X74769Y-43298D01*
X74769Y-43343D01*
X75242Y-43591D02*
X74972Y-43591D01*
X75107Y-43591D02*
X75107Y-43118D01*
X75062Y-43186D01*
X75017Y-43231D01*
X74972Y-43253D01*
X75399Y-43118D02*
X75692Y-43118D01*
X75534Y-43298D01*
X75602Y-43298D01*
X75647Y-43321D01*
X75669Y-43343D01*
X75692Y-43388D01*
X75692Y-43501D01*
X75669Y-43546D01*
X75647Y-43568D01*
X75602Y-43591D01*
X75467Y-43591D01*
X75422Y-43568D01*
X75399Y-43546D01*
X65807Y-43568D02*
X65875Y-43591D01*
X65987Y-43591D01*
X66032Y-43568D01*
X66055Y-43546D01*
X66077Y-43501D01*
X66077Y-43456D01*
X66055Y-43411D01*
X66032Y-43388D01*
X65987Y-43366D01*
X65897Y-43343D01*
X65852Y-43321D01*
X65830Y-43298D01*
X65807Y-43253D01*
X65807Y-43208D01*
X65830Y-43163D01*
X65852Y-43141D01*
X65897Y-43118D01*
X66010Y-43118D01*
X66077Y-43141D01*
X66235Y-43118D02*
X66347Y-43591D01*
X66437Y-43253D01*
X66527Y-43591D01*
X66640Y-43118D01*
X66775Y-43118D02*
X67067Y-43118D01*
X66910Y-43298D01*
X66977Y-43298D01*
X67022Y-43321D01*
X67044Y-43343D01*
X67067Y-43388D01*
X67067Y-43501D01*
X67044Y-43546D01*
X67022Y-43568D01*
X66977Y-43591D01*
X66842Y-43591D01*
X66797Y-43568D01*
X66775Y-43546D01*
X67269Y-43546D02*
X67292Y-43568D01*
X67269Y-43591D01*
X67247Y-43568D01*
X67269Y-43546D01*
X67269Y-43591D01*
X67269Y-43298D02*
X67292Y-43321D01*
X67269Y-43343D01*
X67247Y-43321D01*
X67269Y-43298D01*
X67269Y-43343D01*
X67742Y-43591D02*
X67472Y-43591D01*
X67607Y-43591D02*
X67607Y-43118D01*
X67562Y-43186D01*
X67517Y-43231D01*
X67472Y-43253D01*
X67922Y-43163D02*
X67944Y-43141D01*
X67989Y-43118D01*
X68102Y-43118D01*
X68147Y-43141D01*
X68169Y-43163D01*
X68192Y-43208D01*
X68192Y-43253D01*
X68169Y-43321D01*
X67899Y-43591D01*
X68192Y-43591D01*
X58307Y-42368D02*
X58375Y-42391D01*
X58487Y-42391D01*
X58532Y-42368D01*
X58555Y-42346D01*
X58577Y-42301D01*
X58577Y-42256D01*
X58555Y-42211D01*
X58532Y-42188D01*
X58487Y-42166D01*
X58397Y-42143D01*
X58352Y-42121D01*
X58330Y-42098D01*
X58307Y-42053D01*
X58307Y-42008D01*
X58330Y-41963D01*
X58352Y-41941D01*
X58397Y-41918D01*
X58510Y-41918D01*
X58577Y-41941D01*
X58735Y-41918D02*
X58847Y-42391D01*
X58937Y-42053D01*
X59027Y-42391D01*
X59140Y-41918D01*
X59275Y-41918D02*
X59567Y-41918D01*
X59410Y-42098D01*
X59477Y-42098D01*
X59522Y-42121D01*
X59544Y-42143D01*
X59567Y-42188D01*
X59567Y-42301D01*
X59544Y-42346D01*
X59522Y-42368D01*
X59477Y-42391D01*
X59342Y-42391D01*
X59297Y-42368D01*
X59275Y-42346D01*
X59769Y-42346D02*
X59792Y-42368D01*
X59769Y-42391D01*
X59747Y-42368D01*
X59769Y-42346D01*
X59769Y-42391D01*
X59769Y-42098D02*
X59792Y-42121D01*
X59769Y-42143D01*
X59747Y-42121D01*
X59769Y-42098D01*
X59769Y-42143D01*
X60242Y-42391D02*
X59972Y-42391D01*
X60107Y-42391D02*
X60107Y-41918D01*
X60062Y-41986D01*
X60017Y-42031D01*
X59972Y-42053D01*
X60692Y-42391D02*
X60422Y-42391D01*
X60557Y-42391D02*
X60557Y-41918D01*
X60512Y-41986D01*
X60467Y-42031D01*
X60422Y-42053D01*
X50807Y-34168D02*
X50875Y-34191D01*
X50987Y-34191D01*
X51032Y-34168D01*
X51055Y-34146D01*
X51077Y-34101D01*
X51077Y-34056D01*
X51055Y-34011D01*
X51032Y-33988D01*
X50987Y-33966D01*
X50897Y-33943D01*
X50852Y-33921D01*
X50830Y-33898D01*
X50807Y-33853D01*
X50807Y-33808D01*
X50830Y-33763D01*
X50852Y-33741D01*
X50897Y-33718D01*
X51010Y-33718D01*
X51077Y-33741D01*
X51235Y-33718D02*
X51347Y-34191D01*
X51437Y-33853D01*
X51527Y-34191D01*
X51640Y-33718D01*
X52022Y-33876D02*
X52022Y-34191D01*
X51910Y-33696D02*
X51797Y-34033D01*
X52089Y-34033D01*
X52269Y-34146D02*
X52292Y-34168D01*
X52269Y-34191D01*
X52247Y-34168D01*
X52269Y-34146D01*
X52269Y-34191D01*
X52269Y-33898D02*
X52292Y-33921D01*
X52269Y-33943D01*
X52247Y-33921D01*
X52269Y-33898D01*
X52269Y-33943D01*
X52742Y-34191D02*
X52472Y-34191D01*
X52607Y-34191D02*
X52607Y-33718D01*
X52562Y-33786D01*
X52517Y-33831D01*
X52472Y-33853D01*
X53034Y-33718D02*
X53079Y-33718D01*
X53124Y-33741D01*
X53147Y-33763D01*
X53169Y-33808D01*
X53192Y-33898D01*
X53192Y-34011D01*
X53169Y-34101D01*
X53147Y-34146D01*
X53124Y-34168D01*
X53079Y-34191D01*
X53034Y-34191D01*
X52989Y-34168D01*
X52967Y-34146D01*
X52944Y-34101D01*
X52922Y-34011D01*
X52922Y-33898D01*
X52944Y-33808D01*
X52967Y-33763D01*
X52989Y-33741D01*
X53034Y-33718D01*
X43732Y-42268D02*
X43800Y-42291D01*
X43912Y-42291D01*
X43957Y-42268D01*
X43980Y-42246D01*
X44002Y-42201D01*
X44002Y-42156D01*
X43980Y-42111D01*
X43957Y-42088D01*
X43912Y-42066D01*
X43822Y-42043D01*
X43777Y-42021D01*
X43755Y-41998D01*
X43732Y-41953D01*
X43732Y-41908D01*
X43755Y-41863D01*
X43777Y-41841D01*
X43822Y-41818D01*
X43935Y-41818D01*
X44002Y-41841D01*
X44160Y-41818D02*
X44272Y-42291D01*
X44362Y-41953D01*
X44452Y-42291D01*
X44565Y-41818D01*
X44700Y-41818D02*
X44992Y-41818D01*
X44834Y-41998D01*
X44902Y-41998D01*
X44947Y-42021D01*
X44969Y-42043D01*
X44992Y-42088D01*
X44992Y-42201D01*
X44969Y-42246D01*
X44947Y-42268D01*
X44902Y-42291D01*
X44767Y-42291D01*
X44722Y-42268D01*
X44700Y-42246D01*
X45194Y-42246D02*
X45217Y-42268D01*
X45194Y-42291D01*
X45172Y-42268D01*
X45194Y-42246D01*
X45194Y-42291D01*
X45194Y-41998D02*
X45217Y-42021D01*
X45194Y-42043D01*
X45172Y-42021D01*
X45194Y-41998D01*
X45194Y-42043D01*
X45442Y-42291D02*
X45532Y-42291D01*
X45577Y-42268D01*
X45599Y-42246D01*
X45644Y-42178D01*
X45667Y-42088D01*
X45667Y-41908D01*
X45644Y-41863D01*
X45622Y-41841D01*
X45577Y-41818D01*
X45487Y-41818D01*
X45442Y-41841D01*
X45419Y-41863D01*
X45397Y-41908D01*
X45397Y-42021D01*
X45419Y-42066D01*
X45442Y-42088D01*
X45487Y-42111D01*
X45577Y-42111D01*
X45622Y-42088D01*
X45644Y-42066D01*
X45667Y-42021D01*
X36282Y-34668D02*
X36350Y-34691D01*
X36462Y-34691D01*
X36507Y-34668D01*
X36530Y-34646D01*
X36552Y-34601D01*
X36552Y-34556D01*
X36530Y-34511D01*
X36507Y-34488D01*
X36462Y-34466D01*
X36372Y-34443D01*
X36327Y-34421D01*
X36305Y-34398D01*
X36282Y-34353D01*
X36282Y-34308D01*
X36305Y-34263D01*
X36327Y-34241D01*
X36372Y-34218D01*
X36485Y-34218D01*
X36552Y-34241D01*
X36710Y-34218D02*
X36822Y-34691D01*
X36912Y-34353D01*
X37002Y-34691D01*
X37115Y-34218D01*
X37497Y-34376D02*
X37497Y-34691D01*
X37384Y-34196D02*
X37272Y-34533D01*
X37564Y-34533D01*
X37744Y-34646D02*
X37767Y-34668D01*
X37744Y-34691D01*
X37722Y-34668D01*
X37744Y-34646D01*
X37744Y-34691D01*
X37744Y-34398D02*
X37767Y-34421D01*
X37744Y-34443D01*
X37722Y-34421D01*
X37744Y-34398D01*
X37744Y-34443D01*
X38037Y-34421D02*
X37992Y-34398D01*
X37969Y-34376D01*
X37947Y-34331D01*
X37947Y-34308D01*
X37969Y-34263D01*
X37992Y-34241D01*
X38037Y-34218D01*
X38127Y-34218D01*
X38172Y-34241D01*
X38194Y-34263D01*
X38217Y-34308D01*
X38217Y-34331D01*
X38194Y-34376D01*
X38172Y-34398D01*
X38127Y-34421D01*
X38037Y-34421D01*
X37992Y-34443D01*
X37969Y-34466D01*
X37947Y-34511D01*
X37947Y-34601D01*
X37969Y-34646D01*
X37992Y-34668D01*
X38037Y-34691D01*
X38127Y-34691D01*
X38172Y-34668D01*
X38194Y-34646D01*
X38217Y-34601D01*
X38217Y-34511D01*
X38194Y-34466D01*
X38172Y-34443D01*
X38127Y-34421D01*
G54D13*
X32900Y-29000D02*
X76600Y-29000D01*
X33500Y-29000D02*
G75*
G03X32900Y-29600I0J-600D01*
G74*
G01*
X76600Y-29600D02*
G75*
G03X76000Y-29000I-600J0D01*
G74*
G01*
G54D14*
X32900Y-58900D02*
X32900Y-22100D01*
X76000Y-59500D02*
X33500Y-59500D01*
X76600Y-22100D02*
X76600Y-58900D01*
X33500Y-21500D02*
X76000Y-21500D01*
X33500Y-21500D02*
G75*
G03X32900Y-22100I0J-600D01*
G74*
G01*
X76600Y-22100D02*
G75*
G03X76000Y-21500I-600J0D01*
G74*
G01*
X76000Y-59500D02*
G75*
G03X76600Y-58900I0J600D01*
G74*
G01*
X32900Y-58900D02*
G75*
G03X33500Y-59500I600J0D01*
G74*
G01*
G54D15*
X53632Y-35898D02*
X53632Y-35530D01*
X53755Y-35793D01*
X53878Y-35530D01*
X53878Y-35898D01*
X54263Y-35863D02*
X54246Y-35881D01*
X54193Y-35898D01*
X54158Y-35898D01*
X54106Y-35881D01*
X54070Y-35846D01*
X54053Y-35811D01*
X54035Y-35741D01*
X54035Y-35688D01*
X54053Y-35618D01*
X54070Y-35583D01*
X54106Y-35548D01*
X54158Y-35530D01*
X54193Y-35530D01*
X54246Y-35548D01*
X54263Y-35565D01*
X54421Y-35898D02*
X54421Y-35530D01*
X54561Y-35530D01*
X54596Y-35548D01*
X54614Y-35565D01*
X54631Y-35601D01*
X54631Y-35653D01*
X54614Y-35688D01*
X54596Y-35706D01*
X54561Y-35723D01*
X54421Y-35723D01*
X54772Y-35565D02*
X54789Y-35548D01*
X54824Y-35530D01*
X54912Y-35530D01*
X54947Y-35548D01*
X54964Y-35565D01*
X54982Y-35601D01*
X54982Y-35636D01*
X54964Y-35688D01*
X54754Y-35898D01*
X54982Y-35898D01*
X55105Y-35530D02*
X55333Y-35530D01*
X55210Y-35671D01*
X55262Y-35671D01*
X55297Y-35688D01*
X55315Y-35706D01*
X55333Y-35741D01*
X55333Y-35828D01*
X55315Y-35863D01*
X55297Y-35881D01*
X55262Y-35898D01*
X55157Y-35898D01*
X55122Y-35881D01*
X55105Y-35863D01*
X55560Y-35530D02*
X55595Y-35530D01*
X55631Y-35548D01*
X55648Y-35565D01*
X55666Y-35601D01*
X55683Y-35671D01*
X55683Y-35758D01*
X55666Y-35828D01*
X55648Y-35863D01*
X55631Y-35881D01*
X55595Y-35898D01*
X55560Y-35898D01*
X55525Y-35881D01*
X55508Y-35863D01*
X55490Y-35828D01*
X55473Y-35758D01*
X55473Y-35671D01*
X55490Y-35601D01*
X55508Y-35565D01*
X55525Y-35548D01*
X55560Y-35530D01*
X56034Y-35898D02*
X55823Y-35898D01*
X55929Y-35898D02*
X55929Y-35530D01*
X55893Y-35583D01*
X55858Y-35618D01*
X55823Y-35636D01*
X56244Y-35688D02*
X56209Y-35671D01*
X56191Y-35653D01*
X56174Y-35618D01*
X56174Y-35601D01*
X56191Y-35565D01*
X56209Y-35548D01*
X56244Y-35530D01*
X56314Y-35530D01*
X56349Y-35548D01*
X56367Y-35565D01*
X56384Y-35601D01*
X56384Y-35618D01*
X56367Y-35653D01*
X56349Y-35671D01*
X56314Y-35688D01*
X56244Y-35688D01*
X56209Y-35706D01*
X56191Y-35723D01*
X56174Y-35758D01*
X56174Y-35828D01*
X56191Y-35863D01*
X56209Y-35881D01*
X56244Y-35898D01*
X56314Y-35898D01*
X56349Y-35881D01*
X56367Y-35863D01*
X56384Y-35828D01*
X56384Y-35758D01*
X56367Y-35723D01*
X56349Y-35706D01*
X56314Y-35688D01*
G54D16*
X46132Y-58506D02*
X46394Y-58506D01*
X46507Y-58918D02*
X46132Y-58918D01*
X46132Y-58131D01*
X46507Y-58131D01*
X46844Y-58918D02*
X46844Y-58393D01*
X46844Y-58543D02*
X46882Y-58468D01*
X46919Y-58431D01*
X46994Y-58393D01*
X47069Y-58393D01*
X47669Y-58393D02*
X47669Y-59031D01*
X47631Y-59106D01*
X47594Y-59143D01*
X47519Y-59181D01*
X47406Y-59181D01*
X47331Y-59143D01*
X47669Y-58881D02*
X47594Y-58918D01*
X47444Y-58918D01*
X47369Y-58881D01*
X47331Y-58843D01*
X47294Y-58768D01*
X47294Y-58543D01*
X47331Y-58468D01*
X47369Y-58431D01*
X47444Y-58393D01*
X47594Y-58393D01*
X47669Y-58431D01*
X48156Y-58918D02*
X48081Y-58881D01*
X48044Y-58843D01*
X48006Y-58768D01*
X48006Y-58543D01*
X48044Y-58468D01*
X48081Y-58431D01*
X48156Y-58393D01*
X48269Y-58393D01*
X48344Y-58431D01*
X48381Y-58468D01*
X48419Y-58543D01*
X48419Y-58768D01*
X48381Y-58843D01*
X48344Y-58881D01*
X48269Y-58918D01*
X48156Y-58918D01*
X48644Y-58131D02*
X49094Y-58131D01*
X48869Y-58918D02*
X48869Y-58131D01*
X49956Y-58843D02*
X49994Y-58881D01*
X49956Y-58918D01*
X49919Y-58881D01*
X49956Y-58843D01*
X49956Y-58918D01*
X49956Y-58431D02*
X49994Y-58468D01*
X49956Y-58506D01*
X49919Y-58468D01*
X49956Y-58431D01*
X49956Y-58506D01*
X51381Y-58843D02*
X51343Y-58881D01*
X51231Y-58918D01*
X51156Y-58918D01*
X51044Y-58881D01*
X50969Y-58806D01*
X50931Y-58731D01*
X50894Y-58581D01*
X50894Y-58468D01*
X50931Y-58318D01*
X50969Y-58243D01*
X51044Y-58168D01*
X51156Y-58131D01*
X51231Y-58131D01*
X51343Y-58168D01*
X51381Y-58206D01*
X51831Y-58918D02*
X51756Y-58881D01*
X51718Y-58843D01*
X51681Y-58768D01*
X51681Y-58543D01*
X51718Y-58468D01*
X51756Y-58431D01*
X51831Y-58393D01*
X51943Y-58393D01*
X52018Y-58431D01*
X52056Y-58468D01*
X52093Y-58543D01*
X52093Y-58768D01*
X52056Y-58843D01*
X52018Y-58881D01*
X51943Y-58918D01*
X51831Y-58918D01*
X52431Y-58393D02*
X52431Y-58918D01*
X52431Y-58468D02*
X52468Y-58431D01*
X52543Y-58393D01*
X52656Y-58393D01*
X52731Y-58431D01*
X52768Y-58506D01*
X52768Y-58918D01*
X53481Y-58881D02*
X53406Y-58918D01*
X53256Y-58918D01*
X53181Y-58881D01*
X53143Y-58843D01*
X53106Y-58768D01*
X53106Y-58543D01*
X53143Y-58468D01*
X53181Y-58431D01*
X53256Y-58393D01*
X53406Y-58393D01*
X53481Y-58431D01*
X54118Y-58881D02*
X54043Y-58918D01*
X53893Y-58918D01*
X53818Y-58881D01*
X53781Y-58806D01*
X53781Y-58506D01*
X53818Y-58431D01*
X53893Y-58393D01*
X54043Y-58393D01*
X54118Y-58431D01*
X54156Y-58506D01*
X54156Y-58581D01*
X53781Y-58656D01*
X54493Y-58393D02*
X54493Y-59181D01*
X54493Y-58431D02*
X54568Y-58393D01*
X54718Y-58393D01*
X54793Y-58431D01*
X54831Y-58468D01*
X54868Y-58543D01*
X54868Y-58768D01*
X54831Y-58843D01*
X54793Y-58881D01*
X54718Y-58918D01*
X54568Y-58918D01*
X54493Y-58881D01*
X55093Y-58393D02*
X55393Y-58393D01*
X55205Y-58131D02*
X55205Y-58806D01*
X55243Y-58881D01*
X55318Y-58918D01*
X55393Y-58918D01*
X56255Y-58918D02*
X56255Y-58131D01*
X56255Y-58431D02*
X56330Y-58393D01*
X56480Y-58393D01*
X56555Y-58431D01*
X56593Y-58468D01*
X56630Y-58543D01*
X56630Y-58768D01*
X56593Y-58843D01*
X56555Y-58881D01*
X56480Y-58918D01*
X56330Y-58918D01*
X56255Y-58881D01*
X56893Y-58393D02*
X57080Y-58918D01*
X57268Y-58393D02*
X57080Y-58918D01*
X57005Y-59106D01*
X56968Y-59143D01*
X56893Y-59181D01*
X58168Y-58918D02*
X58168Y-58131D01*
X58430Y-58693D01*
X58693Y-58131D01*
X58693Y-58918D01*
X59217Y-58131D02*
X59367Y-58131D01*
X59442Y-58168D01*
X59517Y-58243D01*
X59555Y-58393D01*
X59555Y-58656D01*
X59517Y-58806D01*
X59442Y-58881D01*
X59367Y-58918D01*
X59217Y-58918D01*
X59143Y-58881D01*
X59068Y-58806D01*
X59030Y-58656D01*
X59030Y-58393D01*
X59068Y-58243D01*
X59143Y-58168D01*
X59217Y-58131D01*
X59817Y-58131D02*
X60342Y-58131D01*
X59817Y-58918D01*
X60342Y-58918D01*
G54D12*
X73357Y-28618D02*
X73425Y-28641D01*
X73537Y-28641D01*
X73582Y-28618D01*
X73605Y-28596D01*
X73627Y-28551D01*
X73627Y-28506D01*
X73605Y-28461D01*
X73582Y-28438D01*
X73537Y-28416D01*
X73447Y-28393D01*
X73402Y-28371D01*
X73380Y-28348D01*
X73357Y-28303D01*
X73357Y-28258D01*
X73380Y-28213D01*
X73402Y-28191D01*
X73447Y-28168D01*
X73560Y-28168D01*
X73627Y-28191D01*
X73785Y-28168D02*
X73897Y-28641D01*
X73987Y-28303D01*
X74077Y-28641D01*
X74190Y-28168D01*
X74594Y-28168D02*
X74370Y-28168D01*
X74347Y-28393D01*
X74370Y-28371D01*
X74415Y-28348D01*
X74527Y-28348D01*
X74572Y-28371D01*
X74594Y-28393D01*
X74617Y-28438D01*
X74617Y-28551D01*
X74594Y-28596D01*
X74572Y-28618D01*
X74527Y-28641D01*
X74415Y-28641D01*
X74370Y-28618D01*
X74347Y-28596D01*
X74819Y-28596D02*
X74842Y-28618D01*
X74819Y-28641D01*
X74797Y-28618D01*
X74819Y-28596D01*
X74819Y-28641D01*
X74819Y-28348D02*
X74842Y-28371D01*
X74819Y-28393D01*
X74797Y-28371D01*
X74819Y-28348D01*
X74819Y-28393D01*
X75292Y-28641D02*
X75022Y-28641D01*
X75157Y-28641D02*
X75157Y-28168D01*
X75112Y-28236D01*
X75067Y-28281D01*
X75022Y-28303D01*
X75449Y-28168D02*
X75742Y-28168D01*
X75584Y-28348D01*
X75652Y-28348D01*
X75697Y-28371D01*
X75719Y-28393D01*
X75742Y-28438D01*
X75742Y-28551D01*
X75719Y-28596D01*
X75697Y-28618D01*
X75652Y-28641D01*
X75517Y-28641D01*
X75472Y-28618D01*
X75449Y-28596D01*
X65907Y-28568D02*
X65975Y-28591D01*
X66087Y-28591D01*
X66132Y-28568D01*
X66155Y-28546D01*
X66177Y-28501D01*
X66177Y-28456D01*
X66155Y-28411D01*
X66132Y-28388D01*
X66087Y-28366D01*
X65997Y-28343D01*
X65952Y-28321D01*
X65930Y-28298D01*
X65907Y-28253D01*
X65907Y-28208D01*
X65930Y-28163D01*
X65952Y-28141D01*
X65997Y-28118D01*
X66110Y-28118D01*
X66177Y-28141D01*
X66335Y-28118D02*
X66447Y-28591D01*
X66537Y-28253D01*
X66627Y-28591D01*
X66740Y-28118D01*
X67144Y-28118D02*
X66920Y-28118D01*
X66897Y-28343D01*
X66920Y-28321D01*
X66965Y-28298D01*
X67077Y-28298D01*
X67122Y-28321D01*
X67144Y-28343D01*
X67167Y-28388D01*
X67167Y-28501D01*
X67144Y-28546D01*
X67122Y-28568D01*
X67077Y-28591D01*
X66965Y-28591D01*
X66920Y-28568D01*
X66897Y-28546D01*
X67369Y-28546D02*
X67392Y-28568D01*
X67369Y-28591D01*
X67347Y-28568D01*
X67369Y-28546D01*
X67369Y-28591D01*
X67369Y-28298D02*
X67392Y-28321D01*
X67369Y-28343D01*
X67347Y-28321D01*
X67369Y-28298D01*
X67369Y-28343D01*
X67842Y-28591D02*
X67572Y-28591D01*
X67707Y-28591D02*
X67707Y-28118D01*
X67662Y-28186D01*
X67617Y-28231D01*
X67572Y-28253D01*
X68022Y-28163D02*
X68044Y-28141D01*
X68089Y-28118D01*
X68202Y-28118D01*
X68247Y-28141D01*
X68269Y-28163D01*
X68292Y-28208D01*
X68292Y-28253D01*
X68269Y-28321D01*
X67999Y-28591D01*
X68292Y-28591D01*
X58407Y-27368D02*
X58475Y-27391D01*
X58587Y-27391D01*
X58632Y-27368D01*
X58655Y-27346D01*
X58677Y-27301D01*
X58677Y-27256D01*
X58655Y-27211D01*
X58632Y-27188D01*
X58587Y-27166D01*
X58497Y-27143D01*
X58452Y-27121D01*
X58430Y-27098D01*
X58407Y-27053D01*
X58407Y-27008D01*
X58430Y-26963D01*
X58452Y-26941D01*
X58497Y-26918D01*
X58610Y-26918D01*
X58677Y-26941D01*
X58835Y-26918D02*
X58947Y-27391D01*
X59037Y-27053D01*
X59127Y-27391D01*
X59240Y-26918D01*
X59644Y-26918D02*
X59420Y-26918D01*
X59397Y-27143D01*
X59420Y-27121D01*
X59465Y-27098D01*
X59577Y-27098D01*
X59622Y-27121D01*
X59644Y-27143D01*
X59667Y-27188D01*
X59667Y-27301D01*
X59644Y-27346D01*
X59622Y-27368D01*
X59577Y-27391D01*
X59465Y-27391D01*
X59420Y-27368D01*
X59397Y-27346D01*
X59869Y-27346D02*
X59892Y-27368D01*
X59869Y-27391D01*
X59847Y-27368D01*
X59869Y-27346D01*
X59869Y-27391D01*
X59869Y-27098D02*
X59892Y-27121D01*
X59869Y-27143D01*
X59847Y-27121D01*
X59869Y-27098D01*
X59869Y-27143D01*
X60342Y-27391D02*
X60072Y-27391D01*
X60207Y-27391D02*
X60207Y-26918D01*
X60162Y-26986D01*
X60117Y-27031D01*
X60072Y-27053D01*
X60792Y-27391D02*
X60522Y-27391D01*
X60657Y-27391D02*
X60657Y-26918D01*
X60612Y-26986D01*
X60567Y-27031D01*
X60522Y-27053D01*
X43782Y-27368D02*
X43850Y-27391D01*
X43962Y-27391D01*
X44007Y-27368D01*
X44030Y-27346D01*
X44052Y-27301D01*
X44052Y-27256D01*
X44030Y-27211D01*
X44007Y-27188D01*
X43962Y-27166D01*
X43872Y-27143D01*
X43827Y-27121D01*
X43805Y-27098D01*
X43782Y-27053D01*
X43782Y-27008D01*
X43805Y-26963D01*
X43827Y-26941D01*
X43872Y-26918D01*
X43985Y-26918D01*
X44052Y-26941D01*
X44210Y-26918D02*
X44322Y-27391D01*
X44412Y-27053D01*
X44502Y-27391D01*
X44615Y-26918D01*
X45019Y-26918D02*
X44794Y-26918D01*
X44772Y-27143D01*
X44794Y-27121D01*
X44839Y-27098D01*
X44952Y-27098D01*
X44997Y-27121D01*
X45019Y-27143D01*
X45042Y-27188D01*
X45042Y-27301D01*
X45019Y-27346D01*
X44997Y-27368D01*
X44952Y-27391D01*
X44839Y-27391D01*
X44794Y-27368D01*
X44772Y-27346D01*
X45244Y-27346D02*
X45267Y-27368D01*
X45244Y-27391D01*
X45222Y-27368D01*
X45244Y-27346D01*
X45244Y-27391D01*
X45244Y-27098D02*
X45267Y-27121D01*
X45244Y-27143D01*
X45222Y-27121D01*
X45244Y-27098D01*
X45244Y-27143D01*
X45492Y-27391D02*
X45582Y-27391D01*
X45627Y-27368D01*
X45649Y-27346D01*
X45694Y-27278D01*
X45717Y-27188D01*
X45717Y-27008D01*
X45694Y-26963D01*
X45672Y-26941D01*
X45627Y-26918D01*
X45537Y-26918D01*
X45492Y-26941D01*
X45469Y-26963D01*
X45447Y-27008D01*
X45447Y-27121D01*
X45469Y-27166D01*
X45492Y-27188D01*
X45537Y-27211D01*
X45627Y-27211D01*
X45672Y-27188D01*
X45694Y-27166D01*
X45717Y-27121D01*
X50857Y-26668D02*
X50925Y-26691D01*
X51037Y-26691D01*
X51082Y-26668D01*
X51105Y-26646D01*
X51127Y-26601D01*
X51127Y-26556D01*
X51105Y-26511D01*
X51082Y-26488D01*
X51037Y-26466D01*
X50947Y-26443D01*
X50902Y-26421D01*
X50880Y-26398D01*
X50857Y-26353D01*
X50857Y-26308D01*
X50880Y-26263D01*
X50902Y-26241D01*
X50947Y-26218D01*
X51060Y-26218D01*
X51127Y-26241D01*
X51285Y-26218D02*
X51397Y-26691D01*
X51487Y-26353D01*
X51577Y-26691D01*
X51690Y-26218D01*
X52094Y-26218D02*
X51870Y-26218D01*
X51847Y-26443D01*
X51870Y-26421D01*
X51915Y-26398D01*
X52027Y-26398D01*
X52072Y-26421D01*
X52094Y-26443D01*
X52117Y-26488D01*
X52117Y-26601D01*
X52094Y-26646D01*
X52072Y-26668D01*
X52027Y-26691D01*
X51915Y-26691D01*
X51870Y-26668D01*
X51847Y-26646D01*
X52319Y-26646D02*
X52342Y-26668D01*
X52319Y-26691D01*
X52297Y-26668D01*
X52319Y-26646D01*
X52319Y-26691D01*
X52319Y-26398D02*
X52342Y-26421D01*
X52319Y-26443D01*
X52297Y-26421D01*
X52319Y-26398D01*
X52319Y-26443D01*
X52792Y-26691D02*
X52522Y-26691D01*
X52657Y-26691D02*
X52657Y-26218D01*
X52612Y-26286D01*
X52567Y-26331D01*
X52522Y-26353D01*
X53084Y-26218D02*
X53129Y-26218D01*
X53174Y-26241D01*
X53197Y-26263D01*
X53219Y-26308D01*
X53242Y-26398D01*
X53242Y-26511D01*
X53219Y-26601D01*
X53197Y-26646D01*
X53174Y-26668D01*
X53129Y-26691D01*
X53084Y-26691D01*
X53039Y-26668D01*
X53017Y-26646D01*
X52994Y-26601D01*
X52972Y-26511D01*
X52972Y-26398D01*
X52994Y-26308D01*
X53017Y-26263D01*
X53039Y-26241D01*
X53084Y-26218D01*
X36282Y-27868D02*
X36350Y-27891D01*
X36462Y-27891D01*
X36507Y-27868D01*
X36530Y-27846D01*
X36552Y-27801D01*
X36552Y-27756D01*
X36530Y-27711D01*
X36507Y-27688D01*
X36462Y-27666D01*
X36372Y-27643D01*
X36327Y-27621D01*
X36305Y-27598D01*
X36282Y-27553D01*
X36282Y-27508D01*
X36305Y-27463D01*
X36327Y-27441D01*
X36372Y-27418D01*
X36485Y-27418D01*
X36552Y-27441D01*
X36710Y-27418D02*
X36822Y-27891D01*
X36912Y-27553D01*
X37002Y-27891D01*
X37115Y-27418D01*
X37519Y-27418D02*
X37294Y-27418D01*
X37272Y-27643D01*
X37294Y-27621D01*
X37339Y-27598D01*
X37452Y-27598D01*
X37497Y-27621D01*
X37519Y-27643D01*
X37542Y-27688D01*
X37542Y-27801D01*
X37519Y-27846D01*
X37497Y-27868D01*
X37452Y-27891D01*
X37339Y-27891D01*
X37294Y-27868D01*
X37272Y-27846D01*
X37744Y-27846D02*
X37767Y-27868D01*
X37744Y-27891D01*
X37722Y-27868D01*
X37744Y-27846D01*
X37744Y-27891D01*
X37744Y-27598D02*
X37767Y-27621D01*
X37744Y-27643D01*
X37722Y-27621D01*
X37744Y-27598D01*
X37744Y-27643D01*
X38037Y-27621D02*
X37992Y-27598D01*
X37969Y-27576D01*
X37947Y-27531D01*
X37947Y-27508D01*
X37969Y-27463D01*
X37992Y-27441D01*
X38037Y-27418D01*
X38127Y-27418D01*
X38172Y-27441D01*
X38194Y-27463D01*
X38217Y-27508D01*
X38217Y-27531D01*
X38194Y-27576D01*
X38172Y-27598D01*
X38127Y-27621D01*
X38037Y-27621D01*
X37992Y-27643D01*
X37969Y-27666D01*
X37947Y-27711D01*
X37947Y-27801D01*
X37969Y-27846D01*
X37992Y-27868D01*
X38037Y-27891D01*
X38127Y-27891D01*
X38172Y-27868D01*
X38194Y-27846D01*
X38217Y-27801D01*
X38217Y-27711D01*
X38194Y-27666D01*
X38172Y-27643D01*
X38127Y-27621D01*
X61853Y-58375D02*
X61871Y-58318D01*
X61890Y-58300D01*
X61928Y-58281D01*
X61984Y-58281D01*
X62021Y-58300D01*
X62040Y-58318D01*
X62059Y-58356D01*
X62059Y-58506D01*
X61665Y-58506D01*
X61665Y-58375D01*
X61684Y-58337D01*
X61703Y-58318D01*
X61740Y-58300D01*
X61778Y-58300D01*
X61815Y-58318D01*
X61834Y-58337D01*
X61853Y-58375D01*
X61853Y-58506D01*
X62059Y-57943D02*
X61853Y-57943D01*
X61815Y-57962D01*
X61796Y-58000D01*
X61796Y-58075D01*
X61815Y-58112D01*
X62040Y-57943D02*
X62059Y-57981D01*
X62059Y-58075D01*
X62040Y-58112D01*
X62003Y-58131D01*
X61965Y-58131D01*
X61928Y-58112D01*
X61909Y-58075D01*
X61909Y-57981D01*
X61890Y-57943D01*
X62040Y-57775D02*
X62059Y-57737D01*
X62059Y-57662D01*
X62040Y-57625D01*
X62003Y-57606D01*
X61984Y-57606D01*
X61946Y-57625D01*
X61928Y-57662D01*
X61928Y-57718D01*
X61909Y-57756D01*
X61871Y-57775D01*
X61853Y-57775D01*
X61815Y-57756D01*
X61796Y-57718D01*
X61796Y-57662D01*
X61815Y-57625D01*
X62040Y-57287D02*
X62059Y-57325D01*
X62059Y-57400D01*
X62040Y-57437D01*
X62003Y-57456D01*
X61853Y-57456D01*
X61815Y-57437D01*
X61796Y-57400D01*
X61796Y-57325D01*
X61815Y-57287D01*
X61853Y-57268D01*
X61890Y-57268D01*
X61928Y-57456D01*
X62059Y-56931D02*
X61665Y-56931D01*
X62040Y-56931D02*
X62059Y-56968D01*
X62059Y-57043D01*
X62040Y-57081D01*
X62021Y-57100D01*
X61984Y-57118D01*
X61871Y-57118D01*
X61834Y-57100D01*
X61815Y-57081D01*
X61796Y-57043D01*
X61796Y-56968D01*
X61815Y-56931D01*
X62059Y-56387D02*
X62040Y-56425D01*
X62021Y-56444D01*
X61984Y-56462D01*
X61871Y-56462D01*
X61834Y-56444D01*
X61815Y-56425D01*
X61796Y-56387D01*
X61796Y-56331D01*
X61815Y-56294D01*
X61834Y-56275D01*
X61871Y-56256D01*
X61984Y-56256D01*
X62021Y-56275D01*
X62040Y-56294D01*
X62059Y-56331D01*
X62059Y-56387D01*
X61796Y-56087D02*
X62059Y-56087D01*
X61834Y-56087D02*
X61815Y-56069D01*
X61796Y-56031D01*
X61796Y-55975D01*
X61815Y-55937D01*
X61853Y-55919D01*
X62059Y-55919D01*
X61796Y-55469D02*
X62059Y-55394D01*
X61871Y-55319D01*
X62059Y-55244D01*
X61796Y-55169D01*
X62059Y-54962D02*
X62040Y-55000D01*
X62021Y-55019D01*
X61984Y-55037D01*
X61871Y-55037D01*
X61834Y-55019D01*
X61815Y-55000D01*
X61796Y-54962D01*
X61796Y-54906D01*
X61815Y-54869D01*
X61834Y-54850D01*
X61871Y-54831D01*
X61984Y-54831D01*
X62021Y-54850D01*
X62040Y-54869D01*
X62059Y-54906D01*
X62059Y-54962D01*
X62059Y-54662D02*
X61796Y-54662D01*
X61871Y-54662D02*
X61834Y-54644D01*
X61815Y-54625D01*
X61796Y-54588D01*
X61796Y-54550D01*
X62059Y-54419D02*
X61665Y-54419D01*
X61909Y-54381D02*
X62059Y-54269D01*
X61796Y-54269D02*
X61946Y-54419D01*
X62059Y-53800D02*
X61665Y-53800D01*
X61815Y-53800D02*
X61796Y-53763D01*
X61796Y-53688D01*
X61815Y-53650D01*
X61834Y-53631D01*
X61871Y-53613D01*
X61984Y-53613D01*
X62021Y-53631D01*
X62040Y-53650D01*
X62059Y-53688D01*
X62059Y-53763D01*
X62040Y-53800D01*
X61796Y-53481D02*
X62059Y-53388D01*
X61796Y-53294D02*
X62059Y-53388D01*
X62153Y-53425D01*
X62171Y-53444D01*
X62190Y-53481D01*
X61853Y-52713D02*
X61853Y-52844D01*
X62059Y-52844D02*
X61665Y-52844D01*
X61665Y-52656D01*
X62059Y-52507D02*
X61796Y-52507D01*
X61871Y-52507D02*
X61834Y-52488D01*
X61815Y-52469D01*
X61796Y-52432D01*
X61796Y-52394D01*
X62040Y-52113D02*
X62059Y-52150D01*
X62059Y-52225D01*
X62040Y-52263D01*
X62003Y-52282D01*
X61853Y-52282D01*
X61815Y-52263D01*
X61796Y-52225D01*
X61796Y-52150D01*
X61815Y-52113D01*
X61853Y-52094D01*
X61890Y-52094D01*
X61928Y-52282D01*
X62059Y-51757D02*
X61665Y-51757D01*
X62040Y-51757D02*
X62059Y-51794D01*
X62059Y-51869D01*
X62040Y-51907D01*
X62021Y-51925D01*
X61984Y-51944D01*
X61871Y-51944D01*
X61834Y-51925D01*
X61815Y-51907D01*
X61796Y-51869D01*
X61796Y-51794D01*
X61815Y-51757D01*
X62059Y-51569D02*
X61796Y-51569D01*
X61871Y-51569D02*
X61834Y-51550D01*
X61815Y-51532D01*
X61796Y-51494D01*
X61796Y-51457D01*
X62059Y-51325D02*
X61796Y-51325D01*
X61665Y-51325D02*
X61684Y-51344D01*
X61703Y-51325D01*
X61684Y-51307D01*
X61665Y-51325D01*
X61703Y-51325D01*
X62059Y-51138D02*
X61665Y-51138D01*
X61909Y-51100D02*
X62059Y-50988D01*
X61796Y-50988D02*
X61946Y-51138D01*
X61946Y-50538D02*
X61946Y-50351D01*
X62059Y-50576D02*
X61665Y-50444D01*
X62059Y-50313D01*
X61796Y-50238D02*
X61796Y-50088D01*
X61665Y-50182D02*
X62003Y-50182D01*
X62040Y-50163D01*
X62059Y-50126D01*
X62059Y-50088D01*
X62059Y-49957D02*
X61796Y-49957D01*
X61834Y-49957D02*
X61815Y-49938D01*
X61796Y-49901D01*
X61796Y-49844D01*
X61815Y-49807D01*
X61853Y-49788D01*
X62059Y-49788D01*
X61853Y-49788D02*
X61815Y-49769D01*
X61796Y-49732D01*
X61796Y-49676D01*
X61815Y-49638D01*
X61853Y-49619D01*
X62059Y-49619D01*
X62040Y-49282D02*
X62059Y-49319D01*
X62059Y-49394D01*
X62040Y-49432D01*
X62003Y-49451D01*
X61853Y-49451D01*
X61815Y-49432D01*
X61796Y-49394D01*
X61796Y-49319D01*
X61815Y-49282D01*
X61853Y-49263D01*
X61890Y-49263D01*
X61928Y-49451D01*
X62059Y-49094D02*
X61796Y-49094D01*
X61871Y-49094D02*
X61834Y-49076D01*
X61815Y-49057D01*
X61796Y-49019D01*
X61796Y-48982D01*
X62040Y-48832D02*
X62059Y-48832D01*
X62096Y-48851D01*
X62115Y-48869D01*
X61853Y-48232D02*
X61871Y-48176D01*
X61890Y-48157D01*
X61928Y-48138D01*
X61984Y-48138D01*
X62021Y-48157D01*
X62040Y-48176D01*
X62059Y-48213D01*
X62059Y-48363D01*
X61665Y-48363D01*
X61665Y-48232D01*
X61684Y-48195D01*
X61703Y-48176D01*
X61740Y-48157D01*
X61778Y-48157D01*
X61815Y-48176D01*
X61834Y-48195D01*
X61853Y-48232D01*
X61853Y-48363D01*
X62059Y-47801D02*
X61853Y-47801D01*
X61815Y-47820D01*
X61796Y-47857D01*
X61796Y-47932D01*
X61815Y-47970D01*
X62040Y-47801D02*
X62059Y-47838D01*
X62059Y-47932D01*
X62040Y-47970D01*
X62003Y-47988D01*
X61965Y-47988D01*
X61928Y-47970D01*
X61909Y-47932D01*
X61909Y-47838D01*
X61890Y-47801D01*
X61796Y-47670D02*
X61796Y-47520D01*
X61665Y-47613D02*
X62003Y-47613D01*
X62040Y-47595D01*
X62059Y-47557D01*
X62059Y-47520D01*
X62059Y-47388D02*
X61665Y-47388D01*
X62059Y-47220D02*
X61853Y-47220D01*
X61815Y-47238D01*
X61796Y-47276D01*
X61796Y-47332D01*
X61815Y-47370D01*
X61834Y-47388D01*
X62059Y-47032D02*
X61796Y-47032D01*
X61871Y-47032D02*
X61834Y-47013D01*
X61815Y-46995D01*
X61796Y-46957D01*
X61796Y-46920D01*
X62059Y-46732D02*
X62040Y-46770D01*
X62021Y-46788D01*
X61984Y-46807D01*
X61871Y-46807D01*
X61834Y-46788D01*
X61815Y-46770D01*
X61796Y-46732D01*
X61796Y-46676D01*
X61815Y-46638D01*
X61834Y-46620D01*
X61871Y-46601D01*
X61984Y-46601D01*
X62021Y-46620D01*
X62040Y-46638D01*
X62059Y-46676D01*
X62059Y-46732D01*
X62059Y-46376D02*
X62040Y-46414D01*
X62021Y-46432D01*
X61984Y-46451D01*
X61871Y-46451D01*
X61834Y-46432D01*
X61815Y-46414D01*
X61796Y-46376D01*
X61796Y-46320D01*
X61815Y-46282D01*
X61834Y-46264D01*
X61871Y-46245D01*
X61984Y-46245D01*
X62021Y-46264D01*
X62040Y-46282D01*
X62059Y-46320D01*
X62059Y-46376D01*
X62059Y-46076D02*
X61796Y-46076D01*
X61834Y-46076D02*
X61815Y-46057D01*
X61796Y-46020D01*
X61796Y-45964D01*
X61815Y-45926D01*
X61853Y-45907D01*
X62059Y-45907D01*
X61853Y-45907D02*
X61815Y-45889D01*
X61796Y-45851D01*
X61796Y-45795D01*
X61815Y-45757D01*
X61853Y-45739D01*
X62059Y-45739D01*
X61853Y-45251D02*
X61853Y-45120D01*
X62059Y-45064D02*
X62059Y-45251D01*
X61665Y-45251D01*
X61665Y-45064D01*
X61796Y-44895D02*
X62190Y-44895D01*
X61815Y-44895D02*
X61796Y-44857D01*
X61796Y-44782D01*
X61815Y-44745D01*
X61834Y-44726D01*
X61871Y-44707D01*
X61984Y-44707D01*
X62021Y-44726D01*
X62040Y-44745D01*
X62059Y-44782D01*
X62059Y-44857D01*
X62040Y-44895D01*
X62059Y-44539D02*
X61796Y-44539D01*
X61665Y-44539D02*
X61684Y-44558D01*
X61703Y-44539D01*
X61684Y-44520D01*
X61665Y-44539D01*
X61703Y-44539D01*
X61796Y-44351D02*
X62190Y-44351D01*
X61815Y-44351D02*
X61796Y-44314D01*
X61796Y-44239D01*
X61815Y-44201D01*
X61834Y-44183D01*
X61871Y-44164D01*
X61984Y-44164D01*
X62021Y-44183D01*
X62040Y-44201D01*
X62059Y-44239D01*
X62059Y-44314D01*
X62040Y-44351D01*
X62059Y-43995D02*
X61665Y-43995D01*
X62059Y-43826D02*
X61853Y-43826D01*
X61815Y-43845D01*
X61796Y-43883D01*
X61796Y-43939D01*
X61815Y-43976D01*
X61834Y-43995D01*
X62059Y-43470D02*
X61853Y-43470D01*
X61815Y-43489D01*
X61796Y-43526D01*
X61796Y-43601D01*
X61815Y-43639D01*
X62040Y-43470D02*
X62059Y-43508D01*
X62059Y-43601D01*
X62040Y-43639D01*
X62003Y-43658D01*
X61965Y-43658D01*
X61928Y-43639D01*
X61909Y-43601D01*
X61909Y-43508D01*
X61890Y-43470D01*
X61796Y-43283D02*
X62059Y-43283D01*
X61834Y-43283D02*
X61815Y-43264D01*
X61796Y-43226D01*
X61796Y-43170D01*
X61815Y-43133D01*
X61853Y-43114D01*
X62059Y-43114D01*
X62059Y-42926D02*
X61796Y-42926D01*
X61665Y-42926D02*
X61684Y-42945D01*
X61703Y-42926D01*
X61684Y-42908D01*
X61665Y-42926D01*
X61703Y-42926D01*
X62040Y-42589D02*
X62059Y-42626D01*
X62059Y-42701D01*
X62040Y-42739D01*
X62003Y-42758D01*
X61853Y-42758D01*
X61815Y-42739D01*
X61796Y-42701D01*
X61796Y-42626D01*
X61815Y-42589D01*
X61853Y-42570D01*
X61890Y-42570D01*
X61928Y-42758D01*
X62040Y-42420D02*
X62059Y-42383D01*
X62059Y-42308D01*
X62040Y-42270D01*
X62003Y-42252D01*
X61984Y-42252D01*
X61946Y-42270D01*
X61928Y-42308D01*
X61928Y-42364D01*
X61909Y-42402D01*
X61871Y-42420D01*
X61853Y-42420D01*
X61815Y-42402D01*
X61796Y-42364D01*
X61796Y-42308D01*
X61815Y-42270D01*
X62021Y-42083D02*
X62040Y-42064D01*
X62059Y-42083D01*
X62040Y-42102D01*
X62021Y-42083D01*
X62059Y-42083D01*
X61853Y-41295D02*
X61853Y-41164D01*
X62059Y-41108D02*
X62059Y-41295D01*
X61665Y-41295D01*
X61665Y-41108D01*
X62059Y-40939D02*
X61796Y-40939D01*
X61871Y-40939D02*
X61834Y-40920D01*
X61815Y-40902D01*
X61796Y-40864D01*
X61796Y-40827D01*
X61796Y-40527D02*
X62115Y-40527D01*
X62153Y-40546D01*
X62171Y-40564D01*
X62190Y-40602D01*
X62190Y-40658D01*
X62171Y-40695D01*
X62040Y-40527D02*
X62059Y-40564D01*
X62059Y-40639D01*
X62040Y-40677D01*
X62021Y-40695D01*
X61984Y-40714D01*
X61871Y-40714D01*
X61834Y-40695D01*
X61815Y-40677D01*
X61796Y-40639D01*
X61796Y-40564D01*
X61815Y-40527D01*
X62059Y-40283D02*
X62040Y-40321D01*
X62021Y-40339D01*
X61984Y-40358D01*
X61871Y-40358D01*
X61834Y-40339D01*
X61815Y-40321D01*
X61796Y-40283D01*
X61796Y-40227D01*
X61815Y-40189D01*
X61834Y-40171D01*
X61871Y-40152D01*
X61984Y-40152D01*
X62021Y-40171D01*
X62040Y-40189D01*
X62059Y-40227D01*
X62059Y-40283D01*
X62059Y-39983D02*
X61665Y-39983D01*
X61665Y-39889D01*
X61684Y-39833D01*
X61721Y-39796D01*
X61759Y-39777D01*
X61834Y-39758D01*
X61890Y-39758D01*
X61965Y-39777D01*
X62003Y-39796D01*
X62040Y-39833D01*
X62059Y-39889D01*
X62059Y-39983D01*
X62059Y-39533D02*
X62040Y-39571D01*
X62021Y-39589D01*
X61984Y-39608D01*
X61871Y-39608D01*
X61834Y-39589D01*
X61815Y-39571D01*
X61796Y-39533D01*
X61796Y-39477D01*
X61815Y-39439D01*
X61834Y-39421D01*
X61871Y-39402D01*
X61984Y-39402D01*
X62021Y-39421D01*
X62040Y-39439D01*
X62059Y-39477D01*
X62059Y-39533D01*
X62059Y-39271D02*
X61796Y-39064D01*
X61796Y-39271D02*
X62059Y-39064D01*
X62708Y-58337D02*
X62315Y-58337D01*
X62690Y-58337D02*
X62708Y-58375D01*
X62708Y-58450D01*
X62690Y-58487D01*
X62671Y-58506D01*
X62633Y-58525D01*
X62521Y-58525D01*
X62483Y-58506D01*
X62465Y-58487D01*
X62446Y-58450D01*
X62446Y-58375D01*
X62465Y-58337D01*
X62690Y-58000D02*
X62708Y-58037D01*
X62708Y-58112D01*
X62690Y-58150D01*
X62652Y-58168D01*
X62502Y-58168D01*
X62465Y-58150D01*
X62446Y-58112D01*
X62446Y-58037D01*
X62465Y-58000D01*
X62502Y-57981D01*
X62540Y-57981D01*
X62577Y-58168D01*
X62690Y-57831D02*
X62708Y-57793D01*
X62708Y-57718D01*
X62690Y-57681D01*
X62652Y-57662D01*
X62633Y-57662D01*
X62596Y-57681D01*
X62577Y-57718D01*
X62577Y-57775D01*
X62558Y-57812D01*
X62521Y-57831D01*
X62502Y-57831D01*
X62465Y-57812D01*
X62446Y-57775D01*
X62446Y-57718D01*
X62465Y-57681D01*
X62708Y-57493D02*
X62446Y-57493D01*
X62315Y-57493D02*
X62334Y-57512D01*
X62352Y-57493D01*
X62334Y-57475D01*
X62315Y-57493D01*
X62352Y-57493D01*
X62446Y-57137D02*
X62765Y-57137D01*
X62802Y-57156D01*
X62821Y-57175D01*
X62840Y-57212D01*
X62840Y-57268D01*
X62821Y-57306D01*
X62690Y-57137D02*
X62708Y-57175D01*
X62708Y-57250D01*
X62690Y-57287D01*
X62671Y-57306D01*
X62633Y-57325D01*
X62521Y-57325D01*
X62483Y-57306D01*
X62465Y-57287D01*
X62446Y-57250D01*
X62446Y-57175D01*
X62465Y-57137D01*
X62446Y-56950D02*
X62708Y-56950D01*
X62483Y-56950D02*
X62465Y-56931D01*
X62446Y-56893D01*
X62446Y-56837D01*
X62465Y-56800D01*
X62502Y-56781D01*
X62708Y-56781D01*
X62708Y-56294D02*
X62315Y-56294D01*
X62465Y-56294D02*
X62446Y-56256D01*
X62446Y-56181D01*
X62465Y-56144D01*
X62483Y-56125D01*
X62521Y-56106D01*
X62633Y-56106D01*
X62671Y-56125D01*
X62690Y-56144D01*
X62708Y-56181D01*
X62708Y-56256D01*
X62690Y-56294D01*
X62446Y-55975D02*
X62708Y-55881D01*
X62446Y-55787D02*
X62708Y-55881D01*
X62802Y-55919D01*
X62821Y-55937D01*
X62840Y-55975D01*
X62708Y-55337D02*
X62315Y-55337D01*
X62315Y-55244D01*
X62334Y-55187D01*
X62371Y-55150D01*
X62408Y-55131D01*
X62483Y-55112D01*
X62540Y-55112D01*
X62615Y-55131D01*
X62652Y-55150D01*
X62690Y-55187D01*
X62708Y-55244D01*
X62708Y-55337D01*
X62708Y-54887D02*
X62690Y-54925D01*
X62671Y-54944D01*
X62633Y-54962D01*
X62521Y-54962D01*
X62483Y-54944D01*
X62465Y-54925D01*
X62446Y-54887D01*
X62446Y-54831D01*
X62465Y-54794D01*
X62483Y-54775D01*
X62521Y-54756D01*
X62633Y-54756D01*
X62671Y-54775D01*
X62690Y-54794D01*
X62708Y-54831D01*
X62708Y-54887D01*
X62708Y-54588D02*
X62446Y-54588D01*
X62483Y-54588D02*
X62465Y-54569D01*
X62446Y-54531D01*
X62446Y-54475D01*
X62465Y-54438D01*
X62502Y-54419D01*
X62708Y-54419D01*
X62502Y-54419D02*
X62465Y-54400D01*
X62446Y-54363D01*
X62446Y-54306D01*
X62465Y-54269D01*
X62502Y-54250D01*
X62708Y-54250D01*
X62708Y-54063D02*
X62446Y-54063D01*
X62315Y-54063D02*
X62334Y-54081D01*
X62352Y-54063D01*
X62334Y-54044D01*
X62315Y-54063D01*
X62352Y-54063D01*
X62446Y-53875D02*
X62708Y-53875D01*
X62483Y-53875D02*
X62465Y-53856D01*
X62446Y-53819D01*
X62446Y-53763D01*
X62465Y-53725D01*
X62502Y-53706D01*
X62708Y-53706D01*
X62708Y-53519D02*
X62446Y-53519D01*
X62315Y-53519D02*
X62334Y-53538D01*
X62352Y-53519D01*
X62334Y-53500D01*
X62315Y-53519D01*
X62352Y-53519D01*
X62690Y-53163D02*
X62708Y-53200D01*
X62708Y-53275D01*
X62690Y-53313D01*
X62671Y-53331D01*
X62633Y-53350D01*
X62521Y-53350D01*
X62483Y-53331D01*
X62465Y-53313D01*
X62446Y-53275D01*
X62446Y-53200D01*
X62465Y-53163D01*
X62502Y-52563D02*
X62521Y-52507D01*
X62540Y-52488D01*
X62577Y-52469D01*
X62633Y-52469D01*
X62671Y-52488D01*
X62690Y-52507D01*
X62708Y-52544D01*
X62708Y-52694D01*
X62315Y-52694D01*
X62315Y-52563D01*
X62334Y-52525D01*
X62352Y-52507D01*
X62390Y-52488D01*
X62427Y-52488D01*
X62465Y-52507D01*
X62483Y-52525D01*
X62502Y-52563D01*
X62502Y-52694D01*
X62690Y-52150D02*
X62708Y-52188D01*
X62708Y-52263D01*
X62690Y-52300D01*
X62652Y-52319D01*
X62502Y-52319D01*
X62465Y-52300D01*
X62446Y-52263D01*
X62446Y-52188D01*
X62465Y-52150D01*
X62502Y-52132D01*
X62540Y-52132D01*
X62577Y-52319D01*
X62708Y-51794D02*
X62502Y-51794D01*
X62465Y-51813D01*
X62446Y-51850D01*
X62446Y-51925D01*
X62465Y-51963D01*
X62690Y-51794D02*
X62708Y-51832D01*
X62708Y-51925D01*
X62690Y-51963D01*
X62652Y-51982D01*
X62615Y-51982D01*
X62577Y-51963D01*
X62558Y-51925D01*
X62558Y-51832D01*
X62540Y-51794D01*
X62446Y-51438D02*
X62708Y-51438D01*
X62446Y-51607D02*
X62652Y-51607D01*
X62690Y-51588D01*
X62708Y-51550D01*
X62708Y-51494D01*
X62690Y-51457D01*
X62671Y-51438D01*
X62690Y-51082D02*
X62708Y-51119D01*
X62708Y-51194D01*
X62690Y-51232D01*
X62671Y-51250D01*
X62633Y-51269D01*
X62521Y-51269D01*
X62483Y-51250D01*
X62465Y-51232D01*
X62446Y-51194D01*
X62446Y-51119D01*
X62465Y-51082D01*
X62708Y-50913D02*
X62315Y-50913D01*
X62708Y-50744D02*
X62502Y-50744D01*
X62465Y-50763D01*
X62446Y-50800D01*
X62446Y-50857D01*
X62465Y-50894D01*
X62483Y-50913D01*
X62708Y-50388D02*
X62502Y-50388D01*
X62465Y-50407D01*
X62446Y-50444D01*
X62446Y-50519D01*
X62465Y-50557D01*
X62690Y-50388D02*
X62708Y-50426D01*
X62708Y-50519D01*
X62690Y-50557D01*
X62652Y-50576D01*
X62615Y-50576D01*
X62577Y-50557D01*
X62558Y-50519D01*
X62558Y-50426D01*
X62540Y-50388D01*
X62708Y-50201D02*
X62446Y-50201D01*
X62483Y-50201D02*
X62465Y-50182D01*
X62446Y-50144D01*
X62446Y-50088D01*
X62465Y-50051D01*
X62502Y-50032D01*
X62708Y-50032D01*
X62502Y-50032D02*
X62465Y-50013D01*
X62446Y-49976D01*
X62446Y-49919D01*
X62465Y-49882D01*
X62502Y-49863D01*
X62708Y-49863D01*
X62446Y-49676D02*
X62840Y-49676D01*
X62465Y-49676D02*
X62446Y-49638D01*
X62446Y-49563D01*
X62465Y-49526D01*
X62483Y-49507D01*
X62521Y-49488D01*
X62633Y-49488D01*
X62671Y-49507D01*
X62690Y-49526D01*
X62708Y-49563D01*
X62708Y-49638D01*
X62690Y-49676D01*
X62690Y-49301D02*
X62708Y-49301D01*
X62746Y-49319D01*
X62765Y-49338D01*
X62708Y-48832D02*
X62315Y-48832D01*
X62465Y-48832D02*
X62446Y-48794D01*
X62446Y-48719D01*
X62465Y-48682D01*
X62483Y-48663D01*
X62521Y-48644D01*
X62633Y-48644D01*
X62671Y-48663D01*
X62690Y-48682D01*
X62708Y-48719D01*
X62708Y-48794D01*
X62690Y-48832D01*
X62708Y-48307D02*
X62502Y-48307D01*
X62465Y-48326D01*
X62446Y-48363D01*
X62446Y-48438D01*
X62465Y-48476D01*
X62690Y-48307D02*
X62708Y-48345D01*
X62708Y-48438D01*
X62690Y-48476D01*
X62652Y-48495D01*
X62615Y-48495D01*
X62577Y-48476D01*
X62558Y-48438D01*
X62558Y-48345D01*
X62540Y-48307D01*
X62690Y-48138D02*
X62708Y-48101D01*
X62708Y-48026D01*
X62690Y-47988D01*
X62652Y-47970D01*
X62633Y-47970D01*
X62596Y-47988D01*
X62577Y-48026D01*
X62577Y-48082D01*
X62558Y-48120D01*
X62521Y-48138D01*
X62502Y-48138D01*
X62465Y-48120D01*
X62446Y-48082D01*
X62446Y-48026D01*
X62465Y-47988D01*
X62690Y-47651D02*
X62708Y-47688D01*
X62708Y-47763D01*
X62690Y-47801D01*
X62652Y-47820D01*
X62502Y-47820D01*
X62465Y-47801D01*
X62446Y-47763D01*
X62446Y-47688D01*
X62465Y-47651D01*
X62502Y-47632D01*
X62540Y-47632D01*
X62577Y-47820D01*
X62708Y-47295D02*
X62315Y-47295D01*
X62690Y-47295D02*
X62708Y-47332D01*
X62708Y-47407D01*
X62690Y-47445D01*
X62671Y-47463D01*
X62633Y-47482D01*
X62521Y-47482D01*
X62483Y-47463D01*
X62465Y-47445D01*
X62446Y-47407D01*
X62446Y-47332D01*
X62465Y-47295D01*
X62708Y-46751D02*
X62690Y-46788D01*
X62671Y-46807D01*
X62633Y-46826D01*
X62521Y-46826D01*
X62483Y-46807D01*
X62465Y-46788D01*
X62446Y-46751D01*
X62446Y-46695D01*
X62465Y-46657D01*
X62483Y-46638D01*
X62521Y-46620D01*
X62633Y-46620D01*
X62671Y-46638D01*
X62690Y-46657D01*
X62708Y-46695D01*
X62708Y-46751D01*
X62446Y-46451D02*
X62708Y-46451D01*
X62483Y-46451D02*
X62465Y-46432D01*
X62446Y-46395D01*
X62446Y-46339D01*
X62465Y-46301D01*
X62502Y-46282D01*
X62708Y-46282D01*
X62446Y-45851D02*
X62446Y-45701D01*
X62315Y-45795D02*
X62652Y-45795D01*
X62690Y-45776D01*
X62708Y-45739D01*
X62708Y-45701D01*
X62708Y-45570D02*
X62315Y-45570D01*
X62708Y-45401D02*
X62502Y-45401D01*
X62465Y-45420D01*
X62446Y-45457D01*
X62446Y-45514D01*
X62465Y-45551D01*
X62483Y-45570D01*
X62690Y-45064D02*
X62708Y-45101D01*
X62708Y-45176D01*
X62690Y-45214D01*
X62652Y-45232D01*
X62502Y-45232D01*
X62465Y-45214D01*
X62446Y-45176D01*
X62446Y-45101D01*
X62465Y-45064D01*
X62502Y-45045D01*
X62540Y-45045D01*
X62577Y-45232D01*
X62708Y-44576D02*
X62315Y-44576D01*
X62708Y-44351D02*
X62483Y-44520D01*
X62315Y-44351D02*
X62540Y-44576D01*
X62690Y-44033D02*
X62708Y-44070D01*
X62708Y-44145D01*
X62690Y-44183D01*
X62652Y-44201D01*
X62502Y-44201D01*
X62465Y-44183D01*
X62446Y-44145D01*
X62446Y-44070D01*
X62465Y-44033D01*
X62502Y-44014D01*
X62540Y-44014D01*
X62577Y-44201D01*
X62446Y-43883D02*
X62708Y-43789D01*
X62446Y-43695D02*
X62708Y-43789D01*
X62802Y-43826D01*
X62821Y-43845D01*
X62840Y-43883D01*
X62315Y-43376D02*
X62315Y-43451D01*
X62334Y-43489D01*
X62352Y-43508D01*
X62408Y-43545D01*
X62483Y-43564D01*
X62633Y-43564D01*
X62671Y-43545D01*
X62690Y-43526D01*
X62708Y-43489D01*
X62708Y-43414D01*
X62690Y-43376D01*
X62671Y-43358D01*
X62633Y-43339D01*
X62540Y-43339D01*
X62502Y-43358D01*
X62483Y-43376D01*
X62465Y-43414D01*
X62465Y-43489D01*
X62483Y-43526D01*
X62502Y-43545D01*
X62540Y-43564D01*
X62446Y-43001D02*
X62708Y-43001D01*
X62296Y-43095D02*
X62577Y-43189D01*
X62577Y-42945D01*
X62708Y-42495D02*
X62315Y-42495D01*
X62465Y-42495D02*
X62446Y-42458D01*
X62446Y-42383D01*
X62465Y-42345D01*
X62483Y-42327D01*
X62521Y-42308D01*
X62633Y-42308D01*
X62671Y-42327D01*
X62690Y-42345D01*
X62708Y-42383D01*
X62708Y-42458D01*
X62690Y-42495D01*
X62446Y-42177D02*
X62708Y-42083D01*
X62446Y-41989D02*
X62708Y-42083D01*
X62802Y-42120D01*
X62821Y-42139D01*
X62840Y-42177D01*
X62708Y-41239D02*
X62315Y-41239D01*
X62708Y-41014D01*
X62315Y-41014D01*
X62690Y-40677D02*
X62708Y-40714D01*
X62708Y-40789D01*
X62690Y-40827D01*
X62652Y-40845D01*
X62502Y-40845D01*
X62465Y-40827D01*
X62446Y-40789D01*
X62446Y-40714D01*
X62465Y-40677D01*
X62502Y-40658D01*
X62540Y-40658D01*
X62577Y-40845D01*
X62690Y-40508D02*
X62708Y-40471D01*
X62708Y-40396D01*
X62690Y-40358D01*
X62652Y-40339D01*
X62633Y-40339D01*
X62596Y-40358D01*
X62577Y-40396D01*
X62577Y-40452D01*
X62558Y-40489D01*
X62521Y-40508D01*
X62502Y-40508D01*
X62465Y-40489D01*
X62446Y-40452D01*
X62446Y-40396D01*
X62465Y-40358D01*
X62446Y-40227D02*
X62446Y-40077D01*
X62315Y-40171D02*
X62652Y-40171D01*
X62690Y-40152D01*
X62708Y-40114D01*
X62708Y-40077D01*
X62708Y-39889D02*
X62690Y-39927D01*
X62671Y-39946D01*
X62633Y-39964D01*
X62521Y-39964D01*
X62483Y-39946D01*
X62465Y-39927D01*
X62446Y-39889D01*
X62446Y-39833D01*
X62465Y-39796D01*
X62483Y-39777D01*
X62521Y-39758D01*
X62633Y-39758D01*
X62671Y-39777D01*
X62690Y-39796D01*
X62708Y-39833D01*
X62708Y-39889D01*
X62708Y-39589D02*
X62446Y-39589D01*
X62521Y-39589D02*
X62483Y-39571D01*
X62465Y-39552D01*
X62446Y-39514D01*
X62446Y-39477D01*
X62596Y-39064D02*
X62596Y-38877D01*
X62708Y-39102D02*
X62315Y-38971D01*
X62708Y-38839D01*
X62671Y-38708D02*
X62690Y-38689D01*
X62708Y-38708D01*
X62690Y-38727D01*
X62671Y-38708D01*
X62708Y-38708D01*
X62708Y-38221D02*
X62315Y-38221D01*
X62315Y-38127D01*
X62334Y-38071D01*
X62371Y-38033D01*
X62408Y-38015D01*
X62483Y-37996D01*
X62540Y-37996D01*
X62615Y-38015D01*
X62652Y-38033D01*
X62690Y-38071D01*
X62708Y-38127D01*
X62708Y-38221D01*
X62708Y-37827D02*
X62446Y-37827D01*
X62315Y-37827D02*
X62334Y-37846D01*
X62352Y-37827D01*
X62334Y-37808D01*
X62315Y-37827D01*
X62352Y-37827D01*
X62708Y-37471D02*
X62502Y-37471D01*
X62465Y-37490D01*
X62446Y-37527D01*
X62446Y-37602D01*
X62465Y-37640D01*
X62690Y-37471D02*
X62708Y-37508D01*
X62708Y-37602D01*
X62690Y-37640D01*
X62652Y-37658D01*
X62615Y-37658D01*
X62577Y-37640D01*
X62558Y-37602D01*
X62558Y-37508D01*
X62540Y-37471D01*
X62446Y-37321D02*
X62446Y-37115D01*
X62708Y-37321D01*
X62708Y-37115D01*
G54D16*
X34478Y-56062D02*
X33915Y-56325D01*
X34478Y-56512D02*
X33296Y-56512D01*
X33296Y-56212D01*
X33353Y-56137D01*
X33409Y-56100D01*
X33521Y-56062D01*
X33690Y-56062D01*
X33803Y-56100D01*
X33859Y-56137D01*
X33915Y-56212D01*
X33915Y-56512D01*
X34478Y-55725D02*
X33296Y-55725D01*
X33353Y-54937D02*
X33296Y-55012D01*
X33296Y-55125D01*
X33353Y-55237D01*
X33465Y-55312D01*
X33578Y-55350D01*
X33803Y-55387D01*
X33971Y-55387D01*
X34196Y-55350D01*
X34309Y-55312D01*
X34421Y-55237D01*
X34478Y-55125D01*
X34478Y-55050D01*
X34421Y-54937D01*
X34365Y-54900D01*
X33971Y-54900D01*
X33971Y-55050D01*
X34478Y-54562D02*
X33296Y-54562D01*
X33859Y-54562D02*
X33859Y-54112D01*
X34478Y-54112D02*
X33296Y-54112D01*
X33296Y-53850D02*
X33296Y-53400D01*
X34478Y-53625D02*
X33296Y-53625D01*
X36272Y-56550D02*
X36328Y-56437D01*
X36328Y-56250D01*
X36272Y-56175D01*
X36215Y-56137D01*
X36103Y-56100D01*
X35991Y-56100D01*
X35878Y-56137D01*
X35822Y-56175D01*
X35766Y-56250D01*
X35709Y-56400D01*
X35653Y-56475D01*
X35597Y-56512D01*
X35484Y-56550D01*
X35372Y-56550D01*
X35259Y-56512D01*
X35203Y-56475D01*
X35147Y-56400D01*
X35147Y-56212D01*
X35203Y-56100D01*
X36328Y-55762D02*
X35147Y-55762D01*
X36328Y-55387D02*
X35147Y-55387D01*
X35147Y-55200D01*
X35203Y-55087D01*
X35316Y-55012D01*
X35428Y-54975D01*
X35653Y-54937D01*
X35822Y-54937D01*
X36047Y-54975D01*
X36159Y-55012D01*
X36272Y-55087D01*
X36328Y-55200D01*
X36328Y-55387D01*
X35709Y-54600D02*
X35709Y-54337D01*
X36328Y-54225D02*
X36328Y-54600D01*
X35147Y-54600D01*
X35147Y-54225D01*
G54D17*
X53523Y-37300D02*
X53663Y-37300D01*
X53663Y-37300D02*
X53663Y-36790D01*
X53523Y-36790D02*
X53663Y-36790D01*
X53523Y-37300D02*
X53523Y-36790D01*
X53779Y-37300D02*
X53919Y-37300D01*
X53919Y-37300D02*
X53919Y-36790D01*
X53779Y-36790D02*
X53919Y-36790D01*
X53779Y-37300D02*
X53779Y-36790D01*
X54035Y-37300D02*
X54175Y-37300D01*
X54175Y-37300D02*
X54175Y-36790D01*
X54035Y-36790D02*
X54175Y-36790D01*
X54035Y-37300D02*
X54035Y-36790D01*
X54291Y-37300D02*
X54431Y-37300D01*
X54431Y-37300D02*
X54431Y-36790D01*
X54291Y-36790D02*
X54431Y-36790D01*
X54291Y-37300D02*
X54291Y-36790D01*
X54547Y-37300D02*
X54687Y-37300D01*
X54687Y-37300D02*
X54687Y-36790D01*
X54547Y-36790D02*
X54687Y-36790D01*
X54547Y-37300D02*
X54547Y-36790D01*
X54803Y-37300D02*
X54943Y-37300D01*
X54943Y-37300D02*
X54943Y-36790D01*
X54803Y-36790D02*
X54943Y-36790D01*
X54803Y-37300D02*
X54803Y-36790D01*
X55057Y-37300D02*
X55197Y-37300D01*
X55197Y-37300D02*
X55197Y-36790D01*
X55057Y-36790D02*
X55197Y-36790D01*
X55057Y-37300D02*
X55057Y-36790D01*
X55313Y-37300D02*
X55453Y-37300D01*
X55453Y-37300D02*
X55453Y-36790D01*
X55313Y-36790D02*
X55453Y-36790D01*
X55313Y-37300D02*
X55313Y-36790D01*
X55569Y-37300D02*
X55709Y-37300D01*
X55709Y-37300D02*
X55709Y-36790D01*
X55569Y-36790D02*
X55709Y-36790D01*
X55569Y-37300D02*
X55569Y-36790D01*
X55825Y-37300D02*
X55965Y-37300D01*
X55965Y-37300D02*
X55965Y-36790D01*
X55825Y-36790D02*
X55965Y-36790D01*
X55825Y-37300D02*
X55825Y-36790D01*
X56081Y-37300D02*
X56221Y-37300D01*
X56221Y-37300D02*
X56221Y-36790D01*
X56081Y-36790D02*
X56221Y-36790D01*
X56081Y-37300D02*
X56081Y-36790D01*
X56337Y-37300D02*
X56477Y-37300D01*
X56477Y-37300D02*
X56477Y-36790D01*
X56337Y-36790D02*
X56477Y-36790D01*
X56337Y-37300D02*
X56337Y-36790D01*
X56337Y-34710D02*
X56477Y-34710D01*
X56477Y-34710D02*
X56477Y-34200D01*
X56337Y-34200D02*
X56477Y-34200D01*
X56337Y-34710D02*
X56337Y-34200D01*
X56081Y-34710D02*
X56221Y-34710D01*
X56221Y-34710D02*
X56221Y-34200D01*
X56081Y-34200D02*
X56221Y-34200D01*
X56081Y-34710D02*
X56081Y-34200D01*
X55825Y-34710D02*
X55965Y-34710D01*
X55965Y-34710D02*
X55965Y-34200D01*
X55825Y-34200D02*
X55965Y-34200D01*
X55825Y-34710D02*
X55825Y-34200D01*
X55569Y-34710D02*
X55709Y-34710D01*
X55709Y-34710D02*
X55709Y-34200D01*
X55569Y-34200D02*
X55709Y-34200D01*
X55569Y-34710D02*
X55569Y-34200D01*
X55313Y-34710D02*
X55453Y-34710D01*
X55453Y-34710D02*
X55453Y-34200D01*
X55313Y-34200D02*
X55453Y-34200D01*
X55313Y-34710D02*
X55313Y-34200D01*
X55057Y-34710D02*
X55197Y-34710D01*
X55197Y-34710D02*
X55197Y-34200D01*
X55057Y-34200D02*
X55197Y-34200D01*
X55057Y-34710D02*
X55057Y-34200D01*
X54803Y-34710D02*
X54943Y-34710D01*
X54943Y-34710D02*
X54943Y-34200D01*
X54803Y-34200D02*
X54943Y-34200D01*
X54803Y-34710D02*
X54803Y-34200D01*
X54547Y-34710D02*
X54687Y-34710D01*
X54687Y-34710D02*
X54687Y-34200D01*
X54547Y-34200D02*
X54687Y-34200D01*
X54547Y-34710D02*
X54547Y-34200D01*
X54291Y-34710D02*
X54431Y-34710D01*
X54431Y-34710D02*
X54431Y-34200D01*
X54291Y-34200D02*
X54431Y-34200D01*
X54291Y-34710D02*
X54291Y-34200D01*
X54035Y-34710D02*
X54175Y-34710D01*
X54175Y-34710D02*
X54175Y-34200D01*
X54035Y-34200D02*
X54175Y-34200D01*
X54035Y-34710D02*
X54035Y-34200D01*
X53779Y-34710D02*
X53919Y-34710D01*
X53919Y-34710D02*
X53919Y-34200D01*
X53779Y-34200D02*
X53919Y-34200D01*
X53779Y-34710D02*
X53779Y-34200D01*
X53523Y-34710D02*
X53663Y-34710D01*
X53663Y-34710D02*
X53663Y-34200D01*
X53523Y-34200D02*
X53663Y-34200D01*
X53523Y-34710D02*
X53523Y-34200D01*
G54D18*
X53249Y-36773D02*
X56751Y-36773D01*
X56751Y-36773D02*
X56751Y-34727D01*
X56751Y-34727D02*
X53249Y-34727D01*
X53249Y-34727D02*
X53249Y-36773D01*
G54D19*
X53726Y-36389D02*
G75*
G03X53726Y-36389I-123J0D01*
G74*
G01*
G54D20*
X48050Y-34907D02*
X48050Y-35350D01*
X48050Y-35350D02*
X47250Y-35350D01*
X47250Y-35350D02*
X47250Y-34907D01*
X48050Y-34481D02*
X48050Y-34050D01*
X48050Y-34050D02*
X47250Y-34050D01*
X47250Y-34050D02*
X47250Y-34481D01*
X47100Y-34907D02*
X47100Y-35350D01*
X47100Y-35350D02*
X46300Y-35350D01*
X46300Y-35350D02*
X46300Y-34907D01*
X47100Y-34481D02*
X47100Y-34050D01*
X47100Y-34050D02*
X46300Y-34050D01*
X46300Y-34050D02*
X46300Y-34481D01*
G54D14*
X71000Y-53879D02*
X71700Y-53879D01*
X75300Y-53879D02*
X76000Y-53879D01*
X76000Y-53879D02*
X76000Y-54579D01*
X76000Y-58179D02*
X76000Y-58879D01*
X76000Y-58879D02*
X75300Y-58879D01*
X71700Y-58879D02*
X71000Y-58879D01*
X71000Y-58879D02*
X71000Y-58179D01*
X71000Y-54579D02*
X71000Y-53879D01*
X56000Y-52629D02*
X56700Y-52629D01*
X60300Y-52629D02*
X61000Y-52629D01*
X61000Y-52629D02*
X61000Y-53329D01*
X61000Y-56929D02*
X61000Y-57629D01*
X61000Y-57629D02*
X60300Y-57629D01*
X56700Y-57629D02*
X56000Y-57629D01*
X56000Y-57629D02*
X56000Y-56929D01*
X56000Y-53329D02*
X56000Y-52629D01*
X63500Y-53879D02*
X64200Y-53879D01*
X67800Y-53879D02*
X68500Y-53879D01*
X68500Y-53879D02*
X68500Y-54579D01*
X68500Y-58179D02*
X68500Y-58879D01*
X68500Y-58879D02*
X67800Y-58879D01*
X64200Y-58879D02*
X63500Y-58879D01*
X63500Y-58879D02*
X63500Y-58179D01*
X63500Y-54579D02*
X63500Y-53879D01*
X48500Y-52000D02*
X49200Y-52000D01*
X52800Y-52000D02*
X53500Y-52000D01*
X53500Y-52000D02*
X53500Y-52700D01*
X53500Y-56300D02*
X53500Y-57000D01*
X53500Y-57000D02*
X52800Y-57000D01*
X49200Y-57000D02*
X48500Y-57000D01*
X48500Y-57000D02*
X48500Y-56300D01*
X48500Y-52700D02*
X48500Y-52000D01*
X37250Y-52629D02*
X37950Y-52629D01*
X41550Y-52629D02*
X42250Y-52629D01*
X42250Y-52629D02*
X42250Y-53329D01*
X42250Y-56929D02*
X42250Y-57629D01*
X42250Y-57629D02*
X41550Y-57629D01*
X37950Y-57629D02*
X37250Y-57629D01*
X37250Y-57629D02*
X37250Y-56929D01*
X37250Y-53329D02*
X37250Y-52629D01*
X33500Y-23130D02*
X34200Y-23130D01*
X37800Y-23130D02*
X38500Y-23130D01*
X38500Y-23130D02*
X38500Y-23830D01*
X38500Y-27430D02*
X38500Y-28130D01*
X38500Y-28130D02*
X37800Y-28130D01*
X34200Y-28130D02*
X33500Y-28130D01*
X33500Y-28130D02*
X33500Y-27430D01*
X33500Y-23830D02*
X33500Y-23130D01*
X63500Y-38879D02*
X64200Y-38879D01*
X67800Y-38879D02*
X68500Y-38879D01*
X68500Y-38879D02*
X68500Y-39579D01*
X68500Y-43179D02*
X68500Y-43879D01*
X68500Y-43879D02*
X67800Y-43879D01*
X64200Y-43879D02*
X63500Y-43879D01*
X63500Y-43879D02*
X63500Y-43179D01*
X63500Y-39579D02*
X63500Y-38879D01*
X71000Y-38879D02*
X71700Y-38879D01*
X75300Y-38879D02*
X76000Y-38879D01*
X76000Y-38879D02*
X76000Y-39579D01*
X76000Y-43179D02*
X76000Y-43879D01*
X76000Y-43879D02*
X75300Y-43879D01*
X71700Y-43879D02*
X71000Y-43879D01*
X71000Y-43879D02*
X71000Y-43179D01*
X71000Y-39579D02*
X71000Y-38879D01*
X41000Y-22629D02*
X41700Y-22629D01*
X45300Y-22629D02*
X46000Y-22629D01*
X46000Y-22629D02*
X46000Y-23329D01*
X46000Y-26929D02*
X46000Y-27629D01*
X46000Y-27629D02*
X45300Y-27629D01*
X41700Y-27629D02*
X41000Y-27629D01*
X41000Y-27629D02*
X41000Y-26929D01*
X41000Y-23329D02*
X41000Y-22629D01*
X63500Y-23880D02*
X64200Y-23880D01*
X67800Y-23880D02*
X68500Y-23880D01*
X68500Y-23880D02*
X68500Y-24580D01*
X68500Y-28180D02*
X68500Y-28880D01*
X68500Y-28880D02*
X67800Y-28880D01*
X64200Y-28880D02*
X63500Y-28880D01*
X63500Y-28880D02*
X63500Y-28180D01*
X63500Y-24580D02*
X63500Y-23880D01*
X56000Y-22629D02*
X56700Y-22629D01*
X60300Y-22629D02*
X61000Y-22629D01*
X61000Y-22629D02*
X61000Y-23329D01*
X61000Y-26929D02*
X61000Y-27629D01*
X61000Y-27629D02*
X60300Y-27629D01*
X56700Y-27629D02*
X56000Y-27629D01*
X56000Y-27629D02*
X56000Y-26929D01*
X56000Y-23329D02*
X56000Y-22629D01*
X48500Y-22000D02*
X49200Y-22000D01*
X52800Y-22000D02*
X53500Y-22000D01*
X53500Y-22000D02*
X53500Y-22700D01*
X53500Y-26300D02*
X53500Y-27000D01*
X53500Y-27000D02*
X52800Y-27000D01*
X49200Y-27000D02*
X48500Y-27000D01*
X48500Y-27000D02*
X48500Y-26300D01*
X48500Y-22700D02*
X48500Y-22000D01*
X71000Y-23880D02*
X71700Y-23880D01*
X75300Y-23880D02*
X76000Y-23880D01*
X76000Y-23880D02*
X76000Y-24580D01*
X76000Y-28180D02*
X76000Y-28880D01*
X76000Y-28880D02*
X75300Y-28880D01*
X71700Y-28880D02*
X71000Y-28880D01*
X71000Y-28880D02*
X71000Y-28180D01*
X71000Y-24580D02*
X71000Y-23880D01*
X56000Y-37629D02*
X56700Y-37629D01*
X60300Y-37629D02*
X61000Y-37629D01*
X61000Y-37629D02*
X61000Y-38329D01*
X61000Y-41929D02*
X61000Y-42629D01*
X61000Y-42629D02*
X60300Y-42629D01*
X56700Y-42629D02*
X56000Y-42629D01*
X56000Y-42629D02*
X56000Y-41929D01*
X56000Y-38329D02*
X56000Y-37629D01*
X48500Y-37000D02*
X49200Y-37000D01*
X52800Y-37000D02*
X53500Y-37000D01*
X53500Y-37000D02*
X53500Y-37700D01*
X53500Y-41300D02*
X53500Y-42000D01*
X53500Y-42000D02*
X52800Y-42000D01*
X49200Y-42000D02*
X48500Y-42000D01*
X48500Y-42000D02*
X48500Y-41300D01*
X48500Y-37700D02*
X48500Y-37000D01*
X41000Y-37629D02*
X41700Y-37629D01*
X45300Y-37629D02*
X46000Y-37629D01*
X46000Y-37629D02*
X46000Y-38329D01*
X46000Y-41929D02*
X46000Y-42629D01*
X46000Y-42629D02*
X45300Y-42629D01*
X41700Y-42629D02*
X41000Y-42629D01*
X41000Y-42629D02*
X41000Y-41929D01*
X41000Y-38329D02*
X41000Y-37629D01*
X33500Y-38129D02*
X34200Y-38129D01*
X37800Y-38129D02*
X38500Y-38129D01*
X38500Y-38129D02*
X38500Y-38829D01*
X38500Y-42429D02*
X38500Y-43129D01*
X38500Y-43129D02*
X37800Y-43129D01*
X34200Y-43129D02*
X33500Y-43129D01*
X33500Y-43129D02*
X33500Y-42429D01*
X33500Y-38829D02*
X33500Y-38129D01*
X63500Y-46379D02*
X64200Y-46379D01*
X67800Y-46379D02*
X68500Y-46379D01*
X68500Y-46379D02*
X68500Y-47079D01*
X68500Y-50679D02*
X68500Y-51379D01*
X68500Y-51379D02*
X67800Y-51379D01*
X64200Y-51379D02*
X63500Y-51379D01*
X63500Y-51379D02*
X63500Y-50679D01*
X63500Y-47079D02*
X63500Y-46379D01*
X56000Y-45129D02*
X56700Y-45129D01*
X60300Y-45129D02*
X61000Y-45129D01*
X61000Y-45129D02*
X61000Y-45829D01*
X61000Y-49429D02*
X61000Y-50129D01*
X61000Y-50129D02*
X60300Y-50129D01*
X56700Y-50129D02*
X56000Y-50129D01*
X56000Y-50129D02*
X56000Y-49429D01*
X56000Y-45829D02*
X56000Y-45129D01*
X48500Y-44500D02*
X49200Y-44500D01*
X52800Y-44500D02*
X53500Y-44500D01*
X53500Y-44500D02*
X53500Y-45200D01*
X53500Y-48800D02*
X53500Y-49500D01*
X53500Y-49500D02*
X52800Y-49500D01*
X49200Y-49500D02*
X48500Y-49500D01*
X48500Y-49500D02*
X48500Y-48800D01*
X48500Y-45200D02*
X48500Y-44500D01*
X41000Y-45129D02*
X41700Y-45129D01*
X45300Y-45129D02*
X46000Y-45129D01*
X46000Y-45129D02*
X46000Y-45829D01*
X46000Y-49429D02*
X46000Y-50129D01*
X46000Y-50129D02*
X45300Y-50129D01*
X41700Y-50129D02*
X41000Y-50129D01*
X41000Y-50129D02*
X41000Y-49429D01*
X41000Y-45829D02*
X41000Y-45129D01*
X33500Y-45629D02*
X34200Y-45629D01*
X37800Y-45629D02*
X38500Y-45629D01*
X38500Y-45629D02*
X38500Y-46329D01*
X38500Y-49929D02*
X38500Y-50629D01*
X38500Y-50629D02*
X37800Y-50629D01*
X34200Y-50629D02*
X33500Y-50629D01*
X33500Y-50629D02*
X33500Y-49929D01*
X33500Y-46329D02*
X33500Y-45629D01*
X71000Y-46379D02*
X71700Y-46379D01*
X75300Y-46379D02*
X76000Y-46379D01*
X76000Y-46379D02*
X76000Y-47079D01*
X76000Y-50679D02*
X76000Y-51379D01*
X76000Y-51379D02*
X75300Y-51379D01*
X71700Y-51379D02*
X71000Y-51379D01*
X71000Y-51379D02*
X71000Y-50679D01*
X71000Y-47079D02*
X71000Y-46379D01*
X33500Y-30629D02*
X34200Y-30629D01*
X37800Y-30629D02*
X38500Y-30629D01*
X38500Y-30629D02*
X38500Y-31329D01*
X38500Y-34929D02*
X38500Y-35629D01*
X38500Y-35629D02*
X37800Y-35629D01*
X34200Y-35629D02*
X33500Y-35629D01*
X33500Y-35629D02*
X33500Y-34929D01*
X33500Y-31329D02*
X33500Y-30629D01*
X63500Y-31379D02*
X64200Y-31379D01*
X67800Y-31379D02*
X68500Y-31379D01*
X68500Y-31379D02*
X68500Y-32079D01*
X68500Y-35679D02*
X68500Y-36379D01*
X68500Y-36379D02*
X67800Y-36379D01*
X64200Y-36379D02*
X63500Y-36379D01*
X63500Y-36379D02*
X63500Y-35679D01*
X63500Y-32079D02*
X63500Y-31379D01*
X48500Y-29500D02*
X49200Y-29500D01*
X52800Y-29500D02*
X53500Y-29500D01*
X53500Y-29500D02*
X53500Y-30200D01*
X53500Y-33800D02*
X53500Y-34500D01*
X53500Y-34500D02*
X52800Y-34500D01*
X49200Y-34500D02*
X48500Y-34500D01*
X48500Y-34500D02*
X48500Y-33800D01*
X48500Y-30200D02*
X48500Y-29500D01*
X41000Y-30129D02*
X41700Y-30129D01*
X45300Y-30129D02*
X46000Y-30129D01*
X46000Y-30129D02*
X46000Y-30829D01*
X46000Y-34429D02*
X46000Y-35129D01*
X46000Y-35129D02*
X45300Y-35129D01*
X41700Y-35129D02*
X41000Y-35129D01*
X41000Y-35129D02*
X41000Y-34429D01*
X41000Y-30829D02*
X41000Y-30129D01*
X56000Y-30129D02*
X56700Y-30129D01*
X60300Y-30129D02*
X61000Y-30129D01*
X61000Y-30129D02*
X61000Y-30829D01*
X61000Y-34429D02*
X61000Y-35129D01*
X61000Y-35129D02*
X60300Y-35129D01*
X56700Y-35129D02*
X56000Y-35129D01*
X56000Y-35129D02*
X56000Y-34429D01*
X56000Y-30829D02*
X56000Y-30129D01*
X71000Y-31379D02*
X71700Y-31379D01*
X75300Y-31379D02*
X76000Y-31379D01*
X76000Y-31379D02*
X76000Y-32079D01*
X76000Y-35679D02*
X76000Y-36379D01*
X76000Y-36379D02*
X75300Y-36379D01*
X71700Y-36379D02*
X71000Y-36379D01*
X71000Y-36379D02*
X71000Y-35679D01*
X71000Y-32079D02*
X71000Y-31379D01*
G54D11*
X45723Y-23196D02*
X45723Y-21503D01*
X45723Y-21503D02*
X48676Y-21503D01*
X48676Y-21503D02*
X48676Y-23196D01*
X48676Y-23196D02*
X45723Y-23196D01*
X45723Y-30696D02*
X45723Y-29003D01*
X45723Y-29003D02*
X48676Y-29003D01*
X48676Y-29003D02*
X48676Y-30696D01*
X48676Y-30696D02*
X45723Y-30696D01*
X35254Y-27584D02*
X35214Y-27584D01*
X35254Y-26935D02*
X35254Y-27584D01*
X35254Y-27584D02*
X35214Y-27584D01*
X35214Y-27584D02*
X35214Y-26915D01*
X34329Y-27486D02*
X34329Y-27584D01*
X34329Y-27584D02*
X35470Y-27584D01*
X35470Y-27584D02*
X35470Y-27505D01*
X35470Y-26915D02*
X34329Y-26915D01*
X34329Y-26915D02*
X34329Y-27013D01*
X35470Y-27013D02*
X35470Y-26915D01*
X35037Y-27033D02*
X35037Y-27466D01*
X34762Y-27033D02*
X34762Y-27466D01*
X34762Y-27466D02*
X35018Y-27250D01*
X35018Y-27250D02*
X34762Y-27033D01*
X73254Y-38384D02*
X73214Y-38384D01*
X73254Y-37735D02*
X73254Y-38384D01*
X73254Y-38384D02*
X73214Y-38384D01*
X73214Y-38384D02*
X73214Y-37715D01*
X72329Y-38286D02*
X72329Y-38384D01*
X72329Y-38384D02*
X73470Y-38384D01*
X73470Y-38384D02*
X73470Y-38305D01*
X73470Y-37715D02*
X72329Y-37715D01*
X72329Y-37715D02*
X72329Y-37813D01*
X73470Y-37813D02*
X73470Y-37715D01*
X73037Y-37833D02*
X73037Y-38266D01*
X72762Y-37833D02*
X72762Y-38266D01*
X72762Y-38266D02*
X73018Y-38050D01*
X73018Y-38050D02*
X72762Y-37833D01*
X65704Y-38384D02*
X65664Y-38384D01*
X65704Y-37735D02*
X65704Y-38384D01*
X65704Y-38384D02*
X65664Y-38384D01*
X65664Y-38384D02*
X65664Y-37715D01*
X64779Y-38286D02*
X64779Y-38384D01*
X64779Y-38384D02*
X65920Y-38384D01*
X65920Y-38384D02*
X65920Y-38305D01*
X65920Y-37715D02*
X64779Y-37715D01*
X64779Y-37715D02*
X64779Y-37813D01*
X65920Y-37813D02*
X65920Y-37715D01*
X65487Y-37833D02*
X65487Y-38266D01*
X65212Y-37833D02*
X65212Y-38266D01*
X65212Y-38266D02*
X65468Y-38050D01*
X65468Y-38050D02*
X65212Y-37833D01*
X42754Y-27134D02*
X42714Y-27134D01*
X42754Y-26485D02*
X42754Y-27134D01*
X42754Y-27134D02*
X42714Y-27134D01*
X42714Y-27134D02*
X42714Y-26465D01*
X41829Y-27036D02*
X41829Y-27134D01*
X41829Y-27134D02*
X42970Y-27134D01*
X42970Y-27134D02*
X42970Y-27055D01*
X42970Y-26465D02*
X41829Y-26465D01*
X41829Y-26465D02*
X41829Y-26563D01*
X42970Y-26563D02*
X42970Y-26465D01*
X42537Y-26583D02*
X42537Y-27016D01*
X42262Y-26583D02*
X42262Y-27016D01*
X42262Y-27016D02*
X42518Y-26800D01*
X42518Y-26800D02*
X42262Y-26583D01*
X50204Y-26584D02*
X50164Y-26584D01*
X50204Y-25935D02*
X50204Y-26584D01*
X50204Y-26584D02*
X50164Y-26584D01*
X50164Y-26584D02*
X50164Y-25915D01*
X49279Y-26486D02*
X49279Y-26584D01*
X49279Y-26584D02*
X50420Y-26584D01*
X50420Y-26584D02*
X50420Y-26505D01*
X50420Y-25915D02*
X49279Y-25915D01*
X49279Y-25915D02*
X49279Y-26013D01*
X50420Y-26013D02*
X50420Y-25915D01*
X49987Y-26033D02*
X49987Y-26466D01*
X49712Y-26033D02*
X49712Y-26466D01*
X49712Y-26466D02*
X49968Y-26250D01*
X49968Y-26250D02*
X49712Y-26033D01*
X57754Y-27134D02*
X57714Y-27134D01*
X57754Y-26485D02*
X57754Y-27134D01*
X57754Y-27134D02*
X57714Y-27134D01*
X57714Y-27134D02*
X57714Y-26465D01*
X56829Y-27036D02*
X56829Y-27134D01*
X56829Y-27134D02*
X57970Y-27134D01*
X57970Y-27134D02*
X57970Y-27055D01*
X57970Y-26465D02*
X56829Y-26465D01*
X56829Y-26465D02*
X56829Y-26563D01*
X57970Y-26563D02*
X57970Y-26465D01*
X57537Y-26583D02*
X57537Y-27016D01*
X57262Y-26583D02*
X57262Y-27016D01*
X57262Y-27016D02*
X57518Y-26800D01*
X57518Y-26800D02*
X57262Y-26583D01*
X65254Y-28434D02*
X65214Y-28434D01*
X65254Y-27785D02*
X65254Y-28434D01*
X65254Y-28434D02*
X65214Y-28434D01*
X65214Y-28434D02*
X65214Y-27765D01*
X64329Y-28336D02*
X64329Y-28434D01*
X64329Y-28434D02*
X65470Y-28434D01*
X65470Y-28434D02*
X65470Y-28355D01*
X65470Y-27765D02*
X64329Y-27765D01*
X64329Y-27765D02*
X64329Y-27863D01*
X65470Y-27863D02*
X65470Y-27765D01*
X65037Y-27883D02*
X65037Y-28316D01*
X64762Y-27883D02*
X64762Y-28316D01*
X64762Y-28316D02*
X65018Y-28100D01*
X65018Y-28100D02*
X64762Y-27883D01*
X72754Y-28284D02*
X72714Y-28284D01*
X72754Y-27635D02*
X72754Y-28284D01*
X72754Y-28284D02*
X72714Y-28284D01*
X72714Y-28284D02*
X72714Y-27615D01*
X71829Y-28186D02*
X71829Y-28284D01*
X71829Y-28284D02*
X72970Y-28284D01*
X72970Y-28284D02*
X72970Y-28205D01*
X72970Y-27615D02*
X71829Y-27615D01*
X71829Y-27615D02*
X71829Y-27713D01*
X72970Y-27713D02*
X72970Y-27615D01*
X72537Y-27733D02*
X72537Y-28166D01*
X72262Y-27733D02*
X72262Y-28166D01*
X72262Y-28166D02*
X72518Y-27950D01*
X72518Y-27950D02*
X72262Y-27733D01*
X39004Y-57134D02*
X38964Y-57134D01*
X39004Y-56485D02*
X39004Y-57134D01*
X39004Y-57134D02*
X38964Y-57134D01*
X38964Y-57134D02*
X38964Y-56465D01*
X38079Y-57036D02*
X38079Y-57134D01*
X38079Y-57134D02*
X39220Y-57134D01*
X39220Y-57134D02*
X39220Y-57055D01*
X39220Y-56465D02*
X38079Y-56465D01*
X38079Y-56465D02*
X38079Y-56563D01*
X39220Y-56563D02*
X39220Y-56465D01*
X38787Y-56583D02*
X38787Y-57016D01*
X38512Y-56583D02*
X38512Y-57016D01*
X38512Y-57016D02*
X38768Y-56800D01*
X38768Y-56800D02*
X38512Y-56583D01*
X50254Y-56484D02*
X50214Y-56484D01*
X50254Y-55835D02*
X50254Y-56484D01*
X50254Y-56484D02*
X50214Y-56484D01*
X50214Y-56484D02*
X50214Y-55815D01*
X49329Y-56386D02*
X49329Y-56484D01*
X49329Y-56484D02*
X50470Y-56484D01*
X50470Y-56484D02*
X50470Y-56405D01*
X50470Y-55815D02*
X49329Y-55815D01*
X49329Y-55815D02*
X49329Y-55913D01*
X50470Y-55913D02*
X50470Y-55815D01*
X50037Y-55933D02*
X50037Y-56366D01*
X49762Y-55933D02*
X49762Y-56366D01*
X49762Y-56366D02*
X50018Y-56150D01*
X50018Y-56150D02*
X49762Y-55933D01*
X57704Y-57134D02*
X57664Y-57134D01*
X57704Y-56485D02*
X57704Y-57134D01*
X57704Y-57134D02*
X57664Y-57134D01*
X57664Y-57134D02*
X57664Y-56465D01*
X56779Y-57036D02*
X56779Y-57134D01*
X56779Y-57134D02*
X57920Y-57134D01*
X57920Y-57134D02*
X57920Y-57055D01*
X57920Y-56465D02*
X56779Y-56465D01*
X56779Y-56465D02*
X56779Y-56563D01*
X57920Y-56563D02*
X57920Y-56465D01*
X57487Y-56583D02*
X57487Y-57016D01*
X57212Y-56583D02*
X57212Y-57016D01*
X57212Y-57016D02*
X57468Y-56800D01*
X57468Y-56800D02*
X57212Y-56583D01*
X65254Y-58384D02*
X65214Y-58384D01*
X65254Y-57735D02*
X65254Y-58384D01*
X65254Y-58384D02*
X65214Y-58384D01*
X65214Y-58384D02*
X65214Y-57715D01*
X64329Y-58286D02*
X64329Y-58384D01*
X64329Y-58384D02*
X65470Y-58384D01*
X65470Y-58384D02*
X65470Y-58305D01*
X65470Y-57715D02*
X64329Y-57715D01*
X64329Y-57715D02*
X64329Y-57813D01*
X65470Y-57813D02*
X65470Y-57715D01*
X65037Y-57833D02*
X65037Y-58266D01*
X64762Y-57833D02*
X64762Y-58266D01*
X64762Y-58266D02*
X65018Y-58050D01*
X65018Y-58050D02*
X64762Y-57833D01*
X72804Y-58384D02*
X72764Y-58384D01*
X72804Y-57735D02*
X72804Y-58384D01*
X72804Y-58384D02*
X72764Y-58384D01*
X72764Y-58384D02*
X72764Y-57715D01*
X71879Y-58286D02*
X71879Y-58384D01*
X71879Y-58384D02*
X73020Y-58384D01*
X73020Y-58384D02*
X73020Y-58305D01*
X73020Y-57715D02*
X71879Y-57715D01*
X71879Y-57715D02*
X71879Y-57813D01*
X73020Y-57813D02*
X73020Y-57715D01*
X72587Y-57833D02*
X72587Y-58266D01*
X72312Y-57833D02*
X72312Y-58266D01*
X72312Y-58266D02*
X72568Y-58050D01*
X72568Y-58050D02*
X72312Y-57833D01*
X33645Y-41915D02*
X33685Y-41915D01*
X33645Y-42564D02*
X33645Y-41915D01*
X33645Y-41915D02*
X33685Y-41915D01*
X33685Y-41915D02*
X33685Y-42584D01*
X34570Y-42013D02*
X34570Y-41915D01*
X34570Y-41915D02*
X33429Y-41915D01*
X33429Y-41915D02*
X33429Y-41994D01*
X33429Y-42584D02*
X34570Y-42584D01*
X34570Y-42584D02*
X34570Y-42486D01*
X33429Y-42486D02*
X33429Y-42584D01*
X33862Y-42466D02*
X33862Y-42033D01*
X34137Y-42466D02*
X34137Y-42033D01*
X34137Y-42033D02*
X33881Y-42250D01*
X33881Y-42250D02*
X34137Y-42466D01*
X42804Y-42184D02*
X42764Y-42184D01*
X42804Y-41535D02*
X42804Y-42184D01*
X42804Y-42184D02*
X42764Y-42184D01*
X42764Y-42184D02*
X42764Y-41515D01*
X41879Y-42086D02*
X41879Y-42184D01*
X41879Y-42184D02*
X43020Y-42184D01*
X43020Y-42184D02*
X43020Y-42105D01*
X43020Y-41515D02*
X41879Y-41515D01*
X41879Y-41515D02*
X41879Y-41613D01*
X43020Y-41613D02*
X43020Y-41515D01*
X42587Y-41633D02*
X42587Y-42066D01*
X42312Y-41633D02*
X42312Y-42066D01*
X42312Y-42066D02*
X42568Y-41850D01*
X42568Y-41850D02*
X42312Y-41633D01*
X50304Y-41534D02*
X50264Y-41534D01*
X50304Y-40885D02*
X50304Y-41534D01*
X50304Y-41534D02*
X50264Y-41534D01*
X50264Y-41534D02*
X50264Y-40865D01*
X49379Y-41436D02*
X49379Y-41534D01*
X49379Y-41534D02*
X50520Y-41534D01*
X50520Y-41534D02*
X50520Y-41455D01*
X50520Y-40865D02*
X49379Y-40865D01*
X49379Y-40865D02*
X49379Y-40963D01*
X50520Y-40963D02*
X50520Y-40865D01*
X50087Y-40983D02*
X50087Y-41416D01*
X49812Y-40983D02*
X49812Y-41416D01*
X49812Y-41416D02*
X50068Y-41200D01*
X50068Y-41200D02*
X49812Y-40983D01*
X57804Y-42184D02*
X57764Y-42184D01*
X57804Y-41535D02*
X57804Y-42184D01*
X57804Y-42184D02*
X57764Y-42184D01*
X57764Y-42184D02*
X57764Y-41515D01*
X56879Y-42086D02*
X56879Y-42184D01*
X56879Y-42184D02*
X58020Y-42184D01*
X58020Y-42184D02*
X58020Y-42105D01*
X58020Y-41515D02*
X56879Y-41515D01*
X56879Y-41515D02*
X56879Y-41613D01*
X58020Y-41613D02*
X58020Y-41515D01*
X57587Y-41633D02*
X57587Y-42066D01*
X57312Y-41633D02*
X57312Y-42066D01*
X57312Y-42066D02*
X57568Y-41850D01*
X57568Y-41850D02*
X57312Y-41633D01*
X33745Y-49415D02*
X33785Y-49415D01*
X33745Y-50064D02*
X33745Y-49415D01*
X33745Y-49415D02*
X33785Y-49415D01*
X33785Y-49415D02*
X33785Y-50084D01*
X34670Y-49513D02*
X34670Y-49415D01*
X34670Y-49415D02*
X33529Y-49415D01*
X33529Y-49415D02*
X33529Y-49494D01*
X33529Y-50084D02*
X34670Y-50084D01*
X34670Y-50084D02*
X34670Y-49986D01*
X33529Y-49986D02*
X33529Y-50084D01*
X33962Y-49966D02*
X33962Y-49533D01*
X34237Y-49966D02*
X34237Y-49533D01*
X34237Y-49533D02*
X33981Y-49750D01*
X33981Y-49750D02*
X34237Y-49966D01*
X42804Y-49634D02*
X42764Y-49634D01*
X42804Y-48985D02*
X42804Y-49634D01*
X42804Y-49634D02*
X42764Y-49634D01*
X42764Y-49634D02*
X42764Y-48965D01*
X41879Y-49536D02*
X41879Y-49634D01*
X41879Y-49634D02*
X43020Y-49634D01*
X43020Y-49634D02*
X43020Y-49555D01*
X43020Y-48965D02*
X41879Y-48965D01*
X41879Y-48965D02*
X41879Y-49063D01*
X43020Y-49063D02*
X43020Y-48965D01*
X42587Y-49083D02*
X42587Y-49516D01*
X42312Y-49083D02*
X42312Y-49516D01*
X42312Y-49516D02*
X42568Y-49300D01*
X42568Y-49300D02*
X42312Y-49083D01*
X50354Y-48984D02*
X50314Y-48984D01*
X50354Y-48335D02*
X50354Y-48984D01*
X50354Y-48984D02*
X50314Y-48984D01*
X50314Y-48984D02*
X50314Y-48315D01*
X49429Y-48886D02*
X49429Y-48984D01*
X49429Y-48984D02*
X50570Y-48984D01*
X50570Y-48984D02*
X50570Y-48905D01*
X50570Y-48315D02*
X49429Y-48315D01*
X49429Y-48315D02*
X49429Y-48413D01*
X50570Y-48413D02*
X50570Y-48315D01*
X50137Y-48433D02*
X50137Y-48866D01*
X49862Y-48433D02*
X49862Y-48866D01*
X49862Y-48866D02*
X50118Y-48650D01*
X50118Y-48650D02*
X49862Y-48433D01*
X57804Y-49584D02*
X57764Y-49584D01*
X57804Y-48935D02*
X57804Y-49584D01*
X57804Y-49584D02*
X57764Y-49584D01*
X57764Y-49584D02*
X57764Y-48915D01*
X56879Y-49486D02*
X56879Y-49584D01*
X56879Y-49584D02*
X58020Y-49584D01*
X58020Y-49584D02*
X58020Y-49505D01*
X58020Y-48915D02*
X56879Y-48915D01*
X56879Y-48915D02*
X56879Y-49013D01*
X58020Y-49013D02*
X58020Y-48915D01*
X57587Y-49033D02*
X57587Y-49466D01*
X57312Y-49033D02*
X57312Y-49466D01*
X57312Y-49466D02*
X57568Y-49250D01*
X57568Y-49250D02*
X57312Y-49033D01*
X65254Y-50884D02*
X65214Y-50884D01*
X65254Y-50235D02*
X65254Y-50884D01*
X65254Y-50884D02*
X65214Y-50884D01*
X65214Y-50884D02*
X65214Y-50215D01*
X64329Y-50786D02*
X64329Y-50884D01*
X64329Y-50884D02*
X65470Y-50884D01*
X65470Y-50884D02*
X65470Y-50805D01*
X65470Y-50215D02*
X64329Y-50215D01*
X64329Y-50215D02*
X64329Y-50313D01*
X65470Y-50313D02*
X65470Y-50215D01*
X65037Y-50333D02*
X65037Y-50766D01*
X64762Y-50333D02*
X64762Y-50766D01*
X64762Y-50766D02*
X65018Y-50550D01*
X65018Y-50550D02*
X64762Y-50333D01*
X72804Y-50884D02*
X72764Y-50884D01*
X72804Y-50235D02*
X72804Y-50884D01*
X72804Y-50884D02*
X72764Y-50884D01*
X72764Y-50884D02*
X72764Y-50215D01*
X71879Y-50786D02*
X71879Y-50884D01*
X71879Y-50884D02*
X73020Y-50884D01*
X73020Y-50884D02*
X73020Y-50805D01*
X73020Y-50215D02*
X71879Y-50215D01*
X71879Y-50215D02*
X71879Y-50313D01*
X73020Y-50313D02*
X73020Y-50215D01*
X72587Y-50333D02*
X72587Y-50766D01*
X72312Y-50333D02*
X72312Y-50766D01*
X72312Y-50766D02*
X72568Y-50550D01*
X72568Y-50550D02*
X72312Y-50333D01*
X33795Y-34115D02*
X33835Y-34115D01*
X33795Y-34764D02*
X33795Y-34115D01*
X33795Y-34115D02*
X33835Y-34115D01*
X33835Y-34115D02*
X33835Y-34784D01*
X34720Y-34213D02*
X34720Y-34115D01*
X34720Y-34115D02*
X33579Y-34115D01*
X33579Y-34115D02*
X33579Y-34194D01*
X33579Y-34784D02*
X34720Y-34784D01*
X34720Y-34784D02*
X34720Y-34686D01*
X33579Y-34686D02*
X33579Y-34784D01*
X34012Y-34666D02*
X34012Y-34233D01*
X34287Y-34666D02*
X34287Y-34233D01*
X34287Y-34233D02*
X34031Y-34450D01*
X34031Y-34450D02*
X34287Y-34666D01*
X42804Y-34634D02*
X42764Y-34634D01*
X42804Y-33985D02*
X42804Y-34634D01*
X42804Y-34634D02*
X42764Y-34634D01*
X42764Y-34634D02*
X42764Y-33965D01*
X41879Y-34536D02*
X41879Y-34634D01*
X41879Y-34634D02*
X43020Y-34634D01*
X43020Y-34634D02*
X43020Y-34555D01*
X43020Y-33965D02*
X41879Y-33965D01*
X41879Y-33965D02*
X41879Y-34063D01*
X43020Y-34063D02*
X43020Y-33965D01*
X42587Y-34083D02*
X42587Y-34516D01*
X42312Y-34083D02*
X42312Y-34516D01*
X42312Y-34516D02*
X42568Y-34300D01*
X42568Y-34300D02*
X42312Y-34083D01*
X50304Y-34034D02*
X50264Y-34034D01*
X50304Y-33385D02*
X50304Y-34034D01*
X50304Y-34034D02*
X50264Y-34034D01*
X50264Y-34034D02*
X50264Y-33365D01*
X49379Y-33936D02*
X49379Y-34034D01*
X49379Y-34034D02*
X50520Y-34034D01*
X50520Y-34034D02*
X50520Y-33955D01*
X50520Y-33365D02*
X49379Y-33365D01*
X49379Y-33365D02*
X49379Y-33463D01*
X50520Y-33463D02*
X50520Y-33365D01*
X50087Y-33483D02*
X50087Y-33916D01*
X49812Y-33483D02*
X49812Y-33916D01*
X49812Y-33916D02*
X50068Y-33700D01*
X50068Y-33700D02*
X49812Y-33483D01*
X59145Y-33665D02*
X59185Y-33665D01*
X59145Y-34314D02*
X59145Y-33665D01*
X59145Y-33665D02*
X59185Y-33665D01*
X59185Y-33665D02*
X59185Y-34334D01*
X60070Y-33763D02*
X60070Y-33665D01*
X60070Y-33665D02*
X58929Y-33665D01*
X58929Y-33665D02*
X58929Y-33744D01*
X58929Y-34334D02*
X60070Y-34334D01*
X60070Y-34334D02*
X60070Y-34236D01*
X58929Y-34236D02*
X58929Y-34334D01*
X59362Y-34216D02*
X59362Y-33783D01*
X59637Y-34216D02*
X59637Y-33783D01*
X59637Y-33783D02*
X59381Y-34000D01*
X59381Y-34000D02*
X59637Y-34216D01*
X65304Y-35784D02*
X65264Y-35784D01*
X65304Y-35135D02*
X65304Y-35784D01*
X65304Y-35784D02*
X65264Y-35784D01*
X65264Y-35784D02*
X65264Y-35115D01*
X64379Y-35686D02*
X64379Y-35784D01*
X64379Y-35784D02*
X65520Y-35784D01*
X65520Y-35784D02*
X65520Y-35705D01*
X65520Y-35115D02*
X64379Y-35115D01*
X64379Y-35115D02*
X64379Y-35213D01*
X65520Y-35213D02*
X65520Y-35115D01*
X65087Y-35233D02*
X65087Y-35666D01*
X64812Y-35233D02*
X64812Y-35666D01*
X64812Y-35666D02*
X65068Y-35450D01*
X65068Y-35450D02*
X64812Y-35233D01*
X72754Y-35834D02*
X72714Y-35834D01*
X72754Y-35185D02*
X72754Y-35834D01*
X72754Y-35834D02*
X72714Y-35834D01*
X72714Y-35834D02*
X72714Y-35165D01*
X71829Y-35736D02*
X71829Y-35834D01*
X71829Y-35834D02*
X72970Y-35834D01*
X72970Y-35834D02*
X72970Y-35755D01*
X72970Y-35165D02*
X71829Y-35165D01*
X71829Y-35165D02*
X71829Y-35263D01*
X72970Y-35263D02*
X72970Y-35165D01*
X72537Y-35283D02*
X72537Y-35716D01*
X72262Y-35283D02*
X72262Y-35716D01*
X72262Y-35716D02*
X72518Y-35500D01*
X72518Y-35500D02*
X72262Y-35283D01*
G54D21*
X45780Y-56143D02*
X45662Y-55974D01*
X45578Y-56143D02*
X45578Y-55789D01*
X45713Y-55789D01*
X45746Y-55805D01*
X45763Y-55822D01*
X45780Y-55856D01*
X45780Y-55907D01*
X45763Y-55940D01*
X45746Y-55957D01*
X45713Y-55974D01*
X45578Y-55974D01*
X45932Y-55957D02*
X46050Y-55957D01*
X46101Y-56143D02*
X45932Y-56143D01*
X45932Y-55789D01*
X46101Y-55789D01*
X46236Y-56126D02*
X46286Y-56143D01*
X46371Y-56143D01*
X46404Y-56126D01*
X46421Y-56109D01*
X46438Y-56075D01*
X46438Y-56042D01*
X46421Y-56008D01*
X46404Y-55991D01*
X46371Y-55974D01*
X46303Y-55957D01*
X46269Y-55940D01*
X46253Y-55924D01*
X46236Y-55890D01*
X46236Y-55856D01*
X46253Y-55822D01*
X46269Y-55805D01*
X46303Y-55789D01*
X46388Y-55789D01*
X46438Y-55805D01*
X45730Y-56805D02*
X45696Y-56789D01*
X45645Y-56789D01*
X45595Y-56805D01*
X45561Y-56839D01*
X45544Y-56873D01*
X45527Y-56940D01*
X45527Y-56991D01*
X45544Y-57059D01*
X45561Y-57092D01*
X45595Y-57126D01*
X45645Y-57143D01*
X45679Y-57143D01*
X45730Y-57126D01*
X45746Y-57109D01*
X45746Y-56991D01*
X45679Y-56991D01*
X45898Y-57143D02*
X45898Y-56789D01*
X46101Y-57143D01*
X46101Y-56789D01*
X46269Y-57143D02*
X46269Y-56789D01*
X46354Y-56789D01*
X46404Y-56805D01*
X46438Y-56839D01*
X46455Y-56873D01*
X46472Y-56940D01*
X46472Y-56991D01*
X46455Y-57059D01*
X46438Y-57092D01*
X46404Y-57126D01*
X46354Y-57143D01*
X46269Y-57143D01*
X45343Y-55143D02*
X45343Y-54789D01*
X45461Y-55042D01*
X45579Y-54789D01*
X45579Y-55143D01*
X45815Y-54789D02*
X45883Y-54789D01*
X45916Y-54805D01*
X45950Y-54839D01*
X45967Y-54907D01*
X45967Y-55025D01*
X45950Y-55092D01*
X45916Y-55126D01*
X45883Y-55143D01*
X45815Y-55143D01*
X45781Y-55126D01*
X45748Y-55092D01*
X45731Y-55025D01*
X45731Y-54907D01*
X45748Y-54839D01*
X45781Y-54805D01*
X45815Y-54789D01*
X46102Y-55126D02*
X46153Y-55143D01*
X46237Y-55143D01*
X46271Y-55126D01*
X46288Y-55109D01*
X46304Y-55075D01*
X46304Y-55042D01*
X46288Y-55008D01*
X46271Y-54991D01*
X46237Y-54974D01*
X46169Y-54957D01*
X46136Y-54940D01*
X46119Y-54924D01*
X46102Y-54890D01*
X46102Y-54856D01*
X46119Y-54822D01*
X46136Y-54805D01*
X46169Y-54789D01*
X46254Y-54789D01*
X46304Y-54805D01*
X46456Y-55143D02*
X46456Y-54789D01*
X45578Y-52789D02*
X45696Y-53143D01*
X45814Y-52789D01*
X46084Y-53126D02*
X46050Y-53143D01*
X45983Y-53143D01*
X45949Y-53126D01*
X45932Y-53109D01*
X45915Y-53075D01*
X45915Y-52974D01*
X45932Y-52940D01*
X45949Y-52924D01*
X45983Y-52907D01*
X46050Y-52907D01*
X46084Y-52924D01*
X46388Y-53126D02*
X46354Y-53143D01*
X46286Y-53143D01*
X46253Y-53126D01*
X46236Y-53109D01*
X46219Y-53075D01*
X46219Y-52974D01*
X46236Y-52940D01*
X46253Y-52924D01*
X46286Y-52907D01*
X46354Y-52907D01*
X46388Y-52924D01*
X45544Y-54126D02*
X45595Y-54143D01*
X45679Y-54143D01*
X45713Y-54126D01*
X45730Y-54109D01*
X45746Y-54075D01*
X45746Y-54042D01*
X45730Y-54008D01*
X45713Y-53991D01*
X45679Y-53974D01*
X45611Y-53957D01*
X45578Y-53940D01*
X45561Y-53924D01*
X45544Y-53890D01*
X45544Y-53856D01*
X45561Y-53822D01*
X45578Y-53805D01*
X45611Y-53789D01*
X45696Y-53789D01*
X45746Y-53805D01*
X46101Y-54109D02*
X46084Y-54126D01*
X46033Y-54143D01*
X46000Y-54143D01*
X45949Y-54126D01*
X45915Y-54092D01*
X45898Y-54059D01*
X45881Y-53991D01*
X45881Y-53940D01*
X45898Y-53873D01*
X45915Y-53839D01*
X45949Y-53805D01*
X46000Y-53789D01*
X46033Y-53789D01*
X46084Y-53805D01*
X46101Y-53822D01*
X46253Y-54143D02*
X46253Y-53789D01*
X46455Y-54143D02*
X46303Y-53940D01*
X46455Y-53789D02*
X46253Y-53991D01*
X45343Y-52143D02*
X45343Y-51789D01*
X45461Y-52042D01*
X45579Y-51789D01*
X45579Y-52143D01*
X45748Y-52143D02*
X45748Y-51789D01*
X45900Y-52126D02*
X45950Y-52143D01*
X46034Y-52143D01*
X46068Y-52126D01*
X46085Y-52109D01*
X46102Y-52075D01*
X46102Y-52042D01*
X46085Y-52008D01*
X46068Y-51991D01*
X46034Y-51974D01*
X45967Y-51957D01*
X45933Y-51940D01*
X45916Y-51924D01*
X45900Y-51890D01*
X45900Y-51856D01*
X45916Y-51822D01*
X45933Y-51805D01*
X45967Y-51789D01*
X46051Y-51789D01*
X46102Y-51805D01*
X46321Y-51789D02*
X46389Y-51789D01*
X46423Y-51805D01*
X46456Y-51839D01*
X46473Y-51907D01*
X46473Y-52025D01*
X46456Y-52092D01*
X46423Y-52126D01*
X46389Y-52143D01*
X46321Y-52143D01*
X46288Y-52126D01*
X46254Y-52092D01*
X46237Y-52025D01*
X46237Y-51907D01*
X46254Y-51839D01*
X46288Y-51805D01*
X46321Y-51789D01*
G54D22*
X52765Y-36049D02*
X53084Y-36049D01*
X53121Y-36031D01*
X53140Y-36012D01*
X53159Y-35974D01*
X53159Y-35899D01*
X53140Y-35862D01*
X53121Y-35843D01*
X53084Y-35824D01*
X52765Y-35824D01*
X52803Y-35656D02*
X52784Y-35637D01*
X52765Y-35600D01*
X52765Y-35506D01*
X52784Y-35468D01*
X52803Y-35450D01*
X52840Y-35431D01*
X52878Y-35431D01*
X52934Y-35450D01*
X53159Y-35675D01*
X53159Y-35431D01*
G54D23*
X47638Y-35848D02*
X47515Y-35673D01*
X47428Y-35848D02*
X47428Y-35480D01*
X47568Y-35480D01*
X47603Y-35498D01*
X47621Y-35515D01*
X47638Y-35551D01*
X47638Y-35603D01*
X47621Y-35638D01*
X47603Y-35656D01*
X47568Y-35673D01*
X47428Y-35673D01*
X47989Y-35848D02*
X47778Y-35848D01*
X47884Y-35848D02*
X47884Y-35480D01*
X47848Y-35533D01*
X47813Y-35568D01*
X47778Y-35586D01*
X46638Y-35848D02*
X46515Y-35673D01*
X46428Y-35848D02*
X46428Y-35480D01*
X46568Y-35480D01*
X46603Y-35498D01*
X46621Y-35515D01*
X46638Y-35551D01*
X46638Y-35603D01*
X46621Y-35638D01*
X46603Y-35656D01*
X46568Y-35673D01*
X46428Y-35673D01*
X46778Y-35515D02*
X46796Y-35498D01*
X46831Y-35480D01*
X46919Y-35480D01*
X46954Y-35498D01*
X46971Y-35515D01*
X46989Y-35551D01*
X46989Y-35586D01*
X46971Y-35638D01*
X46761Y-35848D01*
X46989Y-35848D01*
%LPC*%
G54D24*
X35500Y-50129D03*
G54D25*
X36500Y-50129D03*
G54D24*
X35500Y-42629D03*
G54D25*
X36500Y-42629D03*
G54D24*
X35500Y-35130D03*
G54D25*
X36500Y-35130D03*
G54D26*
X44459Y-52379D03*
X35059Y-52379D03*
G54D27*
X44459Y-58379D03*
X35059Y-58379D03*
G54D28*
X47000Y-56000D03*
X47000Y-57000D03*
X47000Y-55000D03*
X47000Y-53000D03*
X47000Y-54000D03*
X47000Y-52000D03*
G54D29*
X53593Y-37177D03*
X53849Y-37177D03*
X54105Y-37177D03*
X54361Y-37177D03*
X54617Y-37177D03*
X54873Y-37177D03*
X55127Y-37177D03*
X55383Y-37177D03*
X55639Y-37177D03*
X55895Y-37177D03*
X56151Y-37177D03*
X56407Y-37177D03*
X56407Y-34323D03*
X56151Y-34323D03*
X55895Y-34323D03*
X55639Y-34323D03*
X55383Y-34323D03*
X55127Y-34323D03*
X54873Y-34323D03*
X54617Y-34323D03*
X54361Y-34323D03*
X54105Y-34323D03*
X53849Y-34323D03*
X53593Y-34323D03*
G54D30*
X47650Y-34325D03*
X47650Y-35075D03*
X46700Y-34325D03*
X46700Y-35075D03*
G54D31*
X74500Y-54379D03*
X72000Y-55379D03*
G54D27*
X73500Y-56379D03*
G54D32*
X71500Y-56379D03*
X75500Y-56379D03*
G54D31*
X75000Y-55379D03*
X72500Y-54379D03*
X59500Y-53129D03*
X57000Y-54129D03*
G54D27*
X58500Y-55129D03*
G54D32*
X56500Y-55129D03*
X60500Y-55129D03*
G54D31*
X60000Y-54129D03*
X57500Y-53129D03*
X67000Y-54379D03*
X64500Y-55379D03*
G54D27*
X66000Y-56379D03*
G54D32*
X64000Y-56379D03*
X68000Y-56379D03*
G54D31*
X67500Y-55379D03*
X65000Y-54379D03*
X52000Y-52500D03*
X49500Y-53500D03*
G54D27*
X51000Y-54500D03*
G54D32*
X49000Y-54500D03*
X53000Y-54500D03*
G54D31*
X52500Y-53500D03*
X50000Y-52500D03*
X40750Y-53129D03*
X38250Y-54129D03*
G54D27*
X39750Y-55129D03*
G54D32*
X37750Y-55129D03*
X41750Y-55129D03*
G54D31*
X41250Y-54129D03*
X38750Y-53129D03*
X37000Y-23630D03*
X34500Y-24630D03*
G54D27*
X36000Y-25630D03*
G54D32*
X34000Y-25630D03*
X38000Y-25630D03*
G54D31*
X37500Y-24630D03*
X35000Y-23630D03*
X67000Y-39379D03*
X64500Y-40379D03*
G54D27*
X66000Y-41379D03*
G54D32*
X64000Y-41379D03*
X68000Y-41379D03*
G54D31*
X67500Y-40379D03*
X65000Y-39379D03*
X74500Y-39379D03*
X72000Y-40379D03*
G54D27*
X73500Y-41379D03*
G54D32*
X71500Y-41379D03*
X75500Y-41379D03*
G54D31*
X75000Y-40379D03*
X72500Y-39379D03*
X44500Y-23129D03*
X42000Y-24129D03*
G54D27*
X43500Y-25129D03*
G54D32*
X41500Y-25129D03*
X45500Y-25129D03*
G54D31*
X45000Y-24129D03*
X42500Y-23129D03*
X67000Y-24380D03*
X64500Y-25380D03*
G54D27*
X66000Y-26380D03*
G54D32*
X64000Y-26380D03*
X68000Y-26380D03*
G54D31*
X67500Y-25380D03*
X65000Y-24380D03*
X59500Y-23129D03*
X57000Y-24129D03*
G54D27*
X58500Y-25129D03*
G54D32*
X56500Y-25129D03*
X60500Y-25129D03*
G54D31*
X60000Y-24129D03*
X57500Y-23129D03*
X52000Y-22500D03*
X49500Y-23500D03*
G54D27*
X51000Y-24500D03*
G54D32*
X49000Y-24500D03*
X53000Y-24500D03*
G54D31*
X52500Y-23500D03*
X50000Y-22500D03*
X74500Y-24380D03*
X72000Y-25380D03*
G54D27*
X73500Y-26380D03*
G54D32*
X71500Y-26380D03*
X75500Y-26380D03*
G54D31*
X75000Y-25380D03*
X72500Y-24380D03*
X59500Y-38129D03*
X57000Y-39129D03*
G54D27*
X58500Y-40129D03*
G54D32*
X56500Y-40129D03*
X60500Y-40129D03*
G54D31*
X60000Y-39129D03*
X57500Y-38129D03*
X52000Y-37500D03*
X49500Y-38500D03*
G54D27*
X51000Y-39500D03*
G54D32*
X49000Y-39500D03*
X53000Y-39500D03*
G54D31*
X52500Y-38500D03*
X50000Y-37500D03*
X44500Y-38129D03*
X42000Y-39129D03*
G54D27*
X43500Y-40129D03*
G54D32*
X41500Y-40129D03*
X45500Y-40129D03*
G54D31*
X45000Y-39129D03*
X42500Y-38129D03*
X37000Y-38629D03*
X34500Y-39629D03*
G54D27*
X36000Y-40629D03*
G54D32*
X34000Y-40629D03*
X38000Y-40629D03*
G54D31*
X37500Y-39629D03*
X35000Y-38629D03*
X67000Y-46879D03*
X64500Y-47879D03*
G54D27*
X66000Y-48879D03*
G54D32*
X64000Y-48879D03*
X68000Y-48879D03*
G54D31*
X67500Y-47879D03*
X65000Y-46879D03*
X59500Y-45629D03*
X57000Y-46629D03*
G54D27*
X58500Y-47629D03*
G54D32*
X56500Y-47629D03*
X60500Y-47629D03*
G54D31*
X60000Y-46629D03*
X57500Y-45629D03*
X52000Y-45000D03*
X49500Y-46000D03*
G54D27*
X51000Y-47000D03*
G54D32*
X49000Y-47000D03*
X53000Y-47000D03*
G54D31*
X52500Y-46000D03*
X50000Y-45000D03*
X44500Y-45629D03*
X42000Y-46629D03*
G54D27*
X43500Y-47629D03*
G54D32*
X41500Y-47629D03*
X45500Y-47629D03*
G54D31*
X45000Y-46629D03*
X42500Y-45629D03*
X37000Y-46129D03*
X34500Y-47129D03*
G54D27*
X36000Y-48129D03*
G54D32*
X34000Y-48129D03*
X38000Y-48129D03*
G54D31*
X37500Y-47129D03*
X35000Y-46129D03*
X74500Y-46879D03*
X72000Y-47879D03*
G54D27*
X73500Y-48879D03*
G54D32*
X71500Y-48879D03*
X75500Y-48879D03*
G54D31*
X75000Y-47879D03*
X72500Y-46879D03*
X37000Y-31129D03*
X34500Y-32129D03*
G54D27*
X36000Y-33129D03*
G54D32*
X34000Y-33129D03*
X38000Y-33129D03*
G54D31*
X37500Y-32129D03*
X35000Y-31129D03*
X67000Y-31879D03*
X64500Y-32879D03*
G54D27*
X66000Y-33879D03*
G54D32*
X64000Y-33879D03*
X68000Y-33879D03*
G54D31*
X67500Y-32879D03*
X65000Y-31879D03*
X52000Y-30000D03*
X49500Y-31000D03*
G54D27*
X51000Y-32000D03*
G54D32*
X49000Y-32000D03*
X53000Y-32000D03*
G54D31*
X52500Y-31000D03*
X50000Y-30000D03*
X44500Y-30629D03*
X42000Y-31629D03*
G54D27*
X43500Y-32629D03*
G54D32*
X41500Y-32629D03*
X45500Y-32629D03*
G54D31*
X45000Y-31629D03*
X42500Y-30629D03*
X59500Y-30629D03*
X57000Y-31629D03*
G54D27*
X58500Y-32629D03*
G54D32*
X56500Y-32629D03*
X60500Y-32629D03*
G54D31*
X60000Y-31629D03*
X57500Y-30629D03*
X74500Y-31879D03*
X72000Y-32879D03*
G54D27*
X73500Y-33879D03*
G54D32*
X71500Y-33879D03*
X75500Y-33879D03*
G54D31*
X75000Y-32879D03*
X72500Y-31879D03*
G54D33*
X75500Y-29000D03*
X45000Y-29000D03*
X50500Y-29000D03*
X53000Y-29000D03*
X55500Y-29000D03*
X58000Y-29000D03*
X60500Y-29000D03*
X63000Y-29000D03*
X65250Y-29000D03*
X67100Y-29000D03*
X70500Y-29000D03*
X73700Y-29000D03*
X76450Y-29000D03*
X49250Y-29000D03*
X51750Y-29000D03*
X54250Y-29000D03*
X56750Y-29000D03*
X59250Y-29000D03*
X61750Y-29000D03*
X64250Y-29000D03*
X66300Y-29000D03*
X69000Y-29000D03*
X72450Y-29000D03*
X74500Y-29000D03*
X43750Y-29000D03*
X42500Y-29000D03*
X41250Y-29000D03*
X40000Y-29000D03*
X38750Y-29000D03*
X37500Y-29000D03*
X36250Y-29000D03*
X35000Y-29000D03*
X33750Y-29000D03*
X33050Y-29000D03*
G54D34*
X46038Y-22074D03*
X48361Y-22074D03*
G54D35*
X48125Y-22979D03*
X46274Y-22979D03*
G54D36*
X47200Y-23117D03*
X47455Y-23117D03*
X47711Y-23117D03*
X46944Y-23117D03*
X46688Y-23117D03*
G54D37*
X47534Y-22074D03*
X46865Y-22074D03*
G54D34*
X46038Y-29574D03*
X48361Y-29574D03*
G54D35*
X48125Y-30479D03*
X46274Y-30479D03*
G54D36*
X47200Y-30617D03*
X47455Y-30617D03*
X47711Y-30617D03*
X46944Y-30617D03*
X46688Y-30617D03*
G54D37*
X47534Y-29574D03*
X46865Y-29574D03*
G54D38*
X34230Y-27250D03*
X35569Y-27250D03*
X72230Y-38050D03*
X73569Y-38050D03*
X64680Y-38050D03*
X66019Y-38050D03*
X41730Y-26800D03*
X43069Y-26800D03*
X49180Y-26250D03*
X50519Y-26250D03*
X56730Y-26800D03*
X58069Y-26800D03*
X64230Y-28100D03*
X65569Y-28100D03*
X71730Y-27950D03*
X73069Y-27950D03*
X37980Y-56800D03*
X39319Y-56800D03*
X49230Y-56150D03*
X50569Y-56150D03*
X56680Y-56800D03*
X58019Y-56800D03*
X64230Y-58050D03*
X65569Y-58050D03*
X71780Y-58050D03*
X73119Y-58050D03*
X34669Y-42250D03*
X33330Y-42250D03*
X41780Y-41850D03*
X43119Y-41850D03*
X49280Y-41200D03*
X50619Y-41200D03*
X56780Y-41850D03*
X58119Y-41850D03*
X34769Y-49750D03*
X33430Y-49750D03*
X41780Y-49300D03*
X43119Y-49300D03*
X49330Y-48650D03*
X50669Y-48650D03*
X56780Y-49250D03*
X58119Y-49250D03*
X64230Y-50550D03*
X65569Y-50550D03*
X71780Y-50550D03*
X73119Y-50550D03*
X34819Y-34450D03*
X33480Y-34450D03*
X41780Y-34300D03*
X43119Y-34300D03*
X49280Y-33700D03*
X50619Y-33700D03*
X60169Y-34000D03*
X58830Y-34000D03*
X64280Y-35450D03*
X65619Y-35450D03*
X71730Y-35500D03*
X73069Y-35500D03*
G54D39*
X68883Y-23316D03*
X70616Y-23316D03*
X68883Y-30816D03*
X70616Y-30816D03*
M02*
