G04 (created by PCBNEW (2013-02-13 BZR 3947)-testing) date 12/19/2013 8:38:14 AM*
%MOIN*%
G04 Gerber Fmt 3.4, Leading zero omitted, Abs format*
%FSLAX34Y34*%
G01*
G70*
G90*
G04 APERTURE LIST*
%ADD10C,0.006*%
%ADD11C,0.00984252*%
%ADD12C,0.011811*%
%ADD13C,0.019685*%
%ADD14C,0.012*%
%ADD15C,0.015*%
%ADD16C,0.008*%
%ADD17C,0.0079*%
%ADD18C,0.00393701*%
%ADD19C,0.00610236*%
%ADD20C,0.00590551*%
%ADD21C,0.00625197*%
%ADD22C,0.081*%
%ADD23R,0.081X0.081*%
%ADD24C,0.1*%
%ADD25C,0.137*%
%ADD26C,0.032*%
%ADD27C,0.0750551*%
%ADD28R,0.0613X0.0711*%
%ADD29R,0.0711X0.1066*%
%ADD30R,0.071X0.051*%
%ADD31R,0.051X0.071*%
%ADD32C,0.106*%
%ADD33C,0.047*%
%ADD34C,0.0553701*%
%ADD35R,0.110488X0.0908031*%
%ADD36R,0.0632441X0.0986772*%
%ADD37R,0.0337165X0.0711181*%
%ADD38R,0.0632441X0.0908031*%
%ADD39R,0.0553701X0.0553701*%
%ADD40R,0.0947402X0.114425*%
%ADD41R,0.035685X0.106551*%
%ADD42C,0.0514331*%
G04 APERTURE END LIST*
G54D10*
G54D11*
X70278Y-29941D02*
X70436Y-29716D01*
X70548Y-29941D02*
X70548Y-29468D01*
X70368Y-29468D01*
X70323Y-29491D01*
X70301Y-29513D01*
X70278Y-29558D01*
X70278Y-29626D01*
X70301Y-29671D01*
X70323Y-29693D01*
X70368Y-29716D01*
X70548Y-29716D01*
X70076Y-29941D02*
X70076Y-29626D01*
X70076Y-29468D02*
X70098Y-29491D01*
X70076Y-29513D01*
X70053Y-29491D01*
X70076Y-29468D01*
X70076Y-29513D01*
X69648Y-29626D02*
X69648Y-30008D01*
X69671Y-30053D01*
X69693Y-30076D01*
X69738Y-30098D01*
X69806Y-30098D01*
X69851Y-30076D01*
X69648Y-29918D02*
X69693Y-29941D01*
X69783Y-29941D01*
X69828Y-29918D01*
X69851Y-29896D01*
X69873Y-29851D01*
X69873Y-29716D01*
X69851Y-29671D01*
X69828Y-29648D01*
X69783Y-29626D01*
X69693Y-29626D01*
X69648Y-29648D01*
X69423Y-29941D02*
X69423Y-29468D01*
X69221Y-29941D02*
X69221Y-29693D01*
X69243Y-29648D01*
X69288Y-29626D01*
X69356Y-29626D01*
X69401Y-29648D01*
X69423Y-29671D01*
X69063Y-29626D02*
X68883Y-29626D01*
X68996Y-29468D02*
X68996Y-29873D01*
X68973Y-29918D01*
X68928Y-29941D01*
X68883Y-29941D01*
X70312Y-30228D02*
X70222Y-30228D01*
X70177Y-30251D01*
X70132Y-30296D01*
X70109Y-30386D01*
X70109Y-30543D01*
X70132Y-30633D01*
X70177Y-30678D01*
X70222Y-30701D01*
X70312Y-30701D01*
X70357Y-30678D01*
X70402Y-30633D01*
X70424Y-30543D01*
X70424Y-30386D01*
X70402Y-30296D01*
X70357Y-30251D01*
X70312Y-30228D01*
X69907Y-30386D02*
X69907Y-30701D01*
X69907Y-30431D02*
X69884Y-30408D01*
X69839Y-30386D01*
X69772Y-30386D01*
X69727Y-30408D01*
X69705Y-30453D01*
X69705Y-30701D01*
X69412Y-30701D02*
X69457Y-30678D01*
X69480Y-30633D01*
X69480Y-30228D01*
X69277Y-30386D02*
X69165Y-30701D01*
X69052Y-30386D02*
X69165Y-30701D01*
X69210Y-30813D01*
X69232Y-30836D01*
X69277Y-30858D01*
X70278Y-22191D02*
X70436Y-21966D01*
X70548Y-22191D02*
X70548Y-21718D01*
X70368Y-21718D01*
X70323Y-21741D01*
X70301Y-21763D01*
X70278Y-21808D01*
X70278Y-21876D01*
X70301Y-21921D01*
X70323Y-21943D01*
X70368Y-21966D01*
X70548Y-21966D01*
X70076Y-22191D02*
X70076Y-21876D01*
X70076Y-21718D02*
X70098Y-21741D01*
X70076Y-21763D01*
X70053Y-21741D01*
X70076Y-21718D01*
X70076Y-21763D01*
X69648Y-21876D02*
X69648Y-22258D01*
X69671Y-22303D01*
X69693Y-22326D01*
X69738Y-22348D01*
X69806Y-22348D01*
X69851Y-22326D01*
X69648Y-22168D02*
X69693Y-22191D01*
X69783Y-22191D01*
X69828Y-22168D01*
X69851Y-22146D01*
X69873Y-22101D01*
X69873Y-21966D01*
X69851Y-21921D01*
X69828Y-21898D01*
X69783Y-21876D01*
X69693Y-21876D01*
X69648Y-21898D01*
X69423Y-22191D02*
X69423Y-21718D01*
X69221Y-22191D02*
X69221Y-21943D01*
X69243Y-21898D01*
X69288Y-21876D01*
X69356Y-21876D01*
X69401Y-21898D01*
X69423Y-21921D01*
X69063Y-21876D02*
X68883Y-21876D01*
X68996Y-21718D02*
X68996Y-22123D01*
X68973Y-22168D01*
X68928Y-22191D01*
X68883Y-22191D01*
X70312Y-22478D02*
X70222Y-22478D01*
X70177Y-22501D01*
X70132Y-22546D01*
X70109Y-22636D01*
X70109Y-22793D01*
X70132Y-22883D01*
X70177Y-22928D01*
X70222Y-22951D01*
X70312Y-22951D01*
X70357Y-22928D01*
X70402Y-22883D01*
X70424Y-22793D01*
X70424Y-22636D01*
X70402Y-22546D01*
X70357Y-22501D01*
X70312Y-22478D01*
X69907Y-22636D02*
X69907Y-22951D01*
X69907Y-22681D02*
X69884Y-22658D01*
X69839Y-22636D01*
X69772Y-22636D01*
X69727Y-22658D01*
X69705Y-22703D01*
X69705Y-22951D01*
X69412Y-22951D02*
X69457Y-22928D01*
X69480Y-22883D01*
X69480Y-22478D01*
X69277Y-22636D02*
X69165Y-22951D01*
X69052Y-22636D02*
X69165Y-22951D01*
X69210Y-23063D01*
X69232Y-23086D01*
X69277Y-23108D01*
G54D12*
X71037Y-47876D02*
X70924Y-48191D01*
X70812Y-47876D01*
X70542Y-47718D02*
X70497Y-47718D01*
X70452Y-47741D01*
X70429Y-47763D01*
X70407Y-47808D01*
X70384Y-47898D01*
X70384Y-48011D01*
X70407Y-48101D01*
X70429Y-48146D01*
X70452Y-48168D01*
X70497Y-48191D01*
X70542Y-48191D01*
X70587Y-48168D01*
X70609Y-48146D01*
X70632Y-48101D01*
X70654Y-48011D01*
X70654Y-47898D01*
X70632Y-47808D01*
X70609Y-47763D01*
X70587Y-47741D01*
X70542Y-47718D01*
X70182Y-48146D02*
X70159Y-48168D01*
X70182Y-48191D01*
X70204Y-48168D01*
X70182Y-48146D01*
X70182Y-48191D01*
X69710Y-48191D02*
X69979Y-48191D01*
X69844Y-48191D02*
X69844Y-47718D01*
X69889Y-47786D01*
X69934Y-47831D01*
X69979Y-47853D01*
X69485Y-48191D02*
X69395Y-48191D01*
X69350Y-48168D01*
X69327Y-48146D01*
X69282Y-48078D01*
X69260Y-47988D01*
X69260Y-47808D01*
X69282Y-47763D01*
X69305Y-47741D01*
X69350Y-47718D01*
X69440Y-47718D01*
X69485Y-47741D01*
X69507Y-47763D01*
X69530Y-47808D01*
X69530Y-47921D01*
X69507Y-47966D01*
X69485Y-47988D01*
X69440Y-48011D01*
X69350Y-48011D01*
X69305Y-47988D01*
X69282Y-47966D01*
X69260Y-47921D01*
X69057Y-48146D02*
X69035Y-48168D01*
X69057Y-48191D01*
X69080Y-48168D01*
X69057Y-48146D01*
X69057Y-48191D01*
X68855Y-47763D02*
X68832Y-47741D01*
X68787Y-47718D01*
X68675Y-47718D01*
X68630Y-47741D01*
X68607Y-47763D01*
X68585Y-47808D01*
X68585Y-47853D01*
X68607Y-47921D01*
X68877Y-48191D01*
X68585Y-48191D01*
G54D11*
X62546Y-58375D02*
X62528Y-58318D01*
X62509Y-58300D01*
X62471Y-58281D01*
X62415Y-58281D01*
X62378Y-58300D01*
X62359Y-58318D01*
X62340Y-58356D01*
X62340Y-58506D01*
X62734Y-58506D01*
X62734Y-58375D01*
X62715Y-58337D01*
X62696Y-58318D01*
X62659Y-58300D01*
X62621Y-58300D01*
X62584Y-58318D01*
X62565Y-58337D01*
X62546Y-58375D01*
X62546Y-58506D01*
X62340Y-57943D02*
X62546Y-57943D01*
X62584Y-57962D01*
X62603Y-58000D01*
X62603Y-58075D01*
X62584Y-58112D01*
X62359Y-57943D02*
X62340Y-57981D01*
X62340Y-58075D01*
X62359Y-58112D01*
X62396Y-58131D01*
X62434Y-58131D01*
X62471Y-58112D01*
X62490Y-58075D01*
X62490Y-57981D01*
X62509Y-57943D01*
X62359Y-57775D02*
X62340Y-57737D01*
X62340Y-57662D01*
X62359Y-57625D01*
X62396Y-57606D01*
X62415Y-57606D01*
X62453Y-57625D01*
X62471Y-57662D01*
X62471Y-57718D01*
X62490Y-57756D01*
X62528Y-57775D01*
X62546Y-57775D01*
X62584Y-57756D01*
X62603Y-57718D01*
X62603Y-57662D01*
X62584Y-57625D01*
X62359Y-57287D02*
X62340Y-57325D01*
X62340Y-57400D01*
X62359Y-57437D01*
X62396Y-57456D01*
X62546Y-57456D01*
X62584Y-57437D01*
X62603Y-57400D01*
X62603Y-57325D01*
X62584Y-57287D01*
X62546Y-57268D01*
X62509Y-57268D01*
X62471Y-57456D01*
X62340Y-56931D02*
X62734Y-56931D01*
X62359Y-56931D02*
X62340Y-56968D01*
X62340Y-57043D01*
X62359Y-57081D01*
X62378Y-57100D01*
X62415Y-57118D01*
X62528Y-57118D01*
X62565Y-57100D01*
X62584Y-57081D01*
X62603Y-57043D01*
X62603Y-56968D01*
X62584Y-56931D01*
X62340Y-56387D02*
X62359Y-56425D01*
X62378Y-56444D01*
X62415Y-56462D01*
X62528Y-56462D01*
X62565Y-56444D01*
X62584Y-56425D01*
X62603Y-56387D01*
X62603Y-56331D01*
X62584Y-56294D01*
X62565Y-56275D01*
X62528Y-56256D01*
X62415Y-56256D01*
X62378Y-56275D01*
X62359Y-56294D01*
X62340Y-56331D01*
X62340Y-56387D01*
X62603Y-56087D02*
X62340Y-56087D01*
X62565Y-56087D02*
X62584Y-56069D01*
X62603Y-56031D01*
X62603Y-55975D01*
X62584Y-55937D01*
X62546Y-55919D01*
X62340Y-55919D01*
X62603Y-55469D02*
X62340Y-55394D01*
X62528Y-55319D01*
X62340Y-55244D01*
X62603Y-55169D01*
X62340Y-54962D02*
X62359Y-55000D01*
X62378Y-55019D01*
X62415Y-55037D01*
X62528Y-55037D01*
X62565Y-55019D01*
X62584Y-55000D01*
X62603Y-54962D01*
X62603Y-54906D01*
X62584Y-54869D01*
X62565Y-54850D01*
X62528Y-54831D01*
X62415Y-54831D01*
X62378Y-54850D01*
X62359Y-54869D01*
X62340Y-54906D01*
X62340Y-54962D01*
X62340Y-54662D02*
X62603Y-54662D01*
X62528Y-54662D02*
X62565Y-54644D01*
X62584Y-54625D01*
X62603Y-54588D01*
X62603Y-54550D01*
X62340Y-54419D02*
X62734Y-54419D01*
X62490Y-54381D02*
X62340Y-54269D01*
X62603Y-54269D02*
X62453Y-54419D01*
X62340Y-53800D02*
X62734Y-53800D01*
X62584Y-53800D02*
X62603Y-53763D01*
X62603Y-53688D01*
X62584Y-53650D01*
X62565Y-53631D01*
X62528Y-53613D01*
X62415Y-53613D01*
X62378Y-53631D01*
X62359Y-53650D01*
X62340Y-53688D01*
X62340Y-53763D01*
X62359Y-53800D01*
X62603Y-53481D02*
X62340Y-53388D01*
X62603Y-53294D02*
X62340Y-53388D01*
X62246Y-53425D01*
X62228Y-53444D01*
X62209Y-53481D01*
X62546Y-52713D02*
X62546Y-52844D01*
X62340Y-52844D02*
X62734Y-52844D01*
X62734Y-52656D01*
X62340Y-52507D02*
X62603Y-52507D01*
X62528Y-52507D02*
X62565Y-52488D01*
X62584Y-52469D01*
X62603Y-52432D01*
X62603Y-52394D01*
X62359Y-52113D02*
X62340Y-52150D01*
X62340Y-52225D01*
X62359Y-52263D01*
X62396Y-52282D01*
X62546Y-52282D01*
X62584Y-52263D01*
X62603Y-52225D01*
X62603Y-52150D01*
X62584Y-52113D01*
X62546Y-52094D01*
X62509Y-52094D01*
X62471Y-52282D01*
X62340Y-51757D02*
X62734Y-51757D01*
X62359Y-51757D02*
X62340Y-51794D01*
X62340Y-51869D01*
X62359Y-51907D01*
X62378Y-51925D01*
X62415Y-51944D01*
X62528Y-51944D01*
X62565Y-51925D01*
X62584Y-51907D01*
X62603Y-51869D01*
X62603Y-51794D01*
X62584Y-51757D01*
X62340Y-51569D02*
X62603Y-51569D01*
X62528Y-51569D02*
X62565Y-51550D01*
X62584Y-51532D01*
X62603Y-51494D01*
X62603Y-51457D01*
X62340Y-51325D02*
X62603Y-51325D01*
X62734Y-51325D02*
X62715Y-51344D01*
X62696Y-51325D01*
X62715Y-51307D01*
X62734Y-51325D01*
X62696Y-51325D01*
X62340Y-51138D02*
X62734Y-51138D01*
X62490Y-51100D02*
X62340Y-50988D01*
X62603Y-50988D02*
X62453Y-51138D01*
X62453Y-50538D02*
X62453Y-50351D01*
X62340Y-50576D02*
X62734Y-50444D01*
X62340Y-50313D01*
X62603Y-50238D02*
X62603Y-50088D01*
X62734Y-50182D02*
X62396Y-50182D01*
X62359Y-50163D01*
X62340Y-50126D01*
X62340Y-50088D01*
X62340Y-49957D02*
X62603Y-49957D01*
X62565Y-49957D02*
X62584Y-49938D01*
X62603Y-49901D01*
X62603Y-49844D01*
X62584Y-49807D01*
X62546Y-49788D01*
X62340Y-49788D01*
X62546Y-49788D02*
X62584Y-49769D01*
X62603Y-49732D01*
X62603Y-49676D01*
X62584Y-49638D01*
X62546Y-49619D01*
X62340Y-49619D01*
X62359Y-49282D02*
X62340Y-49319D01*
X62340Y-49394D01*
X62359Y-49432D01*
X62396Y-49451D01*
X62546Y-49451D01*
X62584Y-49432D01*
X62603Y-49394D01*
X62603Y-49319D01*
X62584Y-49282D01*
X62546Y-49263D01*
X62509Y-49263D01*
X62471Y-49451D01*
X62340Y-49094D02*
X62603Y-49094D01*
X62528Y-49094D02*
X62565Y-49076D01*
X62584Y-49057D01*
X62603Y-49019D01*
X62603Y-48982D01*
X62359Y-48832D02*
X62340Y-48832D01*
X62303Y-48851D01*
X62284Y-48869D01*
X62546Y-48232D02*
X62528Y-48176D01*
X62509Y-48157D01*
X62471Y-48138D01*
X62415Y-48138D01*
X62378Y-48157D01*
X62359Y-48176D01*
X62340Y-48213D01*
X62340Y-48363D01*
X62734Y-48363D01*
X62734Y-48232D01*
X62715Y-48195D01*
X62696Y-48176D01*
X62659Y-48157D01*
X62621Y-48157D01*
X62584Y-48176D01*
X62565Y-48195D01*
X62546Y-48232D01*
X62546Y-48363D01*
X62340Y-47801D02*
X62546Y-47801D01*
X62584Y-47820D01*
X62603Y-47857D01*
X62603Y-47932D01*
X62584Y-47970D01*
X62359Y-47801D02*
X62340Y-47838D01*
X62340Y-47932D01*
X62359Y-47970D01*
X62396Y-47988D01*
X62434Y-47988D01*
X62471Y-47970D01*
X62490Y-47932D01*
X62490Y-47838D01*
X62509Y-47801D01*
X62603Y-47670D02*
X62603Y-47520D01*
X62734Y-47613D02*
X62396Y-47613D01*
X62359Y-47595D01*
X62340Y-47557D01*
X62340Y-47520D01*
X62340Y-47388D02*
X62734Y-47388D01*
X62340Y-47220D02*
X62546Y-47220D01*
X62584Y-47238D01*
X62603Y-47276D01*
X62603Y-47332D01*
X62584Y-47370D01*
X62565Y-47388D01*
X62340Y-47032D02*
X62603Y-47032D01*
X62528Y-47032D02*
X62565Y-47013D01*
X62584Y-46995D01*
X62603Y-46957D01*
X62603Y-46920D01*
X62340Y-46732D02*
X62359Y-46770D01*
X62378Y-46788D01*
X62415Y-46807D01*
X62528Y-46807D01*
X62565Y-46788D01*
X62584Y-46770D01*
X62603Y-46732D01*
X62603Y-46676D01*
X62584Y-46638D01*
X62565Y-46620D01*
X62528Y-46601D01*
X62415Y-46601D01*
X62378Y-46620D01*
X62359Y-46638D01*
X62340Y-46676D01*
X62340Y-46732D01*
X62340Y-46376D02*
X62359Y-46414D01*
X62378Y-46432D01*
X62415Y-46451D01*
X62528Y-46451D01*
X62565Y-46432D01*
X62584Y-46414D01*
X62603Y-46376D01*
X62603Y-46320D01*
X62584Y-46282D01*
X62565Y-46264D01*
X62528Y-46245D01*
X62415Y-46245D01*
X62378Y-46264D01*
X62359Y-46282D01*
X62340Y-46320D01*
X62340Y-46376D01*
X62340Y-46076D02*
X62603Y-46076D01*
X62565Y-46076D02*
X62584Y-46057D01*
X62603Y-46020D01*
X62603Y-45964D01*
X62584Y-45926D01*
X62546Y-45907D01*
X62340Y-45907D01*
X62546Y-45907D02*
X62584Y-45889D01*
X62603Y-45851D01*
X62603Y-45795D01*
X62584Y-45757D01*
X62546Y-45739D01*
X62340Y-45739D01*
X62546Y-45251D02*
X62546Y-45120D01*
X62340Y-45064D02*
X62340Y-45251D01*
X62734Y-45251D01*
X62734Y-45064D01*
X62603Y-44895D02*
X62209Y-44895D01*
X62584Y-44895D02*
X62603Y-44857D01*
X62603Y-44782D01*
X62584Y-44745D01*
X62565Y-44726D01*
X62528Y-44707D01*
X62415Y-44707D01*
X62378Y-44726D01*
X62359Y-44745D01*
X62340Y-44782D01*
X62340Y-44857D01*
X62359Y-44895D01*
X62340Y-44539D02*
X62603Y-44539D01*
X62734Y-44539D02*
X62715Y-44558D01*
X62696Y-44539D01*
X62715Y-44520D01*
X62734Y-44539D01*
X62696Y-44539D01*
X62603Y-44351D02*
X62209Y-44351D01*
X62584Y-44351D02*
X62603Y-44314D01*
X62603Y-44239D01*
X62584Y-44201D01*
X62565Y-44183D01*
X62528Y-44164D01*
X62415Y-44164D01*
X62378Y-44183D01*
X62359Y-44201D01*
X62340Y-44239D01*
X62340Y-44314D01*
X62359Y-44351D01*
X62340Y-43995D02*
X62734Y-43995D01*
X62340Y-43826D02*
X62546Y-43826D01*
X62584Y-43845D01*
X62603Y-43883D01*
X62603Y-43939D01*
X62584Y-43976D01*
X62565Y-43995D01*
X62340Y-43470D02*
X62546Y-43470D01*
X62584Y-43489D01*
X62603Y-43526D01*
X62603Y-43601D01*
X62584Y-43639D01*
X62359Y-43470D02*
X62340Y-43508D01*
X62340Y-43601D01*
X62359Y-43639D01*
X62396Y-43658D01*
X62434Y-43658D01*
X62471Y-43639D01*
X62490Y-43601D01*
X62490Y-43508D01*
X62509Y-43470D01*
X62603Y-43283D02*
X62340Y-43283D01*
X62565Y-43283D02*
X62584Y-43264D01*
X62603Y-43226D01*
X62603Y-43170D01*
X62584Y-43133D01*
X62546Y-43114D01*
X62340Y-43114D01*
X62340Y-42926D02*
X62603Y-42926D01*
X62734Y-42926D02*
X62715Y-42945D01*
X62696Y-42926D01*
X62715Y-42908D01*
X62734Y-42926D01*
X62696Y-42926D01*
X62359Y-42589D02*
X62340Y-42626D01*
X62340Y-42701D01*
X62359Y-42739D01*
X62396Y-42758D01*
X62546Y-42758D01*
X62584Y-42739D01*
X62603Y-42701D01*
X62603Y-42626D01*
X62584Y-42589D01*
X62546Y-42570D01*
X62509Y-42570D01*
X62471Y-42758D01*
X62359Y-42420D02*
X62340Y-42383D01*
X62340Y-42308D01*
X62359Y-42270D01*
X62396Y-42252D01*
X62415Y-42252D01*
X62453Y-42270D01*
X62471Y-42308D01*
X62471Y-42364D01*
X62490Y-42402D01*
X62528Y-42420D01*
X62546Y-42420D01*
X62584Y-42402D01*
X62603Y-42364D01*
X62603Y-42308D01*
X62584Y-42270D01*
X62378Y-42083D02*
X62359Y-42064D01*
X62340Y-42083D01*
X62359Y-42102D01*
X62378Y-42083D01*
X62340Y-42083D01*
X62546Y-41295D02*
X62546Y-41164D01*
X62340Y-41108D02*
X62340Y-41295D01*
X62734Y-41295D01*
X62734Y-41108D01*
X62340Y-40939D02*
X62603Y-40939D01*
X62528Y-40939D02*
X62565Y-40920D01*
X62584Y-40902D01*
X62603Y-40864D01*
X62603Y-40827D01*
X62603Y-40527D02*
X62284Y-40527D01*
X62246Y-40546D01*
X62228Y-40564D01*
X62209Y-40602D01*
X62209Y-40658D01*
X62228Y-40695D01*
X62359Y-40527D02*
X62340Y-40564D01*
X62340Y-40639D01*
X62359Y-40677D01*
X62378Y-40695D01*
X62415Y-40714D01*
X62528Y-40714D01*
X62565Y-40695D01*
X62584Y-40677D01*
X62603Y-40639D01*
X62603Y-40564D01*
X62584Y-40527D01*
X62340Y-40283D02*
X62359Y-40321D01*
X62378Y-40339D01*
X62415Y-40358D01*
X62528Y-40358D01*
X62565Y-40339D01*
X62584Y-40321D01*
X62603Y-40283D01*
X62603Y-40227D01*
X62584Y-40189D01*
X62565Y-40171D01*
X62528Y-40152D01*
X62415Y-40152D01*
X62378Y-40171D01*
X62359Y-40189D01*
X62340Y-40227D01*
X62340Y-40283D01*
X62340Y-39983D02*
X62734Y-39983D01*
X62734Y-39889D01*
X62715Y-39833D01*
X62678Y-39796D01*
X62640Y-39777D01*
X62565Y-39758D01*
X62509Y-39758D01*
X62434Y-39777D01*
X62396Y-39796D01*
X62359Y-39833D01*
X62340Y-39889D01*
X62340Y-39983D01*
X62340Y-39533D02*
X62359Y-39571D01*
X62378Y-39589D01*
X62415Y-39608D01*
X62528Y-39608D01*
X62565Y-39589D01*
X62584Y-39571D01*
X62603Y-39533D01*
X62603Y-39477D01*
X62584Y-39439D01*
X62565Y-39421D01*
X62528Y-39402D01*
X62415Y-39402D01*
X62378Y-39421D01*
X62359Y-39439D01*
X62340Y-39477D01*
X62340Y-39533D01*
X62340Y-39271D02*
X62603Y-39064D01*
X62603Y-39271D02*
X62340Y-39064D01*
X61691Y-58337D02*
X62084Y-58337D01*
X61709Y-58337D02*
X61691Y-58375D01*
X61691Y-58450D01*
X61709Y-58487D01*
X61728Y-58506D01*
X61766Y-58525D01*
X61878Y-58525D01*
X61916Y-58506D01*
X61934Y-58487D01*
X61953Y-58450D01*
X61953Y-58375D01*
X61934Y-58337D01*
X61709Y-58000D02*
X61691Y-58037D01*
X61691Y-58112D01*
X61709Y-58150D01*
X61747Y-58168D01*
X61897Y-58168D01*
X61934Y-58150D01*
X61953Y-58112D01*
X61953Y-58037D01*
X61934Y-58000D01*
X61897Y-57981D01*
X61859Y-57981D01*
X61822Y-58168D01*
X61709Y-57831D02*
X61691Y-57793D01*
X61691Y-57718D01*
X61709Y-57681D01*
X61747Y-57662D01*
X61766Y-57662D01*
X61803Y-57681D01*
X61822Y-57718D01*
X61822Y-57775D01*
X61841Y-57812D01*
X61878Y-57831D01*
X61897Y-57831D01*
X61934Y-57812D01*
X61953Y-57775D01*
X61953Y-57718D01*
X61934Y-57681D01*
X61691Y-57493D02*
X61953Y-57493D01*
X62084Y-57493D02*
X62065Y-57512D01*
X62047Y-57493D01*
X62065Y-57475D01*
X62084Y-57493D01*
X62047Y-57493D01*
X61953Y-57137D02*
X61634Y-57137D01*
X61597Y-57156D01*
X61578Y-57175D01*
X61559Y-57212D01*
X61559Y-57268D01*
X61578Y-57306D01*
X61709Y-57137D02*
X61691Y-57175D01*
X61691Y-57250D01*
X61709Y-57287D01*
X61728Y-57306D01*
X61766Y-57325D01*
X61878Y-57325D01*
X61916Y-57306D01*
X61934Y-57287D01*
X61953Y-57250D01*
X61953Y-57175D01*
X61934Y-57137D01*
X61953Y-56950D02*
X61691Y-56950D01*
X61916Y-56950D02*
X61934Y-56931D01*
X61953Y-56893D01*
X61953Y-56837D01*
X61934Y-56800D01*
X61897Y-56781D01*
X61691Y-56781D01*
X61691Y-56294D02*
X62084Y-56294D01*
X61934Y-56294D02*
X61953Y-56256D01*
X61953Y-56181D01*
X61934Y-56144D01*
X61916Y-56125D01*
X61878Y-56106D01*
X61766Y-56106D01*
X61728Y-56125D01*
X61709Y-56144D01*
X61691Y-56181D01*
X61691Y-56256D01*
X61709Y-56294D01*
X61953Y-55975D02*
X61691Y-55881D01*
X61953Y-55787D02*
X61691Y-55881D01*
X61597Y-55919D01*
X61578Y-55937D01*
X61559Y-55975D01*
X61691Y-55337D02*
X62084Y-55337D01*
X62084Y-55244D01*
X62065Y-55187D01*
X62028Y-55150D01*
X61991Y-55131D01*
X61916Y-55112D01*
X61859Y-55112D01*
X61784Y-55131D01*
X61747Y-55150D01*
X61709Y-55187D01*
X61691Y-55244D01*
X61691Y-55337D01*
X61691Y-54887D02*
X61709Y-54925D01*
X61728Y-54944D01*
X61766Y-54962D01*
X61878Y-54962D01*
X61916Y-54944D01*
X61934Y-54925D01*
X61953Y-54887D01*
X61953Y-54831D01*
X61934Y-54794D01*
X61916Y-54775D01*
X61878Y-54756D01*
X61766Y-54756D01*
X61728Y-54775D01*
X61709Y-54794D01*
X61691Y-54831D01*
X61691Y-54887D01*
X61691Y-54588D02*
X61953Y-54588D01*
X61916Y-54588D02*
X61934Y-54569D01*
X61953Y-54531D01*
X61953Y-54475D01*
X61934Y-54438D01*
X61897Y-54419D01*
X61691Y-54419D01*
X61897Y-54419D02*
X61934Y-54400D01*
X61953Y-54363D01*
X61953Y-54306D01*
X61934Y-54269D01*
X61897Y-54250D01*
X61691Y-54250D01*
X61691Y-54063D02*
X61953Y-54063D01*
X62084Y-54063D02*
X62065Y-54081D01*
X62047Y-54063D01*
X62065Y-54044D01*
X62084Y-54063D01*
X62047Y-54063D01*
X61953Y-53875D02*
X61691Y-53875D01*
X61916Y-53875D02*
X61934Y-53856D01*
X61953Y-53819D01*
X61953Y-53763D01*
X61934Y-53725D01*
X61897Y-53706D01*
X61691Y-53706D01*
X61691Y-53519D02*
X61953Y-53519D01*
X62084Y-53519D02*
X62065Y-53538D01*
X62047Y-53519D01*
X62065Y-53500D01*
X62084Y-53519D01*
X62047Y-53519D01*
X61709Y-53163D02*
X61691Y-53200D01*
X61691Y-53275D01*
X61709Y-53313D01*
X61728Y-53331D01*
X61766Y-53350D01*
X61878Y-53350D01*
X61916Y-53331D01*
X61934Y-53313D01*
X61953Y-53275D01*
X61953Y-53200D01*
X61934Y-53163D01*
X61897Y-52563D02*
X61878Y-52507D01*
X61859Y-52488D01*
X61822Y-52469D01*
X61766Y-52469D01*
X61728Y-52488D01*
X61709Y-52507D01*
X61691Y-52544D01*
X61691Y-52694D01*
X62084Y-52694D01*
X62084Y-52563D01*
X62065Y-52525D01*
X62047Y-52507D01*
X62009Y-52488D01*
X61972Y-52488D01*
X61934Y-52507D01*
X61916Y-52525D01*
X61897Y-52563D01*
X61897Y-52694D01*
X61709Y-52150D02*
X61691Y-52188D01*
X61691Y-52263D01*
X61709Y-52300D01*
X61747Y-52319D01*
X61897Y-52319D01*
X61934Y-52300D01*
X61953Y-52263D01*
X61953Y-52188D01*
X61934Y-52150D01*
X61897Y-52132D01*
X61859Y-52132D01*
X61822Y-52319D01*
X61691Y-51794D02*
X61897Y-51794D01*
X61934Y-51813D01*
X61953Y-51850D01*
X61953Y-51925D01*
X61934Y-51963D01*
X61709Y-51794D02*
X61691Y-51832D01*
X61691Y-51925D01*
X61709Y-51963D01*
X61747Y-51982D01*
X61784Y-51982D01*
X61822Y-51963D01*
X61841Y-51925D01*
X61841Y-51832D01*
X61859Y-51794D01*
X61953Y-51438D02*
X61691Y-51438D01*
X61953Y-51607D02*
X61747Y-51607D01*
X61709Y-51588D01*
X61691Y-51550D01*
X61691Y-51494D01*
X61709Y-51457D01*
X61728Y-51438D01*
X61709Y-51082D02*
X61691Y-51119D01*
X61691Y-51194D01*
X61709Y-51232D01*
X61728Y-51250D01*
X61766Y-51269D01*
X61878Y-51269D01*
X61916Y-51250D01*
X61934Y-51232D01*
X61953Y-51194D01*
X61953Y-51119D01*
X61934Y-51082D01*
X61691Y-50913D02*
X62084Y-50913D01*
X61691Y-50744D02*
X61897Y-50744D01*
X61934Y-50763D01*
X61953Y-50800D01*
X61953Y-50857D01*
X61934Y-50894D01*
X61916Y-50913D01*
X61691Y-50388D02*
X61897Y-50388D01*
X61934Y-50407D01*
X61953Y-50444D01*
X61953Y-50519D01*
X61934Y-50557D01*
X61709Y-50388D02*
X61691Y-50426D01*
X61691Y-50519D01*
X61709Y-50557D01*
X61747Y-50576D01*
X61784Y-50576D01*
X61822Y-50557D01*
X61841Y-50519D01*
X61841Y-50426D01*
X61859Y-50388D01*
X61691Y-50201D02*
X61953Y-50201D01*
X61916Y-50201D02*
X61934Y-50182D01*
X61953Y-50144D01*
X61953Y-50088D01*
X61934Y-50051D01*
X61897Y-50032D01*
X61691Y-50032D01*
X61897Y-50032D02*
X61934Y-50013D01*
X61953Y-49976D01*
X61953Y-49919D01*
X61934Y-49882D01*
X61897Y-49863D01*
X61691Y-49863D01*
X61953Y-49676D02*
X61559Y-49676D01*
X61934Y-49676D02*
X61953Y-49638D01*
X61953Y-49563D01*
X61934Y-49526D01*
X61916Y-49507D01*
X61878Y-49488D01*
X61766Y-49488D01*
X61728Y-49507D01*
X61709Y-49526D01*
X61691Y-49563D01*
X61691Y-49638D01*
X61709Y-49676D01*
X61709Y-49301D02*
X61691Y-49301D01*
X61653Y-49319D01*
X61634Y-49338D01*
X61691Y-48832D02*
X62084Y-48832D01*
X61934Y-48832D02*
X61953Y-48794D01*
X61953Y-48719D01*
X61934Y-48682D01*
X61916Y-48663D01*
X61878Y-48644D01*
X61766Y-48644D01*
X61728Y-48663D01*
X61709Y-48682D01*
X61691Y-48719D01*
X61691Y-48794D01*
X61709Y-48832D01*
X61691Y-48307D02*
X61897Y-48307D01*
X61934Y-48326D01*
X61953Y-48363D01*
X61953Y-48438D01*
X61934Y-48476D01*
X61709Y-48307D02*
X61691Y-48345D01*
X61691Y-48438D01*
X61709Y-48476D01*
X61747Y-48495D01*
X61784Y-48495D01*
X61822Y-48476D01*
X61841Y-48438D01*
X61841Y-48345D01*
X61859Y-48307D01*
X61709Y-48138D02*
X61691Y-48101D01*
X61691Y-48026D01*
X61709Y-47988D01*
X61747Y-47970D01*
X61766Y-47970D01*
X61803Y-47988D01*
X61822Y-48026D01*
X61822Y-48082D01*
X61841Y-48120D01*
X61878Y-48138D01*
X61897Y-48138D01*
X61934Y-48120D01*
X61953Y-48082D01*
X61953Y-48026D01*
X61934Y-47988D01*
X61709Y-47651D02*
X61691Y-47688D01*
X61691Y-47763D01*
X61709Y-47801D01*
X61747Y-47820D01*
X61897Y-47820D01*
X61934Y-47801D01*
X61953Y-47763D01*
X61953Y-47688D01*
X61934Y-47651D01*
X61897Y-47632D01*
X61859Y-47632D01*
X61822Y-47820D01*
X61691Y-47295D02*
X62084Y-47295D01*
X61709Y-47295D02*
X61691Y-47332D01*
X61691Y-47407D01*
X61709Y-47445D01*
X61728Y-47463D01*
X61766Y-47482D01*
X61878Y-47482D01*
X61916Y-47463D01*
X61934Y-47445D01*
X61953Y-47407D01*
X61953Y-47332D01*
X61934Y-47295D01*
X61691Y-46751D02*
X61709Y-46788D01*
X61728Y-46807D01*
X61766Y-46826D01*
X61878Y-46826D01*
X61916Y-46807D01*
X61934Y-46788D01*
X61953Y-46751D01*
X61953Y-46695D01*
X61934Y-46657D01*
X61916Y-46638D01*
X61878Y-46620D01*
X61766Y-46620D01*
X61728Y-46638D01*
X61709Y-46657D01*
X61691Y-46695D01*
X61691Y-46751D01*
X61953Y-46451D02*
X61691Y-46451D01*
X61916Y-46451D02*
X61934Y-46432D01*
X61953Y-46395D01*
X61953Y-46339D01*
X61934Y-46301D01*
X61897Y-46282D01*
X61691Y-46282D01*
X61953Y-45851D02*
X61953Y-45701D01*
X62084Y-45795D02*
X61747Y-45795D01*
X61709Y-45776D01*
X61691Y-45739D01*
X61691Y-45701D01*
X61691Y-45570D02*
X62084Y-45570D01*
X61691Y-45401D02*
X61897Y-45401D01*
X61934Y-45420D01*
X61953Y-45457D01*
X61953Y-45514D01*
X61934Y-45551D01*
X61916Y-45570D01*
X61709Y-45064D02*
X61691Y-45101D01*
X61691Y-45176D01*
X61709Y-45214D01*
X61747Y-45232D01*
X61897Y-45232D01*
X61934Y-45214D01*
X61953Y-45176D01*
X61953Y-45101D01*
X61934Y-45064D01*
X61897Y-45045D01*
X61859Y-45045D01*
X61822Y-45232D01*
X61691Y-44576D02*
X62084Y-44576D01*
X61691Y-44351D02*
X61916Y-44520D01*
X62084Y-44351D02*
X61859Y-44576D01*
X61709Y-44033D02*
X61691Y-44070D01*
X61691Y-44145D01*
X61709Y-44183D01*
X61747Y-44201D01*
X61897Y-44201D01*
X61934Y-44183D01*
X61953Y-44145D01*
X61953Y-44070D01*
X61934Y-44033D01*
X61897Y-44014D01*
X61859Y-44014D01*
X61822Y-44201D01*
X61953Y-43883D02*
X61691Y-43789D01*
X61953Y-43695D02*
X61691Y-43789D01*
X61597Y-43826D01*
X61578Y-43845D01*
X61559Y-43883D01*
X62084Y-43376D02*
X62084Y-43451D01*
X62065Y-43489D01*
X62047Y-43508D01*
X61991Y-43545D01*
X61916Y-43564D01*
X61766Y-43564D01*
X61728Y-43545D01*
X61709Y-43526D01*
X61691Y-43489D01*
X61691Y-43414D01*
X61709Y-43376D01*
X61728Y-43358D01*
X61766Y-43339D01*
X61859Y-43339D01*
X61897Y-43358D01*
X61916Y-43376D01*
X61934Y-43414D01*
X61934Y-43489D01*
X61916Y-43526D01*
X61897Y-43545D01*
X61859Y-43564D01*
X61953Y-43001D02*
X61691Y-43001D01*
X62103Y-43095D02*
X61822Y-43189D01*
X61822Y-42945D01*
X61691Y-42495D02*
X62084Y-42495D01*
X61934Y-42495D02*
X61953Y-42458D01*
X61953Y-42383D01*
X61934Y-42345D01*
X61916Y-42327D01*
X61878Y-42308D01*
X61766Y-42308D01*
X61728Y-42327D01*
X61709Y-42345D01*
X61691Y-42383D01*
X61691Y-42458D01*
X61709Y-42495D01*
X61953Y-42177D02*
X61691Y-42083D01*
X61953Y-41989D02*
X61691Y-42083D01*
X61597Y-42120D01*
X61578Y-42139D01*
X61559Y-42177D01*
X61691Y-41239D02*
X62084Y-41239D01*
X61691Y-41014D01*
X62084Y-41014D01*
X61709Y-40677D02*
X61691Y-40714D01*
X61691Y-40789D01*
X61709Y-40827D01*
X61747Y-40845D01*
X61897Y-40845D01*
X61934Y-40827D01*
X61953Y-40789D01*
X61953Y-40714D01*
X61934Y-40677D01*
X61897Y-40658D01*
X61859Y-40658D01*
X61822Y-40845D01*
X61709Y-40508D02*
X61691Y-40471D01*
X61691Y-40396D01*
X61709Y-40358D01*
X61747Y-40339D01*
X61766Y-40339D01*
X61803Y-40358D01*
X61822Y-40396D01*
X61822Y-40452D01*
X61841Y-40489D01*
X61878Y-40508D01*
X61897Y-40508D01*
X61934Y-40489D01*
X61953Y-40452D01*
X61953Y-40396D01*
X61934Y-40358D01*
X61953Y-40227D02*
X61953Y-40077D01*
X62084Y-40171D02*
X61747Y-40171D01*
X61709Y-40152D01*
X61691Y-40114D01*
X61691Y-40077D01*
X61691Y-39889D02*
X61709Y-39927D01*
X61728Y-39946D01*
X61766Y-39964D01*
X61878Y-39964D01*
X61916Y-39946D01*
X61934Y-39927D01*
X61953Y-39889D01*
X61953Y-39833D01*
X61934Y-39796D01*
X61916Y-39777D01*
X61878Y-39758D01*
X61766Y-39758D01*
X61728Y-39777D01*
X61709Y-39796D01*
X61691Y-39833D01*
X61691Y-39889D01*
X61691Y-39589D02*
X61953Y-39589D01*
X61878Y-39589D02*
X61916Y-39571D01*
X61934Y-39552D01*
X61953Y-39514D01*
X61953Y-39477D01*
X61803Y-39064D02*
X61803Y-38877D01*
X61691Y-39102D02*
X62084Y-38971D01*
X61691Y-38839D01*
X61728Y-38708D02*
X61709Y-38689D01*
X61691Y-38708D01*
X61709Y-38727D01*
X61728Y-38708D01*
X61691Y-38708D01*
X61691Y-38221D02*
X62084Y-38221D01*
X62084Y-38127D01*
X62065Y-38071D01*
X62028Y-38033D01*
X61991Y-38015D01*
X61916Y-37996D01*
X61859Y-37996D01*
X61784Y-38015D01*
X61747Y-38033D01*
X61709Y-38071D01*
X61691Y-38127D01*
X61691Y-38221D01*
X61691Y-37827D02*
X61953Y-37827D01*
X62084Y-37827D02*
X62065Y-37846D01*
X62047Y-37827D01*
X62065Y-37808D01*
X62084Y-37827D01*
X62047Y-37827D01*
X61691Y-37471D02*
X61897Y-37471D01*
X61934Y-37490D01*
X61953Y-37527D01*
X61953Y-37602D01*
X61934Y-37640D01*
X61709Y-37471D02*
X61691Y-37508D01*
X61691Y-37602D01*
X61709Y-37640D01*
X61747Y-37658D01*
X61784Y-37658D01*
X61822Y-37640D01*
X61841Y-37602D01*
X61841Y-37508D01*
X61859Y-37471D01*
X61953Y-37321D02*
X61953Y-37115D01*
X61691Y-37321D01*
X61691Y-37115D01*
G54D13*
X60430Y-58506D02*
X60167Y-58506D01*
X60055Y-58918D02*
X60430Y-58918D01*
X60430Y-58131D01*
X60055Y-58131D01*
X59717Y-58918D02*
X59717Y-58393D01*
X59717Y-58543D02*
X59680Y-58468D01*
X59642Y-58431D01*
X59567Y-58393D01*
X59492Y-58393D01*
X58893Y-58393D02*
X58893Y-59031D01*
X58930Y-59106D01*
X58968Y-59143D01*
X59043Y-59181D01*
X59155Y-59181D01*
X59230Y-59143D01*
X58893Y-58881D02*
X58968Y-58918D01*
X59117Y-58918D01*
X59192Y-58881D01*
X59230Y-58843D01*
X59267Y-58768D01*
X59267Y-58543D01*
X59230Y-58468D01*
X59192Y-58431D01*
X59117Y-58393D01*
X58968Y-58393D01*
X58893Y-58431D01*
X58405Y-58918D02*
X58480Y-58881D01*
X58518Y-58843D01*
X58555Y-58768D01*
X58555Y-58543D01*
X58518Y-58468D01*
X58480Y-58431D01*
X58405Y-58393D01*
X58293Y-58393D01*
X58218Y-58431D01*
X58180Y-58468D01*
X58143Y-58543D01*
X58143Y-58768D01*
X58180Y-58843D01*
X58218Y-58881D01*
X58293Y-58918D01*
X58405Y-58918D01*
X57918Y-58131D02*
X57468Y-58131D01*
X57693Y-58918D02*
X57693Y-58131D01*
X56605Y-58843D02*
X56568Y-58881D01*
X56605Y-58918D01*
X56643Y-58881D01*
X56605Y-58843D01*
X56605Y-58918D01*
X56605Y-58431D02*
X56568Y-58468D01*
X56605Y-58506D01*
X56643Y-58468D01*
X56605Y-58431D01*
X56605Y-58506D01*
X55630Y-58918D02*
X55630Y-58131D01*
X55443Y-58131D01*
X55330Y-58168D01*
X55255Y-58243D01*
X55218Y-58318D01*
X55180Y-58468D01*
X55180Y-58581D01*
X55218Y-58731D01*
X55255Y-58806D01*
X55330Y-58881D01*
X55443Y-58918D01*
X55630Y-58918D01*
X54843Y-58918D02*
X54843Y-58393D01*
X54843Y-58543D02*
X54806Y-58468D01*
X54768Y-58431D01*
X54693Y-58393D01*
X54618Y-58393D01*
X54018Y-58918D02*
X54018Y-58506D01*
X54056Y-58431D01*
X54131Y-58393D01*
X54281Y-58393D01*
X54356Y-58431D01*
X54018Y-58881D02*
X54093Y-58918D01*
X54281Y-58918D01*
X54356Y-58881D01*
X54393Y-58806D01*
X54393Y-58731D01*
X54356Y-58656D01*
X54281Y-58618D01*
X54093Y-58618D01*
X54018Y-58581D01*
X53718Y-58393D02*
X53568Y-58918D01*
X53418Y-58543D01*
X53268Y-58918D01*
X53118Y-58393D01*
X52818Y-58393D02*
X52818Y-58918D01*
X52818Y-58468D02*
X52781Y-58431D01*
X52706Y-58393D01*
X52593Y-58393D01*
X52518Y-58431D01*
X52481Y-58506D01*
X52481Y-58918D01*
X51506Y-58918D02*
X51506Y-58131D01*
X51506Y-58431D02*
X51431Y-58393D01*
X51281Y-58393D01*
X51206Y-58431D01*
X51168Y-58468D01*
X51131Y-58543D01*
X51131Y-58768D01*
X51168Y-58843D01*
X51206Y-58881D01*
X51281Y-58918D01*
X51431Y-58918D01*
X51506Y-58881D01*
X50869Y-58393D02*
X50681Y-58918D01*
X50494Y-58393D02*
X50681Y-58918D01*
X50756Y-59106D01*
X50794Y-59143D01*
X50869Y-59181D01*
X49144Y-58918D02*
X49406Y-58543D01*
X49594Y-58918D02*
X49594Y-58131D01*
X49294Y-58131D01*
X49219Y-58168D01*
X49181Y-58206D01*
X49144Y-58281D01*
X49144Y-58393D01*
X49181Y-58468D01*
X49219Y-58506D01*
X49294Y-58543D01*
X49594Y-58543D01*
X48506Y-58881D02*
X48581Y-58918D01*
X48731Y-58918D01*
X48806Y-58881D01*
X48844Y-58806D01*
X48844Y-58506D01*
X48806Y-58431D01*
X48731Y-58393D01*
X48581Y-58393D01*
X48506Y-58431D01*
X48469Y-58506D01*
X48469Y-58581D01*
X48844Y-58656D01*
X47794Y-58393D02*
X47794Y-59031D01*
X47831Y-59106D01*
X47869Y-59143D01*
X47944Y-59181D01*
X48056Y-59181D01*
X48131Y-59143D01*
X47794Y-58881D02*
X47869Y-58918D01*
X48019Y-58918D01*
X48094Y-58881D01*
X48131Y-58843D01*
X48169Y-58768D01*
X48169Y-58543D01*
X48131Y-58468D01*
X48094Y-58431D01*
X48019Y-58393D01*
X47869Y-58393D01*
X47794Y-58431D01*
X47082Y-58918D02*
X47082Y-58506D01*
X47119Y-58431D01*
X47194Y-58393D01*
X47344Y-58393D01*
X47419Y-58431D01*
X47082Y-58881D02*
X47156Y-58918D01*
X47344Y-58918D01*
X47419Y-58881D01*
X47456Y-58806D01*
X47456Y-58731D01*
X47419Y-58656D01*
X47344Y-58618D01*
X47156Y-58618D01*
X47082Y-58581D01*
X46369Y-58881D02*
X46444Y-58918D01*
X46594Y-58918D01*
X46669Y-58881D01*
X46707Y-58843D01*
X46744Y-58768D01*
X46744Y-58543D01*
X46707Y-58468D01*
X46669Y-58431D01*
X46594Y-58393D01*
X46444Y-58393D01*
X46369Y-58431D01*
X46032Y-58918D02*
X46032Y-58131D01*
X45957Y-58618D02*
X45732Y-58918D01*
X45732Y-58393D02*
X46032Y-58693D01*
G54D11*
X47728Y-24091D02*
X47886Y-23866D01*
X47998Y-24091D02*
X47998Y-23618D01*
X47818Y-23618D01*
X47773Y-23641D01*
X47751Y-23663D01*
X47728Y-23708D01*
X47728Y-23776D01*
X47751Y-23821D01*
X47773Y-23843D01*
X47818Y-23866D01*
X47998Y-23866D01*
X47526Y-24091D02*
X47526Y-23776D01*
X47526Y-23618D02*
X47548Y-23641D01*
X47526Y-23663D01*
X47503Y-23641D01*
X47526Y-23618D01*
X47526Y-23663D01*
X47098Y-23776D02*
X47098Y-24158D01*
X47121Y-24203D01*
X47143Y-24226D01*
X47188Y-24248D01*
X47256Y-24248D01*
X47301Y-24226D01*
X47098Y-24068D02*
X47143Y-24091D01*
X47233Y-24091D01*
X47278Y-24068D01*
X47301Y-24046D01*
X47323Y-24001D01*
X47323Y-23866D01*
X47301Y-23821D01*
X47278Y-23798D01*
X47233Y-23776D01*
X47143Y-23776D01*
X47098Y-23798D01*
X46873Y-24091D02*
X46873Y-23618D01*
X46671Y-24091D02*
X46671Y-23843D01*
X46693Y-23798D01*
X46738Y-23776D01*
X46806Y-23776D01*
X46851Y-23798D01*
X46873Y-23821D01*
X46513Y-23776D02*
X46333Y-23776D01*
X46446Y-23618D02*
X46446Y-24023D01*
X46423Y-24068D01*
X46378Y-24091D01*
X46333Y-24091D01*
X47762Y-24378D02*
X47672Y-24378D01*
X47627Y-24401D01*
X47582Y-24446D01*
X47559Y-24536D01*
X47559Y-24693D01*
X47582Y-24783D01*
X47627Y-24828D01*
X47672Y-24851D01*
X47762Y-24851D01*
X47807Y-24828D01*
X47852Y-24783D01*
X47874Y-24693D01*
X47874Y-24536D01*
X47852Y-24446D01*
X47807Y-24401D01*
X47762Y-24378D01*
X47357Y-24536D02*
X47357Y-24851D01*
X47357Y-24581D02*
X47334Y-24558D01*
X47289Y-24536D01*
X47222Y-24536D01*
X47177Y-24558D01*
X47155Y-24603D01*
X47155Y-24851D01*
X46862Y-24851D02*
X46907Y-24828D01*
X46930Y-24783D01*
X46930Y-24378D01*
X46727Y-24536D02*
X46615Y-24851D01*
X46502Y-24536D02*
X46615Y-24851D01*
X46660Y-24963D01*
X46682Y-24986D01*
X46727Y-25008D01*
X47728Y-31691D02*
X47886Y-31466D01*
X47998Y-31691D02*
X47998Y-31218D01*
X47818Y-31218D01*
X47773Y-31241D01*
X47751Y-31263D01*
X47728Y-31308D01*
X47728Y-31376D01*
X47751Y-31421D01*
X47773Y-31443D01*
X47818Y-31466D01*
X47998Y-31466D01*
X47526Y-31691D02*
X47526Y-31376D01*
X47526Y-31218D02*
X47548Y-31241D01*
X47526Y-31263D01*
X47503Y-31241D01*
X47526Y-31218D01*
X47526Y-31263D01*
X47098Y-31376D02*
X47098Y-31758D01*
X47121Y-31803D01*
X47143Y-31826D01*
X47188Y-31848D01*
X47256Y-31848D01*
X47301Y-31826D01*
X47098Y-31668D02*
X47143Y-31691D01*
X47233Y-31691D01*
X47278Y-31668D01*
X47301Y-31646D01*
X47323Y-31601D01*
X47323Y-31466D01*
X47301Y-31421D01*
X47278Y-31398D01*
X47233Y-31376D01*
X47143Y-31376D01*
X47098Y-31398D01*
X46873Y-31691D02*
X46873Y-31218D01*
X46671Y-31691D02*
X46671Y-31443D01*
X46693Y-31398D01*
X46738Y-31376D01*
X46806Y-31376D01*
X46851Y-31398D01*
X46873Y-31421D01*
X46513Y-31376D02*
X46333Y-31376D01*
X46446Y-31218D02*
X46446Y-31623D01*
X46423Y-31668D01*
X46378Y-31691D01*
X46333Y-31691D01*
X47762Y-31978D02*
X47672Y-31978D01*
X47627Y-32001D01*
X47582Y-32046D01*
X47559Y-32136D01*
X47559Y-32293D01*
X47582Y-32383D01*
X47627Y-32428D01*
X47672Y-32451D01*
X47762Y-32451D01*
X47807Y-32428D01*
X47852Y-32383D01*
X47874Y-32293D01*
X47874Y-32136D01*
X47852Y-32046D01*
X47807Y-32001D01*
X47762Y-31978D01*
X47357Y-32136D02*
X47357Y-32451D01*
X47357Y-32181D02*
X47334Y-32158D01*
X47289Y-32136D01*
X47222Y-32136D01*
X47177Y-32158D01*
X47155Y-32203D01*
X47155Y-32451D01*
X46862Y-32451D02*
X46907Y-32428D01*
X46930Y-32383D01*
X46930Y-31978D01*
X46727Y-32136D02*
X46615Y-32451D01*
X46502Y-32136D02*
X46615Y-32451D01*
X46660Y-32563D01*
X46682Y-32586D01*
X46727Y-32608D01*
G54D12*
X75667Y-36068D02*
X75599Y-36091D01*
X75487Y-36091D01*
X75442Y-36068D01*
X75419Y-36046D01*
X75397Y-36001D01*
X75397Y-35956D01*
X75419Y-35911D01*
X75442Y-35888D01*
X75487Y-35866D01*
X75577Y-35843D01*
X75622Y-35821D01*
X75644Y-35798D01*
X75667Y-35753D01*
X75667Y-35708D01*
X75644Y-35663D01*
X75622Y-35641D01*
X75577Y-35618D01*
X75464Y-35618D01*
X75397Y-35641D01*
X75239Y-35618D02*
X75127Y-36091D01*
X75037Y-35753D01*
X74947Y-36091D01*
X74834Y-35618D01*
X74452Y-35776D02*
X74452Y-36091D01*
X74565Y-35596D02*
X74677Y-35933D01*
X74385Y-35933D01*
X74205Y-36046D02*
X74182Y-36068D01*
X74205Y-36091D01*
X74227Y-36068D01*
X74205Y-36046D01*
X74205Y-36091D01*
X74205Y-35798D02*
X74182Y-35821D01*
X74205Y-35843D01*
X74227Y-35821D01*
X74205Y-35798D01*
X74205Y-35843D01*
X73890Y-35618D02*
X73845Y-35618D01*
X73800Y-35641D01*
X73777Y-35663D01*
X73755Y-35708D01*
X73732Y-35798D01*
X73732Y-35911D01*
X73755Y-36001D01*
X73777Y-36046D01*
X73800Y-36068D01*
X73845Y-36091D01*
X73890Y-36091D01*
X73935Y-36068D01*
X73957Y-36046D01*
X73980Y-36001D01*
X74002Y-35911D01*
X74002Y-35798D01*
X73980Y-35708D01*
X73957Y-35663D01*
X73935Y-35641D01*
X73890Y-35618D01*
X75767Y-51168D02*
X75699Y-51191D01*
X75587Y-51191D01*
X75542Y-51168D01*
X75519Y-51146D01*
X75497Y-51101D01*
X75497Y-51056D01*
X75519Y-51011D01*
X75542Y-50988D01*
X75587Y-50966D01*
X75677Y-50943D01*
X75722Y-50921D01*
X75744Y-50898D01*
X75767Y-50853D01*
X75767Y-50808D01*
X75744Y-50763D01*
X75722Y-50741D01*
X75677Y-50718D01*
X75564Y-50718D01*
X75497Y-50741D01*
X75339Y-50718D02*
X75227Y-51191D01*
X75137Y-50853D01*
X75047Y-51191D01*
X74934Y-50718D01*
X74777Y-50763D02*
X74755Y-50741D01*
X74710Y-50718D01*
X74597Y-50718D01*
X74552Y-50741D01*
X74530Y-50763D01*
X74507Y-50808D01*
X74507Y-50853D01*
X74530Y-50921D01*
X74799Y-51191D01*
X74507Y-51191D01*
X74305Y-51146D02*
X74282Y-51168D01*
X74305Y-51191D01*
X74327Y-51168D01*
X74305Y-51146D01*
X74305Y-51191D01*
X74305Y-50898D02*
X74282Y-50921D01*
X74305Y-50943D01*
X74327Y-50921D01*
X74305Y-50898D01*
X74305Y-50943D01*
X73990Y-50718D02*
X73945Y-50718D01*
X73900Y-50741D01*
X73877Y-50763D01*
X73855Y-50808D01*
X73832Y-50898D01*
X73832Y-51011D01*
X73855Y-51101D01*
X73877Y-51146D01*
X73900Y-51168D01*
X73945Y-51191D01*
X73990Y-51191D01*
X74035Y-51168D01*
X74057Y-51146D01*
X74080Y-51101D01*
X74102Y-51011D01*
X74102Y-50898D01*
X74080Y-50808D01*
X74057Y-50763D01*
X74035Y-50741D01*
X73990Y-50718D01*
X75667Y-43568D02*
X75599Y-43591D01*
X75487Y-43591D01*
X75442Y-43568D01*
X75419Y-43546D01*
X75397Y-43501D01*
X75397Y-43456D01*
X75419Y-43411D01*
X75442Y-43388D01*
X75487Y-43366D01*
X75577Y-43343D01*
X75622Y-43321D01*
X75644Y-43298D01*
X75667Y-43253D01*
X75667Y-43208D01*
X75644Y-43163D01*
X75622Y-43141D01*
X75577Y-43118D01*
X75464Y-43118D01*
X75397Y-43141D01*
X75239Y-43118D02*
X75127Y-43591D01*
X75037Y-43253D01*
X74947Y-43591D01*
X74834Y-43118D01*
X74699Y-43118D02*
X74407Y-43118D01*
X74565Y-43298D01*
X74497Y-43298D01*
X74452Y-43321D01*
X74430Y-43343D01*
X74407Y-43388D01*
X74407Y-43501D01*
X74430Y-43546D01*
X74452Y-43568D01*
X74497Y-43591D01*
X74632Y-43591D01*
X74677Y-43568D01*
X74699Y-43546D01*
X74205Y-43546D02*
X74182Y-43568D01*
X74205Y-43591D01*
X74227Y-43568D01*
X74205Y-43546D01*
X74205Y-43591D01*
X74205Y-43298D02*
X74182Y-43321D01*
X74205Y-43343D01*
X74227Y-43321D01*
X74205Y-43298D01*
X74205Y-43343D01*
X73890Y-43118D02*
X73845Y-43118D01*
X73800Y-43141D01*
X73777Y-43163D01*
X73755Y-43208D01*
X73732Y-43298D01*
X73732Y-43411D01*
X73755Y-43501D01*
X73777Y-43546D01*
X73800Y-43568D01*
X73845Y-43591D01*
X73890Y-43591D01*
X73935Y-43568D01*
X73957Y-43546D01*
X73980Y-43501D01*
X74002Y-43411D01*
X74002Y-43298D01*
X73980Y-43208D01*
X73957Y-43163D01*
X73935Y-43141D01*
X73890Y-43118D01*
X75667Y-58568D02*
X75599Y-58591D01*
X75487Y-58591D01*
X75442Y-58568D01*
X75419Y-58546D01*
X75397Y-58501D01*
X75397Y-58456D01*
X75419Y-58411D01*
X75442Y-58388D01*
X75487Y-58366D01*
X75577Y-58343D01*
X75622Y-58321D01*
X75644Y-58298D01*
X75667Y-58253D01*
X75667Y-58208D01*
X75644Y-58163D01*
X75622Y-58141D01*
X75577Y-58118D01*
X75464Y-58118D01*
X75397Y-58141D01*
X75239Y-58118D02*
X75127Y-58591D01*
X75037Y-58253D01*
X74947Y-58591D01*
X74834Y-58118D01*
X74407Y-58591D02*
X74677Y-58591D01*
X74542Y-58591D02*
X74542Y-58118D01*
X74587Y-58186D01*
X74632Y-58231D01*
X74677Y-58253D01*
X74205Y-58546D02*
X74182Y-58568D01*
X74205Y-58591D01*
X74227Y-58568D01*
X74205Y-58546D01*
X74205Y-58591D01*
X74205Y-58298D02*
X74182Y-58321D01*
X74205Y-58343D01*
X74227Y-58321D01*
X74205Y-58298D01*
X74205Y-58343D01*
X73890Y-58118D02*
X73845Y-58118D01*
X73800Y-58141D01*
X73777Y-58163D01*
X73755Y-58208D01*
X73732Y-58298D01*
X73732Y-58411D01*
X73755Y-58501D01*
X73777Y-58546D01*
X73800Y-58568D01*
X73845Y-58591D01*
X73890Y-58591D01*
X73935Y-58568D01*
X73957Y-58546D01*
X73980Y-58501D01*
X74002Y-58411D01*
X74002Y-58298D01*
X73980Y-58208D01*
X73957Y-58163D01*
X73935Y-58141D01*
X73890Y-58118D01*
X41967Y-57368D02*
X41899Y-57391D01*
X41787Y-57391D01*
X41742Y-57368D01*
X41719Y-57346D01*
X41697Y-57301D01*
X41697Y-57256D01*
X41719Y-57211D01*
X41742Y-57188D01*
X41787Y-57166D01*
X41877Y-57143D01*
X41922Y-57121D01*
X41944Y-57098D01*
X41967Y-57053D01*
X41967Y-57008D01*
X41944Y-56963D01*
X41922Y-56941D01*
X41877Y-56918D01*
X41764Y-56918D01*
X41697Y-56941D01*
X41539Y-56918D02*
X41427Y-57391D01*
X41337Y-57053D01*
X41247Y-57391D01*
X41134Y-56918D01*
X40707Y-57391D02*
X40977Y-57391D01*
X40842Y-57391D02*
X40842Y-56918D01*
X40887Y-56986D01*
X40932Y-57031D01*
X40977Y-57053D01*
X40505Y-57346D02*
X40482Y-57368D01*
X40505Y-57391D01*
X40527Y-57368D01*
X40505Y-57346D01*
X40505Y-57391D01*
X40505Y-57098D02*
X40482Y-57121D01*
X40505Y-57143D01*
X40527Y-57121D01*
X40505Y-57098D01*
X40505Y-57143D01*
X40077Y-57076D02*
X40077Y-57391D01*
X40190Y-56896D02*
X40302Y-57233D01*
X40010Y-57233D01*
X52967Y-56668D02*
X52899Y-56691D01*
X52787Y-56691D01*
X52742Y-56668D01*
X52719Y-56646D01*
X52697Y-56601D01*
X52697Y-56556D01*
X52719Y-56511D01*
X52742Y-56488D01*
X52787Y-56466D01*
X52877Y-56443D01*
X52922Y-56421D01*
X52944Y-56398D01*
X52967Y-56353D01*
X52967Y-56308D01*
X52944Y-56263D01*
X52922Y-56241D01*
X52877Y-56218D01*
X52764Y-56218D01*
X52697Y-56241D01*
X52539Y-56218D02*
X52427Y-56691D01*
X52337Y-56353D01*
X52247Y-56691D01*
X52134Y-56218D01*
X51707Y-56691D02*
X51977Y-56691D01*
X51842Y-56691D02*
X51842Y-56218D01*
X51887Y-56286D01*
X51932Y-56331D01*
X51977Y-56353D01*
X51505Y-56646D02*
X51482Y-56668D01*
X51505Y-56691D01*
X51527Y-56668D01*
X51505Y-56646D01*
X51505Y-56691D01*
X51505Y-56398D02*
X51482Y-56421D01*
X51505Y-56443D01*
X51527Y-56421D01*
X51505Y-56398D01*
X51505Y-56443D01*
X51325Y-56218D02*
X51032Y-56218D01*
X51190Y-56398D01*
X51122Y-56398D01*
X51077Y-56421D01*
X51055Y-56443D01*
X51032Y-56488D01*
X51032Y-56601D01*
X51055Y-56646D01*
X51077Y-56668D01*
X51122Y-56691D01*
X51257Y-56691D01*
X51302Y-56668D01*
X51325Y-56646D01*
X60667Y-49868D02*
X60599Y-49891D01*
X60487Y-49891D01*
X60442Y-49868D01*
X60419Y-49846D01*
X60397Y-49801D01*
X60397Y-49756D01*
X60419Y-49711D01*
X60442Y-49688D01*
X60487Y-49666D01*
X60577Y-49643D01*
X60622Y-49621D01*
X60644Y-49598D01*
X60667Y-49553D01*
X60667Y-49508D01*
X60644Y-49463D01*
X60622Y-49441D01*
X60577Y-49418D01*
X60464Y-49418D01*
X60397Y-49441D01*
X60239Y-49418D02*
X60127Y-49891D01*
X60037Y-49553D01*
X59947Y-49891D01*
X59834Y-49418D01*
X59677Y-49463D02*
X59655Y-49441D01*
X59610Y-49418D01*
X59497Y-49418D01*
X59452Y-49441D01*
X59430Y-49463D01*
X59407Y-49508D01*
X59407Y-49553D01*
X59430Y-49621D01*
X59699Y-49891D01*
X59407Y-49891D01*
X59205Y-49846D02*
X59182Y-49868D01*
X59205Y-49891D01*
X59227Y-49868D01*
X59205Y-49846D01*
X59205Y-49891D01*
X59205Y-49598D02*
X59182Y-49621D01*
X59205Y-49643D01*
X59227Y-49621D01*
X59205Y-49598D01*
X59205Y-49643D01*
X59002Y-49463D02*
X58980Y-49441D01*
X58935Y-49418D01*
X58822Y-49418D01*
X58777Y-49441D01*
X58755Y-49463D01*
X58732Y-49508D01*
X58732Y-49553D01*
X58755Y-49621D01*
X59025Y-49891D01*
X58732Y-49891D01*
X68267Y-51068D02*
X68199Y-51091D01*
X68087Y-51091D01*
X68042Y-51068D01*
X68019Y-51046D01*
X67997Y-51001D01*
X67997Y-50956D01*
X68019Y-50911D01*
X68042Y-50888D01*
X68087Y-50866D01*
X68177Y-50843D01*
X68222Y-50821D01*
X68244Y-50798D01*
X68267Y-50753D01*
X68267Y-50708D01*
X68244Y-50663D01*
X68222Y-50641D01*
X68177Y-50618D01*
X68064Y-50618D01*
X67997Y-50641D01*
X67839Y-50618D02*
X67727Y-51091D01*
X67637Y-50753D01*
X67547Y-51091D01*
X67434Y-50618D01*
X67277Y-50663D02*
X67255Y-50641D01*
X67210Y-50618D01*
X67097Y-50618D01*
X67052Y-50641D01*
X67030Y-50663D01*
X67007Y-50708D01*
X67007Y-50753D01*
X67030Y-50821D01*
X67299Y-51091D01*
X67007Y-51091D01*
X66805Y-51046D02*
X66782Y-51068D01*
X66805Y-51091D01*
X66827Y-51068D01*
X66805Y-51046D01*
X66805Y-51091D01*
X66805Y-50798D02*
X66782Y-50821D01*
X66805Y-50843D01*
X66827Y-50821D01*
X66805Y-50798D01*
X66805Y-50843D01*
X66332Y-51091D02*
X66602Y-51091D01*
X66467Y-51091D02*
X66467Y-50618D01*
X66512Y-50686D01*
X66557Y-50731D01*
X66602Y-50753D01*
X68167Y-58568D02*
X68099Y-58591D01*
X67987Y-58591D01*
X67942Y-58568D01*
X67919Y-58546D01*
X67897Y-58501D01*
X67897Y-58456D01*
X67919Y-58411D01*
X67942Y-58388D01*
X67987Y-58366D01*
X68077Y-58343D01*
X68122Y-58321D01*
X68144Y-58298D01*
X68167Y-58253D01*
X68167Y-58208D01*
X68144Y-58163D01*
X68122Y-58141D01*
X68077Y-58118D01*
X67964Y-58118D01*
X67897Y-58141D01*
X67739Y-58118D02*
X67627Y-58591D01*
X67537Y-58253D01*
X67447Y-58591D01*
X67334Y-58118D01*
X66907Y-58591D02*
X67177Y-58591D01*
X67042Y-58591D02*
X67042Y-58118D01*
X67087Y-58186D01*
X67132Y-58231D01*
X67177Y-58253D01*
X66705Y-58546D02*
X66682Y-58568D01*
X66705Y-58591D01*
X66727Y-58568D01*
X66705Y-58546D01*
X66705Y-58591D01*
X66705Y-58298D02*
X66682Y-58321D01*
X66705Y-58343D01*
X66727Y-58321D01*
X66705Y-58298D01*
X66705Y-58343D01*
X66232Y-58591D02*
X66502Y-58591D01*
X66367Y-58591D02*
X66367Y-58118D01*
X66412Y-58186D01*
X66457Y-58231D01*
X66502Y-58253D01*
X60667Y-57368D02*
X60599Y-57391D01*
X60487Y-57391D01*
X60442Y-57368D01*
X60419Y-57346D01*
X60397Y-57301D01*
X60397Y-57256D01*
X60419Y-57211D01*
X60442Y-57188D01*
X60487Y-57166D01*
X60577Y-57143D01*
X60622Y-57121D01*
X60644Y-57098D01*
X60667Y-57053D01*
X60667Y-57008D01*
X60644Y-56963D01*
X60622Y-56941D01*
X60577Y-56918D01*
X60464Y-56918D01*
X60397Y-56941D01*
X60239Y-56918D02*
X60127Y-57391D01*
X60037Y-57053D01*
X59947Y-57391D01*
X59834Y-56918D01*
X59407Y-57391D02*
X59677Y-57391D01*
X59542Y-57391D02*
X59542Y-56918D01*
X59587Y-56986D01*
X59632Y-57031D01*
X59677Y-57053D01*
X59205Y-57346D02*
X59182Y-57368D01*
X59205Y-57391D01*
X59227Y-57368D01*
X59205Y-57346D01*
X59205Y-57391D01*
X59205Y-57098D02*
X59182Y-57121D01*
X59205Y-57143D01*
X59227Y-57121D01*
X59205Y-57098D01*
X59205Y-57143D01*
X59002Y-56963D02*
X58980Y-56941D01*
X58935Y-56918D01*
X58822Y-56918D01*
X58777Y-56941D01*
X58755Y-56963D01*
X58732Y-57008D01*
X58732Y-57053D01*
X58755Y-57121D01*
X59025Y-57391D01*
X58732Y-57391D01*
X52767Y-49168D02*
X52699Y-49191D01*
X52587Y-49191D01*
X52542Y-49168D01*
X52519Y-49146D01*
X52497Y-49101D01*
X52497Y-49056D01*
X52519Y-49011D01*
X52542Y-48988D01*
X52587Y-48966D01*
X52677Y-48943D01*
X52722Y-48921D01*
X52744Y-48898D01*
X52767Y-48853D01*
X52767Y-48808D01*
X52744Y-48763D01*
X52722Y-48741D01*
X52677Y-48718D01*
X52564Y-48718D01*
X52497Y-48741D01*
X52339Y-48718D02*
X52227Y-49191D01*
X52137Y-48853D01*
X52047Y-49191D01*
X51934Y-48718D01*
X51777Y-48763D02*
X51755Y-48741D01*
X51710Y-48718D01*
X51597Y-48718D01*
X51552Y-48741D01*
X51530Y-48763D01*
X51507Y-48808D01*
X51507Y-48853D01*
X51530Y-48921D01*
X51799Y-49191D01*
X51507Y-49191D01*
X51305Y-49146D02*
X51282Y-49168D01*
X51305Y-49191D01*
X51327Y-49168D01*
X51305Y-49146D01*
X51305Y-49191D01*
X51305Y-48898D02*
X51282Y-48921D01*
X51305Y-48943D01*
X51327Y-48921D01*
X51305Y-48898D01*
X51305Y-48943D01*
X51125Y-48718D02*
X50832Y-48718D01*
X50990Y-48898D01*
X50922Y-48898D01*
X50877Y-48921D01*
X50855Y-48943D01*
X50832Y-48988D01*
X50832Y-49101D01*
X50855Y-49146D01*
X50877Y-49168D01*
X50922Y-49191D01*
X51057Y-49191D01*
X51102Y-49168D01*
X51125Y-49146D01*
X45767Y-49868D02*
X45699Y-49891D01*
X45587Y-49891D01*
X45542Y-49868D01*
X45519Y-49846D01*
X45497Y-49801D01*
X45497Y-49756D01*
X45519Y-49711D01*
X45542Y-49688D01*
X45587Y-49666D01*
X45677Y-49643D01*
X45722Y-49621D01*
X45744Y-49598D01*
X45767Y-49553D01*
X45767Y-49508D01*
X45744Y-49463D01*
X45722Y-49441D01*
X45677Y-49418D01*
X45564Y-49418D01*
X45497Y-49441D01*
X45339Y-49418D02*
X45227Y-49891D01*
X45137Y-49553D01*
X45047Y-49891D01*
X44934Y-49418D01*
X44777Y-49463D02*
X44755Y-49441D01*
X44710Y-49418D01*
X44597Y-49418D01*
X44552Y-49441D01*
X44530Y-49463D01*
X44507Y-49508D01*
X44507Y-49553D01*
X44530Y-49621D01*
X44799Y-49891D01*
X44507Y-49891D01*
X44305Y-49846D02*
X44282Y-49868D01*
X44305Y-49891D01*
X44327Y-49868D01*
X44305Y-49846D01*
X44305Y-49891D01*
X44305Y-49598D02*
X44282Y-49621D01*
X44305Y-49643D01*
X44327Y-49621D01*
X44305Y-49598D01*
X44305Y-49643D01*
X43877Y-49576D02*
X43877Y-49891D01*
X43990Y-49396D02*
X44102Y-49733D01*
X43810Y-49733D01*
X38217Y-49668D02*
X38149Y-49691D01*
X38037Y-49691D01*
X37992Y-49668D01*
X37969Y-49646D01*
X37947Y-49601D01*
X37947Y-49556D01*
X37969Y-49511D01*
X37992Y-49488D01*
X38037Y-49466D01*
X38127Y-49443D01*
X38172Y-49421D01*
X38194Y-49398D01*
X38217Y-49353D01*
X38217Y-49308D01*
X38194Y-49263D01*
X38172Y-49241D01*
X38127Y-49218D01*
X38014Y-49218D01*
X37947Y-49241D01*
X37789Y-49218D02*
X37677Y-49691D01*
X37587Y-49353D01*
X37497Y-49691D01*
X37384Y-49218D01*
X37227Y-49263D02*
X37205Y-49241D01*
X37160Y-49218D01*
X37047Y-49218D01*
X37002Y-49241D01*
X36980Y-49263D01*
X36957Y-49308D01*
X36957Y-49353D01*
X36980Y-49421D01*
X37249Y-49691D01*
X36957Y-49691D01*
X36755Y-49646D02*
X36732Y-49668D01*
X36755Y-49691D01*
X36777Y-49668D01*
X36755Y-49646D01*
X36755Y-49691D01*
X36755Y-49398D02*
X36732Y-49421D01*
X36755Y-49443D01*
X36777Y-49421D01*
X36755Y-49398D01*
X36755Y-49443D01*
X36305Y-49218D02*
X36530Y-49218D01*
X36552Y-49443D01*
X36530Y-49421D01*
X36485Y-49398D01*
X36372Y-49398D01*
X36327Y-49421D01*
X36305Y-49443D01*
X36282Y-49488D01*
X36282Y-49601D01*
X36305Y-49646D01*
X36327Y-49668D01*
X36372Y-49691D01*
X36485Y-49691D01*
X36530Y-49668D01*
X36552Y-49646D01*
X38217Y-42168D02*
X38149Y-42191D01*
X38037Y-42191D01*
X37992Y-42168D01*
X37969Y-42146D01*
X37947Y-42101D01*
X37947Y-42056D01*
X37969Y-42011D01*
X37992Y-41988D01*
X38037Y-41966D01*
X38127Y-41943D01*
X38172Y-41921D01*
X38194Y-41898D01*
X38217Y-41853D01*
X38217Y-41808D01*
X38194Y-41763D01*
X38172Y-41741D01*
X38127Y-41718D01*
X38014Y-41718D01*
X37947Y-41741D01*
X37789Y-41718D02*
X37677Y-42191D01*
X37587Y-41853D01*
X37497Y-42191D01*
X37384Y-41718D01*
X37249Y-41718D02*
X36957Y-41718D01*
X37115Y-41898D01*
X37047Y-41898D01*
X37002Y-41921D01*
X36980Y-41943D01*
X36957Y-41988D01*
X36957Y-42101D01*
X36980Y-42146D01*
X37002Y-42168D01*
X37047Y-42191D01*
X37182Y-42191D01*
X37227Y-42168D01*
X37249Y-42146D01*
X36755Y-42146D02*
X36732Y-42168D01*
X36755Y-42191D01*
X36777Y-42168D01*
X36755Y-42146D01*
X36755Y-42191D01*
X36755Y-41898D02*
X36732Y-41921D01*
X36755Y-41943D01*
X36777Y-41921D01*
X36755Y-41898D01*
X36755Y-41943D01*
X36305Y-41718D02*
X36530Y-41718D01*
X36552Y-41943D01*
X36530Y-41921D01*
X36485Y-41898D01*
X36372Y-41898D01*
X36327Y-41921D01*
X36305Y-41943D01*
X36282Y-41988D01*
X36282Y-42101D01*
X36305Y-42146D01*
X36327Y-42168D01*
X36372Y-42191D01*
X36485Y-42191D01*
X36530Y-42168D01*
X36552Y-42146D01*
X45767Y-42268D02*
X45699Y-42291D01*
X45587Y-42291D01*
X45542Y-42268D01*
X45519Y-42246D01*
X45497Y-42201D01*
X45497Y-42156D01*
X45519Y-42111D01*
X45542Y-42088D01*
X45587Y-42066D01*
X45677Y-42043D01*
X45722Y-42021D01*
X45744Y-41998D01*
X45767Y-41953D01*
X45767Y-41908D01*
X45744Y-41863D01*
X45722Y-41841D01*
X45677Y-41818D01*
X45564Y-41818D01*
X45497Y-41841D01*
X45339Y-41818D02*
X45227Y-42291D01*
X45137Y-41953D01*
X45047Y-42291D01*
X44934Y-41818D01*
X44799Y-41818D02*
X44507Y-41818D01*
X44665Y-41998D01*
X44597Y-41998D01*
X44552Y-42021D01*
X44530Y-42043D01*
X44507Y-42088D01*
X44507Y-42201D01*
X44530Y-42246D01*
X44552Y-42268D01*
X44597Y-42291D01*
X44732Y-42291D01*
X44777Y-42268D01*
X44799Y-42246D01*
X44305Y-42246D02*
X44282Y-42268D01*
X44305Y-42291D01*
X44327Y-42268D01*
X44305Y-42246D01*
X44305Y-42291D01*
X44305Y-41998D02*
X44282Y-42021D01*
X44305Y-42043D01*
X44327Y-42021D01*
X44305Y-41998D01*
X44305Y-42043D01*
X43877Y-41976D02*
X43877Y-42291D01*
X43990Y-41796D02*
X44102Y-42133D01*
X43810Y-42133D01*
X53067Y-41668D02*
X52999Y-41691D01*
X52887Y-41691D01*
X52842Y-41668D01*
X52819Y-41646D01*
X52797Y-41601D01*
X52797Y-41556D01*
X52819Y-41511D01*
X52842Y-41488D01*
X52887Y-41466D01*
X52977Y-41443D01*
X53022Y-41421D01*
X53044Y-41398D01*
X53067Y-41353D01*
X53067Y-41308D01*
X53044Y-41263D01*
X53022Y-41241D01*
X52977Y-41218D01*
X52864Y-41218D01*
X52797Y-41241D01*
X52639Y-41218D02*
X52527Y-41691D01*
X52437Y-41353D01*
X52347Y-41691D01*
X52234Y-41218D01*
X52099Y-41218D02*
X51807Y-41218D01*
X51965Y-41398D01*
X51897Y-41398D01*
X51852Y-41421D01*
X51830Y-41443D01*
X51807Y-41488D01*
X51807Y-41601D01*
X51830Y-41646D01*
X51852Y-41668D01*
X51897Y-41691D01*
X52032Y-41691D01*
X52077Y-41668D01*
X52099Y-41646D01*
X51605Y-41646D02*
X51582Y-41668D01*
X51605Y-41691D01*
X51627Y-41668D01*
X51605Y-41646D01*
X51605Y-41691D01*
X51605Y-41398D02*
X51582Y-41421D01*
X51605Y-41443D01*
X51627Y-41421D01*
X51605Y-41398D01*
X51605Y-41443D01*
X51425Y-41218D02*
X51132Y-41218D01*
X51290Y-41398D01*
X51222Y-41398D01*
X51177Y-41421D01*
X51155Y-41443D01*
X51132Y-41488D01*
X51132Y-41601D01*
X51155Y-41646D01*
X51177Y-41668D01*
X51222Y-41691D01*
X51357Y-41691D01*
X51402Y-41668D01*
X51425Y-41646D01*
X60567Y-42368D02*
X60499Y-42391D01*
X60387Y-42391D01*
X60342Y-42368D01*
X60319Y-42346D01*
X60297Y-42301D01*
X60297Y-42256D01*
X60319Y-42211D01*
X60342Y-42188D01*
X60387Y-42166D01*
X60477Y-42143D01*
X60522Y-42121D01*
X60544Y-42098D01*
X60567Y-42053D01*
X60567Y-42008D01*
X60544Y-41963D01*
X60522Y-41941D01*
X60477Y-41918D01*
X60364Y-41918D01*
X60297Y-41941D01*
X60139Y-41918D02*
X60027Y-42391D01*
X59937Y-42053D01*
X59847Y-42391D01*
X59734Y-41918D01*
X59599Y-41918D02*
X59307Y-41918D01*
X59465Y-42098D01*
X59397Y-42098D01*
X59352Y-42121D01*
X59330Y-42143D01*
X59307Y-42188D01*
X59307Y-42301D01*
X59330Y-42346D01*
X59352Y-42368D01*
X59397Y-42391D01*
X59532Y-42391D01*
X59577Y-42368D01*
X59599Y-42346D01*
X59105Y-42346D02*
X59082Y-42368D01*
X59105Y-42391D01*
X59127Y-42368D01*
X59105Y-42346D01*
X59105Y-42391D01*
X59105Y-42098D02*
X59082Y-42121D01*
X59105Y-42143D01*
X59127Y-42121D01*
X59105Y-42098D01*
X59105Y-42143D01*
X58902Y-41963D02*
X58880Y-41941D01*
X58835Y-41918D01*
X58722Y-41918D01*
X58677Y-41941D01*
X58655Y-41963D01*
X58632Y-42008D01*
X58632Y-42053D01*
X58655Y-42121D01*
X58925Y-42391D01*
X58632Y-42391D01*
X67767Y-43568D02*
X67699Y-43591D01*
X67587Y-43591D01*
X67542Y-43568D01*
X67519Y-43546D01*
X67497Y-43501D01*
X67497Y-43456D01*
X67519Y-43411D01*
X67542Y-43388D01*
X67587Y-43366D01*
X67677Y-43343D01*
X67722Y-43321D01*
X67744Y-43298D01*
X67767Y-43253D01*
X67767Y-43208D01*
X67744Y-43163D01*
X67722Y-43141D01*
X67677Y-43118D01*
X67564Y-43118D01*
X67497Y-43141D01*
X67339Y-43118D02*
X67227Y-43591D01*
X67137Y-43253D01*
X67047Y-43591D01*
X66934Y-43118D01*
X66799Y-43118D02*
X66507Y-43118D01*
X66665Y-43298D01*
X66597Y-43298D01*
X66552Y-43321D01*
X66530Y-43343D01*
X66507Y-43388D01*
X66507Y-43501D01*
X66530Y-43546D01*
X66552Y-43568D01*
X66597Y-43591D01*
X66732Y-43591D01*
X66777Y-43568D01*
X66799Y-43546D01*
X66305Y-43546D02*
X66282Y-43568D01*
X66305Y-43591D01*
X66327Y-43568D01*
X66305Y-43546D01*
X66305Y-43591D01*
X66305Y-43298D02*
X66282Y-43321D01*
X66305Y-43343D01*
X66327Y-43321D01*
X66305Y-43298D01*
X66305Y-43343D01*
X65832Y-43591D02*
X66102Y-43591D01*
X65967Y-43591D02*
X65967Y-43118D01*
X66012Y-43186D01*
X66057Y-43231D01*
X66102Y-43253D01*
X68167Y-35968D02*
X68099Y-35991D01*
X67987Y-35991D01*
X67942Y-35968D01*
X67919Y-35946D01*
X67897Y-35901D01*
X67897Y-35856D01*
X67919Y-35811D01*
X67942Y-35788D01*
X67987Y-35766D01*
X68077Y-35743D01*
X68122Y-35721D01*
X68144Y-35698D01*
X68167Y-35653D01*
X68167Y-35608D01*
X68144Y-35563D01*
X68122Y-35541D01*
X68077Y-35518D01*
X67964Y-35518D01*
X67897Y-35541D01*
X67739Y-35518D02*
X67627Y-35991D01*
X67537Y-35653D01*
X67447Y-35991D01*
X67334Y-35518D01*
X66952Y-35676D02*
X66952Y-35991D01*
X67065Y-35496D02*
X67177Y-35833D01*
X66885Y-35833D01*
X66705Y-35946D02*
X66682Y-35968D01*
X66705Y-35991D01*
X66727Y-35968D01*
X66705Y-35946D01*
X66705Y-35991D01*
X66705Y-35698D02*
X66682Y-35721D01*
X66705Y-35743D01*
X66727Y-35721D01*
X66705Y-35698D01*
X66705Y-35743D01*
X66232Y-35991D02*
X66502Y-35991D01*
X66367Y-35991D02*
X66367Y-35518D01*
X66412Y-35586D01*
X66457Y-35631D01*
X66502Y-35653D01*
X60567Y-34868D02*
X60499Y-34891D01*
X60387Y-34891D01*
X60342Y-34868D01*
X60319Y-34846D01*
X60297Y-34801D01*
X60297Y-34756D01*
X60319Y-34711D01*
X60342Y-34688D01*
X60387Y-34666D01*
X60477Y-34643D01*
X60522Y-34621D01*
X60544Y-34598D01*
X60567Y-34553D01*
X60567Y-34508D01*
X60544Y-34463D01*
X60522Y-34441D01*
X60477Y-34418D01*
X60364Y-34418D01*
X60297Y-34441D01*
X60139Y-34418D02*
X60027Y-34891D01*
X59937Y-34553D01*
X59847Y-34891D01*
X59734Y-34418D01*
X59352Y-34576D02*
X59352Y-34891D01*
X59465Y-34396D02*
X59577Y-34733D01*
X59285Y-34733D01*
X59105Y-34846D02*
X59082Y-34868D01*
X59105Y-34891D01*
X59127Y-34868D01*
X59105Y-34846D01*
X59105Y-34891D01*
X59105Y-34598D02*
X59082Y-34621D01*
X59105Y-34643D01*
X59127Y-34621D01*
X59105Y-34598D01*
X59105Y-34643D01*
X58902Y-34463D02*
X58880Y-34441D01*
X58835Y-34418D01*
X58722Y-34418D01*
X58677Y-34441D01*
X58655Y-34463D01*
X58632Y-34508D01*
X58632Y-34553D01*
X58655Y-34621D01*
X58925Y-34891D01*
X58632Y-34891D01*
X53167Y-34168D02*
X53099Y-34191D01*
X52987Y-34191D01*
X52942Y-34168D01*
X52919Y-34146D01*
X52897Y-34101D01*
X52897Y-34056D01*
X52919Y-34011D01*
X52942Y-33988D01*
X52987Y-33966D01*
X53077Y-33943D01*
X53122Y-33921D01*
X53144Y-33898D01*
X53167Y-33853D01*
X53167Y-33808D01*
X53144Y-33763D01*
X53122Y-33741D01*
X53077Y-33718D01*
X52964Y-33718D01*
X52897Y-33741D01*
X52739Y-33718D02*
X52627Y-34191D01*
X52537Y-33853D01*
X52447Y-34191D01*
X52334Y-33718D01*
X51952Y-33876D02*
X51952Y-34191D01*
X52065Y-33696D02*
X52177Y-34033D01*
X51885Y-34033D01*
X51705Y-34146D02*
X51682Y-34168D01*
X51705Y-34191D01*
X51727Y-34168D01*
X51705Y-34146D01*
X51705Y-34191D01*
X51705Y-33898D02*
X51682Y-33921D01*
X51705Y-33943D01*
X51727Y-33921D01*
X51705Y-33898D01*
X51705Y-33943D01*
X51525Y-33718D02*
X51232Y-33718D01*
X51390Y-33898D01*
X51322Y-33898D01*
X51277Y-33921D01*
X51255Y-33943D01*
X51232Y-33988D01*
X51232Y-34101D01*
X51255Y-34146D01*
X51277Y-34168D01*
X51322Y-34191D01*
X51457Y-34191D01*
X51502Y-34168D01*
X51525Y-34146D01*
X45567Y-34768D02*
X45499Y-34791D01*
X45387Y-34791D01*
X45342Y-34768D01*
X45319Y-34746D01*
X45297Y-34701D01*
X45297Y-34656D01*
X45319Y-34611D01*
X45342Y-34588D01*
X45387Y-34566D01*
X45477Y-34543D01*
X45522Y-34521D01*
X45544Y-34498D01*
X45567Y-34453D01*
X45567Y-34408D01*
X45544Y-34363D01*
X45522Y-34341D01*
X45477Y-34318D01*
X45364Y-34318D01*
X45297Y-34341D01*
X45139Y-34318D02*
X45027Y-34791D01*
X44937Y-34453D01*
X44847Y-34791D01*
X44734Y-34318D01*
X44352Y-34476D02*
X44352Y-34791D01*
X44465Y-34296D02*
X44577Y-34633D01*
X44285Y-34633D01*
X44105Y-34746D02*
X44082Y-34768D01*
X44105Y-34791D01*
X44127Y-34768D01*
X44105Y-34746D01*
X44105Y-34791D01*
X44105Y-34498D02*
X44082Y-34521D01*
X44105Y-34543D01*
X44127Y-34521D01*
X44105Y-34498D01*
X44105Y-34543D01*
X43677Y-34476D02*
X43677Y-34791D01*
X43790Y-34296D02*
X43902Y-34633D01*
X43610Y-34633D01*
X38217Y-34668D02*
X38149Y-34691D01*
X38037Y-34691D01*
X37992Y-34668D01*
X37969Y-34646D01*
X37947Y-34601D01*
X37947Y-34556D01*
X37969Y-34511D01*
X37992Y-34488D01*
X38037Y-34466D01*
X38127Y-34443D01*
X38172Y-34421D01*
X38194Y-34398D01*
X38217Y-34353D01*
X38217Y-34308D01*
X38194Y-34263D01*
X38172Y-34241D01*
X38127Y-34218D01*
X38014Y-34218D01*
X37947Y-34241D01*
X37789Y-34218D02*
X37677Y-34691D01*
X37587Y-34353D01*
X37497Y-34691D01*
X37384Y-34218D01*
X37002Y-34376D02*
X37002Y-34691D01*
X37115Y-34196D02*
X37227Y-34533D01*
X36935Y-34533D01*
X36755Y-34646D02*
X36732Y-34668D01*
X36755Y-34691D01*
X36777Y-34668D01*
X36755Y-34646D01*
X36755Y-34691D01*
X36755Y-34398D02*
X36732Y-34421D01*
X36755Y-34443D01*
X36777Y-34421D01*
X36755Y-34398D01*
X36755Y-34443D01*
X36305Y-34218D02*
X36530Y-34218D01*
X36552Y-34443D01*
X36530Y-34421D01*
X36485Y-34398D01*
X36372Y-34398D01*
X36327Y-34421D01*
X36305Y-34443D01*
X36282Y-34488D01*
X36282Y-34601D01*
X36305Y-34646D01*
X36327Y-34668D01*
X36372Y-34691D01*
X36485Y-34691D01*
X36530Y-34668D01*
X36552Y-34646D01*
G54D14*
X76600Y-29000D02*
X32900Y-29000D01*
X76600Y-29600D02*
G75*
G03X76000Y-29000I-600J0D01*
G74*
G01*
X33500Y-29000D02*
G75*
G03X32900Y-29600I0J-600D01*
G74*
G01*
G54D15*
X32900Y-58900D02*
X32900Y-22100D01*
X76000Y-59500D02*
X33500Y-59500D01*
X76600Y-22100D02*
X76600Y-58900D01*
X33500Y-21500D02*
X76000Y-21500D01*
X33500Y-21500D02*
G75*
G03X32900Y-22100I0J-600D01*
G74*
G01*
X76600Y-22100D02*
G75*
G03X76000Y-21500I-600J0D01*
G74*
G01*
X76000Y-59500D02*
G75*
G03X76600Y-58900I0J600D01*
G74*
G01*
X32900Y-58900D02*
G75*
G03X33500Y-59500I600J0D01*
G74*
G01*
G54D12*
X75767Y-28618D02*
X75699Y-28641D01*
X75587Y-28641D01*
X75542Y-28618D01*
X75519Y-28596D01*
X75497Y-28551D01*
X75497Y-28506D01*
X75519Y-28461D01*
X75542Y-28438D01*
X75587Y-28416D01*
X75677Y-28393D01*
X75722Y-28371D01*
X75744Y-28348D01*
X75767Y-28303D01*
X75767Y-28258D01*
X75744Y-28213D01*
X75722Y-28191D01*
X75677Y-28168D01*
X75564Y-28168D01*
X75497Y-28191D01*
X75339Y-28168D02*
X75227Y-28641D01*
X75137Y-28303D01*
X75047Y-28641D01*
X74934Y-28168D01*
X74530Y-28168D02*
X74755Y-28168D01*
X74777Y-28393D01*
X74755Y-28371D01*
X74710Y-28348D01*
X74597Y-28348D01*
X74552Y-28371D01*
X74530Y-28393D01*
X74507Y-28438D01*
X74507Y-28551D01*
X74530Y-28596D01*
X74552Y-28618D01*
X74597Y-28641D01*
X74710Y-28641D01*
X74755Y-28618D01*
X74777Y-28596D01*
X74305Y-28596D02*
X74282Y-28618D01*
X74305Y-28641D01*
X74327Y-28618D01*
X74305Y-28596D01*
X74305Y-28641D01*
X74305Y-28348D02*
X74282Y-28371D01*
X74305Y-28393D01*
X74327Y-28371D01*
X74305Y-28348D01*
X74305Y-28393D01*
X73990Y-28168D02*
X73945Y-28168D01*
X73900Y-28191D01*
X73877Y-28213D01*
X73855Y-28258D01*
X73832Y-28348D01*
X73832Y-28461D01*
X73855Y-28551D01*
X73877Y-28596D01*
X73900Y-28618D01*
X73945Y-28641D01*
X73990Y-28641D01*
X74035Y-28618D01*
X74057Y-28596D01*
X74080Y-28551D01*
X74102Y-28461D01*
X74102Y-28348D01*
X74080Y-28258D01*
X74057Y-28213D01*
X74035Y-28191D01*
X73990Y-28168D01*
X68217Y-28618D02*
X68149Y-28641D01*
X68037Y-28641D01*
X67992Y-28618D01*
X67969Y-28596D01*
X67947Y-28551D01*
X67947Y-28506D01*
X67969Y-28461D01*
X67992Y-28438D01*
X68037Y-28416D01*
X68127Y-28393D01*
X68172Y-28371D01*
X68194Y-28348D01*
X68217Y-28303D01*
X68217Y-28258D01*
X68194Y-28213D01*
X68172Y-28191D01*
X68127Y-28168D01*
X68014Y-28168D01*
X67947Y-28191D01*
X67789Y-28168D02*
X67677Y-28641D01*
X67587Y-28303D01*
X67497Y-28641D01*
X67384Y-28168D01*
X66980Y-28168D02*
X67205Y-28168D01*
X67227Y-28393D01*
X67205Y-28371D01*
X67160Y-28348D01*
X67047Y-28348D01*
X67002Y-28371D01*
X66980Y-28393D01*
X66957Y-28438D01*
X66957Y-28551D01*
X66980Y-28596D01*
X67002Y-28618D01*
X67047Y-28641D01*
X67160Y-28641D01*
X67205Y-28618D01*
X67227Y-28596D01*
X66755Y-28596D02*
X66732Y-28618D01*
X66755Y-28641D01*
X66777Y-28618D01*
X66755Y-28596D01*
X66755Y-28641D01*
X66755Y-28348D02*
X66732Y-28371D01*
X66755Y-28393D01*
X66777Y-28371D01*
X66755Y-28348D01*
X66755Y-28393D01*
X66282Y-28641D02*
X66552Y-28641D01*
X66417Y-28641D02*
X66417Y-28168D01*
X66462Y-28236D01*
X66507Y-28281D01*
X66552Y-28303D01*
X60717Y-27368D02*
X60649Y-27391D01*
X60537Y-27391D01*
X60492Y-27368D01*
X60469Y-27346D01*
X60447Y-27301D01*
X60447Y-27256D01*
X60469Y-27211D01*
X60492Y-27188D01*
X60537Y-27166D01*
X60627Y-27143D01*
X60672Y-27121D01*
X60694Y-27098D01*
X60717Y-27053D01*
X60717Y-27008D01*
X60694Y-26963D01*
X60672Y-26941D01*
X60627Y-26918D01*
X60514Y-26918D01*
X60447Y-26941D01*
X60289Y-26918D02*
X60177Y-27391D01*
X60087Y-27053D01*
X59997Y-27391D01*
X59884Y-26918D01*
X59480Y-26918D02*
X59705Y-26918D01*
X59727Y-27143D01*
X59705Y-27121D01*
X59660Y-27098D01*
X59547Y-27098D01*
X59502Y-27121D01*
X59480Y-27143D01*
X59457Y-27188D01*
X59457Y-27301D01*
X59480Y-27346D01*
X59502Y-27368D01*
X59547Y-27391D01*
X59660Y-27391D01*
X59705Y-27368D01*
X59727Y-27346D01*
X59255Y-27346D02*
X59232Y-27368D01*
X59255Y-27391D01*
X59277Y-27368D01*
X59255Y-27346D01*
X59255Y-27391D01*
X59255Y-27098D02*
X59232Y-27121D01*
X59255Y-27143D01*
X59277Y-27121D01*
X59255Y-27098D01*
X59255Y-27143D01*
X59052Y-26963D02*
X59030Y-26941D01*
X58985Y-26918D01*
X58872Y-26918D01*
X58827Y-26941D01*
X58805Y-26963D01*
X58782Y-27008D01*
X58782Y-27053D01*
X58805Y-27121D01*
X59075Y-27391D01*
X58782Y-27391D01*
X45717Y-27368D02*
X45649Y-27391D01*
X45537Y-27391D01*
X45492Y-27368D01*
X45469Y-27346D01*
X45447Y-27301D01*
X45447Y-27256D01*
X45469Y-27211D01*
X45492Y-27188D01*
X45537Y-27166D01*
X45627Y-27143D01*
X45672Y-27121D01*
X45694Y-27098D01*
X45717Y-27053D01*
X45717Y-27008D01*
X45694Y-26963D01*
X45672Y-26941D01*
X45627Y-26918D01*
X45514Y-26918D01*
X45447Y-26941D01*
X45289Y-26918D02*
X45177Y-27391D01*
X45087Y-27053D01*
X44997Y-27391D01*
X44884Y-26918D01*
X44480Y-26918D02*
X44705Y-26918D01*
X44727Y-27143D01*
X44705Y-27121D01*
X44660Y-27098D01*
X44547Y-27098D01*
X44502Y-27121D01*
X44480Y-27143D01*
X44457Y-27188D01*
X44457Y-27301D01*
X44480Y-27346D01*
X44502Y-27368D01*
X44547Y-27391D01*
X44660Y-27391D01*
X44705Y-27368D01*
X44727Y-27346D01*
X44255Y-27346D02*
X44232Y-27368D01*
X44255Y-27391D01*
X44277Y-27368D01*
X44255Y-27346D01*
X44255Y-27391D01*
X44255Y-27098D02*
X44232Y-27121D01*
X44255Y-27143D01*
X44277Y-27121D01*
X44255Y-27098D01*
X44255Y-27143D01*
X43827Y-27076D02*
X43827Y-27391D01*
X43940Y-26896D02*
X44052Y-27233D01*
X43760Y-27233D01*
X53267Y-26668D02*
X53199Y-26691D01*
X53087Y-26691D01*
X53042Y-26668D01*
X53019Y-26646D01*
X52997Y-26601D01*
X52997Y-26556D01*
X53019Y-26511D01*
X53042Y-26488D01*
X53087Y-26466D01*
X53177Y-26443D01*
X53222Y-26421D01*
X53244Y-26398D01*
X53267Y-26353D01*
X53267Y-26308D01*
X53244Y-26263D01*
X53222Y-26241D01*
X53177Y-26218D01*
X53064Y-26218D01*
X52997Y-26241D01*
X52839Y-26218D02*
X52727Y-26691D01*
X52637Y-26353D01*
X52547Y-26691D01*
X52434Y-26218D01*
X52030Y-26218D02*
X52255Y-26218D01*
X52277Y-26443D01*
X52255Y-26421D01*
X52210Y-26398D01*
X52097Y-26398D01*
X52052Y-26421D01*
X52030Y-26443D01*
X52007Y-26488D01*
X52007Y-26601D01*
X52030Y-26646D01*
X52052Y-26668D01*
X52097Y-26691D01*
X52210Y-26691D01*
X52255Y-26668D01*
X52277Y-26646D01*
X51805Y-26646D02*
X51782Y-26668D01*
X51805Y-26691D01*
X51827Y-26668D01*
X51805Y-26646D01*
X51805Y-26691D01*
X51805Y-26398D02*
X51782Y-26421D01*
X51805Y-26443D01*
X51827Y-26421D01*
X51805Y-26398D01*
X51805Y-26443D01*
X51625Y-26218D02*
X51332Y-26218D01*
X51490Y-26398D01*
X51422Y-26398D01*
X51377Y-26421D01*
X51355Y-26443D01*
X51332Y-26488D01*
X51332Y-26601D01*
X51355Y-26646D01*
X51377Y-26668D01*
X51422Y-26691D01*
X51557Y-26691D01*
X51602Y-26668D01*
X51625Y-26646D01*
X38217Y-27868D02*
X38149Y-27891D01*
X38037Y-27891D01*
X37992Y-27868D01*
X37969Y-27846D01*
X37947Y-27801D01*
X37947Y-27756D01*
X37969Y-27711D01*
X37992Y-27688D01*
X38037Y-27666D01*
X38127Y-27643D01*
X38172Y-27621D01*
X38194Y-27598D01*
X38217Y-27553D01*
X38217Y-27508D01*
X38194Y-27463D01*
X38172Y-27441D01*
X38127Y-27418D01*
X38014Y-27418D01*
X37947Y-27441D01*
X37789Y-27418D02*
X37677Y-27891D01*
X37587Y-27553D01*
X37497Y-27891D01*
X37384Y-27418D01*
X36980Y-27418D02*
X37205Y-27418D01*
X37227Y-27643D01*
X37205Y-27621D01*
X37160Y-27598D01*
X37047Y-27598D01*
X37002Y-27621D01*
X36980Y-27643D01*
X36957Y-27688D01*
X36957Y-27801D01*
X36980Y-27846D01*
X37002Y-27868D01*
X37047Y-27891D01*
X37160Y-27891D01*
X37205Y-27868D01*
X37227Y-27846D01*
X36755Y-27846D02*
X36732Y-27868D01*
X36755Y-27891D01*
X36777Y-27868D01*
X36755Y-27846D01*
X36755Y-27891D01*
X36755Y-27598D02*
X36732Y-27621D01*
X36755Y-27643D01*
X36777Y-27621D01*
X36755Y-27598D01*
X36755Y-27643D01*
X36305Y-27418D02*
X36530Y-27418D01*
X36552Y-27643D01*
X36530Y-27621D01*
X36485Y-27598D01*
X36372Y-27598D01*
X36327Y-27621D01*
X36305Y-27643D01*
X36282Y-27688D01*
X36282Y-27801D01*
X36305Y-27846D01*
X36327Y-27868D01*
X36372Y-27891D01*
X36485Y-27891D01*
X36530Y-27868D01*
X36552Y-27846D01*
G54D13*
X34478Y-54362D02*
X34478Y-53987D01*
X33296Y-53987D01*
X33859Y-54624D02*
X33859Y-54887D01*
X34478Y-54999D02*
X34478Y-54624D01*
X33296Y-54624D01*
X33296Y-54999D01*
X33859Y-55599D02*
X33859Y-55337D01*
X34478Y-55337D02*
X33296Y-55337D01*
X33296Y-55712D01*
X33296Y-55899D02*
X33296Y-56349D01*
X34478Y-56124D02*
X33296Y-56124D01*
X36272Y-53949D02*
X36328Y-54062D01*
X36328Y-54249D01*
X36272Y-54324D01*
X36215Y-54362D01*
X36103Y-54399D01*
X35991Y-54399D01*
X35878Y-54362D01*
X35822Y-54324D01*
X35766Y-54249D01*
X35709Y-54099D01*
X35653Y-54024D01*
X35597Y-53987D01*
X35484Y-53949D01*
X35372Y-53949D01*
X35259Y-53987D01*
X35203Y-54024D01*
X35147Y-54099D01*
X35147Y-54287D01*
X35203Y-54399D01*
X36328Y-54737D02*
X35147Y-54737D01*
X36328Y-55112D02*
X35147Y-55112D01*
X35147Y-55299D01*
X35203Y-55412D01*
X35316Y-55487D01*
X35428Y-55524D01*
X35653Y-55562D01*
X35822Y-55562D01*
X36047Y-55524D01*
X36159Y-55487D01*
X36272Y-55412D01*
X36328Y-55299D01*
X36328Y-55112D01*
X35709Y-55899D02*
X35709Y-56162D01*
X36328Y-56274D02*
X36328Y-55899D01*
X35147Y-55899D01*
X35147Y-56274D01*
G54D14*
X72536Y-44500D02*
X69750Y-41713D01*
X69750Y-41713D02*
X66963Y-44500D01*
X69615Y-47151D02*
X66963Y-44500D01*
X69884Y-47151D02*
X72536Y-44500D01*
X69615Y-47151D02*
X69884Y-47151D01*
G54D16*
X70000Y-46621D02*
G75*
G03X70000Y-46621I-250J0D01*
G74*
G01*
G54D12*
X55400Y-42700D02*
X54100Y-42700D01*
X54100Y-42700D02*
X54100Y-44300D01*
X54100Y-44300D02*
X55400Y-44300D01*
X55400Y-44300D02*
X55400Y-42700D01*
G54D17*
X62841Y-31700D02*
G75*
G03X62841Y-31700I-591J0D01*
G74*
G01*
X61325Y-30480D02*
X61325Y-30283D01*
X61325Y-30283D02*
X61600Y-30283D01*
X61600Y-30283D02*
X61600Y-30480D01*
X63175Y-30283D02*
X63175Y-30480D01*
X62900Y-30283D02*
X63175Y-30283D01*
X62900Y-30480D02*
X62900Y-30283D01*
X62900Y-32920D02*
X62900Y-33117D01*
X62900Y-33117D02*
X63175Y-33117D01*
X63175Y-33117D02*
X63175Y-32920D01*
X61325Y-32920D02*
X61325Y-33117D01*
X61325Y-33117D02*
X61600Y-33117D01*
X61600Y-33117D02*
X61600Y-32920D01*
G54D15*
X63470Y-30598D02*
X63470Y-32802D01*
X61030Y-30598D02*
X61030Y-32802D01*
X61069Y-30480D02*
X61069Y-32920D01*
X61069Y-32920D02*
X63431Y-32920D01*
X63431Y-32920D02*
X63431Y-30480D01*
X63431Y-30480D02*
X61069Y-30480D01*
G54D12*
X68450Y-37007D02*
X68450Y-37450D01*
X68450Y-37450D02*
X69250Y-37450D01*
X69250Y-37450D02*
X69250Y-37007D01*
X68450Y-36581D02*
X68450Y-36150D01*
X68450Y-36150D02*
X69250Y-36150D01*
X69250Y-36150D02*
X69250Y-36581D01*
X74900Y-44707D02*
X74900Y-45150D01*
X74900Y-45150D02*
X75700Y-45150D01*
X75700Y-45150D02*
X75700Y-44707D01*
X74900Y-44281D02*
X74900Y-43850D01*
X74900Y-43850D02*
X75700Y-43850D01*
X75700Y-43850D02*
X75700Y-44281D01*
X67957Y-50300D02*
X68400Y-50300D01*
X68400Y-50300D02*
X68400Y-49500D01*
X68400Y-49500D02*
X67957Y-49500D01*
X67531Y-50300D02*
X67100Y-50300D01*
X67100Y-50300D02*
X67100Y-49500D01*
X67100Y-49500D02*
X67531Y-49500D01*
X71250Y-36592D02*
X71250Y-36150D01*
X71250Y-36150D02*
X70450Y-36150D01*
X70450Y-36150D02*
X70450Y-36592D01*
X71250Y-37018D02*
X71250Y-37450D01*
X71250Y-37450D02*
X70450Y-37450D01*
X70450Y-37450D02*
X70450Y-37018D01*
X70250Y-36592D02*
X70250Y-36150D01*
X70250Y-36150D02*
X69450Y-36150D01*
X69450Y-36150D02*
X69450Y-36592D01*
X70250Y-37018D02*
X70250Y-37450D01*
X70250Y-37450D02*
X69450Y-37450D01*
X69450Y-37450D02*
X69450Y-37018D01*
X73550Y-45207D02*
X73550Y-45650D01*
X73550Y-45650D02*
X74350Y-45650D01*
X74350Y-45650D02*
X74350Y-45207D01*
X73550Y-44781D02*
X73550Y-44350D01*
X73550Y-44350D02*
X74350Y-44350D01*
X74350Y-44350D02*
X74350Y-44781D01*
X70950Y-49042D02*
X70950Y-48600D01*
X70950Y-48600D02*
X70150Y-48600D01*
X70150Y-48600D02*
X70150Y-49042D01*
X70950Y-49468D02*
X70950Y-49900D01*
X70950Y-49900D02*
X70150Y-49900D01*
X70150Y-49900D02*
X70150Y-49468D01*
X71200Y-39842D02*
X71200Y-39400D01*
X71200Y-39400D02*
X70400Y-39400D01*
X70400Y-39400D02*
X70400Y-39842D01*
X71200Y-40268D02*
X71200Y-40700D01*
X71200Y-40700D02*
X70400Y-40700D01*
X70400Y-40700D02*
X70400Y-40268D01*
X64242Y-44550D02*
X63800Y-44550D01*
X63800Y-44550D02*
X63800Y-45350D01*
X63800Y-45350D02*
X64242Y-45350D01*
X64668Y-44550D02*
X65100Y-44550D01*
X65100Y-44550D02*
X65100Y-45350D01*
X65100Y-45350D02*
X64668Y-45350D01*
X54542Y-41700D02*
X54100Y-41700D01*
X54100Y-41700D02*
X54100Y-42500D01*
X54100Y-42500D02*
X54542Y-42500D01*
X54968Y-41700D02*
X55400Y-41700D01*
X55400Y-41700D02*
X55400Y-42500D01*
X55400Y-42500D02*
X54968Y-42500D01*
X54957Y-45250D02*
X55400Y-45250D01*
X55400Y-45250D02*
X55400Y-44450D01*
X55400Y-44450D02*
X54957Y-44450D01*
X54531Y-45250D02*
X54100Y-45250D01*
X54100Y-45250D02*
X54100Y-44450D01*
X54100Y-44450D02*
X54531Y-44450D01*
X70257Y-34500D02*
X70700Y-34500D01*
X70700Y-34500D02*
X70700Y-33700D01*
X70700Y-33700D02*
X70257Y-33700D01*
X69831Y-34500D02*
X69400Y-34500D01*
X69400Y-34500D02*
X69400Y-33700D01*
X69400Y-33700D02*
X69831Y-33700D01*
G54D15*
X71000Y-53879D02*
X71700Y-53879D01*
X75300Y-53879D02*
X76000Y-53879D01*
X76000Y-53879D02*
X76000Y-54579D01*
X76000Y-58179D02*
X76000Y-58879D01*
X76000Y-58879D02*
X75300Y-58879D01*
X71700Y-58879D02*
X71000Y-58879D01*
X71000Y-58879D02*
X71000Y-58179D01*
X71000Y-54579D02*
X71000Y-53879D01*
X56000Y-52629D02*
X56700Y-52629D01*
X60300Y-52629D02*
X61000Y-52629D01*
X61000Y-52629D02*
X61000Y-53329D01*
X61000Y-56929D02*
X61000Y-57629D01*
X61000Y-57629D02*
X60300Y-57629D01*
X56700Y-57629D02*
X56000Y-57629D01*
X56000Y-57629D02*
X56000Y-56929D01*
X56000Y-53329D02*
X56000Y-52629D01*
X63500Y-53879D02*
X64200Y-53879D01*
X67800Y-53879D02*
X68500Y-53879D01*
X68500Y-53879D02*
X68500Y-54579D01*
X68500Y-58179D02*
X68500Y-58879D01*
X68500Y-58879D02*
X67800Y-58879D01*
X64200Y-58879D02*
X63500Y-58879D01*
X63500Y-58879D02*
X63500Y-58179D01*
X63500Y-54579D02*
X63500Y-53879D01*
X48500Y-52000D02*
X49200Y-52000D01*
X52800Y-52000D02*
X53500Y-52000D01*
X53500Y-52000D02*
X53500Y-52700D01*
X53500Y-56300D02*
X53500Y-57000D01*
X53500Y-57000D02*
X52800Y-57000D01*
X49200Y-57000D02*
X48500Y-57000D01*
X48500Y-57000D02*
X48500Y-56300D01*
X48500Y-52700D02*
X48500Y-52000D01*
X37250Y-52629D02*
X37950Y-52629D01*
X41550Y-52629D02*
X42250Y-52629D01*
X42250Y-52629D02*
X42250Y-53329D01*
X42250Y-56929D02*
X42250Y-57629D01*
X42250Y-57629D02*
X41550Y-57629D01*
X37950Y-57629D02*
X37250Y-57629D01*
X37250Y-57629D02*
X37250Y-56929D01*
X37250Y-53329D02*
X37250Y-52629D01*
X33500Y-23130D02*
X34200Y-23130D01*
X37800Y-23130D02*
X38500Y-23130D01*
X38500Y-23130D02*
X38500Y-23830D01*
X38500Y-27430D02*
X38500Y-28130D01*
X38500Y-28130D02*
X37800Y-28130D01*
X34200Y-28130D02*
X33500Y-28130D01*
X33500Y-28130D02*
X33500Y-27430D01*
X33500Y-23830D02*
X33500Y-23130D01*
X63500Y-38879D02*
X64200Y-38879D01*
X67800Y-38879D02*
X68500Y-38879D01*
X68500Y-38879D02*
X68500Y-39579D01*
X68500Y-43179D02*
X68500Y-43879D01*
X68500Y-43879D02*
X67800Y-43879D01*
X64200Y-43879D02*
X63500Y-43879D01*
X63500Y-43879D02*
X63500Y-43179D01*
X63500Y-39579D02*
X63500Y-38879D01*
X71000Y-38879D02*
X71700Y-38879D01*
X75300Y-38879D02*
X76000Y-38879D01*
X76000Y-38879D02*
X76000Y-39579D01*
X76000Y-43179D02*
X76000Y-43879D01*
X76000Y-43879D02*
X75300Y-43879D01*
X71700Y-43879D02*
X71000Y-43879D01*
X71000Y-43879D02*
X71000Y-43179D01*
X71000Y-39579D02*
X71000Y-38879D01*
X41000Y-22629D02*
X41700Y-22629D01*
X45300Y-22629D02*
X46000Y-22629D01*
X46000Y-22629D02*
X46000Y-23329D01*
X46000Y-26929D02*
X46000Y-27629D01*
X46000Y-27629D02*
X45300Y-27629D01*
X41700Y-27629D02*
X41000Y-27629D01*
X41000Y-27629D02*
X41000Y-26929D01*
X41000Y-23329D02*
X41000Y-22629D01*
X63500Y-23880D02*
X64200Y-23880D01*
X67800Y-23880D02*
X68500Y-23880D01*
X68500Y-23880D02*
X68500Y-24580D01*
X68500Y-28180D02*
X68500Y-28880D01*
X68500Y-28880D02*
X67800Y-28880D01*
X64200Y-28880D02*
X63500Y-28880D01*
X63500Y-28880D02*
X63500Y-28180D01*
X63500Y-24580D02*
X63500Y-23880D01*
X56000Y-22629D02*
X56700Y-22629D01*
X60300Y-22629D02*
X61000Y-22629D01*
X61000Y-22629D02*
X61000Y-23329D01*
X61000Y-26929D02*
X61000Y-27629D01*
X61000Y-27629D02*
X60300Y-27629D01*
X56700Y-27629D02*
X56000Y-27629D01*
X56000Y-27629D02*
X56000Y-26929D01*
X56000Y-23329D02*
X56000Y-22629D01*
X48500Y-22000D02*
X49200Y-22000D01*
X52800Y-22000D02*
X53500Y-22000D01*
X53500Y-22000D02*
X53500Y-22700D01*
X53500Y-26300D02*
X53500Y-27000D01*
X53500Y-27000D02*
X52800Y-27000D01*
X49200Y-27000D02*
X48500Y-27000D01*
X48500Y-27000D02*
X48500Y-26300D01*
X48500Y-22700D02*
X48500Y-22000D01*
X71000Y-23880D02*
X71700Y-23880D01*
X75300Y-23880D02*
X76000Y-23880D01*
X76000Y-23880D02*
X76000Y-24580D01*
X76000Y-28180D02*
X76000Y-28880D01*
X76000Y-28880D02*
X75300Y-28880D01*
X71700Y-28880D02*
X71000Y-28880D01*
X71000Y-28880D02*
X71000Y-28180D01*
X71000Y-24580D02*
X71000Y-23880D01*
X56000Y-37629D02*
X56700Y-37629D01*
X60300Y-37629D02*
X61000Y-37629D01*
X61000Y-37629D02*
X61000Y-38329D01*
X61000Y-41929D02*
X61000Y-42629D01*
X61000Y-42629D02*
X60300Y-42629D01*
X56700Y-42629D02*
X56000Y-42629D01*
X56000Y-42629D02*
X56000Y-41929D01*
X56000Y-38329D02*
X56000Y-37629D01*
X48500Y-37000D02*
X49200Y-37000D01*
X52800Y-37000D02*
X53500Y-37000D01*
X53500Y-37000D02*
X53500Y-37700D01*
X53500Y-41300D02*
X53500Y-42000D01*
X53500Y-42000D02*
X52800Y-42000D01*
X49200Y-42000D02*
X48500Y-42000D01*
X48500Y-42000D02*
X48500Y-41300D01*
X48500Y-37700D02*
X48500Y-37000D01*
X41000Y-37629D02*
X41700Y-37629D01*
X45300Y-37629D02*
X46000Y-37629D01*
X46000Y-37629D02*
X46000Y-38329D01*
X46000Y-41929D02*
X46000Y-42629D01*
X46000Y-42629D02*
X45300Y-42629D01*
X41700Y-42629D02*
X41000Y-42629D01*
X41000Y-42629D02*
X41000Y-41929D01*
X41000Y-38329D02*
X41000Y-37629D01*
X33500Y-38129D02*
X34200Y-38129D01*
X37800Y-38129D02*
X38500Y-38129D01*
X38500Y-38129D02*
X38500Y-38829D01*
X38500Y-42429D02*
X38500Y-43129D01*
X38500Y-43129D02*
X37800Y-43129D01*
X34200Y-43129D02*
X33500Y-43129D01*
X33500Y-43129D02*
X33500Y-42429D01*
X33500Y-38829D02*
X33500Y-38129D01*
X63500Y-46379D02*
X64200Y-46379D01*
X67800Y-46379D02*
X68500Y-46379D01*
X68500Y-46379D02*
X68500Y-47079D01*
X68500Y-50679D02*
X68500Y-51379D01*
X68500Y-51379D02*
X67800Y-51379D01*
X64200Y-51379D02*
X63500Y-51379D01*
X63500Y-51379D02*
X63500Y-50679D01*
X63500Y-47079D02*
X63500Y-46379D01*
X56000Y-45129D02*
X56700Y-45129D01*
X60300Y-45129D02*
X61000Y-45129D01*
X61000Y-45129D02*
X61000Y-45829D01*
X61000Y-49429D02*
X61000Y-50129D01*
X61000Y-50129D02*
X60300Y-50129D01*
X56700Y-50129D02*
X56000Y-50129D01*
X56000Y-50129D02*
X56000Y-49429D01*
X56000Y-45829D02*
X56000Y-45129D01*
X48500Y-44500D02*
X49200Y-44500D01*
X52800Y-44500D02*
X53500Y-44500D01*
X53500Y-44500D02*
X53500Y-45200D01*
X53500Y-48800D02*
X53500Y-49500D01*
X53500Y-49500D02*
X52800Y-49500D01*
X49200Y-49500D02*
X48500Y-49500D01*
X48500Y-49500D02*
X48500Y-48800D01*
X48500Y-45200D02*
X48500Y-44500D01*
X41000Y-45129D02*
X41700Y-45129D01*
X45300Y-45129D02*
X46000Y-45129D01*
X46000Y-45129D02*
X46000Y-45829D01*
X46000Y-49429D02*
X46000Y-50129D01*
X46000Y-50129D02*
X45300Y-50129D01*
X41700Y-50129D02*
X41000Y-50129D01*
X41000Y-50129D02*
X41000Y-49429D01*
X41000Y-45829D02*
X41000Y-45129D01*
X33500Y-45629D02*
X34200Y-45629D01*
X37800Y-45629D02*
X38500Y-45629D01*
X38500Y-45629D02*
X38500Y-46329D01*
X38500Y-49929D02*
X38500Y-50629D01*
X38500Y-50629D02*
X37800Y-50629D01*
X34200Y-50629D02*
X33500Y-50629D01*
X33500Y-50629D02*
X33500Y-49929D01*
X33500Y-46329D02*
X33500Y-45629D01*
X71000Y-46379D02*
X71700Y-46379D01*
X75300Y-46379D02*
X76000Y-46379D01*
X76000Y-46379D02*
X76000Y-47079D01*
X76000Y-50679D02*
X76000Y-51379D01*
X76000Y-51379D02*
X75300Y-51379D01*
X71700Y-51379D02*
X71000Y-51379D01*
X71000Y-51379D02*
X71000Y-50679D01*
X71000Y-47079D02*
X71000Y-46379D01*
X33500Y-30629D02*
X34200Y-30629D01*
X37800Y-30629D02*
X38500Y-30629D01*
X38500Y-30629D02*
X38500Y-31329D01*
X38500Y-34929D02*
X38500Y-35629D01*
X38500Y-35629D02*
X37800Y-35629D01*
X34200Y-35629D02*
X33500Y-35629D01*
X33500Y-35629D02*
X33500Y-34929D01*
X33500Y-31329D02*
X33500Y-30629D01*
X63500Y-31379D02*
X64200Y-31379D01*
X67800Y-31379D02*
X68500Y-31379D01*
X68500Y-31379D02*
X68500Y-32079D01*
X68500Y-35679D02*
X68500Y-36379D01*
X68500Y-36379D02*
X67800Y-36379D01*
X64200Y-36379D02*
X63500Y-36379D01*
X63500Y-36379D02*
X63500Y-35679D01*
X63500Y-32079D02*
X63500Y-31379D01*
X48500Y-29500D02*
X49200Y-29500D01*
X52800Y-29500D02*
X53500Y-29500D01*
X53500Y-29500D02*
X53500Y-30200D01*
X53500Y-33800D02*
X53500Y-34500D01*
X53500Y-34500D02*
X52800Y-34500D01*
X49200Y-34500D02*
X48500Y-34500D01*
X48500Y-34500D02*
X48500Y-33800D01*
X48500Y-30200D02*
X48500Y-29500D01*
X41000Y-30129D02*
X41700Y-30129D01*
X45300Y-30129D02*
X46000Y-30129D01*
X46000Y-30129D02*
X46000Y-30829D01*
X46000Y-34429D02*
X46000Y-35129D01*
X46000Y-35129D02*
X45300Y-35129D01*
X41700Y-35129D02*
X41000Y-35129D01*
X41000Y-35129D02*
X41000Y-34429D01*
X41000Y-30829D02*
X41000Y-30129D01*
X56000Y-30129D02*
X56700Y-30129D01*
X60300Y-30129D02*
X61000Y-30129D01*
X61000Y-30129D02*
X61000Y-30829D01*
X61000Y-34429D02*
X61000Y-35129D01*
X61000Y-35129D02*
X60300Y-35129D01*
X56700Y-35129D02*
X56000Y-35129D01*
X56000Y-35129D02*
X56000Y-34429D01*
X56000Y-30829D02*
X56000Y-30129D01*
X71000Y-31379D02*
X71700Y-31379D01*
X75300Y-31379D02*
X76000Y-31379D01*
X76000Y-31379D02*
X76000Y-32079D01*
X76000Y-35679D02*
X76000Y-36379D01*
X76000Y-36379D02*
X75300Y-36379D01*
X71700Y-36379D02*
X71000Y-36379D01*
X71000Y-36379D02*
X71000Y-35679D01*
X71000Y-32079D02*
X71000Y-31379D01*
G54D12*
X35792Y-35850D02*
X35350Y-35850D01*
X35350Y-35850D02*
X35350Y-36650D01*
X35350Y-36650D02*
X35792Y-36650D01*
X36218Y-35850D02*
X36650Y-35850D01*
X36650Y-35850D02*
X36650Y-36650D01*
X36650Y-36650D02*
X36218Y-36650D01*
X35792Y-43350D02*
X35350Y-43350D01*
X35350Y-43350D02*
X35350Y-44150D01*
X35350Y-44150D02*
X35792Y-44150D01*
X36218Y-43350D02*
X36650Y-43350D01*
X36650Y-43350D02*
X36650Y-44150D01*
X36650Y-44150D02*
X36218Y-44150D01*
X36542Y-50850D02*
X36100Y-50850D01*
X36100Y-50850D02*
X36100Y-51650D01*
X36100Y-51650D02*
X36542Y-51650D01*
X36968Y-50850D02*
X37400Y-50850D01*
X37400Y-50850D02*
X37400Y-51650D01*
X37400Y-51650D02*
X36968Y-51650D01*
G54D18*
X48676Y-23196D02*
X48676Y-21503D01*
X48676Y-21503D02*
X45723Y-21503D01*
X45723Y-21503D02*
X45723Y-23196D01*
X45723Y-23196D02*
X48676Y-23196D01*
X48676Y-30696D02*
X48676Y-29003D01*
X48676Y-29003D02*
X45723Y-29003D01*
X45723Y-29003D02*
X45723Y-30696D01*
X45723Y-30696D02*
X48676Y-30696D01*
X34329Y-27486D02*
X34329Y-27584D01*
X35470Y-27584D02*
X35470Y-27505D01*
X34329Y-27584D02*
X35470Y-27584D01*
X34329Y-26915D02*
X34329Y-27013D01*
X35470Y-27013D02*
X35470Y-26915D01*
X35470Y-26915D02*
X34329Y-26915D01*
X35018Y-27250D02*
X34762Y-27033D01*
X34762Y-27466D02*
X35018Y-27250D01*
X34762Y-27033D02*
X34762Y-27466D01*
X35037Y-27033D02*
X35037Y-27466D01*
X35214Y-27584D02*
X35214Y-26915D01*
X35254Y-26935D02*
X35254Y-27584D01*
X72329Y-38286D02*
X72329Y-38384D01*
X73470Y-38384D02*
X73470Y-38305D01*
X72329Y-38384D02*
X73470Y-38384D01*
X72329Y-37715D02*
X72329Y-37813D01*
X73470Y-37813D02*
X73470Y-37715D01*
X73470Y-37715D02*
X72329Y-37715D01*
X73018Y-38050D02*
X72762Y-37833D01*
X72762Y-38266D02*
X73018Y-38050D01*
X72762Y-37833D02*
X72762Y-38266D01*
X73037Y-37833D02*
X73037Y-38266D01*
X73214Y-38384D02*
X73214Y-37715D01*
X73254Y-37735D02*
X73254Y-38384D01*
X64779Y-38286D02*
X64779Y-38384D01*
X65920Y-38384D02*
X65920Y-38305D01*
X64779Y-38384D02*
X65920Y-38384D01*
X64779Y-37715D02*
X64779Y-37813D01*
X65920Y-37813D02*
X65920Y-37715D01*
X65920Y-37715D02*
X64779Y-37715D01*
X65468Y-38050D02*
X65212Y-37833D01*
X65212Y-38266D02*
X65468Y-38050D01*
X65212Y-37833D02*
X65212Y-38266D01*
X65487Y-37833D02*
X65487Y-38266D01*
X65664Y-38384D02*
X65664Y-37715D01*
X65704Y-37735D02*
X65704Y-38384D01*
X41829Y-27036D02*
X41829Y-27134D01*
X42970Y-27134D02*
X42970Y-27055D01*
X41829Y-27134D02*
X42970Y-27134D01*
X41829Y-26465D02*
X41829Y-26563D01*
X42970Y-26563D02*
X42970Y-26465D01*
X42970Y-26465D02*
X41829Y-26465D01*
X42518Y-26800D02*
X42262Y-26583D01*
X42262Y-27016D02*
X42518Y-26800D01*
X42262Y-26583D02*
X42262Y-27016D01*
X42537Y-26583D02*
X42537Y-27016D01*
X42714Y-27134D02*
X42714Y-26465D01*
X42754Y-26485D02*
X42754Y-27134D01*
X49279Y-26486D02*
X49279Y-26584D01*
X50420Y-26584D02*
X50420Y-26505D01*
X49279Y-26584D02*
X50420Y-26584D01*
X49279Y-25915D02*
X49279Y-26013D01*
X50420Y-26013D02*
X50420Y-25915D01*
X50420Y-25915D02*
X49279Y-25915D01*
X49968Y-26250D02*
X49712Y-26033D01*
X49712Y-26466D02*
X49968Y-26250D01*
X49712Y-26033D02*
X49712Y-26466D01*
X49987Y-26033D02*
X49987Y-26466D01*
X50164Y-26584D02*
X50164Y-25915D01*
X50204Y-25935D02*
X50204Y-26584D01*
X56829Y-27036D02*
X56829Y-27134D01*
X57970Y-27134D02*
X57970Y-27055D01*
X56829Y-27134D02*
X57970Y-27134D01*
X56829Y-26465D02*
X56829Y-26563D01*
X57970Y-26563D02*
X57970Y-26465D01*
X57970Y-26465D02*
X56829Y-26465D01*
X57518Y-26800D02*
X57262Y-26583D01*
X57262Y-27016D02*
X57518Y-26800D01*
X57262Y-26583D02*
X57262Y-27016D01*
X57537Y-26583D02*
X57537Y-27016D01*
X57714Y-27134D02*
X57714Y-26465D01*
X57754Y-26485D02*
X57754Y-27134D01*
X64329Y-28336D02*
X64329Y-28434D01*
X65470Y-28434D02*
X65470Y-28355D01*
X64329Y-28434D02*
X65470Y-28434D01*
X64329Y-27765D02*
X64329Y-27863D01*
X65470Y-27863D02*
X65470Y-27765D01*
X65470Y-27765D02*
X64329Y-27765D01*
X65018Y-28100D02*
X64762Y-27883D01*
X64762Y-28316D02*
X65018Y-28100D01*
X64762Y-27883D02*
X64762Y-28316D01*
X65037Y-27883D02*
X65037Y-28316D01*
X65214Y-28434D02*
X65214Y-27765D01*
X65254Y-27785D02*
X65254Y-28434D01*
X71829Y-28186D02*
X71829Y-28284D01*
X72970Y-28284D02*
X72970Y-28205D01*
X71829Y-28284D02*
X72970Y-28284D01*
X71829Y-27615D02*
X71829Y-27713D01*
X72970Y-27713D02*
X72970Y-27615D01*
X72970Y-27615D02*
X71829Y-27615D01*
X72518Y-27950D02*
X72262Y-27733D01*
X72262Y-28166D02*
X72518Y-27950D01*
X72262Y-27733D02*
X72262Y-28166D01*
X72537Y-27733D02*
X72537Y-28166D01*
X72714Y-28284D02*
X72714Y-27615D01*
X72754Y-27635D02*
X72754Y-28284D01*
X38079Y-57036D02*
X38079Y-57134D01*
X39220Y-57134D02*
X39220Y-57055D01*
X38079Y-57134D02*
X39220Y-57134D01*
X38079Y-56465D02*
X38079Y-56563D01*
X39220Y-56563D02*
X39220Y-56465D01*
X39220Y-56465D02*
X38079Y-56465D01*
X38768Y-56800D02*
X38512Y-56583D01*
X38512Y-57016D02*
X38768Y-56800D01*
X38512Y-56583D02*
X38512Y-57016D01*
X38787Y-56583D02*
X38787Y-57016D01*
X38964Y-57134D02*
X38964Y-56465D01*
X39004Y-56485D02*
X39004Y-57134D01*
X49329Y-56386D02*
X49329Y-56484D01*
X50470Y-56484D02*
X50470Y-56405D01*
X49329Y-56484D02*
X50470Y-56484D01*
X49329Y-55815D02*
X49329Y-55913D01*
X50470Y-55913D02*
X50470Y-55815D01*
X50470Y-55815D02*
X49329Y-55815D01*
X50018Y-56150D02*
X49762Y-55933D01*
X49762Y-56366D02*
X50018Y-56150D01*
X49762Y-55933D02*
X49762Y-56366D01*
X50037Y-55933D02*
X50037Y-56366D01*
X50214Y-56484D02*
X50214Y-55815D01*
X50254Y-55835D02*
X50254Y-56484D01*
X56779Y-57036D02*
X56779Y-57134D01*
X57920Y-57134D02*
X57920Y-57055D01*
X56779Y-57134D02*
X57920Y-57134D01*
X56779Y-56465D02*
X56779Y-56563D01*
X57920Y-56563D02*
X57920Y-56465D01*
X57920Y-56465D02*
X56779Y-56465D01*
X57468Y-56800D02*
X57212Y-56583D01*
X57212Y-57016D02*
X57468Y-56800D01*
X57212Y-56583D02*
X57212Y-57016D01*
X57487Y-56583D02*
X57487Y-57016D01*
X57664Y-57134D02*
X57664Y-56465D01*
X57704Y-56485D02*
X57704Y-57134D01*
X64329Y-58286D02*
X64329Y-58384D01*
X65470Y-58384D02*
X65470Y-58305D01*
X64329Y-58384D02*
X65470Y-58384D01*
X64329Y-57715D02*
X64329Y-57813D01*
X65470Y-57813D02*
X65470Y-57715D01*
X65470Y-57715D02*
X64329Y-57715D01*
X65018Y-58050D02*
X64762Y-57833D01*
X64762Y-58266D02*
X65018Y-58050D01*
X64762Y-57833D02*
X64762Y-58266D01*
X65037Y-57833D02*
X65037Y-58266D01*
X65214Y-58384D02*
X65214Y-57715D01*
X65254Y-57735D02*
X65254Y-58384D01*
X71879Y-58286D02*
X71879Y-58384D01*
X73020Y-58384D02*
X73020Y-58305D01*
X71879Y-58384D02*
X73020Y-58384D01*
X71879Y-57715D02*
X71879Y-57813D01*
X73020Y-57813D02*
X73020Y-57715D01*
X73020Y-57715D02*
X71879Y-57715D01*
X72568Y-58050D02*
X72312Y-57833D01*
X72312Y-58266D02*
X72568Y-58050D01*
X72312Y-57833D02*
X72312Y-58266D01*
X72587Y-57833D02*
X72587Y-58266D01*
X72764Y-58384D02*
X72764Y-57715D01*
X72804Y-57735D02*
X72804Y-58384D01*
X34570Y-42013D02*
X34570Y-41915D01*
X33429Y-41915D02*
X33429Y-41994D01*
X34570Y-41915D02*
X33429Y-41915D01*
X34570Y-42584D02*
X34570Y-42486D01*
X33429Y-42486D02*
X33429Y-42584D01*
X33429Y-42584D02*
X34570Y-42584D01*
X33881Y-42250D02*
X34137Y-42466D01*
X34137Y-42033D02*
X33881Y-42250D01*
X34137Y-42466D02*
X34137Y-42033D01*
X33862Y-42466D02*
X33862Y-42033D01*
X33685Y-41915D02*
X33685Y-42584D01*
X33645Y-42564D02*
X33645Y-41915D01*
X41879Y-42086D02*
X41879Y-42184D01*
X43020Y-42184D02*
X43020Y-42105D01*
X41879Y-42184D02*
X43020Y-42184D01*
X41879Y-41515D02*
X41879Y-41613D01*
X43020Y-41613D02*
X43020Y-41515D01*
X43020Y-41515D02*
X41879Y-41515D01*
X42568Y-41850D02*
X42312Y-41633D01*
X42312Y-42066D02*
X42568Y-41850D01*
X42312Y-41633D02*
X42312Y-42066D01*
X42587Y-41633D02*
X42587Y-42066D01*
X42764Y-42184D02*
X42764Y-41515D01*
X42804Y-41535D02*
X42804Y-42184D01*
X49379Y-41436D02*
X49379Y-41534D01*
X50520Y-41534D02*
X50520Y-41455D01*
X49379Y-41534D02*
X50520Y-41534D01*
X49379Y-40865D02*
X49379Y-40963D01*
X50520Y-40963D02*
X50520Y-40865D01*
X50520Y-40865D02*
X49379Y-40865D01*
X50068Y-41200D02*
X49812Y-40983D01*
X49812Y-41416D02*
X50068Y-41200D01*
X49812Y-40983D02*
X49812Y-41416D01*
X50087Y-40983D02*
X50087Y-41416D01*
X50264Y-41534D02*
X50264Y-40865D01*
X50304Y-40885D02*
X50304Y-41534D01*
X56879Y-42086D02*
X56879Y-42184D01*
X58020Y-42184D02*
X58020Y-42105D01*
X56879Y-42184D02*
X58020Y-42184D01*
X56879Y-41515D02*
X56879Y-41613D01*
X58020Y-41613D02*
X58020Y-41515D01*
X58020Y-41515D02*
X56879Y-41515D01*
X57568Y-41850D02*
X57312Y-41633D01*
X57312Y-42066D02*
X57568Y-41850D01*
X57312Y-41633D02*
X57312Y-42066D01*
X57587Y-41633D02*
X57587Y-42066D01*
X57764Y-42184D02*
X57764Y-41515D01*
X57804Y-41535D02*
X57804Y-42184D01*
X34670Y-49513D02*
X34670Y-49415D01*
X33529Y-49415D02*
X33529Y-49494D01*
X34670Y-49415D02*
X33529Y-49415D01*
X34670Y-50084D02*
X34670Y-49986D01*
X33529Y-49986D02*
X33529Y-50084D01*
X33529Y-50084D02*
X34670Y-50084D01*
X33981Y-49750D02*
X34237Y-49966D01*
X34237Y-49533D02*
X33981Y-49750D01*
X34237Y-49966D02*
X34237Y-49533D01*
X33962Y-49966D02*
X33962Y-49533D01*
X33785Y-49415D02*
X33785Y-50084D01*
X33745Y-50064D02*
X33745Y-49415D01*
X41879Y-49536D02*
X41879Y-49634D01*
X43020Y-49634D02*
X43020Y-49555D01*
X41879Y-49634D02*
X43020Y-49634D01*
X41879Y-48965D02*
X41879Y-49063D01*
X43020Y-49063D02*
X43020Y-48965D01*
X43020Y-48965D02*
X41879Y-48965D01*
X42568Y-49300D02*
X42312Y-49083D01*
X42312Y-49516D02*
X42568Y-49300D01*
X42312Y-49083D02*
X42312Y-49516D01*
X42587Y-49083D02*
X42587Y-49516D01*
X42764Y-49634D02*
X42764Y-48965D01*
X42804Y-48985D02*
X42804Y-49634D01*
X49429Y-48886D02*
X49429Y-48984D01*
X50570Y-48984D02*
X50570Y-48905D01*
X49429Y-48984D02*
X50570Y-48984D01*
X49429Y-48315D02*
X49429Y-48413D01*
X50570Y-48413D02*
X50570Y-48315D01*
X50570Y-48315D02*
X49429Y-48315D01*
X50118Y-48650D02*
X49862Y-48433D01*
X49862Y-48866D02*
X50118Y-48650D01*
X49862Y-48433D02*
X49862Y-48866D01*
X50137Y-48433D02*
X50137Y-48866D01*
X50314Y-48984D02*
X50314Y-48315D01*
X50354Y-48335D02*
X50354Y-48984D01*
X56879Y-49486D02*
X56879Y-49584D01*
X58020Y-49584D02*
X58020Y-49505D01*
X56879Y-49584D02*
X58020Y-49584D01*
X56879Y-48915D02*
X56879Y-49013D01*
X58020Y-49013D02*
X58020Y-48915D01*
X58020Y-48915D02*
X56879Y-48915D01*
X57568Y-49250D02*
X57312Y-49033D01*
X57312Y-49466D02*
X57568Y-49250D01*
X57312Y-49033D02*
X57312Y-49466D01*
X57587Y-49033D02*
X57587Y-49466D01*
X57764Y-49584D02*
X57764Y-48915D01*
X57804Y-48935D02*
X57804Y-49584D01*
X64329Y-50786D02*
X64329Y-50884D01*
X65470Y-50884D02*
X65470Y-50805D01*
X64329Y-50884D02*
X65470Y-50884D01*
X64329Y-50215D02*
X64329Y-50313D01*
X65470Y-50313D02*
X65470Y-50215D01*
X65470Y-50215D02*
X64329Y-50215D01*
X65018Y-50550D02*
X64762Y-50333D01*
X64762Y-50766D02*
X65018Y-50550D01*
X64762Y-50333D02*
X64762Y-50766D01*
X65037Y-50333D02*
X65037Y-50766D01*
X65214Y-50884D02*
X65214Y-50215D01*
X65254Y-50235D02*
X65254Y-50884D01*
X71879Y-50786D02*
X71879Y-50884D01*
X73020Y-50884D02*
X73020Y-50805D01*
X71879Y-50884D02*
X73020Y-50884D01*
X71879Y-50215D02*
X71879Y-50313D01*
X73020Y-50313D02*
X73020Y-50215D01*
X73020Y-50215D02*
X71879Y-50215D01*
X72568Y-50550D02*
X72312Y-50333D01*
X72312Y-50766D02*
X72568Y-50550D01*
X72312Y-50333D02*
X72312Y-50766D01*
X72587Y-50333D02*
X72587Y-50766D01*
X72764Y-50884D02*
X72764Y-50215D01*
X72804Y-50235D02*
X72804Y-50884D01*
X34720Y-34213D02*
X34720Y-34115D01*
X33579Y-34115D02*
X33579Y-34194D01*
X34720Y-34115D02*
X33579Y-34115D01*
X34720Y-34784D02*
X34720Y-34686D01*
X33579Y-34686D02*
X33579Y-34784D01*
X33579Y-34784D02*
X34720Y-34784D01*
X34031Y-34450D02*
X34287Y-34666D01*
X34287Y-34233D02*
X34031Y-34450D01*
X34287Y-34666D02*
X34287Y-34233D01*
X34012Y-34666D02*
X34012Y-34233D01*
X33835Y-34115D02*
X33835Y-34784D01*
X33795Y-34764D02*
X33795Y-34115D01*
X41879Y-34536D02*
X41879Y-34634D01*
X43020Y-34634D02*
X43020Y-34555D01*
X41879Y-34634D02*
X43020Y-34634D01*
X41879Y-33965D02*
X41879Y-34063D01*
X43020Y-34063D02*
X43020Y-33965D01*
X43020Y-33965D02*
X41879Y-33965D01*
X42568Y-34300D02*
X42312Y-34083D01*
X42312Y-34516D02*
X42568Y-34300D01*
X42312Y-34083D02*
X42312Y-34516D01*
X42587Y-34083D02*
X42587Y-34516D01*
X42764Y-34634D02*
X42764Y-33965D01*
X42804Y-33985D02*
X42804Y-34634D01*
X49379Y-33936D02*
X49379Y-34034D01*
X50520Y-34034D02*
X50520Y-33955D01*
X49379Y-34034D02*
X50520Y-34034D01*
X49379Y-33365D02*
X49379Y-33463D01*
X50520Y-33463D02*
X50520Y-33365D01*
X50520Y-33365D02*
X49379Y-33365D01*
X50068Y-33700D02*
X49812Y-33483D01*
X49812Y-33916D02*
X50068Y-33700D01*
X49812Y-33483D02*
X49812Y-33916D01*
X50087Y-33483D02*
X50087Y-33916D01*
X50264Y-34034D02*
X50264Y-33365D01*
X50304Y-33385D02*
X50304Y-34034D01*
X60070Y-33763D02*
X60070Y-33665D01*
X58929Y-33665D02*
X58929Y-33744D01*
X60070Y-33665D02*
X58929Y-33665D01*
X60070Y-34334D02*
X60070Y-34236D01*
X58929Y-34236D02*
X58929Y-34334D01*
X58929Y-34334D02*
X60070Y-34334D01*
X59381Y-34000D02*
X59637Y-34216D01*
X59637Y-33783D02*
X59381Y-34000D01*
X59637Y-34216D02*
X59637Y-33783D01*
X59362Y-34216D02*
X59362Y-33783D01*
X59185Y-33665D02*
X59185Y-34334D01*
X59145Y-34314D02*
X59145Y-33665D01*
X64379Y-35686D02*
X64379Y-35784D01*
X65520Y-35784D02*
X65520Y-35705D01*
X64379Y-35784D02*
X65520Y-35784D01*
X64379Y-35115D02*
X64379Y-35213D01*
X65520Y-35213D02*
X65520Y-35115D01*
X65520Y-35115D02*
X64379Y-35115D01*
X65068Y-35450D02*
X64812Y-35233D01*
X64812Y-35666D02*
X65068Y-35450D01*
X64812Y-35233D02*
X64812Y-35666D01*
X65087Y-35233D02*
X65087Y-35666D01*
X65264Y-35784D02*
X65264Y-35115D01*
X65304Y-35135D02*
X65304Y-35784D01*
X71829Y-35736D02*
X71829Y-35834D01*
X72970Y-35834D02*
X72970Y-35755D01*
X71829Y-35834D02*
X72970Y-35834D01*
X71829Y-35165D02*
X71829Y-35263D01*
X72970Y-35263D02*
X72970Y-35165D01*
X72970Y-35165D02*
X71829Y-35165D01*
X72518Y-35500D02*
X72262Y-35283D01*
X72262Y-35716D02*
X72518Y-35500D01*
X72262Y-35283D02*
X72262Y-35716D01*
X72537Y-35283D02*
X72537Y-35716D01*
X72714Y-35834D02*
X72714Y-35165D01*
X72754Y-35185D02*
X72754Y-35834D01*
X68234Y-21250D02*
X68234Y-24281D01*
X68234Y-24281D02*
X71265Y-24281D01*
X71265Y-24281D02*
X71265Y-21250D01*
X71265Y-21250D02*
X68234Y-21250D01*
X68234Y-28750D02*
X68234Y-31781D01*
X68234Y-31781D02*
X71265Y-31781D01*
X71265Y-31781D02*
X71265Y-28750D01*
X71265Y-28750D02*
X68234Y-28750D01*
G54D19*
X70464Y-42787D02*
X70336Y-42914D01*
X70563Y-42836D02*
X70214Y-42665D01*
X70385Y-43014D01*
X70073Y-42805D02*
X69920Y-42958D01*
X70257Y-43142D02*
X69997Y-42882D01*
X70091Y-43308D02*
X69831Y-43048D01*
X69927Y-43323D01*
X69652Y-43227D01*
X69912Y-43487D01*
X69648Y-43478D02*
X69559Y-43568D01*
X69657Y-43742D02*
X69784Y-43615D01*
X69524Y-43354D01*
X69396Y-43482D01*
X69153Y-43750D02*
X69166Y-43712D01*
X69205Y-43674D01*
X69255Y-43648D01*
X69306Y-43647D01*
X69343Y-43659D01*
X69406Y-43696D01*
X69443Y-43733D01*
X69480Y-43795D01*
X69492Y-43833D01*
X69491Y-43883D01*
X69465Y-43934D01*
X69439Y-43960D01*
X69389Y-43985D01*
X69364Y-43986D01*
X69277Y-43899D01*
X69328Y-43848D01*
X69212Y-44038D02*
X69084Y-44166D01*
X69312Y-44087D02*
X68962Y-43916D01*
X69133Y-44266D01*
X68809Y-44070D02*
X68643Y-44236D01*
X68831Y-44245D01*
X68793Y-44284D01*
X68780Y-44322D01*
X68779Y-44347D01*
X68791Y-44384D01*
X68853Y-44446D01*
X68891Y-44458D01*
X68916Y-44458D01*
X68954Y-44445D01*
X69031Y-44368D01*
X69044Y-44330D01*
X69044Y-44305D01*
X68565Y-44363D02*
X68540Y-44363D01*
X68502Y-44376D01*
X68438Y-44440D01*
X68425Y-44478D01*
X68425Y-44503D01*
X68437Y-44541D01*
X68462Y-44566D01*
X68512Y-44590D01*
X68814Y-44585D01*
X68648Y-44751D01*
X68272Y-44606D02*
X68483Y-44817D01*
X68495Y-44854D01*
X68495Y-44880D01*
X68482Y-44918D01*
X68430Y-44969D01*
X68392Y-44982D01*
X68367Y-44982D01*
X68330Y-44970D01*
X68119Y-44759D01*
X67963Y-45089D02*
X68137Y-45262D01*
X67928Y-44926D02*
X68178Y-45048D01*
X68012Y-45214D01*
G54D20*
X56086Y-43289D02*
X55850Y-43643D01*
X55850Y-43289D02*
X56086Y-43643D01*
X55530Y-43643D02*
X55732Y-43643D01*
X55631Y-43643D02*
X55631Y-43289D01*
X55665Y-43339D01*
X55698Y-43373D01*
X55732Y-43390D01*
G54D21*
X68911Y-38098D02*
X69034Y-37923D01*
X69121Y-38098D02*
X69121Y-37730D01*
X68981Y-37730D01*
X68946Y-37748D01*
X68928Y-37765D01*
X68911Y-37801D01*
X68911Y-37853D01*
X68928Y-37888D01*
X68946Y-37906D01*
X68981Y-37923D01*
X69121Y-37923D01*
X68788Y-37730D02*
X68560Y-37730D01*
X68683Y-37871D01*
X68630Y-37871D01*
X68595Y-37888D01*
X68578Y-37906D01*
X68560Y-37941D01*
X68560Y-38028D01*
X68578Y-38063D01*
X68595Y-38081D01*
X68630Y-38098D01*
X68736Y-38098D01*
X68771Y-38081D01*
X68788Y-38063D01*
X76211Y-44648D02*
X76334Y-44473D01*
X76421Y-44648D02*
X76421Y-44280D01*
X76281Y-44280D01*
X76246Y-44298D01*
X76228Y-44315D01*
X76211Y-44351D01*
X76211Y-44403D01*
X76228Y-44438D01*
X76246Y-44456D01*
X76281Y-44473D01*
X76421Y-44473D01*
X76088Y-44280D02*
X75843Y-44280D01*
X76001Y-44648D01*
X68961Y-50013D02*
X68978Y-50031D01*
X69031Y-50048D01*
X69066Y-50048D01*
X69119Y-50031D01*
X69154Y-49996D01*
X69171Y-49961D01*
X69189Y-49891D01*
X69189Y-49838D01*
X69171Y-49768D01*
X69154Y-49733D01*
X69119Y-49698D01*
X69066Y-49680D01*
X69031Y-49680D01*
X68978Y-49698D01*
X68961Y-49715D01*
X68751Y-49838D02*
X68786Y-49821D01*
X68803Y-49803D01*
X68821Y-49768D01*
X68821Y-49751D01*
X68803Y-49715D01*
X68786Y-49698D01*
X68751Y-49680D01*
X68680Y-49680D01*
X68645Y-49698D01*
X68628Y-49715D01*
X68610Y-49751D01*
X68610Y-49768D01*
X68628Y-49803D01*
X68645Y-49821D01*
X68680Y-49838D01*
X68751Y-49838D01*
X68786Y-49856D01*
X68803Y-49873D01*
X68821Y-49908D01*
X68821Y-49978D01*
X68803Y-50013D01*
X68786Y-50031D01*
X68751Y-50048D01*
X68680Y-50048D01*
X68645Y-50031D01*
X68628Y-50013D01*
X68610Y-49978D01*
X68610Y-49908D01*
X68628Y-49873D01*
X68645Y-49856D01*
X68680Y-49838D01*
X70911Y-38098D02*
X71034Y-37923D01*
X71121Y-38098D02*
X71121Y-37730D01*
X70981Y-37730D01*
X70946Y-37748D01*
X70928Y-37765D01*
X70911Y-37801D01*
X70911Y-37853D01*
X70928Y-37888D01*
X70946Y-37906D01*
X70981Y-37923D01*
X71121Y-37923D01*
X70595Y-37730D02*
X70665Y-37730D01*
X70701Y-37748D01*
X70718Y-37765D01*
X70753Y-37818D01*
X70771Y-37888D01*
X70771Y-38028D01*
X70753Y-38063D01*
X70736Y-38081D01*
X70701Y-38098D01*
X70630Y-38098D01*
X70595Y-38081D01*
X70578Y-38063D01*
X70560Y-38028D01*
X70560Y-37941D01*
X70578Y-37906D01*
X70595Y-37888D01*
X70630Y-37871D01*
X70701Y-37871D01*
X70736Y-37888D01*
X70753Y-37906D01*
X70771Y-37941D01*
X69961Y-38098D02*
X70084Y-37923D01*
X70171Y-38098D02*
X70171Y-37730D01*
X70031Y-37730D01*
X69996Y-37748D01*
X69978Y-37765D01*
X69961Y-37801D01*
X69961Y-37853D01*
X69978Y-37888D01*
X69996Y-37906D01*
X70031Y-37923D01*
X70171Y-37923D01*
X69628Y-37730D02*
X69803Y-37730D01*
X69821Y-37906D01*
X69803Y-37888D01*
X69768Y-37871D01*
X69680Y-37871D01*
X69645Y-37888D01*
X69628Y-37906D01*
X69610Y-37941D01*
X69610Y-38028D01*
X69628Y-38063D01*
X69645Y-38081D01*
X69680Y-38098D01*
X69768Y-38098D01*
X69803Y-38081D01*
X69821Y-38063D01*
X74011Y-44163D02*
X74028Y-44181D01*
X74081Y-44198D01*
X74116Y-44198D01*
X74169Y-44181D01*
X74204Y-44146D01*
X74221Y-44111D01*
X74239Y-44041D01*
X74239Y-43988D01*
X74221Y-43918D01*
X74204Y-43883D01*
X74169Y-43848D01*
X74116Y-43830D01*
X74081Y-43830D01*
X74028Y-43848D01*
X74011Y-43865D01*
X73678Y-43830D02*
X73853Y-43830D01*
X73871Y-44006D01*
X73853Y-43988D01*
X73818Y-43971D01*
X73730Y-43971D01*
X73695Y-43988D01*
X73678Y-44006D01*
X73660Y-44041D01*
X73660Y-44128D01*
X73678Y-44163D01*
X73695Y-44181D01*
X73730Y-44198D01*
X73818Y-44198D01*
X73853Y-44181D01*
X73871Y-44163D01*
X70611Y-50463D02*
X70628Y-50481D01*
X70681Y-50498D01*
X70716Y-50498D01*
X70769Y-50481D01*
X70804Y-50446D01*
X70821Y-50411D01*
X70839Y-50341D01*
X70839Y-50288D01*
X70821Y-50218D01*
X70804Y-50183D01*
X70769Y-50148D01*
X70716Y-50130D01*
X70681Y-50130D01*
X70628Y-50148D01*
X70611Y-50165D01*
X70295Y-50253D02*
X70295Y-50498D01*
X70383Y-50113D02*
X70471Y-50376D01*
X70243Y-50376D01*
X70061Y-40163D02*
X70078Y-40181D01*
X70131Y-40198D01*
X70166Y-40198D01*
X70219Y-40181D01*
X70254Y-40146D01*
X70271Y-40111D01*
X70289Y-40041D01*
X70289Y-39988D01*
X70271Y-39918D01*
X70254Y-39883D01*
X70219Y-39848D01*
X70166Y-39830D01*
X70131Y-39830D01*
X70078Y-39848D01*
X70061Y-39865D01*
X69938Y-39830D02*
X69710Y-39830D01*
X69833Y-39971D01*
X69780Y-39971D01*
X69745Y-39988D01*
X69728Y-40006D01*
X69710Y-40041D01*
X69710Y-40128D01*
X69728Y-40163D01*
X69745Y-40181D01*
X69780Y-40198D01*
X69886Y-40198D01*
X69921Y-40181D01*
X69938Y-40163D01*
X65611Y-45063D02*
X65628Y-45081D01*
X65681Y-45098D01*
X65716Y-45098D01*
X65769Y-45081D01*
X65804Y-45046D01*
X65821Y-45011D01*
X65839Y-44941D01*
X65839Y-44888D01*
X65821Y-44818D01*
X65804Y-44783D01*
X65769Y-44748D01*
X65716Y-44730D01*
X65681Y-44730D01*
X65628Y-44748D01*
X65611Y-44765D01*
X65471Y-44765D02*
X65453Y-44748D01*
X65418Y-44730D01*
X65330Y-44730D01*
X65295Y-44748D01*
X65278Y-44765D01*
X65260Y-44801D01*
X65260Y-44836D01*
X65278Y-44888D01*
X65488Y-45098D01*
X65260Y-45098D01*
X54811Y-41513D02*
X54828Y-41531D01*
X54881Y-41548D01*
X54916Y-41548D01*
X54969Y-41531D01*
X55004Y-41496D01*
X55021Y-41461D01*
X55039Y-41391D01*
X55039Y-41338D01*
X55021Y-41268D01*
X55004Y-41233D01*
X54969Y-41198D01*
X54916Y-41180D01*
X54881Y-41180D01*
X54828Y-41198D01*
X54811Y-41215D01*
X54688Y-41180D02*
X54443Y-41180D01*
X54601Y-41548D01*
X54811Y-45763D02*
X54828Y-45781D01*
X54881Y-45798D01*
X54916Y-45798D01*
X54969Y-45781D01*
X55004Y-45746D01*
X55021Y-45711D01*
X55039Y-45641D01*
X55039Y-45588D01*
X55021Y-45518D01*
X55004Y-45483D01*
X54969Y-45448D01*
X54916Y-45430D01*
X54881Y-45430D01*
X54828Y-45448D01*
X54811Y-45465D01*
X54495Y-45430D02*
X54565Y-45430D01*
X54601Y-45448D01*
X54618Y-45465D01*
X54653Y-45518D01*
X54671Y-45588D01*
X54671Y-45728D01*
X54653Y-45763D01*
X54636Y-45781D01*
X54601Y-45798D01*
X54530Y-45798D01*
X54495Y-45781D01*
X54478Y-45763D01*
X54460Y-45728D01*
X54460Y-45641D01*
X54478Y-45606D01*
X54495Y-45588D01*
X54530Y-45571D01*
X54601Y-45571D01*
X54636Y-45588D01*
X54653Y-45606D01*
X54671Y-45641D01*
X69011Y-34213D02*
X69028Y-34231D01*
X69081Y-34248D01*
X69116Y-34248D01*
X69169Y-34231D01*
X69204Y-34196D01*
X69221Y-34161D01*
X69239Y-34091D01*
X69239Y-34038D01*
X69221Y-33968D01*
X69204Y-33933D01*
X69169Y-33898D01*
X69116Y-33880D01*
X69081Y-33880D01*
X69028Y-33898D01*
X69011Y-33915D01*
X68660Y-34248D02*
X68871Y-34248D01*
X68765Y-34248D02*
X68765Y-33880D01*
X68801Y-33933D01*
X68836Y-33968D01*
X68871Y-33986D01*
X36269Y-37148D02*
X36391Y-36973D01*
X36479Y-37148D02*
X36479Y-36780D01*
X36339Y-36780D01*
X36304Y-36798D01*
X36286Y-36815D01*
X36269Y-36851D01*
X36269Y-36903D01*
X36286Y-36938D01*
X36304Y-36956D01*
X36339Y-36973D01*
X36479Y-36973D01*
X36128Y-37043D02*
X35953Y-37043D01*
X36163Y-37148D02*
X36041Y-36780D01*
X35918Y-37148D01*
X35603Y-37148D02*
X35813Y-37148D01*
X35708Y-37148D02*
X35708Y-36780D01*
X35743Y-36833D01*
X35778Y-36868D01*
X35813Y-36886D01*
X36295Y-44648D02*
X36418Y-44473D01*
X36505Y-44648D02*
X36505Y-44280D01*
X36365Y-44280D01*
X36330Y-44298D01*
X36312Y-44315D01*
X36295Y-44351D01*
X36295Y-44403D01*
X36312Y-44438D01*
X36330Y-44456D01*
X36365Y-44473D01*
X36505Y-44473D01*
X36014Y-44456D02*
X35962Y-44473D01*
X35944Y-44491D01*
X35927Y-44526D01*
X35927Y-44578D01*
X35944Y-44613D01*
X35962Y-44631D01*
X35997Y-44648D01*
X36137Y-44648D01*
X36137Y-44280D01*
X36014Y-44280D01*
X35979Y-44298D01*
X35962Y-44315D01*
X35944Y-44351D01*
X35944Y-44386D01*
X35962Y-44421D01*
X35979Y-44438D01*
X36014Y-44456D01*
X36137Y-44456D01*
X35576Y-44648D02*
X35787Y-44648D01*
X35681Y-44648D02*
X35681Y-44280D01*
X35716Y-44333D01*
X35752Y-44368D01*
X35787Y-44386D01*
X37045Y-52148D02*
X37168Y-51973D01*
X37255Y-52148D02*
X37255Y-51780D01*
X37115Y-51780D01*
X37080Y-51798D01*
X37062Y-51815D01*
X37045Y-51851D01*
X37045Y-51903D01*
X37062Y-51938D01*
X37080Y-51956D01*
X37115Y-51973D01*
X37255Y-51973D01*
X36677Y-52113D02*
X36694Y-52131D01*
X36747Y-52148D01*
X36782Y-52148D01*
X36835Y-52131D01*
X36870Y-52096D01*
X36887Y-52061D01*
X36905Y-51991D01*
X36905Y-51938D01*
X36887Y-51868D01*
X36870Y-51833D01*
X36835Y-51798D01*
X36782Y-51780D01*
X36747Y-51780D01*
X36694Y-51798D01*
X36677Y-51815D01*
X36326Y-52148D02*
X36537Y-52148D01*
X36431Y-52148D02*
X36431Y-51780D01*
X36466Y-51833D01*
X36502Y-51868D01*
X36537Y-51886D01*
%LPC*%
G54D22*
X35500Y-50129D03*
G54D23*
X36500Y-50129D03*
G54D22*
X35500Y-42629D03*
G54D23*
X36500Y-42629D03*
G54D22*
X35500Y-35130D03*
G54D23*
X36500Y-35130D03*
G54D24*
X44459Y-52379D03*
X35059Y-52379D03*
G54D25*
X44459Y-58379D03*
X35059Y-58379D03*
G54D26*
X71133Y-45883D02*
X71548Y-46298D01*
X70910Y-46105D02*
X71326Y-46521D01*
X70687Y-46328D02*
X71103Y-46744D01*
X70464Y-46551D02*
X70880Y-46967D01*
X70242Y-46774D02*
X70657Y-47189D01*
X70019Y-46996D02*
X70435Y-47412D01*
X71355Y-45660D02*
X71771Y-46076D01*
X71578Y-45437D02*
X71994Y-45853D01*
X71801Y-45214D02*
X72217Y-45630D01*
X72024Y-44992D02*
X72439Y-45407D01*
X72246Y-44769D02*
X72662Y-45185D01*
X67951Y-42701D02*
X68366Y-43116D01*
X67728Y-42923D02*
X68144Y-43339D01*
X67505Y-43146D02*
X67921Y-43562D01*
X67282Y-43369D02*
X67698Y-43785D01*
X67060Y-43592D02*
X67475Y-44007D01*
X66837Y-43814D02*
X67253Y-44230D01*
X68173Y-42478D02*
X68589Y-42894D01*
X68396Y-42255D02*
X68812Y-42671D01*
X68619Y-42032D02*
X69035Y-42448D01*
X68842Y-41810D02*
X69257Y-42225D01*
X69064Y-41587D02*
X69480Y-42003D01*
X67951Y-46298D02*
X68366Y-45883D01*
X71133Y-43116D02*
X71548Y-42701D01*
X67728Y-46076D02*
X68144Y-45660D01*
X70910Y-42894D02*
X71326Y-42478D01*
X70687Y-42671D02*
X71103Y-42255D01*
X67505Y-45853D02*
X67921Y-45437D01*
X67282Y-45630D02*
X67698Y-45214D01*
X70464Y-42448D02*
X70880Y-42032D01*
X70242Y-42225D02*
X70657Y-41810D01*
X67060Y-45407D02*
X67475Y-44992D01*
X66837Y-45185D02*
X67253Y-44769D01*
X70019Y-42003D02*
X70435Y-41587D01*
X71355Y-43339D02*
X71771Y-42923D01*
X68173Y-46521D02*
X68589Y-46105D01*
X68396Y-46744D02*
X68812Y-46328D01*
X71578Y-43562D02*
X71994Y-43146D01*
X71801Y-43785D02*
X72217Y-43369D01*
X68619Y-46967D02*
X69035Y-46551D01*
X68842Y-47189D02*
X69257Y-46774D01*
X72024Y-44007D02*
X72439Y-43592D01*
X72246Y-44230D02*
X72662Y-43814D01*
X69064Y-47412D02*
X69480Y-46996D01*
G54D27*
X47000Y-56000D03*
X47000Y-57000D03*
X47000Y-55000D03*
X47000Y-53000D03*
X47000Y-54000D03*
X47000Y-52000D03*
G54D28*
X55065Y-43933D03*
X55065Y-43067D03*
X54435Y-43933D03*
X54435Y-43067D03*
G54D29*
X61462Y-30460D03*
X63037Y-32940D03*
X61463Y-32940D03*
X63037Y-30460D03*
G54D30*
X68850Y-36425D03*
X68850Y-37175D03*
X75300Y-44125D03*
X75300Y-44875D03*
G54D31*
X67375Y-49900D03*
X68125Y-49900D03*
G54D30*
X70850Y-37175D03*
X70850Y-36425D03*
X69850Y-37175D03*
X69850Y-36425D03*
X73950Y-44625D03*
X73950Y-45375D03*
X70550Y-49625D03*
X70550Y-48875D03*
X70800Y-40425D03*
X70800Y-39675D03*
G54D31*
X64825Y-44950D03*
X64075Y-44950D03*
X55125Y-42100D03*
X54375Y-42100D03*
X54375Y-44850D03*
X55125Y-44850D03*
X69675Y-34100D03*
X70425Y-34100D03*
G54D32*
X74500Y-54379D03*
X72000Y-55379D03*
G54D25*
X73500Y-56379D03*
G54D33*
X71500Y-56379D03*
X75500Y-56379D03*
G54D32*
X75000Y-55379D03*
X72500Y-54379D03*
X59500Y-53129D03*
X57000Y-54129D03*
G54D25*
X58500Y-55129D03*
G54D33*
X56500Y-55129D03*
X60500Y-55129D03*
G54D32*
X60000Y-54129D03*
X57500Y-53129D03*
X67000Y-54379D03*
X64500Y-55379D03*
G54D25*
X66000Y-56379D03*
G54D33*
X64000Y-56379D03*
X68000Y-56379D03*
G54D32*
X67500Y-55379D03*
X65000Y-54379D03*
X52000Y-52500D03*
X49500Y-53500D03*
G54D25*
X51000Y-54500D03*
G54D33*
X49000Y-54500D03*
X53000Y-54500D03*
G54D32*
X52500Y-53500D03*
X50000Y-52500D03*
X40750Y-53129D03*
X38250Y-54129D03*
G54D25*
X39750Y-55129D03*
G54D33*
X37750Y-55129D03*
X41750Y-55129D03*
G54D32*
X41250Y-54129D03*
X38750Y-53129D03*
X37000Y-23630D03*
X34500Y-24630D03*
G54D25*
X36000Y-25630D03*
G54D33*
X34000Y-25630D03*
X38000Y-25630D03*
G54D32*
X37500Y-24630D03*
X35000Y-23630D03*
X67000Y-39379D03*
X64500Y-40379D03*
G54D25*
X66000Y-41379D03*
G54D33*
X64000Y-41379D03*
X68000Y-41379D03*
G54D32*
X67500Y-40379D03*
X65000Y-39379D03*
X74500Y-39379D03*
X72000Y-40379D03*
G54D25*
X73500Y-41379D03*
G54D33*
X71500Y-41379D03*
X75500Y-41379D03*
G54D32*
X75000Y-40379D03*
X72500Y-39379D03*
X44500Y-23129D03*
X42000Y-24129D03*
G54D25*
X43500Y-25129D03*
G54D33*
X41500Y-25129D03*
X45500Y-25129D03*
G54D32*
X45000Y-24129D03*
X42500Y-23129D03*
X67000Y-24380D03*
X64500Y-25380D03*
G54D25*
X66000Y-26380D03*
G54D33*
X64000Y-26380D03*
X68000Y-26380D03*
G54D32*
X67500Y-25380D03*
X65000Y-24380D03*
X59500Y-23129D03*
X57000Y-24129D03*
G54D25*
X58500Y-25129D03*
G54D33*
X56500Y-25129D03*
X60500Y-25129D03*
G54D32*
X60000Y-24129D03*
X57500Y-23129D03*
X52000Y-22500D03*
X49500Y-23500D03*
G54D25*
X51000Y-24500D03*
G54D33*
X49000Y-24500D03*
X53000Y-24500D03*
G54D32*
X52500Y-23500D03*
X50000Y-22500D03*
X74500Y-24380D03*
X72000Y-25380D03*
G54D25*
X73500Y-26380D03*
G54D33*
X71500Y-26380D03*
X75500Y-26380D03*
G54D32*
X75000Y-25380D03*
X72500Y-24380D03*
X59500Y-38129D03*
X57000Y-39129D03*
G54D25*
X58500Y-40129D03*
G54D33*
X56500Y-40129D03*
X60500Y-40129D03*
G54D32*
X60000Y-39129D03*
X57500Y-38129D03*
X52000Y-37500D03*
X49500Y-38500D03*
G54D25*
X51000Y-39500D03*
G54D33*
X49000Y-39500D03*
X53000Y-39500D03*
G54D32*
X52500Y-38500D03*
X50000Y-37500D03*
X44500Y-38129D03*
X42000Y-39129D03*
G54D25*
X43500Y-40129D03*
G54D33*
X41500Y-40129D03*
X45500Y-40129D03*
G54D32*
X45000Y-39129D03*
X42500Y-38129D03*
X37000Y-38629D03*
X34500Y-39629D03*
G54D25*
X36000Y-40629D03*
G54D33*
X34000Y-40629D03*
X38000Y-40629D03*
G54D32*
X37500Y-39629D03*
X35000Y-38629D03*
X67000Y-46879D03*
X64500Y-47879D03*
G54D25*
X66000Y-48879D03*
G54D33*
X64000Y-48879D03*
X68000Y-48879D03*
G54D32*
X67500Y-47879D03*
X65000Y-46879D03*
X59500Y-45629D03*
X57000Y-46629D03*
G54D25*
X58500Y-47629D03*
G54D33*
X56500Y-47629D03*
X60500Y-47629D03*
G54D32*
X60000Y-46629D03*
X57500Y-45629D03*
X52000Y-45000D03*
X49500Y-46000D03*
G54D25*
X51000Y-47000D03*
G54D33*
X49000Y-47000D03*
X53000Y-47000D03*
G54D32*
X52500Y-46000D03*
X50000Y-45000D03*
X44500Y-45629D03*
X42000Y-46629D03*
G54D25*
X43500Y-47629D03*
G54D33*
X41500Y-47629D03*
X45500Y-47629D03*
G54D32*
X45000Y-46629D03*
X42500Y-45629D03*
X37000Y-46129D03*
X34500Y-47129D03*
G54D25*
X36000Y-48129D03*
G54D33*
X34000Y-48129D03*
X38000Y-48129D03*
G54D32*
X37500Y-47129D03*
X35000Y-46129D03*
X74500Y-46879D03*
X72000Y-47879D03*
G54D25*
X73500Y-48879D03*
G54D33*
X71500Y-48879D03*
X75500Y-48879D03*
G54D32*
X75000Y-47879D03*
X72500Y-46879D03*
X37000Y-31129D03*
X34500Y-32129D03*
G54D25*
X36000Y-33129D03*
G54D33*
X34000Y-33129D03*
X38000Y-33129D03*
G54D32*
X37500Y-32129D03*
X35000Y-31129D03*
X67000Y-31879D03*
X64500Y-32879D03*
G54D25*
X66000Y-33879D03*
G54D33*
X64000Y-33879D03*
X68000Y-33879D03*
G54D32*
X67500Y-32879D03*
X65000Y-31879D03*
X52000Y-30000D03*
X49500Y-31000D03*
G54D25*
X51000Y-32000D03*
G54D33*
X49000Y-32000D03*
X53000Y-32000D03*
G54D32*
X52500Y-31000D03*
X50000Y-30000D03*
X44500Y-30629D03*
X42000Y-31629D03*
G54D25*
X43500Y-32629D03*
G54D33*
X41500Y-32629D03*
X45500Y-32629D03*
G54D32*
X45000Y-31629D03*
X42500Y-30629D03*
X59500Y-30629D03*
X57000Y-31629D03*
G54D25*
X58500Y-32629D03*
G54D33*
X56500Y-32629D03*
X60500Y-32629D03*
G54D32*
X60000Y-31629D03*
X57500Y-30629D03*
X74500Y-31879D03*
X72000Y-32879D03*
G54D25*
X73500Y-33879D03*
G54D33*
X71500Y-33879D03*
X75500Y-33879D03*
G54D32*
X75000Y-32879D03*
X72500Y-31879D03*
G54D34*
X75500Y-29000D03*
X45000Y-29000D03*
X50500Y-29000D03*
X53000Y-29000D03*
X55500Y-29000D03*
X58000Y-29000D03*
X60500Y-29000D03*
X63000Y-29000D03*
X65250Y-29000D03*
X67100Y-29000D03*
X70500Y-29000D03*
X73700Y-29000D03*
X76450Y-29000D03*
X49250Y-29000D03*
X51750Y-29000D03*
X54250Y-29000D03*
X56750Y-29000D03*
X59250Y-29000D03*
X61750Y-29000D03*
X64250Y-29000D03*
X66300Y-29000D03*
X69000Y-29000D03*
X72450Y-29000D03*
X74500Y-29000D03*
X43750Y-29000D03*
X42500Y-29000D03*
X41250Y-29000D03*
X40000Y-29000D03*
X38750Y-29000D03*
X37500Y-29000D03*
X36250Y-29000D03*
X35000Y-29000D03*
X33750Y-29000D03*
X33050Y-29000D03*
G54D31*
X36375Y-36250D03*
X35625Y-36250D03*
X36375Y-43750D03*
X35625Y-43750D03*
X37125Y-51250D03*
X36375Y-51250D03*
G54D35*
X48361Y-22074D03*
X46038Y-22074D03*
G54D36*
X46274Y-22979D03*
X48125Y-22979D03*
G54D37*
X47200Y-23117D03*
X46944Y-23117D03*
X46688Y-23117D03*
X47455Y-23117D03*
X47711Y-23117D03*
G54D38*
X46865Y-22074D03*
X47534Y-22074D03*
G54D35*
X48361Y-29574D03*
X46038Y-29574D03*
G54D36*
X46274Y-30479D03*
X48125Y-30479D03*
G54D37*
X47200Y-30617D03*
X46944Y-30617D03*
X46688Y-30617D03*
X47455Y-30617D03*
X47711Y-30617D03*
G54D38*
X46865Y-29574D03*
X47534Y-29574D03*
G54D39*
X34230Y-27250D03*
X35569Y-27250D03*
X72230Y-38050D03*
X73569Y-38050D03*
X64680Y-38050D03*
X66019Y-38050D03*
X41730Y-26800D03*
X43069Y-26800D03*
X49180Y-26250D03*
X50519Y-26250D03*
X56730Y-26800D03*
X58069Y-26800D03*
X64230Y-28100D03*
X65569Y-28100D03*
X71730Y-27950D03*
X73069Y-27950D03*
X37980Y-56800D03*
X39319Y-56800D03*
X49230Y-56150D03*
X50569Y-56150D03*
X56680Y-56800D03*
X58019Y-56800D03*
X64230Y-58050D03*
X65569Y-58050D03*
X71780Y-58050D03*
X73119Y-58050D03*
X34669Y-42250D03*
X33330Y-42250D03*
X41780Y-41850D03*
X43119Y-41850D03*
X49280Y-41200D03*
X50619Y-41200D03*
X56780Y-41850D03*
X58119Y-41850D03*
X34769Y-49750D03*
X33430Y-49750D03*
X41780Y-49300D03*
X43119Y-49300D03*
X49330Y-48650D03*
X50669Y-48650D03*
X56780Y-49250D03*
X58119Y-49250D03*
X64230Y-50550D03*
X65569Y-50550D03*
X71780Y-50550D03*
X73119Y-50550D03*
X34819Y-34450D03*
X33480Y-34450D03*
X41780Y-34300D03*
X43119Y-34300D03*
X49280Y-33700D03*
X50619Y-33700D03*
X60169Y-34000D03*
X58830Y-34000D03*
X64280Y-35450D03*
X65619Y-35450D03*
X71730Y-35500D03*
X73069Y-35500D03*
G54D40*
X71501Y-22135D03*
X67998Y-22135D03*
X67998Y-24301D03*
X71501Y-24301D03*
G54D41*
X69750Y-24340D03*
X69435Y-24340D03*
X69120Y-24340D03*
X70064Y-24340D03*
X70379Y-24340D03*
G54D42*
X68883Y-23316D03*
X70616Y-23316D03*
G54D40*
X71501Y-29635D03*
X67998Y-29635D03*
X67998Y-31801D03*
X71501Y-31801D03*
G54D41*
X69750Y-31840D03*
X69435Y-31840D03*
X69120Y-31840D03*
X70064Y-31840D03*
X70379Y-31840D03*
G54D42*
X68883Y-30816D03*
X70616Y-30816D03*
M02*
