G04 (created by PCBNEW (2013-02-13 BZR 3947)-testing) date 11/23/2013 4:51:36 PM*
%MOIN*%
G04 Gerber Fmt 3.4, Leading zero omitted, Abs format*
%FSLAX34Y34*%
G01*
G70*
G90*
G04 APERTURE LIST*
%ADD10C,0.009*%
%ADD11R,0.0178425X0.0788661*%
%ADD12R,0.0174488X0.0788661*%
G04 APERTURE END LIST*
G54D10*
X6400Y-3600D02*
X9200Y-3600D01*
X9200Y3600D02*
X6400Y3600D01*
X6400Y-3600D02*
X-5300Y-3600D01*
X6400Y3600D02*
X-5300Y3600D01*
X9200Y-3600D02*
X9200Y3600D01*
X-5300Y-3600D02*
X-5300Y3600D01*
G54D11*
X4362Y984D03*
X4362Y-983D03*
X4165Y983D03*
X4165Y-983D03*
X3968Y983D03*
X3968Y-983D03*
X3771Y983D03*
X3771Y-983D03*
X3575Y983D03*
X3575Y-983D03*
X3378Y983D03*
X3378Y-983D03*
X3181Y983D03*
X3181Y-983D03*
X2984Y983D03*
X2984Y-983D03*
X2787Y983D03*
X2787Y-983D03*
X2590Y983D03*
X2590Y-983D03*
X2393Y983D03*
X2393Y-983D03*
X2197Y983D03*
X2197Y-983D03*
X2000Y983D03*
X2000Y-983D03*
X1803Y983D03*
X1803Y-983D03*
X1606Y983D03*
X1606Y-983D03*
X1409Y983D03*
X1409Y-983D03*
X1212Y983D03*
X1212Y-983D03*
X1016Y983D03*
X1016Y-983D03*
X819Y983D03*
X819Y-983D03*
G54D12*
X622Y983D03*
G54D11*
X622Y-983D03*
X425Y984D03*
X425Y-984D03*
X228Y984D03*
X228Y-984D03*
X31Y984D03*
X31Y-984D03*
X-165Y984D03*
X-165Y-984D03*
X-362Y984D03*
X-362Y-984D03*
M02*
