M48
;DRILL file {Pcbnew (2013-02-13 BZR 3947)-testing} date 11/23/2013 4:51:39 PM
;FORMAT={2:4/ absolute / inch / keep zeros}
FMAT,2
INCH,TZ
T1C0.016
%
G90
G05
M72
T1
X-004820Y000820
X-004106Y003308
X-003963Y-001844
X-003768Y-000024
X-003632Y001320
X-003286Y-000942
X-003274Y-000469
X-003150Y003321
X-003001Y001095
X-002957Y001748
X-002752Y-002900
X-002481Y-001615
X-002406Y-002334
X-001934Y-002151
X-001720Y-003044
X-001626Y002479
X-001406Y000138
X-001365Y000896
X-001356Y-002740
X-000972Y-001113
X-000861Y001177
X-000813Y-000648
X-000721Y000267
X-000231Y003104
X-000010Y-002730
X000533Y-000358
X000568Y000360
X001008Y003087
X001345Y000361
X001359Y-000362
X001381Y-002717
X001698Y003130
X001749Y-002348
X001850Y002550
X001874Y-000354
X002080Y-002012
X002498Y-001607
X002955Y-000214
X002979Y-002679
X003085Y000314
X003320Y002264
X004382Y002896
X004834Y001300
X004871Y000478
X005301Y-001040
X005310Y-000563
X005515Y-001544
X005682Y000929
X006318Y-002226
X006323Y002840
X006486Y001713
X006654Y-001894
X006763Y000049
X006867Y002843
X006869Y-001142
X007067Y001435
X007449Y001710
X007633Y0000000
X007860Y-001149
X007920Y001713
X008039Y000929
X008415Y000123
X008537Y-003079
X008636Y001361
T0
M30
