G04 (created by PCBNEW (2013-02-13 BZR 3947)-testing) date 11/23/2013 4:51:36 PM*
%MOIN*%
G04 Gerber Fmt 3.4, Leading zero omitted, Abs format*
%FSLAX34Y34*%
G01*
G70*
G90*
G04 APERTURE LIST*
%ADD10C,0.009*%
%ADD11C,0.016*%
%ADD12R,0.035X0.055*%
%ADD13R,0.055X0.035*%
%ADD14R,0.0157X0.059*%
%ADD15C,0.0393701*%
%ADD16C,0.00708661*%
%ADD17C,0.00984252*%
%ADD18C,0.01*%
G04 APERTURE END LIST*
G54D10*
X6400Y-3600D02*
X9200Y-3600D01*
X9200Y3600D02*
X6400Y3600D01*
X6400Y-3600D02*
X-5300Y-3600D01*
X6400Y3600D02*
X-5300Y3600D01*
X9200Y-3600D02*
X9200Y3600D01*
X-5300Y-3600D02*
X-5300Y3600D01*
G54D11*
X1798Y-1798D02*
X1383Y-1383D01*
X2021Y-1576D02*
X1605Y-1160D01*
X2244Y-1353D02*
X1828Y-937D01*
X2467Y-1130D02*
X2051Y-714D01*
X2689Y-907D02*
X2274Y-492D01*
X2912Y-685D02*
X2496Y-269D01*
X1576Y-2021D02*
X1160Y-1605D01*
X1353Y-2244D02*
X937Y-1828D01*
X1130Y-2467D02*
X714Y-2051D01*
X907Y-2689D02*
X492Y-2274D01*
X685Y-2912D02*
X269Y-2496D01*
X-1383Y1383D02*
X-1798Y1798D01*
X-1160Y1605D02*
X-1576Y2021D01*
X-937Y1828D02*
X-1353Y2244D01*
X-714Y2051D02*
X-1130Y2467D01*
X-492Y2274D02*
X-907Y2689D01*
X-269Y2496D02*
X-685Y2912D01*
X-1605Y1160D02*
X-2021Y1576D01*
X-1828Y937D02*
X-2244Y1353D01*
X-2051Y714D02*
X-2467Y1130D01*
X-2274Y492D02*
X-2689Y907D01*
X-2496Y269D02*
X-2912Y685D01*
X1798Y1798D02*
X1383Y1383D01*
X-1383Y-1383D02*
X-1798Y-1798D01*
X1576Y2021D02*
X1160Y1605D01*
X-1605Y-1160D02*
X-2021Y-1576D01*
X-1828Y-937D02*
X-2244Y-1353D01*
X1353Y2244D02*
X937Y1828D01*
X1130Y2467D02*
X714Y2051D01*
X-2051Y-714D02*
X-2467Y-1130D01*
X-2274Y-492D02*
X-2689Y-907D01*
X907Y2689D02*
X492Y2274D01*
X685Y2912D02*
X269Y2496D01*
X-2496Y-269D02*
X-2912Y-685D01*
X-1160Y-1605D02*
X-1576Y-2021D01*
X2021Y1576D02*
X1605Y1160D01*
X2244Y1353D02*
X1828Y937D01*
X-937Y-1828D02*
X-1353Y-2244D01*
X-714Y-2051D02*
X-1130Y-2467D01*
X2467Y1130D02*
X2051Y714D01*
X2689Y907D02*
X2274Y492D01*
X-492Y-2274D02*
X-907Y-2689D01*
X-269Y-2496D02*
X-685Y-2912D01*
X2912Y685D02*
X2496Y269D01*
G54D12*
X-2475Y3050D03*
X-1725Y3050D03*
X-3925Y-2900D03*
X-4675Y-2900D03*
X2425Y3000D03*
X3175Y3000D03*
G54D13*
X4900Y1825D03*
X4900Y2575D03*
X3950Y975D03*
X3950Y1725D03*
X3750Y-375D03*
X3750Y-1125D03*
X4750Y-375D03*
X4750Y-1125D03*
X5550Y-3125D03*
X5550Y-2375D03*
X4550Y-3125D03*
X4550Y-2375D03*
X-4700Y375D03*
X-4700Y-375D03*
G54D12*
X-3925Y-1300D03*
X-4675Y-1300D03*
G54D13*
X3550Y-3125D03*
X3550Y-2375D03*
G54D10*
G36*
X-4463Y1761D02*
X-4783Y2081D01*
X-4394Y2471D01*
X-4073Y2151D01*
X-4463Y1761D01*
X-4463Y1761D01*
G37*
G36*
X-3851Y2373D02*
X-4171Y2694D01*
X-3781Y3083D01*
X-3461Y2763D01*
X-3851Y2373D01*
X-3851Y2373D01*
G37*
G36*
X-4018Y1316D02*
X-4338Y1636D01*
X-3948Y2026D01*
X-3628Y1705D01*
X-4018Y1316D01*
X-4018Y1316D01*
G37*
G36*
X-3405Y1928D02*
X-3726Y2248D01*
X-3336Y2638D01*
X-3016Y2318D01*
X-3405Y1928D01*
X-3405Y1928D01*
G37*
G54D13*
X8550Y-2625D03*
X8550Y-1875D03*
X7550Y-2625D03*
X7550Y-1875D03*
G54D14*
X5843Y-577D03*
X6099Y-577D03*
X6355Y-577D03*
X6611Y-577D03*
X6867Y-577D03*
X7123Y-577D03*
X7377Y-577D03*
X7633Y-577D03*
X7889Y-577D03*
X8145Y-577D03*
X8401Y-577D03*
X8657Y-577D03*
X8657Y2277D03*
X8401Y2277D03*
X8145Y2277D03*
X7889Y2277D03*
X7633Y2277D03*
X7377Y2277D03*
X7123Y2277D03*
X6867Y2277D03*
X6611Y2277D03*
X6355Y2277D03*
X6099Y2277D03*
X5843Y2277D03*
G54D15*
X7920Y1713D03*
X7448Y1710D03*
X7066Y1435D03*
X6867Y2842D03*
X6486Y1713D03*
X6322Y2840D03*
X4381Y2896D03*
X3085Y314D03*
X5309Y-562D03*
X5514Y-1544D03*
X6869Y-1141D03*
X6762Y49D03*
X6654Y-1894D03*
X4871Y478D03*
X7632Y0D03*
X7859Y-1148D03*
X1850Y2550D03*
X1698Y3130D03*
X1345Y361D03*
X1008Y3086D03*
X-1933Y-2151D03*
X-2406Y-2333D03*
X532Y-358D03*
X567Y359D03*
X-10Y-2729D03*
X-1356Y-2740D03*
X-2957Y1748D03*
X-1364Y896D03*
X-3150Y3320D03*
X-721Y266D03*
X-3000Y1095D03*
X-812Y-648D03*
X-1406Y137D03*
X-972Y-1113D03*
X-2480Y-1614D03*
X2955Y-214D03*
X2498Y-1607D03*
X1874Y-354D03*
X2080Y-2012D03*
X1359Y-361D03*
X1749Y-2348D03*
X1380Y-2717D03*
X-230Y3103D03*
X3320Y2263D03*
X8038Y929D03*
X5682Y929D03*
X4833Y1299D03*
X6317Y-2226D03*
X8635Y1361D03*
X-3274Y-469D03*
X-3767Y-24D03*
X-1625Y2478D03*
X-3632Y1319D03*
X-3962Y-1843D03*
X-2752Y-2900D03*
X-1719Y-3044D03*
X-861Y1176D03*
X-4820Y819D03*
X2979Y-2678D03*
X-4105Y3308D03*
X-3286Y-941D03*
X8415Y122D03*
X8537Y-3079D03*
X5301Y-1039D03*
G54D16*
X7632Y2000D02*
X7632Y2277D01*
X7920Y1713D02*
X7632Y2000D01*
X7377Y1782D02*
X7448Y1710D01*
X7377Y2277D02*
X7377Y1782D01*
X7122Y2277D02*
X7122Y1875D01*
X7066Y1819D02*
X7066Y1435D01*
X7122Y1875D02*
X7066Y1819D01*
X6867Y2842D02*
X6867Y2277D01*
X6610Y2277D02*
X6610Y1875D01*
X6610Y1837D02*
X6486Y1713D01*
X6610Y1875D02*
X6610Y1837D01*
X6355Y2807D02*
X6322Y2840D01*
X6355Y2277D02*
X6355Y2807D01*
X5767Y2896D02*
X4381Y2896D01*
X6099Y2564D02*
X5767Y2896D01*
X6099Y2277D02*
X6099Y2564D01*
X5842Y2277D02*
X5842Y1875D01*
X4016Y314D02*
X3085Y314D01*
X4668Y966D02*
X4016Y314D01*
X4934Y966D02*
X4668Y966D01*
X5842Y1875D02*
X4934Y966D01*
X6099Y-577D02*
X6099Y-978D01*
X6063Y-1013D02*
X6099Y-978D01*
X5722Y-1013D02*
X6063Y-1013D01*
X5309Y-601D02*
X5722Y-1013D01*
X5309Y-562D02*
X5309Y-601D01*
X6355Y-577D02*
X6355Y-978D01*
X5789Y-1544D02*
X5514Y-1544D01*
X6355Y-978D02*
X5789Y-1544D01*
X6610Y-577D02*
X6610Y-978D01*
X6705Y-978D02*
X6610Y-978D01*
X6869Y-1141D02*
X6705Y-978D01*
X6867Y-55D02*
X6762Y49D01*
X6867Y-577D02*
X6867Y-55D01*
X7172Y-1376D02*
X6654Y-1894D01*
X7172Y-626D02*
X7172Y-1376D01*
X7122Y-577D02*
X7172Y-626D01*
X7377Y-577D02*
X7377Y-175D01*
X4980Y369D02*
X4871Y478D01*
X6871Y369D02*
X4980Y369D01*
X7065Y174D02*
X6871Y369D01*
X7065Y135D02*
X7065Y174D01*
X7377Y-175D02*
X7065Y135D01*
X7632Y0D02*
X7632Y-577D01*
X7889Y-1119D02*
X7889Y-577D01*
X7859Y-1148D02*
X7889Y-1119D01*
X1145Y2095D02*
X1145Y2036D01*
X1600Y2550D02*
X1145Y2095D01*
X1850Y2550D02*
X1600Y2550D01*
X922Y2354D02*
X922Y2259D01*
X1698Y3130D02*
X922Y2354D01*
X528Y1974D02*
X360Y2142D01*
X528Y1178D02*
X528Y1974D01*
X1345Y361D02*
X528Y1178D01*
X700Y2481D02*
X360Y2142D01*
X859Y3086D02*
X477Y2704D01*
X1008Y3086D02*
X859Y3086D01*
X-1933Y-1933D02*
X-1933Y-2151D01*
X-1590Y-1590D02*
X-1933Y-1933D01*
X-1630Y-2075D02*
X-1368Y-1813D01*
X-1630Y-2283D02*
X-1630Y-2075D01*
X-1818Y-2471D02*
X-1630Y-2283D01*
X-2268Y-2471D02*
X-1818Y-2471D01*
X-2406Y-2333D02*
X-2268Y-2471D01*
X-1145Y-2036D02*
X532Y-358D01*
X364Y562D02*
X567Y359D01*
X364Y1862D02*
X364Y562D01*
X-477Y2704D02*
X364Y1862D01*
X-922Y-2259D02*
X-582Y-1919D01*
X-64Y-2675D02*
X-10Y-2729D01*
X-64Y-2438D02*
X-64Y-2675D01*
X-528Y-1974D02*
X-64Y-2438D01*
X-528Y-1974D02*
X-528Y-1974D01*
X-582Y-1919D02*
X-528Y-1974D01*
X-700Y-2481D02*
X-1039Y-2821D01*
X-1121Y-2740D02*
X-1356Y-2740D01*
X-1039Y-2821D02*
X-1121Y-2740D01*
X8400Y-577D02*
X8400Y-978D01*
X7550Y-1779D02*
X7550Y-1593D01*
X-2193Y1748D02*
X-2957Y1748D01*
X-1813Y1368D02*
X-2193Y1748D01*
X-2957Y1748D02*
X-2957Y1748D01*
X7550Y-1779D02*
X7550Y-1875D01*
X7550Y-1875D02*
X7550Y-2156D01*
X7368Y-2156D02*
X7550Y-2156D01*
X6095Y-3429D02*
X7368Y-2156D01*
X-1788Y-3429D02*
X6095Y-3429D01*
X-3597Y-1620D02*
X-1788Y-3429D01*
X-3597Y-294D02*
X-3597Y-1620D01*
X-3328Y-25D02*
X-3597Y-294D01*
X-3328Y1376D02*
X-3328Y-25D01*
X-2957Y1748D02*
X-3328Y1376D01*
X8400Y-1036D02*
X8400Y-978D01*
X7844Y-1593D02*
X8400Y-1036D01*
X7550Y-1593D02*
X7844Y-1593D01*
X8550Y-1875D02*
X8550Y-1593D01*
X8657Y-1486D02*
X8657Y-577D01*
X8550Y-1593D02*
X8657Y-1486D01*
X8657Y-577D02*
X8657Y-175D01*
X-3031Y3439D02*
X-3150Y3320D01*
X8150Y3439D02*
X-3031Y3439D01*
X8946Y2642D02*
X8150Y3439D01*
X8946Y114D02*
X8946Y2642D01*
X8657Y-175D02*
X8946Y114D01*
X-1606Y896D02*
X-1364Y896D01*
X-1696Y805D02*
X-1606Y896D01*
X-2036Y1145D02*
X-1696Y805D01*
X-1896Y560D02*
X-2259Y922D01*
X-1015Y560D02*
X-1896Y560D01*
X-721Y266D02*
X-1015Y560D01*
X-2481Y700D02*
X-2821Y1039D01*
X-2945Y1039D02*
X-2821Y1039D01*
X-3000Y1095D02*
X-2945Y1039D01*
X-1854Y-648D02*
X-812Y-648D01*
X-1919Y-582D02*
X-1854Y-648D01*
X-2259Y-922D02*
X-1919Y-582D01*
X-2704Y477D02*
X-2364Y137D01*
X-1406Y137D02*
X-2364Y137D01*
X-2036Y-1145D02*
X-1696Y-805D01*
X-1279Y-805D02*
X-972Y-1113D01*
X-1696Y-805D02*
X-1279Y-805D01*
X-1813Y-1368D02*
X-2153Y-1707D01*
X-2246Y-1614D02*
X-2480Y-1614D01*
X-2153Y-1707D02*
X-2246Y-1614D01*
X2704Y477D02*
X2364Y137D01*
X2716Y-214D02*
X2364Y137D01*
X2955Y-214D02*
X2716Y-214D01*
X2498Y-1607D02*
X2036Y-1145D01*
X1632Y-1186D02*
X1813Y-1368D01*
X1632Y-596D02*
X1632Y-1186D01*
X1874Y-354D02*
X1632Y-596D01*
X1998Y-1930D02*
X1930Y-1930D01*
X2080Y-2012D02*
X1998Y-1930D01*
X1590Y-1590D02*
X1930Y-1930D01*
X1368Y-1813D02*
X1028Y-1473D01*
X1359Y-361D02*
X1359Y-361D01*
X1359Y-1143D02*
X1359Y-361D01*
X1028Y-1473D02*
X1359Y-1143D01*
X1513Y-2348D02*
X1485Y-2376D01*
X1749Y-2348D02*
X1513Y-2348D01*
X1145Y-2036D02*
X1485Y-2376D01*
X1380Y-2717D02*
X922Y-2259D01*
X-784Y3103D02*
X-230Y3103D01*
X-1052Y2834D02*
X-784Y3103D01*
X-1268Y3050D02*
X-1052Y2834D01*
X-1725Y3050D02*
X-1268Y3050D01*
X-1052Y2834D02*
X-700Y2481D01*
X3477Y2106D02*
X4900Y2106D01*
X3320Y2263D02*
X3477Y2106D01*
X4900Y1825D02*
X4900Y2106D01*
X8038Y929D02*
X5682Y929D01*
X4274Y1299D02*
X4833Y1299D01*
X3950Y975D02*
X4274Y1299D01*
G54D17*
X2168Y1723D02*
X2173Y1723D01*
X2871Y3000D02*
X2871Y2801D01*
X2871Y3000D02*
X3175Y3000D01*
X2750Y2679D02*
X2871Y2801D01*
X2750Y2300D02*
X2750Y2679D01*
X2173Y1723D02*
X2750Y2300D01*
X8657Y2700D02*
X8135Y3221D01*
X8135Y3221D02*
X3699Y3221D01*
X3699Y3221D02*
X3478Y3000D01*
X3326Y3000D02*
X3175Y3000D01*
X8657Y2277D02*
X8657Y1382D01*
X8657Y1382D02*
X8635Y1361D01*
X8657Y2488D02*
X8657Y2277D01*
X8657Y2488D02*
X8657Y2700D01*
X3326Y3000D02*
X3478Y3000D01*
X5550Y-2375D02*
X5550Y-2678D01*
X5842Y-577D02*
X5842Y-153D01*
X-3915Y2173D02*
X-4143Y2401D01*
X-3831Y2173D02*
X-3915Y2173D01*
X-3656Y1998D02*
X-3831Y2173D01*
X-4428Y2116D02*
X-4143Y2401D01*
X-3446Y2208D02*
X-3656Y1998D01*
X-3446Y2208D02*
X-3371Y2283D01*
X-3371Y2283D02*
X-3085Y2568D01*
X-4675Y-703D02*
X-4675Y-1300D01*
X-4700Y-678D02*
X-4675Y-703D01*
X-4675Y-1300D02*
X-4675Y-2900D01*
X4550Y-2375D02*
X5550Y-2375D01*
X4750Y-1125D02*
X4750Y-1428D01*
X700Y-2481D02*
X1055Y-2837D01*
X3750Y-1125D02*
X3750Y-973D01*
X3750Y-973D02*
X3750Y-821D01*
X2918Y-973D02*
X2837Y-1055D01*
X3750Y-973D02*
X2918Y-973D01*
X2481Y-700D02*
X2837Y-1055D01*
X-4700Y-375D02*
X-4700Y-526D01*
X-4700Y-526D02*
X-4700Y-678D01*
X-4428Y2116D02*
X-4714Y1831D01*
X-3767Y-24D02*
X-4295Y-24D01*
X-4295Y-121D02*
X-4295Y-24D01*
X-4700Y-526D02*
X-4295Y-121D01*
X-4714Y1529D02*
X-4714Y1831D01*
X-4295Y1110D02*
X-4714Y1529D01*
X-4295Y-24D02*
X-4295Y1110D01*
X-1145Y2036D02*
X-1500Y2391D01*
X-1715Y2568D02*
X-1625Y2478D01*
X-3085Y2568D02*
X-1715Y2568D01*
X-1538Y2391D02*
X-1625Y2478D01*
X-1500Y2391D02*
X-1538Y2391D01*
X-1500Y2391D02*
X-1500Y2391D01*
X3750Y-1125D02*
X3750Y-1428D01*
X-3265Y-477D02*
X-3274Y-469D01*
X-2704Y-477D02*
X-3265Y-477D01*
X1813Y1368D02*
X2168Y1723D01*
X2168Y1723D02*
X2168Y1723D01*
X1055Y-2865D02*
X1055Y-2837D01*
X1240Y-3050D02*
X1055Y-2865D01*
X2115Y-3050D02*
X1240Y-3050D01*
X2813Y-2353D02*
X2115Y-3050D01*
X3125Y-2353D02*
X2813Y-2353D01*
X3146Y-2375D02*
X3125Y-2353D01*
X3550Y-2375D02*
X3146Y-2375D01*
X3824Y-1502D02*
X3750Y-1428D01*
X3824Y-2375D02*
X3824Y-1502D01*
X3550Y-2375D02*
X3824Y-2375D01*
X3824Y-2375D02*
X4550Y-2375D01*
X5760Y-71D02*
X5842Y-153D01*
X4409Y-71D02*
X5760Y-71D01*
X4346Y-134D02*
X4409Y-71D01*
X4346Y-446D02*
X4346Y-134D01*
X3971Y-821D02*
X4346Y-446D01*
X3750Y-821D02*
X3971Y-821D01*
X5644Y-2583D02*
X5550Y-2678D01*
X5644Y-2322D02*
X5644Y-2583D01*
X4750Y-1428D02*
X5644Y-2322D01*
X6221Y-2322D02*
X6317Y-2226D01*
X5644Y-2322D02*
X6221Y-2322D01*
G54D16*
X-1368Y1813D02*
X-1707Y2153D01*
X-3983Y1671D02*
X-3865Y1553D01*
X-1802Y2058D02*
X-1707Y2153D01*
X-3114Y2058D02*
X-1802Y2058D01*
X-3742Y1430D02*
X-3114Y2058D01*
X-3865Y1553D02*
X-3742Y1430D01*
X-3742Y1430D02*
X-3632Y1319D01*
X-3925Y-1805D02*
X-3962Y-1843D01*
X-3925Y-1300D02*
X-3925Y-1805D01*
X1875Y1875D02*
X2400Y2400D01*
X2400Y2975D02*
X2425Y3000D01*
X2400Y2400D02*
X2400Y2975D01*
X1590Y1590D02*
X1875Y1875D01*
X4900Y2575D02*
X4518Y2575D01*
X3017Y2126D02*
X2036Y1145D01*
X3017Y2389D02*
X3017Y2126D01*
X3202Y2575D02*
X3017Y2389D01*
X4518Y2575D02*
X3202Y2575D01*
X3950Y1725D02*
X3950Y1443D01*
X3768Y1262D02*
X3950Y1443D01*
X2598Y1262D02*
X3768Y1262D01*
X2259Y922D02*
X2598Y1262D01*
X-477Y-2704D02*
X-817Y-3044D01*
X-1719Y-3044D02*
X-817Y-3044D01*
X-3925Y-2900D02*
X-2752Y-2900D01*
X-3816Y2728D02*
X-4051Y2964D01*
X-4700Y375D02*
X-4700Y656D01*
X-1176Y1176D02*
X-861Y1176D01*
X-1590Y1590D02*
X-1176Y1176D01*
X-4820Y776D02*
X-4700Y656D01*
X-4820Y819D02*
X-4820Y776D01*
X-4912Y912D02*
X-4820Y819D01*
X-4912Y2142D02*
X-4912Y912D01*
X-4326Y2728D02*
X-4912Y2142D01*
X-4287Y2728D02*
X-4326Y2728D01*
X-4051Y2964D02*
X-4287Y2728D01*
G54D17*
X3348Y-3125D02*
X3146Y-3125D01*
X3348Y-3125D02*
X3550Y-3125D01*
X3550Y-3125D02*
X4550Y-3125D01*
X4550Y-3125D02*
X5550Y-3125D01*
X-3645Y3308D02*
X-4105Y3308D01*
X-3331Y2994D02*
X-3645Y3308D01*
X-2834Y2994D02*
X-3331Y2994D01*
X-2778Y3050D02*
X-2834Y2994D01*
X-2475Y3050D02*
X-2778Y3050D01*
X2481Y700D02*
X2126Y345D01*
X1368Y1813D02*
X1013Y1458D01*
X2051Y420D02*
X2051Y420D01*
X2126Y345D02*
X2051Y420D01*
X2051Y420D02*
X1013Y1458D01*
X2051Y420D02*
X2051Y420D01*
X-922Y2259D02*
X-567Y1904D01*
X477Y-2704D02*
X122Y-2349D01*
X262Y-2209D02*
X122Y-2349D01*
X262Y-1445D02*
X262Y-2209D01*
X880Y-827D02*
X262Y-1445D01*
X880Y24D02*
X880Y-827D01*
X-2481Y-700D02*
X-2837Y-1055D01*
X7550Y-2625D02*
X8550Y-2625D01*
X-2950Y-941D02*
X-3286Y-941D01*
X-2837Y-1055D02*
X-2950Y-941D01*
X2033Y402D02*
X2033Y194D01*
X2051Y420D02*
X2033Y402D01*
X2033Y194D02*
X2704Y-477D01*
X8550Y-3066D02*
X8537Y-3079D01*
X8550Y-2625D02*
X8550Y-3066D01*
X4750Y-375D02*
X4750Y-678D01*
X4939Y-678D02*
X4750Y-678D01*
X5301Y-1039D02*
X4939Y-678D01*
X3094Y-3073D02*
X3018Y-3073D01*
X3146Y-3125D02*
X3094Y-3073D01*
X1000Y-3228D02*
X477Y-2704D01*
X2863Y-3228D02*
X1000Y-3228D01*
X3018Y-3073D02*
X2863Y-3228D01*
X8145Y-37D02*
X8305Y122D01*
X8145Y-577D02*
X8145Y-37D01*
X8305Y122D02*
X8415Y122D01*
X1864Y24D02*
X880Y24D01*
X2033Y194D02*
X1864Y24D01*
X3018Y-2718D02*
X2979Y-2678D01*
X3018Y-3073D02*
X3018Y-2718D01*
X3750Y-375D02*
X3750Y-316D01*
X3750Y-316D02*
X3750Y-223D01*
X-567Y1904D02*
X-567Y1904D01*
X-567Y1342D02*
X-567Y1904D01*
X-536Y1311D02*
X-567Y1342D01*
X-536Y541D02*
X-536Y1311D01*
X-396Y401D02*
X-536Y541D01*
X-396Y117D02*
X-396Y401D01*
X-2000Y-219D02*
X-2481Y-700D01*
X-732Y-219D02*
X-2000Y-219D01*
X-396Y117D02*
X-732Y-219D01*
X-304Y24D02*
X-396Y117D01*
X880Y24D02*
X-304Y24D01*
X3434Y-538D02*
X3750Y-223D01*
X2766Y-538D02*
X3434Y-538D01*
X2704Y-477D02*
X2766Y-538D01*
X8400Y1586D02*
X8400Y2277D01*
X8305Y1490D02*
X8400Y1586D01*
X8305Y1122D02*
X8305Y1490D01*
X8363Y1063D02*
X8305Y1122D01*
X8363Y661D02*
X8363Y1063D01*
X8266Y564D02*
X8363Y661D01*
X8305Y525D02*
X8266Y564D01*
X8305Y122D02*
X8305Y525D01*
X3750Y-183D02*
X3750Y-223D01*
X4736Y803D02*
X3750Y-183D01*
X5005Y803D02*
X4736Y803D01*
X5244Y564D02*
X5005Y803D01*
X8266Y564D02*
X5244Y564D01*
G54D10*
G36*
X-4352Y2110D02*
X-4423Y2040D01*
X-4428Y2045D01*
X-4434Y2040D01*
X-4505Y2110D01*
X-4499Y2116D01*
X-4505Y2122D01*
X-4434Y2192D01*
X-4428Y2187D01*
X-4423Y2192D01*
X-4352Y2122D01*
X-4358Y2116D01*
X-4352Y2110D01*
X-4352Y2110D01*
G37*
G54D18*
X-4352Y2110D02*
X-4423Y2040D01*
X-4428Y2045D01*
X-4434Y2040D01*
X-4505Y2110D01*
X-4499Y2116D01*
X-4505Y2122D01*
X-4434Y2192D01*
X-4428Y2187D01*
X-4423Y2192D01*
X-4352Y2122D01*
X-4358Y2116D01*
X-4352Y2110D01*
G54D10*
G36*
X-3052Y-2568D02*
X-3098Y-2614D01*
X-3499Y-2614D01*
X-3499Y-2575D01*
X-3537Y-2483D01*
X-3608Y-2413D01*
X-3700Y-2375D01*
X-3799Y-2374D01*
X-4149Y-2374D01*
X-4241Y-2412D01*
X-4300Y-2471D01*
X-4358Y-2412D01*
X-4450Y-2374D01*
X-4562Y-2375D01*
X-4625Y-2437D01*
X-4625Y-2850D01*
X-4617Y-2850D01*
X-4617Y-2950D01*
X-4625Y-2950D01*
X-4625Y-2957D01*
X-4725Y-2957D01*
X-4725Y-2950D01*
X-4732Y-2950D01*
X-4732Y-2850D01*
X-4725Y-2850D01*
X-4725Y-2437D01*
X-4787Y-2375D01*
X-4899Y-2374D01*
X-4991Y-2412D01*
X-5005Y-2426D01*
X-5005Y-1773D01*
X-4991Y-1787D01*
X-4899Y-1825D01*
X-4787Y-1825D01*
X-4725Y-1762D01*
X-4725Y-1350D01*
X-4732Y-1350D01*
X-4732Y-1250D01*
X-4725Y-1250D01*
X-4725Y-837D01*
X-4787Y-775D01*
X-4750Y-737D01*
X-4750Y-425D01*
X-4757Y-425D01*
X-4757Y-325D01*
X-4750Y-325D01*
X-4750Y-317D01*
X-4650Y-317D01*
X-4650Y-325D01*
X-4237Y-325D01*
X-4175Y-262D01*
X-4174Y-150D01*
X-4212Y-58D01*
X-4271Y0D01*
X-4213Y58D01*
X-4175Y150D01*
X-4174Y249D01*
X-4174Y599D01*
X-4212Y691D01*
X-4283Y761D01*
X-4373Y799D01*
X-4373Y908D01*
X-4441Y1072D01*
X-4566Y1198D01*
X-4627Y1223D01*
X-4627Y1571D01*
X-4604Y1549D01*
X-4566Y1533D01*
X-4550Y1495D01*
X-4480Y1424D01*
X-4159Y1104D01*
X-4068Y1066D01*
X-4010Y1066D01*
X-3885Y941D01*
X-3721Y873D01*
X-3614Y872D01*
X-3614Y92D01*
X-3799Y-92D01*
X-3861Y-184D01*
X-3864Y-203D01*
X-3882Y-294D01*
X-3882Y-774D01*
X-4149Y-774D01*
X-4241Y-812D01*
X-4300Y-871D01*
X-4358Y-812D01*
X-4389Y-799D01*
X-4375Y-799D01*
X-4283Y-761D01*
X-4212Y-691D01*
X-4174Y-599D01*
X-4175Y-487D01*
X-4237Y-425D01*
X-4650Y-425D01*
X-4650Y-737D01*
X-4587Y-800D01*
X-4625Y-837D01*
X-4625Y-1250D01*
X-4617Y-1250D01*
X-4617Y-1350D01*
X-4625Y-1350D01*
X-4625Y-1762D01*
X-4562Y-1825D01*
X-4450Y-1825D01*
X-4409Y-1808D01*
X-4409Y-1932D01*
X-4341Y-2096D01*
X-4216Y-2222D01*
X-4052Y-2290D01*
X-3874Y-2290D01*
X-3710Y-2222D01*
X-3584Y-2097D01*
X-3566Y-2054D01*
X-3052Y-2568D01*
X-3052Y-2568D01*
G37*
G54D18*
X-3052Y-2568D02*
X-3098Y-2614D01*
X-3499Y-2614D01*
X-3499Y-2575D01*
X-3537Y-2483D01*
X-3608Y-2413D01*
X-3700Y-2375D01*
X-3799Y-2374D01*
X-4149Y-2374D01*
X-4241Y-2412D01*
X-4300Y-2471D01*
X-4358Y-2412D01*
X-4450Y-2374D01*
X-4562Y-2375D01*
X-4625Y-2437D01*
X-4625Y-2850D01*
X-4617Y-2850D01*
X-4617Y-2950D01*
X-4625Y-2950D01*
X-4625Y-2957D01*
X-4725Y-2957D01*
X-4725Y-2950D01*
X-4732Y-2950D01*
X-4732Y-2850D01*
X-4725Y-2850D01*
X-4725Y-2437D01*
X-4787Y-2375D01*
X-4899Y-2374D01*
X-4991Y-2412D01*
X-5005Y-2426D01*
X-5005Y-1773D01*
X-4991Y-1787D01*
X-4899Y-1825D01*
X-4787Y-1825D01*
X-4725Y-1762D01*
X-4725Y-1350D01*
X-4732Y-1350D01*
X-4732Y-1250D01*
X-4725Y-1250D01*
X-4725Y-837D01*
X-4787Y-775D01*
X-4750Y-737D01*
X-4750Y-425D01*
X-4757Y-425D01*
X-4757Y-325D01*
X-4750Y-325D01*
X-4750Y-317D01*
X-4650Y-317D01*
X-4650Y-325D01*
X-4237Y-325D01*
X-4175Y-262D01*
X-4174Y-150D01*
X-4212Y-58D01*
X-4271Y0D01*
X-4213Y58D01*
X-4175Y150D01*
X-4174Y249D01*
X-4174Y599D01*
X-4212Y691D01*
X-4283Y761D01*
X-4373Y799D01*
X-4373Y908D01*
X-4441Y1072D01*
X-4566Y1198D01*
X-4627Y1223D01*
X-4627Y1571D01*
X-4604Y1549D01*
X-4566Y1533D01*
X-4550Y1495D01*
X-4480Y1424D01*
X-4159Y1104D01*
X-4068Y1066D01*
X-4010Y1066D01*
X-3885Y941D01*
X-3721Y873D01*
X-3614Y872D01*
X-3614Y92D01*
X-3799Y-92D01*
X-3861Y-184D01*
X-3864Y-203D01*
X-3882Y-294D01*
X-3882Y-774D01*
X-4149Y-774D01*
X-4241Y-812D01*
X-4300Y-871D01*
X-4358Y-812D01*
X-4389Y-799D01*
X-4375Y-799D01*
X-4283Y-761D01*
X-4212Y-691D01*
X-4174Y-599D01*
X-4175Y-487D01*
X-4237Y-425D01*
X-4650Y-425D01*
X-4650Y-737D01*
X-4587Y-800D01*
X-4625Y-837D01*
X-4625Y-1250D01*
X-4617Y-1250D01*
X-4617Y-1350D01*
X-4625Y-1350D01*
X-4625Y-1762D01*
X-4562Y-1825D01*
X-4450Y-1825D01*
X-4409Y-1808D01*
X-4409Y-1932D01*
X-4341Y-2096D01*
X-4216Y-2222D01*
X-4052Y-2290D01*
X-3874Y-2290D01*
X-3710Y-2222D01*
X-3584Y-2097D01*
X-3566Y-2054D01*
X-3052Y-2568D01*
G54D10*
G36*
X-2674Y-425D02*
X-2756Y-507D01*
X-2773Y-489D01*
X-2768Y-484D01*
X-2973Y-279D01*
X-3181Y-487D01*
X-3186Y-499D01*
X-3197Y-494D01*
X-3312Y-494D01*
X-3312Y-412D01*
X-3127Y-227D01*
X-3127Y-227D01*
X-3065Y-134D01*
X-3065Y-134D01*
X-3065Y-134D01*
X-3043Y-25D01*
X-3043Y-25D01*
X-3043Y349D01*
X-2721Y27D01*
X-2685Y3D01*
X-2694Y0D01*
X-2902Y-208D01*
X-2697Y-413D01*
X-2692Y-408D01*
X-2674Y-425D01*
X-2674Y-425D01*
G37*
G54D18*
X-2674Y-425D02*
X-2756Y-507D01*
X-2773Y-489D01*
X-2768Y-484D01*
X-2973Y-279D01*
X-3181Y-487D01*
X-3186Y-499D01*
X-3197Y-494D01*
X-3312Y-494D01*
X-3312Y-412D01*
X-3127Y-227D01*
X-3127Y-227D01*
X-3065Y-134D01*
X-3065Y-134D01*
X-3065Y-134D01*
X-3043Y-25D01*
X-3043Y-25D01*
X-3043Y349D01*
X-2721Y27D01*
X-2685Y3D01*
X-2694Y0D01*
X-2902Y-208D01*
X-2697Y-413D01*
X-2692Y-408D01*
X-2674Y-425D01*
G54D10*
G36*
X-1415Y2306D02*
X-1458Y2335D01*
X-1492Y2341D01*
X-1506Y2355D01*
X-1550Y2385D01*
X-1550Y2385D01*
X-1568Y2403D01*
X-1577Y2403D01*
X-1577Y2403D01*
X-1598Y2417D01*
X-1707Y2438D01*
X-1707Y2438D01*
X-1729Y2434D01*
X-1817Y2417D01*
X-1847Y2396D01*
X-1909Y2355D01*
X-1921Y2343D01*
X-2766Y2343D01*
X-2766Y2367D01*
X-2804Y2459D01*
X-2874Y2529D01*
X-2919Y2575D01*
X-3008Y2575D01*
X-3300Y2283D01*
X-3294Y2277D01*
X-3305Y2267D01*
X-3315Y2260D01*
X-3367Y2208D01*
X-3371Y2212D01*
X-3376Y2207D01*
X-3447Y2277D01*
X-3441Y2283D01*
X-3447Y2289D01*
X-3376Y2359D01*
X-3371Y2354D01*
X-3079Y2646D01*
X-3079Y2694D01*
X-2887Y2694D01*
X-2862Y2633D01*
X-2791Y2563D01*
X-2699Y2525D01*
X-2600Y2524D01*
X-2250Y2524D01*
X-2158Y2562D01*
X-2099Y2621D01*
X-2041Y2563D01*
X-1949Y2525D01*
X-1850Y2524D01*
X-1513Y2524D01*
X-1512Y2459D01*
X-1454Y2402D01*
X-1444Y2349D01*
X-1415Y2306D01*
X-1415Y2306D01*
G37*
G54D18*
X-1415Y2306D02*
X-1458Y2335D01*
X-1492Y2341D01*
X-1506Y2355D01*
X-1550Y2385D01*
X-1550Y2385D01*
X-1568Y2403D01*
X-1577Y2403D01*
X-1577Y2403D01*
X-1598Y2417D01*
X-1707Y2438D01*
X-1707Y2438D01*
X-1729Y2434D01*
X-1817Y2417D01*
X-1847Y2396D01*
X-1909Y2355D01*
X-1921Y2343D01*
X-2766Y2343D01*
X-2766Y2367D01*
X-2804Y2459D01*
X-2874Y2529D01*
X-2919Y2575D01*
X-3008Y2575D01*
X-3300Y2283D01*
X-3294Y2277D01*
X-3305Y2267D01*
X-3315Y2260D01*
X-3367Y2208D01*
X-3371Y2212D01*
X-3376Y2207D01*
X-3447Y2277D01*
X-3441Y2283D01*
X-3447Y2289D01*
X-3376Y2359D01*
X-3371Y2354D01*
X-3079Y2646D01*
X-3079Y2694D01*
X-2887Y2694D01*
X-2862Y2633D01*
X-2791Y2563D01*
X-2699Y2525D01*
X-2600Y2524D01*
X-2250Y2524D01*
X-2158Y2562D01*
X-2099Y2621D01*
X-2041Y2563D01*
X-1949Y2525D01*
X-1850Y2524D01*
X-1513Y2524D01*
X-1512Y2459D01*
X-1454Y2402D01*
X-1444Y2349D01*
X-1415Y2306D01*
G54D10*
G36*
X2801Y2570D02*
X2753Y2498D01*
X2749Y2480D01*
X2731Y2389D01*
X2731Y2244D01*
X2161Y1673D01*
X2126Y1666D01*
X2083Y1638D01*
X2112Y1681D01*
X2119Y1715D01*
X2601Y2198D01*
X2601Y2198D01*
X2663Y2290D01*
X2663Y2290D01*
X2663Y2290D01*
X2685Y2399D01*
X2685Y2400D01*
X2685Y2489D01*
X2741Y2512D01*
X2800Y2571D01*
X2801Y2570D01*
X2801Y2570D01*
G37*
G54D18*
X2801Y2570D02*
X2753Y2498D01*
X2749Y2480D01*
X2731Y2389D01*
X2731Y2244D01*
X2161Y1673D01*
X2126Y1666D01*
X2083Y1638D01*
X2112Y1681D01*
X2119Y1715D01*
X2601Y2198D01*
X2601Y2198D01*
X2663Y2290D01*
X2663Y2290D01*
X2663Y2290D01*
X2685Y2399D01*
X2685Y2400D01*
X2685Y2489D01*
X2741Y2512D01*
X2800Y2571D01*
X2801Y2570D01*
G54D10*
G36*
X4007Y3153D02*
X4003Y3149D01*
X3935Y2985D01*
X3935Y2860D01*
X3600Y2860D01*
X3600Y2887D01*
X3537Y2950D01*
X3225Y2950D01*
X3225Y2942D01*
X3125Y2942D01*
X3125Y2950D01*
X3117Y2950D01*
X3117Y3050D01*
X3125Y3050D01*
X3125Y3057D01*
X3225Y3057D01*
X3225Y3050D01*
X3537Y3050D01*
X3600Y3112D01*
X3600Y3153D01*
X4007Y3153D01*
X4007Y3153D01*
G37*
G54D18*
X4007Y3153D02*
X4003Y3149D01*
X3935Y2985D01*
X3935Y2860D01*
X3600Y2860D01*
X3600Y2887D01*
X3537Y2950D01*
X3225Y2950D01*
X3225Y2942D01*
X3125Y2942D01*
X3125Y2950D01*
X3117Y2950D01*
X3117Y3050D01*
X3125Y3050D01*
X3125Y3057D01*
X3225Y3057D01*
X3225Y3050D01*
X3537Y3050D01*
X3600Y3112D01*
X3600Y3153D01*
X4007Y3153D01*
G54D10*
G36*
X6806Y-2314D02*
X6075Y-3046D01*
X6075Y-2900D01*
X6037Y-2808D01*
X5978Y-2750D01*
X6037Y-2691D01*
X6075Y-2599D01*
X6075Y-2487D01*
X6012Y-2425D01*
X5600Y-2425D01*
X5600Y-2432D01*
X5500Y-2432D01*
X5500Y-2425D01*
X5087Y-2425D01*
X5050Y-2462D01*
X5012Y-2425D01*
X4600Y-2425D01*
X4600Y-2432D01*
X4500Y-2432D01*
X4500Y-2425D01*
X4500Y-2325D01*
X4500Y-2012D01*
X4437Y-1950D01*
X4324Y-1949D01*
X4225Y-1950D01*
X4133Y-1988D01*
X4062Y-2058D01*
X4050Y-2089D01*
X4037Y-2058D01*
X3966Y-1988D01*
X3874Y-1950D01*
X3775Y-1949D01*
X3700Y-1949D01*
X3700Y-1487D01*
X3700Y-1175D01*
X3287Y-1175D01*
X3225Y-1237D01*
X3224Y-1349D01*
X3262Y-1441D01*
X3333Y-1511D01*
X3425Y-1549D01*
X3524Y-1550D01*
X3637Y-1550D01*
X3700Y-1487D01*
X3700Y-1949D01*
X3662Y-1950D01*
X3600Y-2012D01*
X3600Y-2325D01*
X4012Y-2325D01*
X4050Y-2287D01*
X4087Y-2325D01*
X4500Y-2325D01*
X4500Y-2425D01*
X4087Y-2425D01*
X4050Y-2462D01*
X4012Y-2425D01*
X3600Y-2425D01*
X3600Y-2432D01*
X3500Y-2432D01*
X3500Y-2425D01*
X3492Y-2425D01*
X3492Y-2325D01*
X3500Y-2325D01*
X3500Y-2012D01*
X3437Y-1950D01*
X3324Y-1949D01*
X3225Y-1950D01*
X3133Y-1988D01*
X3062Y-2058D01*
X3024Y-2150D01*
X3024Y-2231D01*
X2890Y-2231D01*
X2726Y-2299D01*
X2600Y-2425D01*
X2532Y-2589D01*
X2532Y-2767D01*
X2599Y-2928D01*
X1776Y-2928D01*
X1827Y-2806D01*
X1827Y-2795D01*
X1837Y-2795D01*
X2001Y-2727D01*
X2127Y-2601D01*
X2190Y-2450D01*
X2333Y-2391D01*
X2458Y-2265D01*
X2527Y-2101D01*
X2527Y-2054D01*
X2586Y-2054D01*
X2751Y-1986D01*
X2876Y-1860D01*
X2945Y-1696D01*
X2945Y-1518D01*
X2877Y-1354D01*
X2781Y-1258D01*
X2789Y-1219D01*
X2850Y-1196D01*
X2848Y-1123D01*
X2791Y-1065D01*
X2780Y-1013D01*
X2751Y-969D01*
X2794Y-998D01*
X2847Y-1009D01*
X2905Y-1066D01*
X2978Y-1068D01*
X3000Y-1007D01*
X3047Y-998D01*
X3154Y-927D01*
X3214Y-838D01*
X3250Y-838D01*
X3224Y-900D01*
X3225Y-1012D01*
X3287Y-1075D01*
X3700Y-1075D01*
X3700Y-1067D01*
X3800Y-1067D01*
X3800Y-1075D01*
X4212Y-1075D01*
X4250Y-1037D01*
X4287Y-1075D01*
X4700Y-1075D01*
X4700Y-1067D01*
X4800Y-1067D01*
X4800Y-1075D01*
X4807Y-1075D01*
X4807Y-1175D01*
X4800Y-1175D01*
X4800Y-1487D01*
X4862Y-1550D01*
X4975Y-1550D01*
X5067Y-1549D01*
X5067Y-1632D01*
X5135Y-1796D01*
X5261Y-1922D01*
X5326Y-1949D01*
X5324Y-1949D01*
X5225Y-1950D01*
X5133Y-1988D01*
X5062Y-2058D01*
X5050Y-2089D01*
X5037Y-2058D01*
X4966Y-1988D01*
X4874Y-1950D01*
X4775Y-1949D01*
X4700Y-1949D01*
X4700Y-1487D01*
X4700Y-1175D01*
X4287Y-1175D01*
X4250Y-1212D01*
X4212Y-1175D01*
X3800Y-1175D01*
X3800Y-1487D01*
X3862Y-1550D01*
X3975Y-1550D01*
X4074Y-1549D01*
X4166Y-1511D01*
X4237Y-1441D01*
X4250Y-1410D01*
X4262Y-1441D01*
X4333Y-1511D01*
X4425Y-1549D01*
X4524Y-1550D01*
X4637Y-1550D01*
X4700Y-1487D01*
X4700Y-1949D01*
X4662Y-1950D01*
X4600Y-2012D01*
X4600Y-2325D01*
X5012Y-2325D01*
X5050Y-2287D01*
X5087Y-2325D01*
X5500Y-2325D01*
X5500Y-2317D01*
X5600Y-2317D01*
X5600Y-2325D01*
X6012Y-2325D01*
X6075Y-2262D01*
X6075Y-2150D01*
X6037Y-2058D01*
X5966Y-1988D01*
X5874Y-1950D01*
X5775Y-1949D01*
X5702Y-1949D01*
X5767Y-1923D01*
X5879Y-1811D01*
X5880Y-1811D01*
X5898Y-1807D01*
X5898Y-1807D01*
X5991Y-1746D01*
X6446Y-1290D01*
X6490Y-1394D01*
X6549Y-1454D01*
X6401Y-1515D01*
X6275Y-1640D01*
X6207Y-1805D01*
X6207Y-1982D01*
X6275Y-2147D01*
X6400Y-2272D01*
X6564Y-2341D01*
X6742Y-2341D01*
X6806Y-2314D01*
X6806Y-2314D01*
G37*
G54D18*
X6806Y-2314D02*
X6075Y-3046D01*
X6075Y-2900D01*
X6037Y-2808D01*
X5978Y-2750D01*
X6037Y-2691D01*
X6075Y-2599D01*
X6075Y-2487D01*
X6012Y-2425D01*
X5600Y-2425D01*
X5600Y-2432D01*
X5500Y-2432D01*
X5500Y-2425D01*
X5087Y-2425D01*
X5050Y-2462D01*
X5012Y-2425D01*
X4600Y-2425D01*
X4600Y-2432D01*
X4500Y-2432D01*
X4500Y-2425D01*
X4500Y-2325D01*
X4500Y-2012D01*
X4437Y-1950D01*
X4324Y-1949D01*
X4225Y-1950D01*
X4133Y-1988D01*
X4062Y-2058D01*
X4050Y-2089D01*
X4037Y-2058D01*
X3966Y-1988D01*
X3874Y-1950D01*
X3775Y-1949D01*
X3700Y-1949D01*
X3700Y-1487D01*
X3700Y-1175D01*
X3287Y-1175D01*
X3225Y-1237D01*
X3224Y-1349D01*
X3262Y-1441D01*
X3333Y-1511D01*
X3425Y-1549D01*
X3524Y-1550D01*
X3637Y-1550D01*
X3700Y-1487D01*
X3700Y-1949D01*
X3662Y-1950D01*
X3600Y-2012D01*
X3600Y-2325D01*
X4012Y-2325D01*
X4050Y-2287D01*
X4087Y-2325D01*
X4500Y-2325D01*
X4500Y-2425D01*
X4087Y-2425D01*
X4050Y-2462D01*
X4012Y-2425D01*
X3600Y-2425D01*
X3600Y-2432D01*
X3500Y-2432D01*
X3500Y-2425D01*
X3492Y-2425D01*
X3492Y-2325D01*
X3500Y-2325D01*
X3500Y-2012D01*
X3437Y-1950D01*
X3324Y-1949D01*
X3225Y-1950D01*
X3133Y-1988D01*
X3062Y-2058D01*
X3024Y-2150D01*
X3024Y-2231D01*
X2890Y-2231D01*
X2726Y-2299D01*
X2600Y-2425D01*
X2532Y-2589D01*
X2532Y-2767D01*
X2599Y-2928D01*
X1776Y-2928D01*
X1827Y-2806D01*
X1827Y-2795D01*
X1837Y-2795D01*
X2001Y-2727D01*
X2127Y-2601D01*
X2190Y-2450D01*
X2333Y-2391D01*
X2458Y-2265D01*
X2527Y-2101D01*
X2527Y-2054D01*
X2586Y-2054D01*
X2751Y-1986D01*
X2876Y-1860D01*
X2945Y-1696D01*
X2945Y-1518D01*
X2877Y-1354D01*
X2781Y-1258D01*
X2789Y-1219D01*
X2850Y-1196D01*
X2848Y-1123D01*
X2791Y-1065D01*
X2780Y-1013D01*
X2751Y-969D01*
X2794Y-998D01*
X2847Y-1009D01*
X2905Y-1066D01*
X2978Y-1068D01*
X3000Y-1007D01*
X3047Y-998D01*
X3154Y-927D01*
X3214Y-838D01*
X3250Y-838D01*
X3224Y-900D01*
X3225Y-1012D01*
X3287Y-1075D01*
X3700Y-1075D01*
X3700Y-1067D01*
X3800Y-1067D01*
X3800Y-1075D01*
X4212Y-1075D01*
X4250Y-1037D01*
X4287Y-1075D01*
X4700Y-1075D01*
X4700Y-1067D01*
X4800Y-1067D01*
X4800Y-1075D01*
X4807Y-1075D01*
X4807Y-1175D01*
X4800Y-1175D01*
X4800Y-1487D01*
X4862Y-1550D01*
X4975Y-1550D01*
X5067Y-1549D01*
X5067Y-1632D01*
X5135Y-1796D01*
X5261Y-1922D01*
X5326Y-1949D01*
X5324Y-1949D01*
X5225Y-1950D01*
X5133Y-1988D01*
X5062Y-2058D01*
X5050Y-2089D01*
X5037Y-2058D01*
X4966Y-1988D01*
X4874Y-1950D01*
X4775Y-1949D01*
X4700Y-1949D01*
X4700Y-1487D01*
X4700Y-1175D01*
X4287Y-1175D01*
X4250Y-1212D01*
X4212Y-1175D01*
X3800Y-1175D01*
X3800Y-1487D01*
X3862Y-1550D01*
X3975Y-1550D01*
X4074Y-1549D01*
X4166Y-1511D01*
X4237Y-1441D01*
X4250Y-1410D01*
X4262Y-1441D01*
X4333Y-1511D01*
X4425Y-1549D01*
X4524Y-1550D01*
X4637Y-1550D01*
X4700Y-1487D01*
X4700Y-1949D01*
X4662Y-1950D01*
X4600Y-2012D01*
X4600Y-2325D01*
X5012Y-2325D01*
X5050Y-2287D01*
X5087Y-2325D01*
X5500Y-2325D01*
X5500Y-2317D01*
X5600Y-2317D01*
X5600Y-2325D01*
X6012Y-2325D01*
X6075Y-2262D01*
X6075Y-2150D01*
X6037Y-2058D01*
X5966Y-1988D01*
X5874Y-1950D01*
X5775Y-1949D01*
X5702Y-1949D01*
X5767Y-1923D01*
X5879Y-1811D01*
X5880Y-1811D01*
X5898Y-1807D01*
X5898Y-1807D01*
X5991Y-1746D01*
X6446Y-1290D01*
X6490Y-1394D01*
X6549Y-1454D01*
X6401Y-1515D01*
X6275Y-1640D01*
X6207Y-1805D01*
X6207Y-1982D01*
X6275Y-2147D01*
X6400Y-2272D01*
X6564Y-2341D01*
X6742Y-2341D01*
X6806Y-2314D01*
G54D10*
G36*
X8661Y1070D02*
X8639Y1178D01*
X8639Y1178D01*
X8618Y1210D01*
X8604Y1231D01*
X8604Y1231D01*
X8604Y1366D01*
X8612Y1374D01*
X8661Y1447D01*
X8661Y1070D01*
X8661Y1070D01*
G37*
G54D18*
X8661Y1070D02*
X8639Y1178D01*
X8639Y1178D01*
X8618Y1210D01*
X8604Y1231D01*
X8604Y1231D01*
X8604Y1366D01*
X8612Y1374D01*
X8661Y1447D01*
X8661Y1070D01*
M02*
