G04 (created by PCBNEW (2013-02-13 BZR 3947)-testing) date 11/23/2013 4:51:36 PM*
%MOIN*%
G04 Gerber Fmt 3.4, Leading zero omitted, Abs format*
%FSLAX34Y34*%
G01*
G70*
G90*
G04 APERTURE LIST*
%ADD10C,0.009*%
%ADD11C,0.00393701*%
%ADD12C,0.012*%
%ADD13C,0.008*%
%ADD14C,0.011811*%
%ADD15C,0.0026*%
%ADD16C,4.72441e-006*%
%ADD17C,0.00625197*%
%ADD18C,0.00590551*%
%ADD19C,0.024*%
%ADD20R,0.043X0.063*%
%ADD21R,0.063X0.043*%
%ADD22R,0.0237X0.067*%
G04 APERTURE END LIST*
G54D10*
X6400Y-3600D02*
X9200Y-3600D01*
X9200Y3600D02*
X6400Y3600D01*
X6400Y-3600D02*
X-5300Y-3600D01*
X6400Y3600D02*
X-5300Y3600D01*
X9200Y-3600D02*
X9200Y3600D01*
X-5300Y-3600D02*
X-5300Y3600D01*
G54D11*
X5787Y3204D02*
X5787Y3440D01*
X5865Y3271D01*
X5944Y3440D01*
X5944Y3204D01*
X6147Y3215D02*
X6124Y3204D01*
X6079Y3204D01*
X6057Y3215D01*
X6045Y3238D01*
X6045Y3328D01*
X6057Y3350D01*
X6079Y3361D01*
X6124Y3361D01*
X6147Y3350D01*
X6158Y3328D01*
X6158Y3305D01*
X6045Y3283D01*
X6360Y3361D02*
X6360Y3170D01*
X6349Y3148D01*
X6338Y3136D01*
X6315Y3125D01*
X6282Y3125D01*
X6259Y3136D01*
X6360Y3215D02*
X6338Y3204D01*
X6293Y3204D01*
X6270Y3215D01*
X6259Y3226D01*
X6248Y3249D01*
X6248Y3316D01*
X6259Y3339D01*
X6270Y3350D01*
X6293Y3361D01*
X6338Y3361D01*
X6360Y3350D01*
X6574Y3204D02*
X6574Y3328D01*
X6563Y3350D01*
X6540Y3361D01*
X6495Y3361D01*
X6473Y3350D01*
X6574Y3215D02*
X6551Y3204D01*
X6495Y3204D01*
X6473Y3215D01*
X6461Y3238D01*
X6461Y3260D01*
X6473Y3283D01*
X6495Y3294D01*
X6551Y3294D01*
X6574Y3305D01*
X6653Y3440D02*
X6788Y3440D01*
X6720Y3204D02*
X6720Y3440D01*
X6866Y3204D02*
X6866Y3361D01*
X6866Y3316D02*
X6878Y3339D01*
X6889Y3350D01*
X6911Y3361D01*
X6934Y3361D01*
X7046Y3204D02*
X7024Y3215D01*
X7013Y3226D01*
X7001Y3249D01*
X7001Y3316D01*
X7013Y3339D01*
X7024Y3350D01*
X7046Y3361D01*
X7080Y3361D01*
X7103Y3350D01*
X7114Y3339D01*
X7125Y3316D01*
X7125Y3249D01*
X7114Y3226D01*
X7103Y3215D01*
X7080Y3204D01*
X7046Y3204D01*
X7260Y3204D02*
X7238Y3215D01*
X7226Y3238D01*
X7226Y3440D01*
X7384Y3204D02*
X7361Y3215D01*
X7350Y3238D01*
X7350Y3440D01*
X7564Y3215D02*
X7541Y3204D01*
X7496Y3204D01*
X7474Y3215D01*
X7463Y3238D01*
X7463Y3328D01*
X7474Y3350D01*
X7496Y3361D01*
X7541Y3361D01*
X7564Y3350D01*
X7575Y3328D01*
X7575Y3305D01*
X7463Y3283D01*
X7676Y3204D02*
X7676Y3361D01*
X7676Y3316D02*
X7688Y3339D01*
X7699Y3350D01*
X7721Y3361D01*
X7744Y3361D01*
X7980Y3361D02*
X8036Y3204D01*
X8093Y3361D01*
X8228Y3440D02*
X8250Y3440D01*
X8273Y3429D01*
X8284Y3418D01*
X8295Y3395D01*
X8306Y3350D01*
X8306Y3294D01*
X8295Y3249D01*
X8284Y3226D01*
X8273Y3215D01*
X8250Y3204D01*
X8228Y3204D01*
X8205Y3215D01*
X8194Y3226D01*
X8183Y3249D01*
X8171Y3294D01*
X8171Y3350D01*
X8183Y3395D01*
X8194Y3418D01*
X8205Y3429D01*
X8228Y3440D01*
X8407Y3226D02*
X8419Y3215D01*
X8407Y3204D01*
X8396Y3215D01*
X8407Y3226D01*
X8407Y3204D01*
X8509Y3418D02*
X8520Y3429D01*
X8542Y3440D01*
X8599Y3440D01*
X8621Y3429D01*
X8632Y3418D01*
X8644Y3395D01*
X8644Y3373D01*
X8632Y3339D01*
X8497Y3204D01*
X8644Y3204D01*
X5764Y2834D02*
X5764Y3070D01*
X5820Y3070D01*
X5854Y3059D01*
X5877Y3036D01*
X5888Y3014D01*
X5899Y2969D01*
X5899Y2935D01*
X5888Y2890D01*
X5877Y2868D01*
X5854Y2845D01*
X5820Y2834D01*
X5764Y2834D01*
X6090Y2845D02*
X6068Y2834D01*
X6023Y2834D01*
X6000Y2845D01*
X5989Y2868D01*
X5989Y2958D01*
X6000Y2980D01*
X6023Y2991D01*
X6068Y2991D01*
X6090Y2980D01*
X6102Y2958D01*
X6102Y2935D01*
X5989Y2913D01*
X6192Y2845D02*
X6214Y2834D01*
X6259Y2834D01*
X6282Y2845D01*
X6293Y2868D01*
X6293Y2879D01*
X6282Y2901D01*
X6259Y2913D01*
X6225Y2913D01*
X6203Y2924D01*
X6192Y2946D01*
X6192Y2958D01*
X6203Y2980D01*
X6225Y2991D01*
X6259Y2991D01*
X6282Y2980D01*
X6394Y2834D02*
X6394Y2991D01*
X6394Y3070D02*
X6383Y3059D01*
X6394Y3048D01*
X6405Y3059D01*
X6394Y3070D01*
X6394Y3048D01*
X6608Y2991D02*
X6608Y2800D01*
X6596Y2778D01*
X6585Y2766D01*
X6563Y2755D01*
X6529Y2755D01*
X6506Y2766D01*
X6608Y2845D02*
X6585Y2834D01*
X6540Y2834D01*
X6518Y2845D01*
X6506Y2856D01*
X6495Y2879D01*
X6495Y2946D01*
X6506Y2969D01*
X6518Y2980D01*
X6540Y2991D01*
X6585Y2991D01*
X6608Y2980D01*
X6720Y2991D02*
X6720Y2834D01*
X6720Y2969D02*
X6731Y2980D01*
X6754Y2991D01*
X6788Y2991D01*
X6810Y2980D01*
X6821Y2958D01*
X6821Y2834D01*
X7114Y2834D02*
X7114Y3070D01*
X7114Y2980D02*
X7136Y2991D01*
X7181Y2991D01*
X7204Y2980D01*
X7215Y2969D01*
X7226Y2946D01*
X7226Y2879D01*
X7215Y2856D01*
X7204Y2845D01*
X7181Y2834D01*
X7136Y2834D01*
X7114Y2845D01*
X7305Y2991D02*
X7361Y2834D01*
X7418Y2991D02*
X7361Y2834D01*
X7339Y2778D01*
X7328Y2766D01*
X7305Y2755D01*
X7823Y2834D02*
X7744Y2946D01*
X7688Y2834D02*
X7688Y3070D01*
X7778Y3070D01*
X7800Y3059D01*
X7811Y3048D01*
X7823Y3025D01*
X7823Y2991D01*
X7811Y2969D01*
X7800Y2958D01*
X7778Y2946D01*
X7688Y2946D01*
X8014Y2845D02*
X7991Y2834D01*
X7946Y2834D01*
X7924Y2845D01*
X7913Y2868D01*
X7913Y2958D01*
X7924Y2980D01*
X7946Y2991D01*
X7991Y2991D01*
X8014Y2980D01*
X8025Y2958D01*
X8025Y2935D01*
X7913Y2913D01*
X8228Y2991D02*
X8228Y2800D01*
X8216Y2778D01*
X8205Y2766D01*
X8183Y2755D01*
X8149Y2755D01*
X8126Y2766D01*
X8228Y2845D02*
X8205Y2834D01*
X8160Y2834D01*
X8138Y2845D01*
X8126Y2856D01*
X8115Y2879D01*
X8115Y2946D01*
X8126Y2969D01*
X8138Y2980D01*
X8160Y2991D01*
X8205Y2991D01*
X8228Y2980D01*
X8441Y2834D02*
X8441Y2958D01*
X8430Y2980D01*
X8407Y2991D01*
X8362Y2991D01*
X8340Y2980D01*
X8441Y2845D02*
X8419Y2834D01*
X8362Y2834D01*
X8340Y2845D01*
X8329Y2868D01*
X8329Y2890D01*
X8340Y2913D01*
X8362Y2924D01*
X8419Y2924D01*
X8441Y2935D01*
X8655Y2845D02*
X8632Y2834D01*
X8587Y2834D01*
X8565Y2845D01*
X8554Y2856D01*
X8542Y2879D01*
X8542Y2946D01*
X8554Y2969D01*
X8565Y2980D01*
X8587Y2991D01*
X8632Y2991D01*
X8655Y2980D01*
X8756Y2834D02*
X8756Y3070D01*
X8779Y2924D02*
X8846Y2834D01*
X8846Y2991D02*
X8756Y2901D01*
G54D12*
X0Y-2786D02*
X-2786Y0D01*
X-2786Y0D02*
X0Y2786D01*
X2651Y134D02*
X0Y2786D01*
X2651Y-134D02*
X0Y-2786D01*
X2651Y134D02*
X2651Y-134D01*
G54D13*
X2371Y0D02*
G75*
G03X2371Y0I-250J0D01*
G74*
G01*
G54D14*
X-1892Y3450D02*
X-1450Y3450D01*
X-1450Y3450D02*
X-1450Y2650D01*
X-1450Y2650D02*
X-1892Y2650D01*
X-2318Y3450D02*
X-2750Y3450D01*
X-2750Y3450D02*
X-2750Y2650D01*
X-2750Y2650D02*
X-2318Y2650D01*
X-4507Y-3300D02*
X-4950Y-3300D01*
X-4950Y-3300D02*
X-4950Y-2500D01*
X-4950Y-2500D02*
X-4507Y-2500D01*
X-4081Y-3300D02*
X-3650Y-3300D01*
X-3650Y-3300D02*
X-3650Y-2500D01*
X-3650Y-2500D02*
X-4081Y-2500D01*
X3007Y3400D02*
X3450Y3400D01*
X3450Y3400D02*
X3450Y2600D01*
X3450Y2600D02*
X3007Y2600D01*
X2581Y3400D02*
X2150Y3400D01*
X2150Y3400D02*
X2150Y2600D01*
X2150Y2600D02*
X2581Y2600D01*
X4500Y2407D02*
X4500Y2850D01*
X4500Y2850D02*
X5300Y2850D01*
X5300Y2850D02*
X5300Y2407D01*
X4500Y1981D02*
X4500Y1550D01*
X4500Y1550D02*
X5300Y1550D01*
X5300Y1550D02*
X5300Y1981D01*
X3550Y1557D02*
X3550Y2000D01*
X3550Y2000D02*
X4350Y2000D01*
X4350Y2000D02*
X4350Y1557D01*
X3550Y1131D02*
X3550Y700D01*
X3550Y700D02*
X4350Y700D01*
X4350Y700D02*
X4350Y1131D01*
X4150Y-957D02*
X4150Y-1400D01*
X4150Y-1400D02*
X3350Y-1400D01*
X3350Y-1400D02*
X3350Y-957D01*
X4150Y-531D02*
X4150Y-100D01*
X4150Y-100D02*
X3350Y-100D01*
X3350Y-100D02*
X3350Y-531D01*
X5150Y-957D02*
X5150Y-1400D01*
X5150Y-1400D02*
X4350Y-1400D01*
X4350Y-1400D02*
X4350Y-957D01*
X5150Y-531D02*
X5150Y-100D01*
X5150Y-100D02*
X4350Y-100D01*
X4350Y-100D02*
X4350Y-531D01*
X5150Y-2542D02*
X5150Y-2100D01*
X5150Y-2100D02*
X5950Y-2100D01*
X5950Y-2100D02*
X5950Y-2542D01*
X5150Y-2968D02*
X5150Y-3400D01*
X5150Y-3400D02*
X5950Y-3400D01*
X5950Y-3400D02*
X5950Y-2968D01*
X4150Y-2542D02*
X4150Y-2100D01*
X4150Y-2100D02*
X4950Y-2100D01*
X4950Y-2100D02*
X4950Y-2542D01*
X4150Y-2968D02*
X4150Y-3400D01*
X4150Y-3400D02*
X4950Y-3400D01*
X4950Y-3400D02*
X4950Y-2968D01*
X-4300Y-207D02*
X-4300Y-650D01*
X-4300Y-650D02*
X-5100Y-650D01*
X-5100Y-650D02*
X-5100Y-207D01*
X-4300Y218D02*
X-4300Y650D01*
X-4300Y650D02*
X-5100Y650D01*
X-5100Y650D02*
X-5100Y218D01*
X-4507Y-1700D02*
X-4950Y-1700D01*
X-4950Y-1700D02*
X-4950Y-900D01*
X-4950Y-900D02*
X-4507Y-900D01*
X-4081Y-1700D02*
X-3650Y-1700D01*
X-3650Y-1700D02*
X-3650Y-900D01*
X-3650Y-900D02*
X-4081Y-900D01*
X3150Y-2542D02*
X3150Y-2100D01*
X3150Y-2100D02*
X3950Y-2100D01*
X3950Y-2100D02*
X3950Y-2542D01*
X3150Y-2968D02*
X3150Y-3400D01*
X3150Y-3400D02*
X3950Y-3400D01*
X3950Y-3400D02*
X3950Y-2968D01*
X-3793Y3225D02*
X-2874Y2306D01*
X-2874Y2306D02*
X-4006Y1174D01*
X-4006Y1174D02*
X-4925Y2093D01*
X-4925Y2093D02*
X-3793Y3225D01*
X8150Y-2042D02*
X8150Y-1600D01*
X8150Y-1600D02*
X8950Y-1600D01*
X8950Y-1600D02*
X8950Y-2042D01*
X8150Y-2468D02*
X8150Y-2900D01*
X8150Y-2900D02*
X8950Y-2900D01*
X8950Y-2900D02*
X8950Y-2468D01*
X7150Y-2042D02*
X7150Y-1600D01*
X7150Y-1600D02*
X7950Y-1600D01*
X7950Y-1600D02*
X7950Y-2042D01*
X7150Y-2468D02*
X7150Y-2900D01*
X7150Y-2900D02*
X7950Y-2900D01*
X7950Y-2900D02*
X7950Y-2468D01*
G54D15*
X5773Y-190D02*
X5913Y-190D01*
X6029Y-190D02*
X6169Y-190D01*
X6285Y-190D02*
X6425Y-190D01*
X6541Y-190D02*
X6681Y-190D01*
X6797Y-190D02*
X6937Y-190D01*
X7053Y-190D02*
X7193Y-190D01*
X7307Y-190D02*
X7447Y-190D01*
X7563Y-190D02*
X7703Y-190D01*
X7819Y-190D02*
X7959Y-190D01*
X8075Y-190D02*
X8215Y-190D01*
X8331Y-190D02*
X8471Y-190D01*
X8587Y-190D02*
X8727Y-190D01*
X8587Y1890D02*
X8727Y1890D01*
X8331Y1890D02*
X8471Y1890D01*
X8075Y1890D02*
X8215Y1890D01*
X7819Y1890D02*
X7959Y1890D01*
X7563Y1890D02*
X7703Y1890D01*
X7307Y1890D02*
X7447Y1890D01*
X7053Y1890D02*
X7193Y1890D01*
X6797Y1890D02*
X6937Y1890D01*
X6541Y1890D02*
X6681Y1890D01*
X6285Y1890D02*
X6425Y1890D01*
X6029Y1890D02*
X6169Y1890D01*
X5773Y1890D02*
X5913Y1890D01*
G54D13*
X5499Y-173D02*
X9001Y-173D01*
X9001Y-173D02*
X9001Y1873D01*
X9001Y1873D02*
X5499Y1873D01*
X5499Y1873D02*
X5499Y-173D01*
G54D16*
X5976Y211D02*
G75*
G03X5976Y211I-123J0D01*
G74*
G01*
G54D11*
X1720Y107D02*
X1581Y246D01*
X1853Y266D02*
X1853Y253D01*
X1839Y227D01*
X1826Y213D01*
X1800Y200D01*
X1773Y200D01*
X1753Y207D01*
X1720Y227D01*
X1700Y246D01*
X1680Y280D01*
X1674Y300D01*
X1674Y326D01*
X1687Y353D01*
X1700Y366D01*
X1727Y379D01*
X1740Y379D01*
X1998Y386D02*
X1919Y306D01*
X1959Y346D02*
X1819Y485D01*
X1826Y452D01*
X1826Y425D01*
X1819Y406D01*
X-1180Y-784D02*
X-1074Y-677D01*
X-1138Y-868D02*
X-1287Y-571D01*
X-990Y-720D01*
X-1170Y-455D02*
X-1043Y-327D01*
X-884Y-614D02*
X-1106Y-391D01*
X-746Y-476D02*
X-968Y-253D01*
X-735Y-338D01*
X-820Y-105D01*
X-597Y-327D01*
X-608Y-105D02*
X-534Y-31D01*
X-385Y-115D02*
X-491Y-221D01*
X-714Y0D01*
X-608Y106D01*
X-385Y308D02*
X-417Y297D01*
X-449Y265D01*
X-470Y223D01*
X-470Y181D01*
X-459Y149D01*
X-428Y96D01*
X-396Y64D01*
X-343Y32D01*
X-311Y21D01*
X-268Y21D01*
X-226Y43D01*
X-205Y64D01*
X-184Y106D01*
X-184Y128D01*
X-258Y202D01*
X-300Y159D01*
X-141Y255D02*
X-35Y361D01*
X-99Y170D02*
X-247Y467D01*
X49Y318D01*
X-120Y594D02*
X17Y732D01*
X28Y573D01*
X59Y605D01*
X91Y615D01*
X112Y615D01*
X144Y605D01*
X197Y552D01*
X208Y520D01*
X208Y499D01*
X197Y467D01*
X134Y403D01*
X102Y393D01*
X81Y393D01*
X123Y796D02*
X123Y817D01*
X134Y849D01*
X187Y902D01*
X218Y912D01*
X240Y912D01*
X271Y902D01*
X293Y881D01*
X314Y838D01*
X314Y584D01*
X452Y721D01*
X324Y1040D02*
X505Y859D01*
X537Y849D01*
X558Y849D01*
X590Y859D01*
X632Y902D01*
X643Y934D01*
X643Y955D01*
X632Y987D01*
X452Y1167D01*
X727Y1294D02*
X876Y1146D01*
X590Y1326D02*
X696Y1114D01*
X834Y1252D01*
G54D17*
X-2851Y3138D02*
X-3026Y3015D01*
X-2851Y2928D02*
X-3219Y2928D01*
X-3219Y3068D01*
X-3201Y3103D01*
X-3184Y3121D01*
X-3148Y3138D01*
X-3096Y3138D01*
X-3061Y3121D01*
X-3043Y3103D01*
X-3026Y3068D01*
X-3026Y2928D01*
X-3219Y3261D02*
X-3219Y3489D01*
X-3078Y3366D01*
X-3078Y3419D01*
X-3061Y3454D01*
X-3043Y3471D01*
X-3008Y3489D01*
X-2921Y3489D01*
X-2886Y3471D01*
X-2868Y3454D01*
X-2851Y3419D01*
X-2851Y3313D01*
X-2868Y3278D01*
X-2886Y3261D01*
X-3311Y-3048D02*
X-3434Y-2873D01*
X-3521Y-3048D02*
X-3521Y-2680D01*
X-3381Y-2680D01*
X-3346Y-2698D01*
X-3328Y-2715D01*
X-3311Y-2751D01*
X-3311Y-2803D01*
X-3328Y-2838D01*
X-3346Y-2856D01*
X-3381Y-2873D01*
X-3521Y-2873D01*
X-2995Y-2803D02*
X-2995Y-3048D01*
X-3083Y-2663D02*
X-3171Y-2926D01*
X-2943Y-2926D01*
X2688Y2136D02*
X2671Y2118D01*
X2618Y2101D01*
X2583Y2101D01*
X2530Y2118D01*
X2495Y2153D01*
X2478Y2188D01*
X2460Y2258D01*
X2460Y2311D01*
X2478Y2381D01*
X2495Y2416D01*
X2530Y2451D01*
X2583Y2469D01*
X2618Y2469D01*
X2671Y2451D01*
X2688Y2434D01*
X2811Y2469D02*
X3056Y2469D01*
X2898Y2101D01*
X4838Y1151D02*
X4715Y1326D01*
X4628Y1151D02*
X4628Y1519D01*
X4768Y1519D01*
X4803Y1501D01*
X4821Y1484D01*
X4838Y1448D01*
X4838Y1396D01*
X4821Y1361D01*
X4803Y1343D01*
X4768Y1326D01*
X4628Y1326D01*
X4978Y1484D02*
X4996Y1501D01*
X5031Y1519D01*
X5119Y1519D01*
X5154Y1501D01*
X5171Y1484D01*
X5189Y1448D01*
X5189Y1413D01*
X5171Y1361D01*
X4961Y1151D01*
X5189Y1151D01*
X3938Y2101D02*
X3815Y2276D01*
X3728Y2101D02*
X3728Y2469D01*
X3868Y2469D01*
X3903Y2451D01*
X3921Y2434D01*
X3938Y2398D01*
X3938Y2346D01*
X3921Y2311D01*
X3903Y2293D01*
X3868Y2276D01*
X3728Y2276D01*
X4289Y2101D02*
X4078Y2101D01*
X4184Y2101D02*
X4184Y2469D01*
X4148Y2416D01*
X4113Y2381D01*
X4078Y2363D01*
X3688Y36D02*
X3671Y18D01*
X3618Y1D01*
X3583Y1D01*
X3530Y18D01*
X3495Y53D01*
X3478Y88D01*
X3460Y158D01*
X3460Y211D01*
X3478Y281D01*
X3495Y316D01*
X3530Y351D01*
X3583Y369D01*
X3618Y369D01*
X3671Y351D01*
X3688Y334D01*
X4004Y369D02*
X3934Y369D01*
X3898Y351D01*
X3881Y334D01*
X3846Y281D01*
X3828Y211D01*
X3828Y71D01*
X3846Y36D01*
X3863Y18D01*
X3898Y1D01*
X3969Y1D01*
X4004Y18D01*
X4021Y36D01*
X4039Y71D01*
X4039Y158D01*
X4021Y193D01*
X4004Y211D01*
X3969Y228D01*
X3898Y228D01*
X3863Y211D01*
X3846Y193D01*
X3828Y158D01*
X4638Y36D02*
X4621Y18D01*
X4568Y1D01*
X4533Y1D01*
X4480Y18D01*
X4445Y53D01*
X4428Y88D01*
X4410Y158D01*
X4410Y211D01*
X4428Y281D01*
X4445Y316D01*
X4480Y351D01*
X4533Y369D01*
X4568Y369D01*
X4621Y351D01*
X4638Y334D01*
X4971Y369D02*
X4796Y369D01*
X4778Y193D01*
X4796Y211D01*
X4831Y228D01*
X4919Y228D01*
X4954Y211D01*
X4971Y193D01*
X4989Y158D01*
X4989Y71D01*
X4971Y36D01*
X4954Y18D01*
X4919Y1D01*
X4831Y1D01*
X4796Y18D01*
X4778Y36D01*
X5438Y-1963D02*
X5421Y-1981D01*
X5368Y-1998D01*
X5333Y-1998D01*
X5280Y-1981D01*
X5245Y-1946D01*
X5228Y-1911D01*
X5210Y-1841D01*
X5210Y-1788D01*
X5228Y-1718D01*
X5245Y-1683D01*
X5280Y-1648D01*
X5333Y-1630D01*
X5368Y-1630D01*
X5421Y-1648D01*
X5438Y-1665D01*
X5561Y-1630D02*
X5789Y-1630D01*
X5666Y-1771D01*
X5719Y-1771D01*
X5754Y-1788D01*
X5771Y-1806D01*
X5789Y-1841D01*
X5789Y-1928D01*
X5771Y-1963D01*
X5754Y-1981D01*
X5719Y-1998D01*
X5613Y-1998D01*
X5578Y-1981D01*
X5561Y-1963D01*
X4438Y-1963D02*
X4421Y-1981D01*
X4368Y-1998D01*
X4333Y-1998D01*
X4280Y-1981D01*
X4245Y-1946D01*
X4228Y-1911D01*
X4210Y-1841D01*
X4210Y-1788D01*
X4228Y-1718D01*
X4245Y-1683D01*
X4280Y-1648D01*
X4333Y-1630D01*
X4368Y-1630D01*
X4421Y-1648D01*
X4438Y-1665D01*
X4578Y-1665D02*
X4596Y-1648D01*
X4631Y-1630D01*
X4719Y-1630D01*
X4754Y-1648D01*
X4771Y-1665D01*
X4789Y-1701D01*
X4789Y-1736D01*
X4771Y-1788D01*
X4561Y-1998D01*
X4789Y-1998D01*
X-3886Y-61D02*
X-3868Y-78D01*
X-3851Y-131D01*
X-3851Y-166D01*
X-3868Y-219D01*
X-3903Y-254D01*
X-3938Y-271D01*
X-4008Y-289D01*
X-4061Y-289D01*
X-4131Y-271D01*
X-4166Y-254D01*
X-4201Y-219D01*
X-4219Y-166D01*
X-4219Y-131D01*
X-4201Y-78D01*
X-4184Y-61D01*
X-4061Y148D02*
X-4078Y113D01*
X-4096Y96D01*
X-4131Y78D01*
X-4148Y78D01*
X-4184Y96D01*
X-4201Y113D01*
X-4219Y148D01*
X-4219Y219D01*
X-4201Y254D01*
X-4184Y271D01*
X-4148Y289D01*
X-4131Y289D01*
X-4096Y271D01*
X-4078Y254D01*
X-4061Y219D01*
X-4061Y148D01*
X-4043Y113D01*
X-4026Y96D01*
X-3991Y78D01*
X-3921Y78D01*
X-3886Y96D01*
X-3868Y113D01*
X-3851Y148D01*
X-3851Y219D01*
X-3868Y254D01*
X-3886Y271D01*
X-3921Y289D01*
X-3991Y289D01*
X-4026Y271D01*
X-4043Y254D01*
X-4061Y219D01*
X-3311Y-1413D02*
X-3328Y-1431D01*
X-3381Y-1448D01*
X-3416Y-1448D01*
X-3469Y-1431D01*
X-3504Y-1396D01*
X-3521Y-1361D01*
X-3539Y-1291D01*
X-3539Y-1238D01*
X-3521Y-1168D01*
X-3504Y-1133D01*
X-3469Y-1098D01*
X-3416Y-1080D01*
X-3381Y-1080D01*
X-3328Y-1098D01*
X-3311Y-1115D01*
X-2995Y-1203D02*
X-2995Y-1448D01*
X-3083Y-1063D02*
X-3171Y-1326D01*
X-2943Y-1326D01*
X3488Y-1963D02*
X3471Y-1981D01*
X3418Y-1998D01*
X3383Y-1998D01*
X3330Y-1981D01*
X3295Y-1946D01*
X3278Y-1911D01*
X3260Y-1841D01*
X3260Y-1788D01*
X3278Y-1718D01*
X3295Y-1683D01*
X3330Y-1648D01*
X3383Y-1630D01*
X3418Y-1630D01*
X3471Y-1648D01*
X3488Y-1665D01*
X3839Y-1998D02*
X3628Y-1998D01*
X3734Y-1998D02*
X3734Y-1630D01*
X3698Y-1683D01*
X3663Y-1718D01*
X3628Y-1736D01*
G54D18*
X-4912Y2852D02*
X-4541Y2778D01*
X-4764Y3000D02*
X-4690Y2629D01*
X-4340Y2979D02*
X-4467Y2852D01*
X-4403Y2915D02*
X-4626Y3138D01*
X-4615Y3085D01*
X-4615Y3043D01*
X-4626Y3011D01*
G54D17*
X8488Y-3348D02*
X8365Y-3173D01*
X8278Y-3348D02*
X8278Y-2980D01*
X8418Y-2980D01*
X8453Y-2998D01*
X8471Y-3015D01*
X8488Y-3051D01*
X8488Y-3103D01*
X8471Y-3138D01*
X8453Y-3156D01*
X8418Y-3173D01*
X8278Y-3173D01*
X8821Y-2980D02*
X8646Y-2980D01*
X8628Y-3156D01*
X8646Y-3138D01*
X8681Y-3121D01*
X8769Y-3121D01*
X8804Y-3138D01*
X8821Y-3156D01*
X8839Y-3191D01*
X8839Y-3278D01*
X8821Y-3313D01*
X8804Y-3331D01*
X8769Y-3348D01*
X8681Y-3348D01*
X8646Y-3331D01*
X8628Y-3313D01*
X7488Y-3348D02*
X7365Y-3173D01*
X7278Y-3348D02*
X7278Y-2980D01*
X7418Y-2980D01*
X7453Y-2998D01*
X7471Y-3015D01*
X7488Y-3051D01*
X7488Y-3103D01*
X7471Y-3138D01*
X7453Y-3156D01*
X7418Y-3173D01*
X7278Y-3173D01*
X7804Y-2980D02*
X7734Y-2980D01*
X7698Y-2998D01*
X7681Y-3015D01*
X7646Y-3068D01*
X7628Y-3138D01*
X7628Y-3278D01*
X7646Y-3313D01*
X7663Y-3331D01*
X7698Y-3348D01*
X7769Y-3348D01*
X7804Y-3331D01*
X7821Y-3313D01*
X7839Y-3278D01*
X7839Y-3191D01*
X7821Y-3156D01*
X7804Y-3138D01*
X7769Y-3121D01*
X7698Y-3121D01*
X7663Y-3138D01*
X7646Y-3156D01*
X7628Y-3191D01*
G54D11*
X6012Y-39D02*
X6267Y-39D01*
X6297Y-24D01*
X6312Y-9D01*
X6327Y20D01*
X6327Y80D01*
X6312Y110D01*
X6297Y125D01*
X6267Y140D01*
X6012Y140D01*
X6327Y454D02*
X6327Y274D01*
X6327Y364D02*
X6012Y364D01*
X6057Y334D01*
X6087Y304D01*
X6102Y274D01*
X6300Y705D02*
X6300Y1020D01*
X6405Y795D01*
X6510Y1020D01*
X6510Y705D01*
X6840Y735D02*
X6825Y720D01*
X6780Y705D01*
X6750Y705D01*
X6705Y720D01*
X6675Y750D01*
X6660Y780D01*
X6645Y840D01*
X6645Y885D01*
X6660Y945D01*
X6675Y975D01*
X6705Y1005D01*
X6750Y1020D01*
X6780Y1020D01*
X6825Y1005D01*
X6840Y990D01*
X6975Y705D02*
X6975Y1020D01*
X7095Y1020D01*
X7125Y1005D01*
X7140Y990D01*
X7155Y960D01*
X7155Y915D01*
X7140Y885D01*
X7125Y870D01*
X7095Y855D01*
X6975Y855D01*
X7275Y990D02*
X7290Y1005D01*
X7320Y1020D01*
X7395Y1020D01*
X7425Y1005D01*
X7440Y990D01*
X7455Y960D01*
X7455Y930D01*
X7440Y885D01*
X7260Y705D01*
X7455Y705D01*
X7559Y1020D02*
X7754Y1020D01*
X7649Y900D01*
X7694Y900D01*
X7724Y885D01*
X7739Y870D01*
X7754Y840D01*
X7754Y765D01*
X7739Y735D01*
X7724Y720D01*
X7694Y705D01*
X7604Y705D01*
X7574Y720D01*
X7559Y735D01*
X7949Y1020D02*
X7979Y1020D01*
X8009Y1005D01*
X8024Y990D01*
X8039Y960D01*
X8054Y900D01*
X8054Y825D01*
X8039Y765D01*
X8024Y735D01*
X8009Y720D01*
X7979Y705D01*
X7949Y705D01*
X7919Y720D01*
X7904Y735D01*
X7889Y765D01*
X7874Y825D01*
X7874Y900D01*
X7889Y960D01*
X7904Y990D01*
X7919Y1005D01*
X7949Y1020D01*
X8354Y705D02*
X8174Y705D01*
X8264Y705D02*
X8264Y1020D01*
X8234Y975D01*
X8204Y945D01*
X8174Y930D01*
X8534Y885D02*
X8504Y900D01*
X8489Y915D01*
X8474Y945D01*
X8474Y960D01*
X8489Y990D01*
X8504Y1005D01*
X8534Y1020D01*
X8594Y1020D01*
X8624Y1005D01*
X8639Y990D01*
X8654Y960D01*
X8654Y945D01*
X8639Y915D01*
X8624Y900D01*
X8594Y885D01*
X8534Y885D01*
X8504Y870D01*
X8489Y855D01*
X8474Y825D01*
X8474Y765D01*
X8489Y735D01*
X8504Y720D01*
X8534Y705D01*
X8594Y705D01*
X8624Y720D01*
X8639Y735D01*
X8654Y765D01*
X8654Y825D01*
X8639Y855D01*
X8624Y870D01*
X8594Y885D01*
%LPC*%
G54D19*
X1798Y-1798D02*
X1383Y-1383D01*
X2021Y-1576D02*
X1605Y-1160D01*
X2244Y-1353D02*
X1828Y-937D01*
X2467Y-1130D02*
X2051Y-714D01*
X2689Y-907D02*
X2274Y-492D01*
X2912Y-685D02*
X2496Y-269D01*
X1576Y-2021D02*
X1160Y-1605D01*
X1353Y-2244D02*
X937Y-1828D01*
X1130Y-2467D02*
X714Y-2051D01*
X907Y-2689D02*
X492Y-2274D01*
X685Y-2912D02*
X269Y-2496D01*
X-1383Y1383D02*
X-1798Y1798D01*
X-1160Y1605D02*
X-1576Y2021D01*
X-937Y1828D02*
X-1353Y2244D01*
X-714Y2051D02*
X-1130Y2467D01*
X-492Y2274D02*
X-907Y2689D01*
X-269Y2496D02*
X-685Y2912D01*
X-1605Y1160D02*
X-2021Y1576D01*
X-1828Y937D02*
X-2244Y1353D01*
X-2051Y714D02*
X-2467Y1130D01*
X-2274Y492D02*
X-2689Y907D01*
X-2496Y269D02*
X-2912Y685D01*
X1798Y1798D02*
X1383Y1383D01*
X-1383Y-1383D02*
X-1798Y-1798D01*
X1576Y2021D02*
X1160Y1605D01*
X-1605Y-1160D02*
X-2021Y-1576D01*
X-1828Y-937D02*
X-2244Y-1353D01*
X1353Y2244D02*
X937Y1828D01*
X1130Y2467D02*
X714Y2051D01*
X-2051Y-714D02*
X-2467Y-1130D01*
X-2274Y-492D02*
X-2689Y-907D01*
X907Y2689D02*
X492Y2274D01*
X685Y2912D02*
X269Y2496D01*
X-2496Y-269D02*
X-2912Y-685D01*
X-1160Y-1605D02*
X-1576Y-2021D01*
X2021Y1576D02*
X1605Y1160D01*
X2244Y1353D02*
X1828Y937D01*
X-937Y-1828D02*
X-1353Y-2244D01*
X-714Y-2051D02*
X-1130Y-2467D01*
X2467Y1130D02*
X2051Y714D01*
X2689Y907D02*
X2274Y492D01*
X-492Y-2274D02*
X-907Y-2689D01*
X-269Y-2496D02*
X-685Y-2912D01*
X2912Y685D02*
X2496Y269D01*
G54D20*
X-2475Y3050D03*
X-1725Y3050D03*
X-3925Y-2900D03*
X-4675Y-2900D03*
X2425Y3000D03*
X3175Y3000D03*
G54D21*
X4900Y1825D03*
X4900Y2575D03*
X3950Y975D03*
X3950Y1725D03*
X3750Y-375D03*
X3750Y-1125D03*
X4750Y-375D03*
X4750Y-1125D03*
X5550Y-3125D03*
X5550Y-2375D03*
X4550Y-3125D03*
X4550Y-2375D03*
X-4700Y375D03*
X-4700Y-375D03*
G54D20*
X-3925Y-1300D03*
X-4675Y-1300D03*
G54D21*
X3550Y-3125D03*
X3550Y-2375D03*
G54D10*
G36*
X-4463Y1705D02*
X-4840Y2081D01*
X-4394Y2528D01*
X-4017Y2151D01*
X-4463Y1705D01*
X-4463Y1705D01*
G37*
G36*
X-3851Y2317D02*
X-4228Y2694D01*
X-3781Y3140D01*
X-3405Y2763D01*
X-3851Y2317D01*
X-3851Y2317D01*
G37*
G36*
X-4018Y1259D02*
X-4394Y1636D01*
X-3948Y2082D01*
X-3571Y1705D01*
X-4018Y1259D01*
X-4018Y1259D01*
G37*
G36*
X-3405Y1871D02*
X-3782Y2248D01*
X-3336Y2694D01*
X-2959Y2318D01*
X-3405Y1871D01*
X-3405Y1871D01*
G37*
G54D21*
X8550Y-2625D03*
X8550Y-1875D03*
X7550Y-2625D03*
X7550Y-1875D03*
G54D22*
X5843Y-577D03*
X6099Y-577D03*
X6355Y-577D03*
X6611Y-577D03*
X6867Y-577D03*
X7123Y-577D03*
X7377Y-577D03*
X7633Y-577D03*
X7889Y-577D03*
X8145Y-577D03*
X8401Y-577D03*
X8657Y-577D03*
X8657Y2277D03*
X8401Y2277D03*
X8145Y2277D03*
X7889Y2277D03*
X7633Y2277D03*
X7377Y2277D03*
X7123Y2277D03*
X6867Y2277D03*
X6611Y2277D03*
X6355Y2277D03*
X6099Y2277D03*
X5843Y2277D03*
M02*
