G04 (created by PCBNEW (2013-02-13 BZR 3947)-testing) date 12/19/2013 8:38:14 AM*
%MOIN*%
G04 Gerber Fmt 3.4, Leading zero omitted, Abs format*
%FSLAX34Y34*%
G01*
G70*
G90*
G04 APERTURE LIST*
%ADD10C,0.006*%
%ADD11C,0.015*%
%ADD12C,0.081*%
%ADD13R,0.081X0.081*%
%ADD14C,0.1*%
%ADD15C,0.137*%
%ADD16C,0.0750551*%
%ADD17R,0.0317X0.075*%
%ADD18R,0.071X0.051*%
%ADD19C,0.106*%
%ADD20C,0.047*%
%ADD21C,0.0553701*%
%ADD22R,0.110488X0.0908031*%
%ADD23R,0.0632441X0.0986772*%
%ADD24R,0.0337165X0.0711181*%
%ADD25R,0.0632441X0.0908031*%
%ADD26R,0.0553701X0.0553701*%
%ADD27C,0.0514331*%
G04 APERTURE END LIST*
G54D10*
G54D11*
X32900Y-58900D02*
X32900Y-22100D01*
X76000Y-59500D02*
X33500Y-59500D01*
X76600Y-22100D02*
X76600Y-58900D01*
X33500Y-21500D02*
X76000Y-21500D01*
X33500Y-21500D02*
G75*
G03X32900Y-22100I0J-600D01*
G74*
G01*
X76600Y-22100D02*
G75*
G03X76000Y-21500I-600J0D01*
G74*
G01*
X76000Y-59500D02*
G75*
G03X76600Y-58900I0J600D01*
G74*
G01*
X32900Y-58900D02*
G75*
G03X33500Y-59500I600J0D01*
G74*
G01*
G54D12*
X35500Y-50129D03*
G54D13*
X36500Y-50129D03*
G54D12*
X35500Y-42629D03*
G54D13*
X36500Y-42629D03*
G54D12*
X35500Y-35130D03*
G54D13*
X36500Y-35130D03*
G54D14*
X44459Y-52379D03*
X35059Y-52379D03*
G54D15*
X44459Y-58379D03*
X35059Y-58379D03*
G54D16*
X47000Y-56000D03*
X47000Y-57000D03*
X47000Y-55000D03*
X47000Y-53000D03*
X47000Y-54000D03*
X47000Y-52000D03*
G54D17*
X53593Y-37177D03*
X53849Y-37177D03*
X54105Y-37177D03*
X54361Y-37177D03*
X54617Y-37177D03*
X54873Y-37177D03*
X55127Y-37177D03*
X55383Y-37177D03*
X55639Y-37177D03*
X55895Y-37177D03*
X56151Y-37177D03*
X56407Y-37177D03*
X56407Y-34323D03*
X56151Y-34323D03*
X55895Y-34323D03*
X55639Y-34323D03*
X55383Y-34323D03*
X55127Y-34323D03*
X54873Y-34323D03*
X54617Y-34323D03*
X54361Y-34323D03*
X54105Y-34323D03*
X53849Y-34323D03*
X53593Y-34323D03*
G54D18*
X47650Y-34325D03*
X47650Y-35075D03*
X46700Y-34325D03*
X46700Y-35075D03*
G54D19*
X74500Y-54379D03*
X72000Y-55379D03*
G54D15*
X73500Y-56379D03*
G54D20*
X71500Y-56379D03*
X75500Y-56379D03*
G54D19*
X75000Y-55379D03*
X72500Y-54379D03*
X59500Y-53129D03*
X57000Y-54129D03*
G54D15*
X58500Y-55129D03*
G54D20*
X56500Y-55129D03*
X60500Y-55129D03*
G54D19*
X60000Y-54129D03*
X57500Y-53129D03*
X67000Y-54379D03*
X64500Y-55379D03*
G54D15*
X66000Y-56379D03*
G54D20*
X64000Y-56379D03*
X68000Y-56379D03*
G54D19*
X67500Y-55379D03*
X65000Y-54379D03*
X52000Y-52500D03*
X49500Y-53500D03*
G54D15*
X51000Y-54500D03*
G54D20*
X49000Y-54500D03*
X53000Y-54500D03*
G54D19*
X52500Y-53500D03*
X50000Y-52500D03*
X40750Y-53129D03*
X38250Y-54129D03*
G54D15*
X39750Y-55129D03*
G54D20*
X37750Y-55129D03*
X41750Y-55129D03*
G54D19*
X41250Y-54129D03*
X38750Y-53129D03*
X37000Y-23630D03*
X34500Y-24630D03*
G54D15*
X36000Y-25630D03*
G54D20*
X34000Y-25630D03*
X38000Y-25630D03*
G54D19*
X37500Y-24630D03*
X35000Y-23630D03*
X67000Y-39379D03*
X64500Y-40379D03*
G54D15*
X66000Y-41379D03*
G54D20*
X64000Y-41379D03*
X68000Y-41379D03*
G54D19*
X67500Y-40379D03*
X65000Y-39379D03*
X74500Y-39379D03*
X72000Y-40379D03*
G54D15*
X73500Y-41379D03*
G54D20*
X71500Y-41379D03*
X75500Y-41379D03*
G54D19*
X75000Y-40379D03*
X72500Y-39379D03*
X44500Y-23129D03*
X42000Y-24129D03*
G54D15*
X43500Y-25129D03*
G54D20*
X41500Y-25129D03*
X45500Y-25129D03*
G54D19*
X45000Y-24129D03*
X42500Y-23129D03*
X67000Y-24380D03*
X64500Y-25380D03*
G54D15*
X66000Y-26380D03*
G54D20*
X64000Y-26380D03*
X68000Y-26380D03*
G54D19*
X67500Y-25380D03*
X65000Y-24380D03*
X59500Y-23129D03*
X57000Y-24129D03*
G54D15*
X58500Y-25129D03*
G54D20*
X56500Y-25129D03*
X60500Y-25129D03*
G54D19*
X60000Y-24129D03*
X57500Y-23129D03*
X52000Y-22500D03*
X49500Y-23500D03*
G54D15*
X51000Y-24500D03*
G54D20*
X49000Y-24500D03*
X53000Y-24500D03*
G54D19*
X52500Y-23500D03*
X50000Y-22500D03*
X74500Y-24380D03*
X72000Y-25380D03*
G54D15*
X73500Y-26380D03*
G54D20*
X71500Y-26380D03*
X75500Y-26380D03*
G54D19*
X75000Y-25380D03*
X72500Y-24380D03*
X59500Y-38129D03*
X57000Y-39129D03*
G54D15*
X58500Y-40129D03*
G54D20*
X56500Y-40129D03*
X60500Y-40129D03*
G54D19*
X60000Y-39129D03*
X57500Y-38129D03*
X52000Y-37500D03*
X49500Y-38500D03*
G54D15*
X51000Y-39500D03*
G54D20*
X49000Y-39500D03*
X53000Y-39500D03*
G54D19*
X52500Y-38500D03*
X50000Y-37500D03*
X44500Y-38129D03*
X42000Y-39129D03*
G54D15*
X43500Y-40129D03*
G54D20*
X41500Y-40129D03*
X45500Y-40129D03*
G54D19*
X45000Y-39129D03*
X42500Y-38129D03*
X37000Y-38629D03*
X34500Y-39629D03*
G54D15*
X36000Y-40629D03*
G54D20*
X34000Y-40629D03*
X38000Y-40629D03*
G54D19*
X37500Y-39629D03*
X35000Y-38629D03*
X67000Y-46879D03*
X64500Y-47879D03*
G54D15*
X66000Y-48879D03*
G54D20*
X64000Y-48879D03*
X68000Y-48879D03*
G54D19*
X67500Y-47879D03*
X65000Y-46879D03*
X59500Y-45629D03*
X57000Y-46629D03*
G54D15*
X58500Y-47629D03*
G54D20*
X56500Y-47629D03*
X60500Y-47629D03*
G54D19*
X60000Y-46629D03*
X57500Y-45629D03*
X52000Y-45000D03*
X49500Y-46000D03*
G54D15*
X51000Y-47000D03*
G54D20*
X49000Y-47000D03*
X53000Y-47000D03*
G54D19*
X52500Y-46000D03*
X50000Y-45000D03*
X44500Y-45629D03*
X42000Y-46629D03*
G54D15*
X43500Y-47629D03*
G54D20*
X41500Y-47629D03*
X45500Y-47629D03*
G54D19*
X45000Y-46629D03*
X42500Y-45629D03*
X37000Y-46129D03*
X34500Y-47129D03*
G54D15*
X36000Y-48129D03*
G54D20*
X34000Y-48129D03*
X38000Y-48129D03*
G54D19*
X37500Y-47129D03*
X35000Y-46129D03*
X74500Y-46879D03*
X72000Y-47879D03*
G54D15*
X73500Y-48879D03*
G54D20*
X71500Y-48879D03*
X75500Y-48879D03*
G54D19*
X75000Y-47879D03*
X72500Y-46879D03*
X37000Y-31129D03*
X34500Y-32129D03*
G54D15*
X36000Y-33129D03*
G54D20*
X34000Y-33129D03*
X38000Y-33129D03*
G54D19*
X37500Y-32129D03*
X35000Y-31129D03*
X67000Y-31879D03*
X64500Y-32879D03*
G54D15*
X66000Y-33879D03*
G54D20*
X64000Y-33879D03*
X68000Y-33879D03*
G54D19*
X67500Y-32879D03*
X65000Y-31879D03*
X52000Y-30000D03*
X49500Y-31000D03*
G54D15*
X51000Y-32000D03*
G54D20*
X49000Y-32000D03*
X53000Y-32000D03*
G54D19*
X52500Y-31000D03*
X50000Y-30000D03*
X44500Y-30629D03*
X42000Y-31629D03*
G54D15*
X43500Y-32629D03*
G54D20*
X41500Y-32629D03*
X45500Y-32629D03*
G54D19*
X45000Y-31629D03*
X42500Y-30629D03*
X59500Y-30629D03*
X57000Y-31629D03*
G54D15*
X58500Y-32629D03*
G54D20*
X56500Y-32629D03*
X60500Y-32629D03*
G54D19*
X60000Y-31629D03*
X57500Y-30629D03*
X74500Y-31879D03*
X72000Y-32879D03*
G54D15*
X73500Y-33879D03*
G54D20*
X71500Y-33879D03*
X75500Y-33879D03*
G54D19*
X75000Y-32879D03*
X72500Y-31879D03*
G54D21*
X75500Y-29000D03*
X45000Y-29000D03*
X50500Y-29000D03*
X53000Y-29000D03*
X55500Y-29000D03*
X58000Y-29000D03*
X60500Y-29000D03*
X63000Y-29000D03*
X65250Y-29000D03*
X67100Y-29000D03*
X70500Y-29000D03*
X73700Y-29000D03*
X76450Y-29000D03*
X49250Y-29000D03*
X51750Y-29000D03*
X54250Y-29000D03*
X56750Y-29000D03*
X59250Y-29000D03*
X61750Y-29000D03*
X64250Y-29000D03*
X66300Y-29000D03*
X69000Y-29000D03*
X72450Y-29000D03*
X74500Y-29000D03*
X43750Y-29000D03*
X42500Y-29000D03*
X41250Y-29000D03*
X40000Y-29000D03*
X38750Y-29000D03*
X37500Y-29000D03*
X36250Y-29000D03*
X35000Y-29000D03*
X33750Y-29000D03*
X33050Y-29000D03*
G54D22*
X46038Y-22074D03*
X48361Y-22074D03*
G54D23*
X48125Y-22979D03*
X46274Y-22979D03*
G54D24*
X47200Y-23117D03*
X47455Y-23117D03*
X47711Y-23117D03*
X46944Y-23117D03*
X46688Y-23117D03*
G54D25*
X47534Y-22074D03*
X46865Y-22074D03*
G54D22*
X46038Y-29574D03*
X48361Y-29574D03*
G54D23*
X48125Y-30479D03*
X46274Y-30479D03*
G54D24*
X47200Y-30617D03*
X47455Y-30617D03*
X47711Y-30617D03*
X46944Y-30617D03*
X46688Y-30617D03*
G54D25*
X47534Y-29574D03*
X46865Y-29574D03*
G54D26*
X34230Y-27250D03*
X35569Y-27250D03*
X72230Y-38050D03*
X73569Y-38050D03*
X64680Y-38050D03*
X66019Y-38050D03*
X41730Y-26800D03*
X43069Y-26800D03*
X49180Y-26250D03*
X50519Y-26250D03*
X56730Y-26800D03*
X58069Y-26800D03*
X64230Y-28100D03*
X65569Y-28100D03*
X71730Y-27950D03*
X73069Y-27950D03*
X37980Y-56800D03*
X39319Y-56800D03*
X49230Y-56150D03*
X50569Y-56150D03*
X56680Y-56800D03*
X58019Y-56800D03*
X64230Y-58050D03*
X65569Y-58050D03*
X71780Y-58050D03*
X73119Y-58050D03*
X34669Y-42250D03*
X33330Y-42250D03*
X41780Y-41850D03*
X43119Y-41850D03*
X49280Y-41200D03*
X50619Y-41200D03*
X56780Y-41850D03*
X58119Y-41850D03*
X34769Y-49750D03*
X33430Y-49750D03*
X41780Y-49300D03*
X43119Y-49300D03*
X49330Y-48650D03*
X50669Y-48650D03*
X56780Y-49250D03*
X58119Y-49250D03*
X64230Y-50550D03*
X65569Y-50550D03*
X71780Y-50550D03*
X73119Y-50550D03*
X34819Y-34450D03*
X33480Y-34450D03*
X41780Y-34300D03*
X43119Y-34300D03*
X49280Y-33700D03*
X50619Y-33700D03*
X60169Y-34000D03*
X58830Y-34000D03*
X64280Y-35450D03*
X65619Y-35450D03*
X71730Y-35500D03*
X73069Y-35500D03*
G54D27*
X68883Y-23316D03*
X70616Y-23316D03*
X68883Y-30816D03*
X70616Y-30816D03*
M02*
