M48
;DRILL file {Pcbnew (2013-02-13 BZR 3947)-testing} date 12/19/2013 8:38:17 AM
;FORMAT={2:4/ absolute / inch / keep zeros}
FMAT,2
INCH,TZ
T1C0.013
T2C0.014
T3C0.035
T4C0.039
T5C0.039
T6C0.059
T7C0.067
T8C0.120
T9C0.157
%
G90
G05
M72
T1
X033331Y-042250
X033431Y-049750
X033481Y-034450
X034231Y-027250
X034669Y-042250
X034769Y-049750
X034819Y-034450
X035569Y-027250
X037981Y-056800
X039319Y-056800
X041731Y-026800
X041781Y-034300
X041781Y-041850
X041781Y-049300
X043069Y-026800
X043119Y-034300
X043119Y-041850
X043119Y-049300
X049181Y-026250
X049231Y-056150
X049281Y-033700
X049281Y-041200
X049331Y-048650
X050519Y-026250
X050569Y-056150
X050619Y-033700
X050619Y-041200
X050669Y-048650
X056681Y-056800
X056731Y-026800
X056781Y-041850
X056781Y-049250
X058019Y-056800
X058069Y-026800
X058119Y-041850
X058119Y-049250
X058831Y-034000
X060169Y-034000
X064231Y-028100
X064231Y-050550
X064231Y-058050
X064281Y-035450
X064681Y-038050
X065569Y-028100
X065569Y-050550
X065569Y-058050
X065619Y-035450
X066019Y-038050
X071731Y-027950
X071731Y-035500
X071781Y-050550
X071781Y-058050
X072231Y-038050
X073069Y-027950
X073069Y-035500
X073119Y-050550
X073119Y-058050
X073569Y-038050
T2
X039153Y-046999
X039779Y-041060
X042777Y-044012
X046100Y-036350
X046544Y-033915
X046796Y-024321
X046944Y-023939
X046944Y-030154
X046950Y-036350
X047170Y-023583
X047187Y-035136
X047200Y-027800
X047200Y-031076
X047472Y-031412
X047700Y-038200
X047700Y-040000
X047700Y-042500
X047700Y-045600
X047712Y-025003
X048033Y-031498
X048175Y-035639
X048222Y-035004
X048754Y-036000
X049350Y-036350
X051200Y-027800
X052843Y-036771
X053100Y-036350
X053833Y-036351
X054050Y-036556
X054619Y-036698
X054644Y-040994
X054895Y-037660
X055904Y-034844
X056650Y-035400
X056886Y-036029
X060287Y-037987
X062950Y-035450
X063200Y-039300
X063200Y-040800
X063200Y-043300
X063469Y-046663
X064000Y-036200
X064000Y-037900
X065063Y-038399
X065650Y-036200
X065676Y-043956
X066525Y-044148
X067780Y-044312
X067950Y-035550
X068298Y-045156
X068911Y-045770
X069241Y-034560
X069457Y-041566
X069854Y-045796
X070649Y-046019
X070900Y-035550
X071095Y-043638
X071095Y-043992
X071317Y-046958
X071410Y-045147
X072193Y-035017
T3
X047000Y-052000
X047000Y-053000
X047000Y-054000
X047000Y-055000
X047000Y-056000
X047000Y-057000
X068884Y-023317
X068884Y-030817
X070616Y-023317
X070616Y-030817
T4
X035500Y-035130
X035500Y-042630
X035500Y-050130
X036500Y-035130
X036500Y-042630
X036500Y-050130
T5
X033050Y-029000
X033750Y-029000
X035000Y-029000
X036250Y-029000
X037500Y-029000
X038750Y-029000
X040000Y-029000
X041250Y-029000
X042500Y-029000
X043750Y-029000
X045000Y-029000
X049250Y-029000
X050500Y-029000
X051750Y-029000
X053000Y-029000
X054250Y-029000
X055500Y-029000
X056750Y-029000
X058000Y-029000
X059250Y-029000
X060500Y-029000
X061750Y-029000
X063000Y-029000
X064250Y-029000
X065250Y-029000
X066300Y-029000
X067100Y-029000
X069000Y-029000
X070500Y-029000
X072450Y-029000
X073700Y-029000
X074500Y-029000
X075500Y-029000
X076450Y-029000
T6
X034500Y-024630
X034500Y-032129
X034500Y-039629
X034500Y-047129
X035000Y-023630
X035000Y-031129
X035000Y-038629
X035000Y-046129
X037000Y-023630
X037000Y-031129
X037000Y-038629
X037000Y-046129
X037500Y-024630
X037500Y-032129
X037500Y-039629
X037500Y-047129
X038250Y-054130
X038750Y-053130
X040750Y-053130
X041250Y-054130
X042000Y-024129
X042000Y-031629
X042000Y-039129
X042000Y-046629
X042500Y-023129
X042500Y-030629
X042500Y-038129
X042500Y-045629
X044500Y-023129
X044500Y-030629
X044500Y-038129
X044500Y-045629
X045000Y-024129
X045000Y-031629
X045000Y-039129
X045000Y-046629
X049500Y-023500
X049500Y-031000
X049500Y-038500
X049500Y-046000
X049500Y-053500
X050000Y-022500
X050000Y-030000
X050000Y-037500
X050000Y-045000
X050000Y-052500
X052000Y-022500
X052000Y-030000
X052000Y-037500
X052000Y-045000
X052000Y-052500
X052500Y-023500
X052500Y-031000
X052500Y-038500
X052500Y-046000
X052500Y-053500
X057000Y-024129
X057000Y-031629
X057000Y-039129
X057000Y-046629
X057000Y-054129
X057500Y-023129
X057500Y-030629
X057500Y-038129
X057500Y-045629
X057500Y-053129
X059500Y-023129
X059500Y-030629
X059500Y-038129
X059500Y-045629
X059500Y-053129
X060000Y-024129
X060000Y-031629
X060000Y-039129
X060000Y-046629
X060000Y-054129
X064500Y-025380
X064500Y-032879
X064500Y-040379
X064500Y-047879
X064500Y-055379
X065000Y-024380
X065000Y-031879
X065000Y-039379
X065000Y-046879
X065000Y-054379
X067000Y-024380
X067000Y-031879
X067000Y-039379
X067000Y-046879
X067000Y-054379
X067500Y-025380
X067500Y-032879
X067500Y-040379
X067500Y-047879
X067500Y-055379
X072000Y-025380
X072000Y-032879
X072000Y-040379
X072000Y-047879
X072000Y-055379
X072500Y-024380
X072500Y-031879
X072500Y-039379
X072500Y-046879
X072500Y-054379
X074500Y-024380
X074500Y-031879
X074500Y-039379
X074500Y-046879
X074500Y-054379
X075000Y-025380
X075000Y-032879
X075000Y-040379
X075000Y-047879
X075000Y-055379
T7
X034000Y-025630
X034000Y-033129
X034000Y-040629
X034000Y-048129
X037750Y-055130
X038000Y-025630
X038000Y-033129
X038000Y-040629
X038000Y-048129
X041500Y-025129
X041500Y-032629
X041500Y-040129
X041500Y-047629
X041750Y-055130
X045500Y-025129
X045500Y-032629
X045500Y-040129
X045500Y-047629
X049000Y-024500
X049000Y-032000
X049000Y-039500
X049000Y-047000
X049000Y-054500
X053000Y-024500
X053000Y-032000
X053000Y-039500
X053000Y-047000
X053000Y-054500
X056500Y-025129
X056500Y-032629
X056500Y-040129
X056500Y-047629
X056500Y-055129
X060500Y-025129
X060500Y-032629
X060500Y-040129
X060500Y-047629
X060500Y-055129
X064000Y-026380
X064000Y-033879
X064000Y-041379
X064000Y-048879
X064000Y-056379
X068000Y-026380
X068000Y-033879
X068000Y-041379
X068000Y-048879
X068000Y-056379
X071500Y-026380
X071500Y-033879
X071500Y-041379
X071500Y-048879
X071500Y-056379
X075500Y-026380
X075500Y-033879
X075500Y-041379
X075500Y-048879
X075500Y-056379
T8
X035060Y-052380
X044460Y-052380
T9
X035060Y-058380
X036000Y-025630
X036000Y-033129
X036000Y-040629
X036000Y-048129
X039750Y-055130
X043500Y-025129
X043500Y-032629
X043500Y-040129
X043500Y-047629
X044460Y-058380
X051000Y-024500
X051000Y-032000
X051000Y-039500
X051000Y-047000
X051000Y-054500
X058500Y-025129
X058500Y-032629
X058500Y-040129
X058500Y-047629
X058500Y-055129
X066000Y-026380
X066000Y-033879
X066000Y-041379
X066000Y-048879
X066000Y-056379
X073500Y-026380
X073500Y-033879
X073500Y-041379
X073500Y-048879
X073500Y-056379
T0
M30
